<svg xmlns="http://www.w3.org/2000/svg" id="Layer_1" x="0" y="0" viewBox="0 0 32 32" xml:space="preserve"><style>.st0{fill:#4284fb}</style><path class="st0" d="M13 25.3c-1.2 0-2.2-1-2.2-2.2s1-2.2 2.2-2.2 2.2 1 2.2 2.2-1 2.2-2.2 2.2zm0-3c-.4 0-.8.3-.8.8s.3.8.8.8.8-.3.8-.8-.4-.8-.8-.8zm9.5 3c-1.2 0-2.2-1-2.2-2.2s1-2.2 2.2-2.2 2.2 1 2.2 2.2-1 2.2-2.2 2.2zm0-3c-.4 0-.8.3-.8.8s.3.8.8.8.8-.3.8-.8-.4-.8-.8-.8zm.1-3.1H11.5v-1.5h11.1c.6 0 1.1-.4 1.2-.9l1.4-5c.1-.3 0-.6-.1-.9s-.4-.5-.8-.6H9.6V8.7H24c.2 0 .5 0 .7.1.7.2 1.3.6 1.7 1.3.4.6.5 1.4.3 2.1l-1.4 5c-.4 1.2-1.4 2-2.7 2z"/><path class="st0" d="M13.6 22.2c-1.3 0-2.4-.9-2.7-2.2L8.6 8.2c-.1-.6-.6-1-1.2-1H6c-.4 0-.8-.3-.8-.8s.4-.7.8-.7h1.3c1.3 0 2.5.9 2.7 2.2l2.3 11.8c.1.6.6 1 1.2 1H24c.4 0 .8.3.8.8s-.3.8-.8.8l-10.4-.1z"/></svg>