<svg xmlns="http://www.w3.org/2000/svg" viewBox="0 0 32 32"><path d="M24.3 19.5c.1 0 .2.1.2.2v4.7c0 .1-.1.2-.2.2h-1.7c-.1 0-.2-.1-.2-.2v-4.7c0-.1.1-.2.2-.2h1.7m0-1.5h-1.7c-.9 0-1.7.7-1.7 1.7v4.7c0 .9.7 1.7 1.7 1.7h1.7c.9 0 1.7-.7 1.7-1.7v-4.7c0-1-.7-1.7-1.7-1.7zm-7.5-3.5c.1 0 .2.1.2.2v9.7c0 .1-.1.2-.2.2h-1.7c-.1 0-.2-.1-.2-.2v-9.7c0-.1.1-.2.2-.2h1.7m0-1.5h-1.7c-.9 0-1.7.7-1.7 1.7v9.7c0 .9.7 1.7 1.7 1.7h1.7c.9 0 1.7-.7 1.7-1.7v-9.7c0-1-.7-1.7-1.7-1.7zM9.3 7.5c.1 0 .2.1.2.2v16.7c0 .1-.1.2-.2.2H7.7c-.1 0-.2-.1-.2-.2V7.7c0-.1.1-.2.2-.2h1.6m0-1.5H7.7C6.7 6 6 6.7 6 7.7v16.7c0 .9.7 1.6 1.7 1.6h1.7c.9 0 1.7-.7 1.7-1.7V7.7C11 6.7 10.3 6 9.3 6z" fill="#4284fb"/></svg>