<svg xmlns="http://www.w3.org/2000/svg" id="Layer_1" x="0" y="0" viewBox="0 0 32 32" xml:space="preserve"><style>.st0{fill:#4284fb}</style><path class="st0" d="M23 26.8H9.5c-1.8 0-3.2-1.5-3.2-3.2V10c0-2.6 2.1-4.8 4.8-4.8h12c1.5 0 2.8 1.2 2.8 2.8v16c-.1 1.5-1.4 2.8-2.9 2.8zM7.8 23.5c0 1 .8 1.8 1.8 1.8H23c.7 0 1.2-.6 1.2-1.2v-2.6c-.4.2-.8.3-1.2.3H9.5c-1 0-1.7.7-1.7 1.7zM11 6.8c-1.8 0-3.2 1.5-3.2 3.2v10.8c.5-.3 1.1-.5 1.8-.5H23c.7 0 1.2-.6 1.2-1.2V8c0-.7-.6-1.2-1.2-1.2H11z"/><path class="st0" d="M10.5 21.8c-.4 0-.8-.3-.8-.8V9.7c0-.4.3-.8.8-.8s.8.3.8.8V21c-.1.4-.4.8-.8.8z"/></svg>