<svg xmlns="http://www.w3.org/2000/svg" id="Layer_1" x="0" y="0" viewBox="0 0 32 32" xml:space="preserve"><style>.st0{fill:#4284fb}</style><path class="st0" d="M7.7 23.2c-.1 0-.2 0-.3-.1-.2-.1-.4-.4-.4-.7V19c-1.2-.3-2-1.4-2-2.6v-7c0-1.5 1.2-2.8 2.8-2.8h12c1.5 0 2.8 1.2 2.8 2.8v5c0 .4-.3.8-.8.8s-.8-.4-.8-.8v-5c0-.7-.6-1.2-1.2-1.2h-12c-.8-.1-1.3.5-1.3 1.2v7c0 .7.6 1.3 1.2 1.3.4 0 .8.3.8.8v2.2l2.7-2.7c.1-.1.3-.2.5-.2h2c.4 0 .8.3.8.8s-.3.8-.8.8H12l-3.8 3.8c-.1-.1-.3 0-.5 0z"/><path class="st0" d="M25.7 25.3c-.1 0-.3 0-.4-.1l-3-2.1h-6.6c-1.5 0-2.8-1.2-2.8-2.8v-4c0-1.5 1.2-2.8 2.8-2.8h8c1.5 0 2.8 1.2 2.8 2.8v8.2c0 .3-.2.5-.4.7-.1.1-.3.1-.4.1zm-10-10.2c-.7 0-1.2.6-1.2 1.2v4c0 .7.6 1.2 1.2 1.2h6.8c.2 0 .3 0 .4.1l2 1.4v-6.8c0-.7-.6-1.2-1.2-1.2h-8z"/><path class="st0" d="M22.7 19.2h-6c-.4 0-.8-.3-.8-.8s.3-.8.8-.8h6c.4 0 .8.3.8.8s-.4.8-.8.8z"/></svg>