<svg xmlns="http://www.w3.org/2000/svg" id="Layer_1" x="0" y="0" viewBox="0 0 32 32" xml:space="preserve"><style>.st0{fill:#4284fb}</style><path class="st0" d="M20.2 26.2h-9c-1.5 0-2.8-1.2-2.8-2.8v-16c0-1.5 1.2-2.8 2.8-2.8h9C21.8 4.8 23 6 23 7.5v2c0 .4-.3.8-.8.8s-.8-.3-.8-.8v-2c0-.7-.6-1.2-1.2-1.2h-9c-.7 0-1.2.6-1.2 1.2v16c0 .7.6 1.2 1.2 1.2h9c.7 0 1.2-.6 1.2-1.2V19c0-.4.3-.8.8-.8s.8.4.8.8v4.5c0 1.5-1.2 2.7-2.8 2.7z"/><path class="st0" d="M18.8 22.3c-.1 0-.2 0-.3-.1-.3-.1-.4-.4-.4-.7v-3.2h-3.2c-1.5 0-2.8-1.2-2.8-2.8v-4c0-1.5 1.2-2.8 2.8-2.8h8c1.5 0 2.8 1.2 2.8 2.8v3.6c0 1.1-.4 2.2-1.2 3l-5.1 4.1c-.3 0-.5.1-.6.1zm-4-12c-.7 0-1.2.6-1.2 1.2v4c0 .7.6 1.2 1.2 1.2h4c.4 0 .8.3.8.8v2.4l3.8-3c.4-.4.7-1.1.7-1.8v-3.6c0-.7-.6-1.2-1.2-1.2h-8.1z"/><path class="st0" d="M21.8 14.3h-6c-.4 0-.8-.3-.8-.8s.3-.8.8-.8h6c.4 0 .8.3.8.8s-.4.8-.8.8z"/></svg>