<svg version="1.1" id="Layer_1" xmlns="http://www.w3.org/2000/svg" x="0" y="0" viewBox="0 0 500 500" xml:space="preserve"><style>.st0{fill:#0073ec}</style><path class="st0" d="M288.5 54.3c-4.4 0-8 3.6-8 8s3.6 8 8 8c27.6 0 53.8 12.4 71.3 33.8 2.5 3.6 7.5 4.5 11.1 1.9 3.6-2.5 4.5-7.5 1.9-11.1-.2-.3-.5-.6-.8-.9-20.4-25.2-51.1-39.7-83.5-39.7z"/><path class="st0" d="M481 183.6c-10.8-13.3-25.2-23.2-41.6-28.3-4.1-83.3-75-147.5-158.3-143.4-49.8 2.5-95.2 29.4-121.3 71.9-36.4-11.4-75.1 8.9-86.5 45.2-.6 2-1.1 4-1.6 6C27.4 146.6-2.5 187.8.2 233.5c3 50.8 45.9 90.1 96.8 90.1h108.8l-5.6.1 213.8-.1c47.5 0 86.1-38.5 86.1-86.1-.1-19.6-6.8-38.6-19.1-53.9zm-68.2 124l-212.4.1 5.3-.1H97c-42.5 0-78.5-32.9-80.9-75.3-2.2-39.7 25.1-75 64.1-82.9 3.4-.7 5.9-3.4 6.4-6.8 3.8-29 30.5-49.4 59.5-45.6 4.8.6 9.5 1.9 14 3.9 3.8 1.6 8.2.2 10.2-3.4 23.8-43.1 69.1-69.8 118.3-69.8 73.8 0 134.4 60 135.1 133.8 0 3.7 2.6 6.9 6.2 7.7 31.5 7.2 53.9 35.1 54.2 67.4.4 39.1-32.2 71-71.3 71zM276.7 435.4v-92c0-4.3-3.5-7.9-7.9-7.9s-7.9 3.5-7.9 7.9v92c-14.3 4.3-22.4 19.4-18.1 33.7 3.4 11.2 13.6 18.9 25.3 19.2h.6c14.9 0 27.1-12.1 27.1-27 .2-12-7.6-22.5-19.1-25.9zm-7.8 37.2h-.3c-6.3-.1-11.3-5.2-11.2-11.5s5.2-11.3 11.5-11.2h.3c3 0 5.9 1.3 7.9 3.5 4.3 4.5 4.2 11.7-.3 16-2.1 2.1-4.9 3.2-7.9 3.2zm-42.6-137.1c-4.3 0-7.8 3.5-7.9 7.8v44c0 7.6-6.1 13.7-13.7 13.7h-23.1c-4.3-14.3-19.5-22.4-33.8-18.1-14.3 4.3-22.4 19.5-18.1 33.8 4.3 14.3 19.5 22.4 33.8 18.1 8.7-2.6 15.5-9.4 18.1-18.1h23.1c16.2 0 29.4-13.2 29.4-29.4v-44c.1-4.2-3.4-7.7-7.8-7.8zm-70.6 84.9c-6.3 0-11.4-5.1-11.4-11.4s5.1-11.4 11.4-11.4c6.3 0 11.4 5.1 11.4 11.4 0 6.3-5.2 11.4-11.4 11.4zm226.4-38.5c-11.9 0-22.5 7.8-25.9 19.3H333c-7.6 0-13.7-6.1-13.7-13.7v-44c0-4.3-3.5-7.9-7.9-7.9s-7.9 3.5-7.9 7.9v44c0 16.2 13.2 29.4 29.4 29.4H356c4.4 14.3 19.5 22.4 33.8 18 14.3-4.4 22.4-19.5 18-33.8-3.3-11.4-13.8-19.2-25.7-19.2zm0 38.6c-6.3 0-11.4-5.1-11.4-11.4 0-6.3 5.1-11.4 11.4-11.4 6.3 0 11.4 5.1 11.4 11.4 0 6.3-5 11.4-11.3 11.4h-.1z"/></svg>