<svg height="464pt" viewBox="0 -11 464 463" width="464pt" xmlns="http://www.w3.org/2000/svg"><path d="M464 248.5v160c0 17.672-14.328 32-32 32H144c-17.672 0-32-14.328-32-32v-192h320c17.672 0 32 14.328 32 32zm0 0" fill="#5aaae7"/><path d="M224 136.5v176c-.027 8.824-7.176 15.973-16 16H16c-8.824-.027-15.973-7.176-16-16v-176zm0 0" fill="#ffa733"/><path d="M392 344.5c11.457.004 21.313 8.105 23.535 19.344s-3.808 22.484-14.402 26.847c-10.594 4.364-22.793.633-29.133-8.91a24.054 24.054 0 000-26.562 23.895 23.895 0 0120-10.719zm0 0" fill="#ff9811"/><path d="M372 355.219a24.054 24.054 0 010 26.562 24.003 24.003 0 01-43.992-13.281A24.003 24.003 0 01372 355.219zm0 0" fill="#ff6243"/><path d="M127.602 221.059c-1.805-8.196-9.637-13.602-17.938-12.391-8.305 1.21-14.262 8.633-13.648 17.004.617 8.371 7.593 14.84 15.984 14.828.348.012.7-.012 1.04-.078 8.41-.524 14.964-7.496 14.96-15.922a16.46 16.46 0 00-.398-3.441zm0 0" fill="#57565c"/><path d="M408 264.5h16v32h-16zm-32 0h16v32h-16zm-32 0h16v32h-16zm-32 0h16v32h-16zm-160 88h16v16h-16zm32 0h16v16h-16zm32 0h16v16h-16zm32 0h16v16h-16zm-96 32h112v16H152zm0 0" fill="#1a6fb0"/><path d="M208 136.5h-16v-64c-.035-30.914-25.086-55.965-56-56H88c-30.914.035-55.965 25.086-56 56v64H16v-64C16.047 32.754 48.254.547 88 .5h48c39.746.047 71.953 32.254 72 72zm-72 88c.05-12.219-9.086-22.523-21.223-23.938-12.132-1.414-23.394 6.512-26.156 18.415-2.762 11.902 3.86 23.98 15.379 28.05V280.5h16v-33.473a24.003 24.003 0 0016-22.527zm-24 8a8 8 0 110-16 8 8 0 010 16zm0 0" fill="#898890"/><path d="M392 192.5h-16v-120H224v-16h160a8 8 0 018 8zm-304 232H32a8 8 0 01-8-8v-64h16v56h48zm0 0" fill="#ff9811"/><path d="M408 176.5h16v16h-16zm0-32h16v16h-16zm0-32h16v16h-16zm0 0" fill="#ee8700"/></svg>