<svg xmlns="http://www.w3.org/2000/svg" viewBox="0 0 512 512"><path fill="#b48765" d="M68.955 224.04h18.211v24.353H68.955z"/><path d="M488.135.22H308.57c-13.181 0-23.866 10.685-23.866 23.866v122.65c0 13.181 10.685 23.865 23.865 23.865h6.756a7.77 7.77 0 017.771 7.771v28.736c0 4.238 5.123 6.36 8.12 3.363l37.594-37.594a7.772 7.772 0 015.495-2.276h113.83c13.18 0 23.865-10.685 23.865-23.865V24.086C512 10.905 501.315.22 488.135.22z" fill="#ffdc64"/><path d="M488.135.22h-7.179v53.738c0 51.227-41.528 92.755-92.755 92.755h-17.993a72.828 72.828 0 00-51.497 21.331l-2.597 2.597a7.772 7.772 0 016.982 7.731v28.736c0 4.238 5.123 6.36 8.12 3.363l37.594-37.594a7.772 7.772 0 015.495-2.276h113.83c13.18 0 23.865-10.685 23.865-23.865V24.086C512 10.905 501.315.22 488.135.22z" fill="#ffc850"/><path d="M373.238 52.455c0-4.569 2.474-8.9 7.425-12.993 4.948-4.091 11.851-6.14 20.703-6.14 9.042 0 16.371 2.237 21.989 6.711 5.615 4.475 8.424 10.091 8.424 16.848 0 9.138-5.375 17.848-16.119 26.129-2.485 1.999-4.323 3.975-5.512 5.925-1.192 1.953-1.905 3.666-2.142 5.14-.239 1.477-.357 3.737-.357 6.782 0 3.904-2.809 5.854-8.424 5.854-2.952 0-4.998-.656-6.14-1.968-1.142-1.312-1.713-3.797-1.713-7.456 0-8.813 3.187-15.938 9.566-21.378.285-.281 1.522-1.265 3.713-2.951 2.189-1.687 3.712-2.954 4.569-3.797.857-.843 1.807-2.132 2.856-3.868 1.046-1.736 1.57-3.494 1.57-5.274 0-3.094-1.187-5.461-3.558-7.103-2.371-1.64-5.455-2.461-9.248-2.461-3.226 0-5.881.527-7.967 1.58-2.088 1.053-3.463 2.218-4.128 3.489-.665 1.274-1.566 2.436-2.704 3.489-1.137 1.053-2.56 1.58-4.267 1.58-2.182 0-4.15-.714-5.903-2.142-1.757-1.427-2.633-3.426-2.633-5.996zm14.992 75.104c0-3.045 1.098-5.64 3.298-7.782 2.197-2.142 4.811-3.212 7.84-3.212 3.045 0 5.64 1.095 7.781 3.284 2.142 2.191 3.213 4.761 3.213 7.711 0 2.952-1.071 5.522-3.213 7.71-2.141 2.191-4.736 3.284-7.781 3.284-3.048 0-5.665-1.093-7.853-3.284-2.191-2.189-3.285-4.759-3.285-7.711z" fill="#6f4bef"/><path d="M276.337 413.459l-38.537-7.546c-17.306-3.389-29.545-16.303-29.545-31.177V338.18h-86.246v36.556c0 14.873-12.239 27.788-29.545 31.177l-38.537 7.546C22.339 419.644 0 443.217 0 470.365v31.91a9.505 9.505 0 009.505 9.505h311.253a9.505 9.505 0 009.505-9.505v-31.91c.001-27.148-22.339-50.721-53.926-56.906z" fill="#ffe1b3"/><path d="M163.64 387.202c16.588 0 31.964-5.173 44.614-13.987V338.18h-86.246v36.556c0 .151-.009.3-.011.451 12.056 7.609 26.334 12.015 41.643 12.015z" fill="#f0c891"/><path d="M258.325 303.362h-16.546v-70.851h16.546c7.869 0 14.248 6.379 14.248 14.248v42.355c0 7.869-6.379 14.248-14.248 14.248z" fill="#53515e"/><path fill="#474756" d="M239.62 232.51h14.04v70.851h-14.04z"/><path d="M68.956 232.511h16.546v70.851H68.956c-7.869 0-14.248-6.379-14.248-14.248v-42.355c0-7.869 6.379-14.248 14.248-14.248z" fill="#53515e"/><path fill="#474756" d="M74.02 232.51h13.733v70.851H74.02z"/><path d="M163.64 368.589c-43.155 0-78.139-34.984-78.139-78.139v-63.882c0-43.155 34.984-78.139 78.139-78.139 43.155 0 78.139 34.984 78.139 78.139v63.882c0 43.155-34.984 78.139-78.139 78.139z" fill="#ffe1b3"/><path d="M178.045 149.759c19.825 14.172 32.748 37.38 32.748 63.608v63.882c0 43.155-34.984 78.139-78.139 78.139-4.922 0-9.735-.46-14.404-1.33 12.795 9.147 28.464 14.531 45.391 14.531 43.155 0 78.139-34.984 78.139-78.139v-63.882c-.001-38.233-27.462-70.048-63.735-76.809z" fill="#fad7a5"/><path d="M260.258 299.587h-6.15a2.859 2.859 0 00-2.859 2.859v6.836h.002c-.004.087-.013.173-.014.261-.201 11.363-8.607 20.652-19.972 20.652h-59.292c-3.253 0-6.089 2.506-6.186 5.757a5.94 5.94 0 005.938 6.123h58.886c17.925 0 32.507-14.582 32.507-32.506 0-.097-.01-.191-.015-.287h.015v-6.836a2.86 2.86 0 00-2.86-2.859z" fill="#aae1ff"/><path d="M82.378 173.746a92.138 92.138 0 00-12.059 30.046 92.032 92.032 0 00-1.364 28.719c9.507-2.346 16.926-5.705 22.066-8.468 2.029-1.09 12.056-6.577 22.515-16.709l-31.158-33.588z" fill="#b48765"/><path d="M263.207 217.965c-6.654-24.65-17.703-48.121-35.675-65.506-5.825-5.635-27.717-26.81-60.117-28.484 0 0-33.809-1.747-63.002 23.095-8.808 7.495-16.059 16.581-22.035 26.676 27.172 38.877 67.937 63.6 113.517 63.6 11.225 0 34.677-3.424 45.884-10.778" fill="#966d50"/><path d="M227.532 152.459c-5.825-5.635-27.717-26.81-60.116-28.484 0 0-9.59-.495-22.965 2.795 22.911 6.316 38.216 21.117 42.942 25.689 17.972 17.384 29.021 40.856 35.675 65.506l-21.428 8.604c-6.509 4.271-17.147 7.214-27.122 8.933a124.838 124.838 0 0021.377 1.845c11.224 0 34.677-3.424 45.884-10.778l21.428-8.604c-6.654-24.65-17.703-48.122-35.675-65.506z" fill="#846047"/><g fill="#53515e"><circle cx="132.65" cy="257.06" r="8.661"/><circle cx="191.55" cy="257.06" r="8.661"/></g><path d="M276.336 413.459l-38.537-7.546c-5.99-1.173-11.372-3.489-15.85-6.63-15.192 13.265-35.065 21.303-56.817 21.303s-41.625-8.038-56.817-21.303c-4.479 3.142-9.86 5.458-15.85 6.63l-38.537 7.546C22.34 419.644 0 443.217 0 470.365v31.91a9.505 9.505 0 009.505 9.505h311.253a9.505 9.505 0 009.505-9.505v-31.91c.001-27.148-22.339-50.721-53.927-56.906z" fill="#ff9ea4"/><path d="M21.547 428.158C8.148 438.902 0 453.978 0 470.365v31.91a9.505 9.505 0 009.505 9.505h53.084v-38.267c0-23.642-17.999-43.077-41.042-45.355zm287.17 0c-23.043 2.278-41.042 21.713-41.042 45.355l.065 38.267h53.018a9.505 9.505 0 009.505-9.505v-31.91c.001-16.387-8.147-31.463-21.546-42.207z" fill="#ff7b97"/><path d="M163.641 325.583c-9.79 0-19.579-3.726-27.032-11.179a7.5 7.5 0 0110.607-10.606c9.056 9.057 23.791 9.058 32.849 0a7.5 7.5 0 0110.607 10.606c-7.453 7.453-17.242 11.179-27.031 11.179z" fill="#b28362"/></svg>