<svg xmlns="http://www.w3.org/2000/svg" id="Layer_1" x="0" y="0" viewBox="0 0 32 32" xml:space="preserve"><style>.st0{fill:#4284fb}</style><path class="st0" d="M16 26.4c-.5 0-1.1-.2-1.5-.5L8.7 22c-.8-.5-1.2-1.3-1.2-2.2 0-.4.3-.8.7-.8.4 0 .8.3.8.7 0 .4.2.8.6 1l5.8 3.9c.4.3 1 .3 1.4 0l5.8-3.9c.4-.2.6-.6.6-1s.3-.8.7-.8c.4 0 .7.3.8.7 0 .9-.4 1.8-1.2 2.3l-5.8 3.9c-.6.4-1.2.6-1.7.6zm0-7.6c-.5 0-.9-.1-1.3-.4-.1 0-.1 0-.2-.1l-5.8-3.9c-.6-.4-1-1-1.2-1.7s0-1.5.4-2.1c.2-.3.5-.6.8-.8L14.5 6c.9-.6 2.1-.6 3 0l5.8 3.8c1.3.8 1.6 2.5.8 3.8-.2.3-.5.6-.8.8l-5.8 3.8c-.5.4-1 .6-1.5.6zm-.8-1.8s.1 0 .1.1c.4.3 1 .3 1.4 0l5.8-3.8c.1-.1.3-.2.4-.4.4-.6.2-1.4-.4-1.7l-5.8-3.8c-.4-.3-.9-.3-1.4 0l-5.8 3.8c-.1.1-.3.2-.4.4-.1.2-.2.5-.1.8 0 .3.2.6.5.8l5.7 3.8z"/><path class="st0" d="M8.2 20.5c-.4 0-.8-.3-.8-.8v-7.5c0-.4.3-.8.8-.8s.8.3.8.8v7.5c-.1.5-.4.8-.8.8zm15.6 0c-.4 0-.8-.3-.8-.8v-7.5c0-.4.3-.8.8-.8s.8.3.8.8v7.5c0 .5-.4.8-.8.8zM16 26.3c-.4 0-.8-.3-.8-.8v-4.4c0-.4.3-.8.8-.8s.8.3.8.8v4.4c0 .5-.4.8-.8.8z"/></svg>