<svg version="1.1" id="Layer_1" xmlns="http://www.w3.org/2000/svg" x="0" y="0" viewBox="0 0 500 500" xml:space="preserve"><style>.st0{fill:#0073ec}</style><path class="st0" d="M374.9 387c-8.4 0-15.2 6.8-15.2 15.2s6.8 15.2 15.2 15.2c8.4 0 15.2-6.8 15.2-15.2 0-8.4-6.7-15.2-15.2-15.2.1 0 .1 0 0 0zm55.3 0c-8.4 0-15.2 6.8-15.2 15.2s6.8 15.2 15.2 15.2c8.4 0 15.2-6.8 15.2-15.2 0-8.4-6.8-15.2-15.2-15.2zm-113.4.1c-8.4 0-15.2 6.8-15.2 15.2s6.8 15.2 15.2 15.2c8.4 0 15.2-6.8 15.2-15.2 0-8.4-6.7-15.2-15.2-15.2.1 0 .1 0 0 0zm-15.2-144.2c0 8.4 6.8 15.2 15.2 15.2s15.2-6.8 15.2-15.2c0-8.4-6.8-15.2-15.2-15.2-8.3 0-15.2 6.8-15.2 15.2z"/><path class="st0" d="M477.9 329H22.1c-12.2 0-22 9.9-22.1 22.1v102.3c0 12.2 9.9 22 22.1 22.1h455.8c12.2 0 22-9.9 22.1-22.1V351.1c0-12.2-9.9-22.1-22.1-22.1zm5.6 124.4c0 3-2.5 5.5-5.5 5.5H22.1c-3 0-5.5-2.4-5.5-5.5V351.1c0-3 2.5-5.5 5.5-5.5H478c3 0 5.5 2.5 5.5 5.5v102.3zM359.7 242.9c0 8.4 6.8 15.2 15.2 15.2 8.4 0 15.2-6.8 15.2-15.2 0-8.4-6.8-15.2-15.2-15.2-8.3-.1-15.2 6.7-15.2 15.2 0-.1 0-.1 0 0zm70.5 15.1c8.4 0 15.2-6.8 15.2-15.2s-6.8-15.2-15.2-15.2c-8.4 0-15.2 6.8-15.2 15.2 0 8.4 6.8 15.2 15.2 15.2z"/><path class="st0" d="M477.9 169.6h-26c-4.6 0-8.3 3.7-8.3 8.3s3.7 8.3 8.3 8.3H478c3 0 5.5 2.5 5.5 5.5V294c0 3-2.5 5.5-5.5 5.5H22.1c-3 0-5.5-2.5-5.5-5.5V191.7c0-3 2.5-5.5 5.5-5.5h26c4.6 0 8.3-3.7 8.3-8.3s-3.7-8.3-8.3-8.3h-26C9.9 169.7 0 179.5 0 191.7V294c0 12.2 9.9 22.1 22.1 22.1h455.8c12.2 0 22.1-9.9 22.1-22.1V191.7c0-12.2-9.9-22.1-22.1-22.1z"/><path class="st0" d="M183.2 80.3c3.9 0 7-3.1 7.1-6.9v-28L253 101c-.4.2-.7.5-.9.8l-61.8 61.8v-46.4c.1-3.9-2.9-7.2-6.8-7.3-3.9-.1-7.2 2.9-7.3 6.8v9.1h-36.4c-3.9-.1-7.2 2.9-7.3 6.8s2.9 7.2 6.8 7.3h36.9v40.7c0 3.9 3.1 7 6.9 7.1h223.5c.1-.4.2-.4.3-.4.1 0 .3 0 .4-.1.1 0 .3 0 .4-.1.1 0 .2-.1.4-.1s.2-.1.4-.1.2-.1.3-.1.2-.1.4-.1.2-.1.4-.1.2-.1.4-.2.2-.1.3-.2l.2-.2c.1-.1.3-.2.5-.4l.1-.1.1-.1c.1-.1.3-.3.4-.5.1-.1.1-.2.2-.2s.1-.2.2-.2.1-.2.2-.4c0-.1.1-.2.1-.2.1-.1.1-.2.1-.4 0-.1.1-.2.1-.3s.1-.2.1-.4.1-.2.1-.4.1-.2.1-.4.1-.2.1-.4c0-.1 0-.2.1-.3V29.6c0-3.9-3.1-7-6.9-7.1H181.9c-.1 0-.3 0-.4.1-.1 0-.3 0-.4.1-.1 0-.2.1-.4.1s-.2.1-.4.1-.2.1-.3.1-.2.1-.4.1c-.1 0-.2 0-.2.1-.1.1-.2.1-.4.2s-.1.1-.2.2-.2.1-.4.2-.2.1-.2.2l-.2.2-.2.2-.1.1c0 .1-.1.1-.1.1-.1.1-.1.2-.2.3l-.2.2c-.1.1-.1.2-.2.3 0 .1 0 .2-.1.2-.1.1-.1.2-.1.4 0 .1-.1.2-.1.3s-.1.2-.1.4-.1.2-.1.4-.1.2-.1.4-.1.2-.1.3c0 .1 0 .3-.1.4v44.7c0 3.9 3.1 7 6.9 7.1 0 .3 0 .3.1.3zm17 93.1l61.8-61.8c.5-.5.9-1 1.3-1.6l26.3 23.3c2.6 2.3 6.5 2.3 9.2.1l26.9-22.8c.2.4.5.7.8 1l61.8 61.8H200.2zM398.4 36.6v126.8l-61.8-61.8-.1-.1L382.9 62c2.9-2.6 3.1-7.1.5-10-2.5-2.8-6.8-3.1-9.7-.8l-79.3 67.4-92.7-82h196.7z"/><path class="st0" d="M94.2 102.9h119.1c3.9-.1 7-3.4 6.8-7.3-.1-3.7-3.1-6.7-6.8-6.8H94.2c-3.9.1-7 3.4-6.8 7.3.2 3.7 3.1 6.7 6.8 6.8zm12.3-38.8H160c3.9.1 7.2-2.9 7.3-6.8s-2.9-7.2-6.8-7.3h-54c-3.9-.1-7.2 2.9-7.3 6.8-.1 3.9 2.9 7.2 6.8 7.3h.5zM94.2 169.6H146c3.9 0 7-3.1 7.1-6.9v-.2c0-3.9-3.2-7.1-7.1-7.1H94.2c-3.9.1-7 3.4-6.8 7.3.2 3.8 3.1 6.8 6.8 6.9z"/></svg>