<svg class="shape-bg" xmlns="http://www.w3.org/2000/svg" viewBox="0 0 612 792"><path fill="#0073EC" d="M464.929 97.191L163.626 256.896c-17.688 9.375-35.559 10.94-53.614 4.696s-30.653-18.361-37.793-36.351L3.06 51.157C1.928 47.946 0 39.269 0 39.269V0h612.03v19.21L497.611 79.839l-32.682 17.352z"/><path opacity=".1" fill="#FFF" d="M438.826 128.037L455.229 35.1a41.986 41.986 0 0113.893-24.696A36.719 36.719 0 01494.123 0H612.03v22.155L438.826 128.037z"/><linearGradient id="a" gradientUnits="userSpaceOnUse" x1="102.077" y1="750.829" x2="185.367" y2="750.829" gradientTransform="matrix(3.0602 0 0 -3.0602 -1.03 2425.671)"><stop offset="0" stop-color="#fff" stop-opacity="0"/><stop offset=".06" stop-color="#fff" stop-opacity=".28"/><stop offset=".14" stop-color="#fff" stop-opacity=".65"/><stop offset=".17" stop-color="#fff" stop-opacity=".8"/><stop offset=".22" stop-color="#fff" stop-opacity=".85"/><stop offset=".31" stop-color="#fff" stop-opacity=".92"/><stop offset=".42" stop-color="#fff" stop-opacity=".97"/><stop offset=".57" stop-color="#fff" stop-opacity=".99"/><stop offset="1" stop-color="#fff"/></linearGradient><path opacity=".1" fill="url(#a)" d="M311.34 205.948s2.387-26.501 2.693-28.429l15.301-92.325a41.992 41.992 0 0113.924-24.696 36.719 36.719 0 0125.001-10.404H566.22L311.34 205.948z"/><path fill="#0073EC" d="M465.929 97.639L164.626 261.366c-17.688 9.611-35.559 11.216-53.614 4.814-18.055-6.401-30.653-18.823-37.793-37.266L4.06 50.445C2.928 47.153 1 38.258 1 38.258V-2h612.03v19.694L498.611 79.85l-32.682 17.789z"/><path opacity=".1" fill="#FFF" d="M442.899 111.271l15.919-80.767c1.581-8.337 6.348-15.923 13.483-21.462C478.809 3.37 487.487.136 496.567 0H611v19.254l-168.101 92.017z"/><linearGradient id="b" gradientUnits="userSpaceOnUse" x1="81.866" y1="743.924" x2="165.155" y2="743.924" gradientTransform="matrix(3.0564 .1508 .1508 -3.0564 -113.924 2402.956)"><stop offset="0" stop-color="#fff" stop-opacity="0"/><stop offset=".06" stop-color="#fff" stop-opacity=".28"/><stop offset=".14" stop-color="#fff" stop-opacity=".65"/><stop offset=".17" stop-color="#fff" stop-opacity=".8"/><stop offset=".22" stop-color="#fff" stop-opacity=".85"/><stop offset=".31" stop-color="#fff" stop-opacity=".92"/><stop offset=".42" stop-color="#fff" stop-opacity=".97"/><stop offset=".57" stop-color="#fff" stop-opacity=".99"/><stop offset="1" stop-color="#fff"/></linearGradient><path opacity=".1" fill="url(#b)" d="M244.654 219.372s3.689-26.351 4.091-28.262l19.833-91.458a41.98 41.98 0 0115.125-23.979 36.72 36.72 0 0125.483-9.159l197.72 9.756-262.252 143.102z"/></svg>