<svg xmlns="http://www.w3.org/2000/svg" width="612" height="792"><path fill="#0073EC" d="M450.199 115.193L159.8 170.352c-17.75 4.144-35.683 4.835-53.801 2.076s-30.76-8.114-37.925-16.064L3.202 100.058C2.065 98.64.131 94.805.131 94.805V77.451h614.171v8.489l-69.774 49.943-94.329-20.69z"/><path opacity=".1" fill="#FFF" d="M543.562 136.888l-5.844-40.116c-.636-4.139.674-8.008 3.709-10.948 2.654-2.985 6.991-4.843 12.128-5.192l65.052-3.564 3.551 9.445-78.596 50.375z"/><linearGradient id="a" gradientUnits="userSpaceOnUse" x1="56.997" y1="45.983" x2="147.788" y2="45.983" gradientTransform="translate(-2.06 .961) scale(3.0602)"><stop offset="0" stop-color="#fff" stop-opacity="0"/><stop offset=".06" stop-color="#fff" stop-opacity=".28"/><stop offset=".14" stop-color="#fff" stop-opacity=".65"/><stop offset=".17" stop-color="#fff" stop-opacity=".8"/><stop offset=".22" stop-color="#fff" stop-opacity=".85"/><stop offset=".31" stop-color="#fff" stop-opacity=".92"/><stop offset=".42" stop-color="#fff" stop-opacity=".97"/><stop offset=".57" stop-color="#fff" stop-opacity=".99"/><stop offset="1" stop-color="#fff"/></linearGradient><path opacity=".1" fill="url(#a)" d="M172.363 168.165s2.602-9.008 2.937-9.663l16.679-31.379c1.785-3.262 7.15-6.229 15.178-8.394 7.307-2.218 17.056-3.483 27.253-3.536H450.2l-277.837 52.972z"/></svg>