<svg xmlns="http://www.w3.org/2000/svg" width="612" height="613" viewBox="0 127.5 612 613"><path fill="none" d="M248.741 425.767l194.05 112.026a4.141 4.141 0 010 7.022L318.173 616.09a16.082 16.082 0 01-16.028 0L108.073 504.04a4.14 4.14 0 010-7.019l124.64-71.256a16.092 16.092 0 0116.028.002z"/><path opacity=".024" fill="#FBFCFC" d="M248.802 425.767l193.473 111.698a4.14 4.14 0 010 6.999L318.03 615.489a16.028 16.028 0 01-15.968 0L108.593 503.793a4.14 4.14 0 010-6.998l124.245-71.028a16.026 16.026 0 0115.964 0z"/><path opacity=".049" fill="#F6F6F8" d="M248.928 425.953l192.891 111.365a4.017 4.017 0 010 6.975l-123.895 70.821a15.985 15.985 0 01-15.924 0L109.11 503.753a4.016 4.016 0 010-6.978l123.872-70.82a15.98 15.98 0 0115.942 0l.004-.002z"/><path opacity=".073" fill="#F3F2F3" d="M248.968 426.1l192.29 111.032a4.016 4.016 0 010 6.958l-123.479 70.573a15.946 15.946 0 01-15.882 0L109.609 503.628a4.016 4.016 0 010-6.959l123.501-70.594a15.924 15.924 0 0115.86.023l-.002.002z"/><path opacity=".098" fill="#EDEDF0" d="M249.053 426.18l191.708 110.684a3.998 3.998 0 010 6.936l-123.149 70.407a15.883 15.883 0 01-15.82 0l-191.688-110.68a3.997 3.997 0 010-6.94l123.125-70.404a15.883 15.883 0 0115.82 0l.004-.003z"/><path opacity=".122" fill="#E9E9EC" d="M249.133 426.326l191.112 110.353a3.979 3.979 0 010 6.916L317.469 613.73a15.837 15.837 0 01-15.777 0L110.601 503.398a3.98 3.98 0 010-6.916l122.755-70.179a15.844 15.844 0 0115.781.021l-.004.002z"/><path opacity=".146" fill="#E4E4EA" d="M249.237 426.448l190.509 110.001a3.978 3.978 0 010 6.895l-122.317 69.93a15.772 15.772 0 01-15.74 0l-190.51-109.997a3.98 3.98 0 010-6.899l122.32-69.952a15.786 15.786 0 0115.738.022z"/><path opacity=".171" fill="#E0E0E6" d="M249.298 426.47l189.935 109.753a3.954 3.954 0 010 6.873L317.242 612.8a15.74 15.74 0 01-15.676 0L111.635 503.047a3.954 3.954 0 010-6.873l121.99-69.64a15.738 15.738 0 0115.676-.063l-.003-.001z"/><path opacity=".195" fill="#DBDBE3" d="M249.359 426.678l189.353 109.315a3.95 3.95 0 010 6.853L317.117 612.34a15.702 15.702 0 01-15.637 0L112.152 503.007a3.954 3.954 0 010-6.833l121.595-69.518a15.697 15.697 0 0115.615.021l-.003.001z"/><path opacity=".22" fill="#D7D7DE" d="M249.466 426.804l188.75 108.981a3.935 3.935 0 010 6.814l-121.223 69.268a15.644 15.644 0 01-15.593 0L112.65 502.881a3.936 3.936 0 010-6.812l121.243-69.31a15.64 15.64 0 0115.573.045z"/><path opacity=".244" fill="#D3D2DB" d="M249.528 426.926l188.171 108.63a3.915 3.915 0 010 6.793l-120.747 69.04a15.59 15.59 0 01-15.53 0L113.25 502.759a3.913 3.913 0 010-6.793l120.766-69.083a15.594 15.594 0 0115.514.043h-.002z"/><path opacity=".268" fill="#CECFD7" d="M249.632 427.03L437.2 535.332a3.914 3.914 0 010 6.773l-120.476 68.831a15.544 15.544 0 01-15.49 0l-187.57-108.302a3.915 3.915 0 010-6.773l120.479-68.874a15.552 15.552 0 0115.489.043z"/><path opacity=".293" fill="#CACAD4" d="M249.696 427.112l186.988 107.95a3.892 3.892 0 010 6.75L316.58 610.458a15.491 15.491 0 01-15.428 0l-186.989-107.95a3.892 3.892 0 010-6.751l120.105-68.646a15.49 15.49 0 0115.425 0h.003z"/><path opacity=".317" fill="#C5C5D0" d="M249.797 427.238l186.369 107.681a3.893 3.893 0 010 6.725l-119.71 68.337a15.456 15.456 0 01-15.386 0L114.701 502.3a3.893 3.893 0 010-6.727l119.71-68.333a15.442 15.442 0 0115.386-.002z"/><path opacity=".341" fill="#C1C1CC" d="M249.922 427.382l185.746 107.283a3.875 3.875 0 010 6.714l-119.316 68.146a15.406 15.406 0 01-15.346 0L115.197 502.26a3.874 3.874 0 010-6.707l119.34-68.211a15.406 15.406 0 0115.385.04z"/><path opacity=".366" fill="#BCBCC9" d="M249.922 427.486L435.15 534.442a3.855 3.855 0 010 6.686l-118.965 67.963a15.34 15.34 0 01-15.285 0L115.699 502.159a3.852 3.852 0 010-6.688l118.963-68.005a15.346 15.346 0 0115.263.021l-.003-.001z"/><path opacity=".39" fill="#B8B9C6" d="M250.023 427.611l184.631 106.602a3.85 3.85 0 010 6.671l-118.551 67.732a15.304 15.304 0 01-15.242 0L116.234 502.012a3.852 3.852 0 010-6.667l118.572-67.775a15.297 15.297 0 0115.22.043l-.003-.002z"/><path opacity=".415" fill="#B3B3C1" d="M250.127 427.712l184.089 106.274a3.83 3.83 0 010 6.646l-118.26 67.527a15.238 15.238 0 01-15.199 0L116.73 501.908a3.831 3.831 0 010-6.646l118.198-67.566a15.236 15.236 0 0115.199.016z"/><path opacity=".439" fill="#B0AFBE" d="M250.192 427.838l183.425 105.897a3.83 3.83 0 010 6.628l-117.825 67.342a15.202 15.202 0 01-15.138 0L117.229 501.804a3.83 3.83 0 010-6.624l117.829-67.342a15.202 15.202 0 0115.138 0h-.004z"/><path opacity=".463" fill="#ABABBB" d="M250.274 427.924L433.121 533.53a3.809 3.809 0 010 6.602l-117.434 67.055a15.158 15.158 0 01-15.096 0L117.746 501.578a3.81 3.81 0 010-6.607l117.431-67.133a15.16 15.16 0 0115.098.082l-.001.004z"/><path opacity=".488" fill="#A6A6B7" d="M250.378 428.064L432.604 533.3a3.79 3.79 0 010 6.585l-117.061 66.907a15.095 15.095 0 01-15.055 0L118.263 501.56a3.788 3.788 0 010-6.589l117.061-66.925a15.091 15.091 0 0115.054.018z"/><path opacity=".512" fill="#A2A2B3" d="M250.479 428.211l181.669 104.885a3.788 3.788 0 010 6.565l-116.751 66.638a15.054 15.054 0 01-14.991 0L118.737 501.412a3.788 3.788 0 010-6.565l116.687-66.702a15.054 15.054 0 0115.055.063v.003z"/><path opacity=".537" fill="#9D9DAF" d="M250.501 428.291l181.091 104.554a3.768 3.768 0 010 6.545l-116.296 66.534a15.013 15.013 0 01-14.951 0L119.257 501.309a3.77 3.77 0 010-6.543l116.313-66.492a15.006 15.006 0 0114.93.021l.001-.004z"/><path opacity=".561" fill="#9899AC" d="M250.605 428.376l180.488 104.202a3.77 3.77 0 010 6.52l-115.965 66.265a14.957 14.957 0 01-14.908 0L119.731 501.164a3.77 3.77 0 010-6.523l115.965-66.265a14.954 14.954 0 0114.909 0z"/><path opacity=".585" fill="#9594A8" d="M250.688 428.499L430.594 532.37a3.75 3.75 0 010 6.5l-115.545 66.059a14.9 14.9 0 01-14.851 0L120.292 501.058a3.747 3.747 0 010-6.503l115.546-66.059a14.902 14.902 0 0114.85 0v.003z"/><path opacity=".61" fill="#9190A5" d="M250.77 428.627l179.307 103.535a3.727 3.727 0 010 6.48l-115.176 65.83a14.87 14.87 0 01-14.804 0l-179.31-103.538a3.726 3.726 0 010-6.48l115.178-65.83a14.87 14.87 0 0114.804 0l.001.003z"/><path opacity=".634" fill="#8C8BA1" d="M250.831 428.771L429.56 531.954a3.727 3.727 0 010 6.463l-114.762 65.582a14.806 14.806 0 01-14.765 0L121.308 500.813a3.726 3.726 0 010-6.463l114.781-65.621a14.8 14.8 0 0114.742.042z"/><path opacity=".659" fill="#87889D" d="M250.957 428.894l178.086 102.835a3.708 3.708 0 010 6.442l-114.432 65.354a14.77 14.77 0 01-14.701 0L121.825 500.688a3.706 3.706 0 010-6.442l114.407-65.394a14.768 14.768 0 0114.725.042z"/><path opacity=".683" fill="#83829A" d="M250.997 428.997l177.547 102.501a3.706 3.706 0 010 6.42l-114.016 65.104a14.704 14.704 0 01-14.658 0l-177.55-102.5a3.706 3.706 0 010-6.42l114.037-65.146a14.704 14.704 0 0114.64.041z"/><path opacity=".707" fill="#7E7E96" d="M251.061 429.019L428.005 531.19a3.684 3.684 0 010 6.397l-113.642 65.024a14.658 14.658 0 01-14.597 0l-176.929-102.11a3.688 3.688 0 010-6.394l113.646-65.025a14.657 14.657 0 0114.578-.063z"/><path opacity=".732" fill="#7B7992" d="M251.018 429.185l176.366 101.818a3.686 3.686 0 010 6.38l-113.269 64.75a14.624 14.624 0 01-14.495 0l-176.287-101.82a3.686 3.686 0 010-6.377l113.272-64.752a14.616 14.616 0 0114.413.001z"/><path opacity=".756" fill="#76758F" d="M251.248 429.35l175.766 101.47a3.668 3.668 0 010 6.356l-112.897 64.483a14.496 14.496 0 01-14.495 0l-175.767-101.47a3.668 3.668 0 010-6.357l112.898-64.526a14.494 14.494 0 0114.495.044z"/><path opacity=".78" fill="#71728B" d="M251.309 429.453l175.185 101.133a3.646 3.646 0 010 6.341l-112.378 64.275a14.496 14.496 0 01-14.495 0L124.374 500.088a3.646 3.646 0 010-6.338l112.501-64.318a14.497 14.497 0 0114.434.021z"/><path opacity=".805" fill="#6D6D88" d="M251.349 429.661l174.588 100.803a3.643 3.643 0 010 6.212l-111.986 64.07a14.498 14.498 0 01-14.496 0L124.87 499.94a3.646 3.646 0 010-6.213L237 429.536a14.496 14.496 0 0114.352.122l-.003.003z"/><path opacity=".829" fill="#6A6984" d="M251.517 429.661l173.942 100.451a3.622 3.622 0 010 6.212l-111.821 63.884a14.497 14.497 0 01-14.37 0L125.322 499.754a3.623 3.623 0 010-6.212l111.822-63.881a14.498 14.498 0 0114.373 0z"/><path opacity=".854" fill="#646481" d="M251.578 429.806l173.404 100.163a3.622 3.622 0 010 6.211l-111.366 63.595a14.373 14.373 0 01-14.309 0L125.904 499.649a3.625 3.625 0 010-6.212l111.366-63.676a14.37 14.37 0 0114.308.045z"/><path opacity=".878" fill="#60607E" d="M251.661 429.906l172.804 99.812a3.602 3.602 0 010 6.212l-110.992 63.428a14.336 14.336 0 01-14.266 0L126.503 499.57a3.602 3.602 0 010-6.212l110.992-63.452a14.33 14.33 0 0114.168 0h-.002z"/><path opacity=".902" fill="#5B5B7A" d="M251.639 430.074l172.226 99.396a3.581 3.581 0 010 6.212l-110.536 63.075a14.267 14.267 0 01-14.229 0l-172.223-99.395a3.581 3.581 0 010-6.212l110.619-63.244a14.269 14.269 0 0114.143.168z"/><path opacity=".927" fill="#575777" d="M251.808 430.219l171.645 99.086a3.581 3.581 0 010 6.211l-110.23 62.911a14.22 14.22 0 01-14.165 0l-171.645-99.086a3.58 3.58 0 010-6.212l110.246-63.015a14.223 14.223 0 0114.143.104l.006.001z"/><path opacity=".951" fill="#525273" d="M251.991 430.262l170.942 98.733a3.56 3.56 0 010 6.212L313.1 598.014a14.18 14.18 0 01-14.123 0l-171.044-98.756a3.562 3.562 0 010-6.212l109.854-62.806a14.162 14.162 0 0114.204.022z"/><path opacity=".976" fill="#4D4E6F" d="M251.991 430.384l170.443 98.36a3.561 3.561 0 010 6.212l-109.459 62.602a14.119 14.119 0 01-14.082 0L128.431 499.13a3.563 3.563 0 010-6.212l109.481-62.577a14.12 14.12 0 0114.079.04v.003z"/><path fill="#4A496C" d="M252.116 430.427L421.919 528.5a3.54 3.54 0 010 6.211l-109.172 62.412a14.082 14.082 0 01-14.018 0L128.927 499.05a3.54 3.54 0 010-6.212l109.107-62.368a14.077 14.077 0 0114.082-.043z"/><linearGradient id="a" gradientUnits="userSpaceOnUse" x1="1540.275" y1="107.162" x2="1608.9" y2="107.162" gradientTransform="matrix(3.06 0 0 -3.06 -4471.81 706.736)"><stop offset="0" stop-color="#eae9ea"/><stop offset="1" stop-color="#9ba7d5"/></linearGradient><path fill="url(#a)" d="M451.427 363.29v150.378a4.141 4.141 0 01-6.069 3.5l-199.58-115.215a8.783 8.783 0 01-4.345-7.601V243.975a4.14 4.14 0 016.065-3.501l199.515 115.197a8.781 8.781 0 014.41 7.619h.004z"/><path fill="#4A496C" d="M448.841 365.01v150.441a4.141 4.141 0 01-6.069 3.501L243.23 403.694a8.783 8.783 0 01-4.388-7.619v-150.46a4.14 4.14 0 016.068-3.418l199.539 115.24a8.78 8.78 0 014.389 7.573h.003z"/><path fill="#FFF" d="M437.014 504.457L249.258 395.411V257.87l187.755 109.025.001 137.562z"/><path fill="#F7F8F8" d="M437.014 504.457L249.258 395.411V257.87l187.755 109.025.001 137.562z"/><linearGradient id="b" gradientUnits="userSpaceOnUse" x1="1494.976" y1="65.301" x2="1607.02" y2="65.301" gradientTransform="matrix(3.06 0 0 -3.06 -4471.81 706.736)"><stop offset="0" stop-color="#fff"/><stop offset="1" stop-color="#9ba7d5"/></linearGradient><path fill="url(#b)" d="M246.92 410.959l197.817 108.529s3.127 8.344-2.068 11.575L316.891 602.9a16.216 16.216 0 01-16.154 0l-195.77-113.024c-2.775-1.572-2.072-11.555-2.072-11.555l127.847-67.402a16.213 16.213 0 0116.175.04h.003z"/><path fill="#F7F8F8" d="M246.899 403.217l195.77 113.021a4.14 4.14 0 010 7.084l-125.778 71.854a16.216 16.216 0 01-16.154 0l-195.77-113.023a4.14 4.14 0 010-7.082l125.778-71.877a16.218 16.218 0 0116.154.023z"/><path fill="#E5E9F4" d="M223.87 496.174l51.604 29.798a1.08 1.08 0 010 1.866l-33.131 18.947a4.286 4.286 0 01-4.266 0l-51.604-29.799a1.08 1.08 0 010-1.868l33.131-18.944a4.266 4.266 0 014.266 0z"/><path fill="#D5DAED" d="M243.233 414.172l-5.386 3.084a.643.643 0 000 1.117l10.833 6.212c.429.248.957.248 1.386 0l5.385-3.084a.643.643 0 000-1.117l-10.832-6.212a1.384 1.384 0 00-1.386 0zm15.86 9.522l-5.361 3.088a.642.642 0 000 1.117l10.83 6.211c.429.248.957.248 1.386 0l5.386-3.084a.644.644 0 000-1.12l-10.833-6.212a1.387 1.387 0 00-1.408 0zm15.946 8.887l-5.383 3.084a.643.643 0 000 1.117l10.833 6.212c.429.247.958.247 1.386 0l5.386-3.085a.642.642 0 000-1.116l-10.833-6.212a1.385 1.385 0 00-1.389 0zm16.423 9.234l-5.386 3.085a.642.642 0 000 1.119l10.833 6.213c.429.246.958.246 1.386 0l5.386-3.089a.642.642 0 000-1.116l-10.833-6.212a1.389 1.389 0 00-1.386 0zm15.756 8.801l-5.386 3.085a.643.643 0 000 1.12l10.833 6.211c.429.248.957.248 1.386 0l5.386-3.087a.642.642 0 000-1.117l-10.831-6.212a1.412 1.412 0 00-1.388 0zm15.324 9.462l-5.386 3.087a.642.642 0 000 1.117l10.833 6.212c.43.243.956.243 1.386 0l5.386-3.084a.642.642 0 000-1.12l-10.832-6.212a1.386 1.386 0 00-1.387 0zm16.047 8.843l-5.383 3.088a.642.642 0 000 1.117l10.833 6.212c.429.247.957.247 1.386 0l5.386-3.085a.64.64 0 000-1.12l-10.832-6.212a1.39 1.39 0 00-1.387 0h-.003zm15.82 9.4l-5.383 3.088a.64.64 0 000 1.117l10.833 6.212c.429.247.957.247 1.386 0l5.386-3.085a.64.64 0 000-1.12l-10.832-6.212a1.39 1.39 0 00-1.387 0h-.003zm15.615 9.174l-5.466 3.088a.64.64 0 000 1.117l10.829 6.212c.43.247.957.247 1.387 0l5.386-3.085a.642.642 0 000-1.12l-10.832-6.212a1.387 1.387 0 00-1.304 0zm16.32 9.443l-5.386 3.086a.641.641 0 000 1.119l10.832 6.211c.429.248.957.248 1.387 0l5.386-3.087a.642.642 0 000-1.116l-10.832-6.213a1.39 1.39 0 00-1.387 0zm15.924 8.948l-5.386 3.085a.641.641 0 000 1.117l10.833 6.211c.429.248.957.248 1.386 0l5.387-3.084a.64.64 0 000-1.12l-10.832-6.212a1.393 1.393 0 00-1.388 0v.003zm-180.274-79.358a1.531 1.531 0 00.547 2.094l.004.002 7.354 4.144a3.066 3.066 0 003.146 0l7.124-4.369a1.531 1.531 0 000-2.633l-7.163-4.14a3.067 3.067 0 00-3.088 0l-7.329 4.327a1.516 1.516 0 00-.595.575zm16.392 9.493a1.53 1.53 0 00.575 2.086l.007.004 7.35 4.14c.969.58 2.179.58 3.148 0l7.121-4.369a1.53 1.53 0 000-2.632l-7.16-4.14a3.058 3.058 0 00-3.091 0l-7.329 4.305a1.523 1.523 0 00-.621.606zm16.282 8.833a1.627 1.627 0 00.306 2.223l7.35 4.14c.969.58 2.179.58 3.148 0l7.124-4.369a1.53 1.53 0 000-2.632l-7.167-4.141a3.064 3.064 0 00-3.084 0l-7.372 4.33c-.083.16-.186.312-.305.449zm16.662 9.371a1.53 1.53 0 00.581 2.088l7.353 4.14c.97.58 2.18.58 3.149 0l7.121-4.369a1.531 1.531 0 000-2.629l-7.161-4.141a3.061 3.061 0 00-3.09 0l-7.329 4.306a1.515 1.515 0 00-.624.605zm14.951 8.778a1.53 1.53 0 00.581 2.087l7.353 4.145a3.066 3.066 0 003.146 0l7.124-4.37a1.53 1.53 0 000-2.631l-7.164-4.142a3.065 3.065 0 00-3.087 0l-7.329 4.31a1.524 1.524 0 00-.624.601zm15.178 9.4a1.53 1.53 0 00.582 2.09l7.353 4.141c.97.579 2.178.579 3.146 0l7.124-4.37a1.53 1.53 0 000-2.631l-7.164-4.141a3.064 3.064 0 00-3.084 0l-7.332 4.306a1.539 1.539 0 00-.621.605h-.004zm16.175 8.906a1.53 1.53 0 00.582 2.088l7.351 4.143c.97.58 2.18.58 3.148 0l7.12-4.369a1.53 1.53 0 000-2.632l-7.16-4.141a3.063 3.063 0 00-3.091 0l-7.329 4.309a1.519 1.519 0 00-.621.602zm15.968 9.007a1.533 1.533 0 00.578 2.086l.003.001 7.348 4.141a3.066 3.066 0 003.151 0l7.12-4.366a1.529 1.529 0 000-2.632l-7.163-4.141a3.062 3.062 0 00-3.088 0l-7.328 4.306a1.543 1.543 0 00-.625.605h.004zm15.611 9.588a1.53 1.53 0 00.582 2.087l7.35 4.143c.971.58 2.181.58 3.149 0l7.123-4.369a1.53 1.53 0 000-2.632l-7.166-4.141a3.066 3.066 0 00-3.085 0l-7.332 4.309a1.528 1.528 0 00-.621.603zm17.017 10.018a1.527 1.527 0 00.561 2.09l.005.004 7.354 4.141a3.066 3.066 0 003.146 0l7.124-4.369a1.53 1.53 0 000-2.632l-7.164-4.142a3.065 3.065 0 00-3.087 0l-7.311 4.31a1.52 1.52 0 00-.628.598zm15.414 8.376a1.53 1.53 0 00.658 2.062l.002.002 7.354 4.14a3.066 3.066 0 003.146 0l7.021-4.369a1.529 1.529 0 000-2.632l-7.163-4.138a3.06 3.06 0 00-3.084 0l-7.332 4.306a1.49 1.49 0 00-.602.629zm-176.04-82.835a1.532 1.532 0 00.578 2.086l.003.001 7.35 4.142c.97.581 2.182.581 3.152 0l7.121-4.37a1.53 1.53 0 000-2.631l-7.164-4.142a3.065 3.065 0 00-3.087 0l-7.329 4.31a1.525 1.525 0 00-.624.604zm16.442 9.545a1.531 1.531 0 00.574 2.086l.007.004 7.353 4.141a3.066 3.066 0 003.146 0l7.124-4.369a1.53 1.53 0 000-2.632l-7.164-4.142a3.064 3.064 0 00-3.084 0l-7.332 4.31a1.508 1.508 0 00-.624.602zm15.946 8.864a1.529 1.529 0 00.581 2.087l7.35 4.141c.97.58 2.18.58 3.149 0l7.124-4.369a1.531 1.531 0 000-2.629l-7.163-4.141a3.066 3.066 0 00-3.085 0l-7.332 4.306a1.521 1.521 0 00-.624.605zm16.979 9.235a1.53 1.53 0 00.579 2.085l.003.002 7.354 4.144a3.07 3.07 0 003.146 0l7.124-4.37a1.53 1.53 0 000-2.632l-7.164-4.14a3.056 3.056 0 00-3.087 0l-7.329 4.309c-.263.136-.48.346-.626.602zm15.034 8.819a1.532 1.532 0 00.574 2.087l.007.004 7.35 4.141c.97.581 2.182.581 3.152 0l7.121-4.369a1.53 1.53 0 000-2.632l-7.163-4.139a3.067 3.067 0 00-3.088 0l-7.329 4.307a1.54 1.54 0 00-.624.605v-.004zm15.117 9.383a1.53 1.53 0 00.581 2.088l7.353 4.143a3.066 3.066 0 003.146 0l7.124-4.369a1.53 1.53 0 000-2.632l-7.164-4.141a3.06 3.06 0 00-3.087 0l-7.329 4.306a1.51 1.51 0 00-.624.605zm16.236 8.885a1.53 1.53 0 00.581 2.087l7.35 4.141c.97.58 2.18.58 3.148 0l7.123-4.37a1.527 1.527 0 000-2.632l-7.166-4.14a3.061 3.061 0 00-3.085 0l-7.328 4.309a1.527 1.527 0 00-.625.604l.002.001zm15.881 9.006a1.53 1.53 0 00.578 2.085l.003.002 7.351 4.144c.97.58 2.18.58 3.148 0l7.124-4.37a1.53 1.53 0 000-2.632l-7.163-4.14a3.062 3.062 0 00-3.088 0l-7.329 4.309a1.526 1.526 0 00-.624.602zm15.634 9.587a1.53 1.53 0 00.578 2.085l.003.002 7.354 4.144a3.07 3.07 0 003.146 0l7.124-4.369a1.531 1.531 0 000-2.633l-7.164-4.14a3.06 3.06 0 00-3.087 0l-7.329 4.306c-.264.136-.48.347-.625.605zm17.001 10.026a1.53 1.53 0 00.578 2.085l.004.002 7.35 4.141a3.068 3.068 0 003.152 0l7.12-4.37a1.53 1.53 0 000-2.632l-7.163-4.137a3.062 3.062 0 00-3.088 0l-7.329 4.306a1.515 1.515 0 00-.624.605zm15.31 8.447a1.53 1.53 0 00.723 2.045l7.351 4.144c.97.58 2.181.58 3.148 0l7.06-4.435a1.53 1.53 0 000-2.629l-7.163-4.14a3.057 3.057 0 00-3.088 0l-7.329 4.306a1.518 1.518 0 00-.702.709zm-175.938-82.913a1.53 1.53 0 00.578 2.085l.003.002 7.35 4.141c.97.582 2.182.582 3.152 0l7.121-4.369a1.531 1.531 0 000-2.629l-7.164-4.141a3.06 3.06 0 00-3.084 0l-7.332 4.306a1.51 1.51 0 00-.624.605zm16.441 9.464a1.533 1.533 0 00.581 2.089l7.353 4.14a3.066 3.066 0 003.146 0l7.124-4.37a1.53 1.53 0 000-2.631l-7.164-4.141a3.06 3.06 0 00-3.087 0l-7.329 4.309a1.538 1.538 0 00-.625.603l.001.001zm15.967 8.945a1.53 1.53 0 00.581 2.087l7.35 4.141c.97.58 2.18.58 3.149 0l7.124-4.369a1.531 1.531 0 000-2.629l-7.167-4.142a3.064 3.064 0 00-3.084 0l-7.332 4.307a1.514 1.514 0 00-.621.605zm16.701 9.436a1.528 1.528 0 00.856 1.986l.004.002 7.35 4.141c.97.58 2.18.58 3.149 0l7.124-4.366a1.53 1.53 0 000-2.632l-7.167-4.141a3.064 3.064 0 00-3.084 0l-7.35 4.141a1.537 1.537 0 00-.882.869zm15.209 8.599a1.53 1.53 0 00.578 2.085l.003.002 7.35 4.145c.97.579 2.18.579 3.149 0l7.124-4.37a1.531 1.531 0 000-2.633l-7.163-4.14a3.067 3.067 0 00-3.088 0l-7.329 4.306a1.521 1.521 0 00-.624.605zm15.199 9.403a1.53 1.53 0 00.581 2.087l7.35 4.141c.97.581 2.182.581 3.152 0l7.121-4.37a1.53 1.53 0 000-2.632l-7.164-4.14a3.056 3.056 0 00-3.087 0l-7.329 4.309a1.527 1.527 0 00-.625.604l.001.001zm16.353 8.795a1.528 1.528 0 00.48 2.108l.003.002 7.353 4.141a3.066 3.066 0 003.146 0l7.124-4.369a1.531 1.531 0 000-2.629l-7.164-4.141a3.06 3.06 0 00-3.084 0l-7.353 4.389a1.515 1.515 0 00-.505.499zm15.783 9.137a1.53 1.53 0 00.646 2.065l7.354 4.144a3.066 3.066 0 003.146 0l7.037-4.37a1.528 1.528 0 000-2.631l-7.16-4.141a3.06 3.06 0 00-3.087 0l-7.329 4.306a1.53 1.53 0 00-.606.624v.003h-.001zm15.667 9.541a1.53 1.53 0 00.63 2.07l.003.001 7.354 4.141c.971.58 2.181.58 3.148 0l7.124-4.37a1.529 1.529 0 000-2.628l-7.271-4.141a3.061 3.061 0 00-3.085 0l-7.331 4.327c-.242.144-.44.351-.572.6zm16.971 10.049a1.53 1.53 0 00.581 2.087l7.351 4.142c.969.58 2.18.58 3.148 0l7.124-4.37a1.53 1.53 0 000-2.631l-7.167-4.142a3.064 3.064 0 00-3.084 0l-7.332 4.31a1.518 1.518 0 00-.621.604zm15.386 8.406a1.53 1.53 0 00.578 2.085l.003.002 7.352 4.145a3.068 3.068 0 003.147 0l7.124-4.37a1.531 1.531 0 000-2.632l-7.167-4.141a3.064 3.064 0 00-3.084 0l-7.332 4.307a1.5 1.5 0 00-.621.604zm-176.015-82.831a1.53 1.53 0 00.578 2.085l.003.002 7.35 4.145a3.072 3.072 0 003.149 0l7.124-4.37a1.532 1.532 0 000-2.633l-7.167-4.14a3.064 3.064 0 00-3.084 0l-7.332 4.31c-.26.135-.476.344-.621.601zm16.338 9.403a1.53 1.53 0 00.578 2.085l.003.002 7.35 4.14c.97.582 2.182.582 3.152 0l7.121-4.369a1.53 1.53 0 000-2.632l-7.164-4.14a3.055 3.055 0 00-3.084 0l-7.332 4.308c-.263.138-.479.35-.624.606zm16.049 8.945a1.53 1.53 0 00.578 2.085l.003.002 7.35 4.145c.969.58 2.179.58 3.148 0l7.121-4.37a1.53 1.53 0 000-2.632l-7.163-4.14a3.06 3.06 0 00-3.084 0l-7.332 4.306a1.512 1.512 0 00-.621.604zm16.959 9.253a1.531 1.531 0 00.575 2.087l.007.005 7.35 4.14c.969.58 2.179.58 3.148 0l7.124-4.369a1.53 1.53 0 000-2.632l-7.164-4.138a3.06 3.06 0 00-3.087 0l-7.329 4.306a1.536 1.536 0 00-.624.606v-.005zm16.227 9.792a1.532 1.532 0 00.692 2.052l37.503 21.641a3.07 3.07 0 003.146 0l7.124-4.37a1.53 1.53 0 000-2.632l-37.271-21.555a3.062 3.062 0 00-3.088 0l-7.35 4.144a1.537 1.537 0 00-.756.719v.001zm46.019 26.304a1.53 1.53 0 00.581 2.087l7.35 4.143c.97.581 2.182.581 3.152 0l7.121-4.369a1.53 1.53 0 000-2.632l-7.164-4.141a3.067 3.067 0 00-3.088 0l-7.329 4.306a1.54 1.54 0 00-.623.606zm15.655 9.59a1.53 1.53 0 00.578 2.085l.003.002 7.35 4.14c.97.582 2.182.582 3.151 0l7.121-4.369a1.53 1.53 0 000-2.632l-7.163-4.141a3.067 3.067 0 00-3.088 0l-7.33 4.309a1.546 1.546 0 00-.625.604v.002h.003zm17.023 10.022a1.531 1.531 0 00.578 2.085l.004.003 7.351 4.14c.97.58 2.18.58 3.148 0l7.123-4.369a1.529 1.529 0 000-2.632l-7.166-4.137a3.057 3.057 0 00-3.085 0l-7.328 4.305c-.263.136-.48.346-.625.605zm15.383 8.344a1.532 1.532 0 00.578 2.085l.004.002 7.354 4.14c.97.58 2.18.58 3.148 0l7.123-4.369a1.527 1.527 0 000-2.629l-7.166-4.14a3.057 3.057 0 00-3.085 0l-7.332 4.305a1.526 1.526 0 00-.62.606h-.004z"/><linearGradient id="c" gradientUnits="userSpaceOnUse" x1="139.419" y1="124.245" x2="200.27" y2="124.245" gradientTransform="matrix(3.06 0 0 -3.06 -175.843 706.736)"><stop offset="0" stop-color="#eae9eb"/><stop offset="1" stop-color="#9aa7d5"/></linearGradient><path fill="url(#c)" d="M436.98 258.577a9.821 9.821 0 00-4.397-7.718L256.795 148.916a3.417 3.417 0 00-3.277 0l-2.739 1.408 1.233 239.249a9.824 9.824 0 004.397 7.718l177.85 105.723 2.725 1.585-.004-246.022z"/><path fill="#F8F6F9" d="M434.26 260.584a9.818 9.818 0 00-4.396-7.714L253.689 150.635c-2.43-1.407-4.397-.272-4.397 2.528v242.374L434.26 502.942V260.584z"/><path fill="#49496B" d="M429.862 252.946l-176.17-102.234c-2.433-1.408-4.4-.27-4.4 2.527v11.573L434.26 272.081v-11.57a9.82 9.82 0 00-4.396-7.558l-.002-.007z"/><path fill="#FFF" d="M258.699 161.012a.885.885 0 00-1.426.829 3.185 3.185 0 001.429 2.491.884.884 0 001.426-.833 3.202 3.202 0 00-1.429-2.487zm6.251 3.702a.885.885 0 00-1.429.832 3.182 3.182 0 001.429 2.488.884.884 0 001.426-.829 3.202 3.202 0 00-1.426-2.491zm6.249 3.706a.884.884 0 00-1.426.826 3.182 3.182 0 001.448 2.491.885.885 0 001.426-.829 3.207 3.207 0 00-1.448-2.488z"/><path fill="#E5E9F4" d="M263.836 192.588v70.004l154.414 88.865v-69.539l-154.414-89.33z"/><path d="M263.607 351.573v5.364l154.643 89.851v-5.324l-154.643-89.891zm0 14.545v5.364l154.643 89.85v-5.324l-154.643-89.89zm0 15.278v5.361l154.643 89.852v-5.344l-154.643-89.869zm.229-108.119V329.1l44.385 26.179v-55.478l-44.385-26.524zm110.028 63.465v55.823l44.386 26.175v-55.478l-44.386-26.52zm-55.012-31.558v55.824l44.387 26.175v-55.478l-44.387-26.521z" fill="#EEF0F9"/><path opacity=".15" fill="#818385" d="M354.782 339.578v55.221l-44.189-26.05v-55.597l44.189 26.426z"/><path fill="#FFF" d="M316.027 234.525v5.358l94.622 54.851v-5.358l-94.622-54.851zm0 14.581v5.361l94.622 54.851v-5.358l-94.622-54.854zm0 14.584v5.361l94.622 54.851v-5.358l-94.622-54.854zm.567 14.584v5.358l44.324 25.686v-5.358l-44.324-25.686zm-24.872-55.358c-11.292-6.508-20.518-1.147-20.518 11.904a45.626 45.626 0 0020.557 35.597c11.481 6.548 20.516 1.188 20.516-11.903a45.931 45.931 0 00-20.555-35.598z"/><linearGradient id="d" gradientUnits="userSpaceOnUse" x1="126.029" y1="140.131" x2="147.656" y2="140.131" gradientTransform="matrix(3.06 0 0 -3.06 -175.577 722.712)"><stop offset="0" stop-color="#eae9eb"/><stop offset="1" stop-color="#9aa7d5"/></linearGradient><path fill="url(#d)" d="M448.468 334.575l-63.614-39.174-1.258-41.273 1.258-.885 64.826 38.333.093 42.161-1.305.838z"/><path fill="#E5E9F4" d="M383.596 296.289v-42.161l64.777 38.29.095 42.158-64.872-38.287z"/><path fill="#5D639F" d="M405.144 281.037c.044 3.498-2.426 4.896-5.412 3.173a12.074 12.074 0 01-5.456-9.327c0-3.501 2.424-4.896 5.409-3.173a12.12 12.12 0 015.456 9.327h.003zm43.324 53.538l.092-20.147-9.745-15.248-18.749 5.128-9.934-16.882-26.536 8.862 64.872 38.287z"/><path opacity=".17" fill="#231F20" d="M387.699 294.89l22.433-7.463-4.991 6.854-6.389.514-.605-1.726-10.448 1.821zm38.614 12.87l-6.248-3.452 18.748-5.128-5.597 6.481v-1.817l-6.903 3.916z"/><linearGradient id="e" gradientUnits="userSpaceOnUse" x1="-433.791" y1="513.188" x2="-420.121" y2="513.188" gradientTransform="matrix(3.06 0 0 3.06 1489.548 -1214.302)"><stop offset="0" stop-color="#d3daec"/><stop offset=".55" stop-color="#b0bce0"/><stop offset="1" stop-color="#9aa7d5"/></linearGradient><path fill="url(#e)" d="M200.179 342.069a8.454 8.454 0 013.8 6.607v37.209a2.602 2.602 0 01-1.781 2.329l-2.087.618a2.326 2.326 0 01-1.918-.171l-32.247-18.351a8.454 8.454 0 01-3.8-6.606v-37.415a2.325 2.325 0 011.062-1.989l.548-.41a4.243 4.243 0 014.553-.168l31.87 18.347z"/><path fill="#FFF" d="M197.542 343.406a8.454 8.454 0 013.8 6.604v36.426a2.326 2.326 0 01-3.8 2.191l-31.527-18.213a8.453 8.453 0 01-3.8-6.573v-36.457a2.326 2.326 0 013.8-2.191l31.527 18.213z"/><path fill="#5D639F" d="M197.542 343.437l-31.527-18.207c-2.087-1.236-3.8-.208-3.8 2.188v7.221l39.128 23.109v-7.739a8.453 8.453 0 00-3.8-6.57l-.001-.002z"/><linearGradient id="f" gradientUnits="userSpaceOnUse" x1="58.011" y1="89.121" x2="61.613" y2="89.121" gradientTransform="matrix(3.06 0 0 3.06 -2.325 88.616)"><stop offset="0" stop-color="#4e9dd6"/><stop offset=".02" stop-color="#4f9fd6"/><stop offset=".48" stop-color="#55a8d8"/><stop offset="1" stop-color="#55acdb"/></linearGradient><path fill="url(#f)" d="M180.323 354.63l1.814 5.138 4.073 2.362-3.148 1.744.48 4.52-3.424-4.143-3.182.343a.276.276 0 01-.276-.343l1.062-4.244-2.534-4.792 3.801 2.087 1.368-3.045-.034.373z"/><path fill="#F7F8FC" d="M495.384 381.466a10.545 10.545 0 014.851 8.241v45.38c0 3.002-2.134 4.238-4.851 2.735l-88.083-50.9a10.376 10.376 0 01-4.682-8.24l.582-44.964c0-3.005 2.209-4.241 4.85-2.739l87.333 50.487z"/><linearGradient id="g" gradientUnits="userSpaceOnUse" x1="155.611" y1="-50.448" x2="187.091" y2="-50.448" gradientTransform="matrix(3.06 0 0 3.06 -72.383 538.71)"><stop offset="0" stop-color="#d5daed"/><stop offset="1" stop-color="#9ba7d5"/></linearGradient><path fill="url(#g)" d="M495.384 381.466l-87.406-50.417c-1.793-1.04-3.365-.75-4.191.487a3.484 3.484 0 013.078.435l87.405 50.417a10.541 10.541 0 014.848 8.244v45.374a4.072 4.072 0 01-.605 2.255 3.123 3.123 0 001.698-3.176V389.71a10.555 10.555 0 00-4.827-8.244z"/><linearGradient id="h" gradientUnits="userSpaceOnUse" x1="182.999" y1="-37.68" x2="178.436" y2="-51.282" gradientTransform="matrix(3.06 0 0 3.06 -72.383 538.71)"><stop offset=".02" stop-color="#f8c01c"/><stop offset="1" stop-color="#f9d607"/></linearGradient><path fill="url(#h)" d="M480.479 383.988a34.639 34.639 0 0115.608 27.05c0 9.938-7.028 14.132-15.608 9.382a34.058 34.058 0 01-15.538-27.05c-.002-10.061 6.932-14.327 15.538-9.382z"/><path fill="#FFF" d="M484.113 410.12a3.467 3.467 0 01-5.648 3.27 12.117 12.117 0 01-5.429-9.693l11.077 6.423z"/><path fill="#4A496C" d="M473.352 392.74a3.837 3.837 0 011.721 2.98c0 1.092-.774 1.551-1.721 1.042a3.76 3.76 0 01-1.72-2.979c0-1.188.774-1.649 1.72-1.041v-.002zm11.269 6.618a3.83 3.83 0 011.72 3.077c0 1.091-.773 1.553-1.72 1.041a3.76 3.76 0 01-1.72-2.979c0-1.212.775-1.674 1.72-1.139z"/><path fill="#E3E7F3" d="M459.753 374.343l-.024 4.192-51.288-29.74v-4.266l51.312 29.814zm0 10.132l-.024 4.192-51.288-29.715v-4.314l51.312 29.837zm0 10.131l-.024 4.193-51.288-29.716v-4.29l51.312 29.813zm-23.874-3.586v4.192l-27.438-15.805v-4.29l27.438 15.903z"/><path fill="#FFF" d="M255.908 242.05l-82.537-47.564a1.555 1.555 0 00-2.329 1.334v58.608a4.578 4.578 0 002.279 3.972l82.541 48.018a1.555 1.555 0 002.332-1.334v-59.098a4.576 4.576 0 00-2.279-3.935l-.007-.001z"/><linearGradient id="i" gradientUnits="userSpaceOnUse" x1="172.69" y1="149.114" x2="201.16" y2="149.114" gradientTransform="rotate(180 393.312 353.368) scale(3.06)"><stop offset="0" stop-color="#9aa7d5"/><stop offset="1" stop-color="#eae9eb"/></linearGradient><path fill="url(#i)" d="M256.195 306.398v-59.113a4.578 4.578 0 00-2.264-3.917L171.396 195.8a1.503 1.503 0 00-.321-.134 1.537 1.537 0 012.314-1.2l82.525 47.577a4.578 4.578 0 012.28 3.935v59.119a1.536 1.536 0 01-2.01 1.469s.016-.123.016-.171l-.005.003z"/><linearGradient id="j" gradientUnits="userSpaceOnUse" x1="183.001" y1="155.26" x2="199.819" y2="155.26" gradientTransform="rotate(180 393.312 353.368) scale(3.06)"><stop offset=".02" stop-color="#f8c01c"/><stop offset="1" stop-color="#f9d607"/></linearGradient><path fill="url(#j)" d="M198.523 239.36a16.675 16.675 0 01-5.894-11.824 5.15 5.15 0 018.36-4.829 15.983 15.983 0 016.182 7.399l-1.689.744a14.056 14.056 0 00-5.404-6.521 3.379 3.379 0 00-5.539 3.191 14.638 14.638 0 005.202 10.336l-1.218 1.504zm5.187 2.078a4.51 4.51 0 002.194-.658 5.76 5.76 0 002.519-5.306 12.684 12.684 0 00-.523-3.479l-1.805.526c.289.964.441 1.964.453 2.971a3.377 3.377 0 01-5.538 3.192l-.945 1.689a7.196 7.196 0 003.565 1.065h.08zm-26.686-23.495a3.377 3.377 0 015.539-3.192c.604.352 1.17.765 1.689 1.233l1.248-1.401a11.985 11.985 0 00-1.992-1.454 5.15 5.15 0 00-8.36 4.831h1.875l.001-.017zM190.941 226a16.252 16.252 0 00-4.122-10.049l-1.417 1.233a14.521 14.521 0 013.647 8.8h1.876l.016.016zm-4.795 5.875a4.579 4.579 0 001.989-.386 5.064 5.064 0 002.705-4.002l-1.857-.306a3.257 3.257 0 01-1.689 2.601 4.172 4.172 0 01-3.801-.572 14.628 14.628 0 01-6.349-9.73l-1.861.288a16.652 16.652 0 007.283 11.046 7.219 7.219 0 003.562 1.065l.018-.004zm26.668 4.395a3.513 3.513 0 011.315-2.433l-1.08-1.536a5.336 5.336 0 00-2.111 3.666l1.857.306.019-.003zm9.018 15.064a4.524 4.524 0 002.265-.643 5.759 5.759 0 002.518-5.303 16.418 16.418 0 00-7.414-12.852 6.76 6.76 0 00-4.291-1.01l.27 1.854a4.898 4.898 0 013.075.777 14.559 14.559 0 016.487 11.229 3.378 3.378 0 01-5.538 3.195l-.949 1.689a7.185 7.185 0 003.565 1.065l.012-.001zm-4.609-4.253a14.784 14.784 0 01-4.495-9.664h-1.94a16.558 16.558 0 005.067 10.998l1.368-1.334z"/><path d="M175.647 230.783v3.715l74.419 43.241v-3.684l-74.419-43.272zm0 10.068v3.715l74.419 43.222v-3.681l-74.419-43.256zm-.242 10.502v3.715l50.01 28.898v-3.7l-50.01-28.913z" fill="#E3E7F3"/><path fill="none" d="M333.219 675.762a11.444 11.444 0 0010.251 0l145.454-83.989a3.195 3.195 0 000-6.005l-13.893-8.336a11.126 11.126 0 00-10.196 0L318.827 661.76a3.111 3.111 0 000 5.89l14.392 8.112z"/><path opacity=".024" fill="#F5F4F6" d="M333.191 675.514a11.418 11.418 0 0010.224 0l145.229-83.883a3.168 3.168 0 000-5.974l-13.695-8.17a11.106 11.106 0 00-10.169 0l-145.787 84.217a3.085 3.085 0 000 5.862l14.198 7.948z"/><path opacity=".049" fill="#EDEBEE" d="M333.273 675.401a11.376 11.376 0 0010.195 0L488.48 591.63a3.168 3.168 0 000-5.946l-13.643-8.14a11.117 11.117 0 00-10.145 0L319.13 661.648a3.085 3.085 0 000 5.835l14.143 7.918z"/><path opacity=".073" fill="#E7E6E9" d="M333.414 675.294a11.34 11.34 0 0010.142 0l144.787-83.66a3.14 3.14 0 000-5.922l-13.617-8.111a11.122 11.122 0 00-10.086 0l-145.341 84.021a3.054 3.054 0 00-1.942 3.861 3.052 3.052 0 001.942 1.942l14.115 7.869z"/><path opacity=".098" fill="#E2DFE5" d="M333.58 675.181a11.272 11.272 0 0010.113 0l144.479-83.55a3.14 3.14 0 000-5.889l-13.556-8.085a11.124 11.124 0 00-10.063 0L319.462 661.54a3.056 3.056 0 000 5.803l14.118 7.838z"/><path opacity=".122" fill="#DCD9E1" d="M333.58 675.013a11.116 11.116 0 0010.086 0l144.34-83.354a3.112 3.112 0 000-5.89l-13.501-8.057a10.95 10.95 0 00-10.006 0l-144.896 83.771a3.057 3.057 0 000 5.781l13.977 7.749z"/><path opacity=".146" fill="#D7D4DC" d="M333.693 675.013a11.108 11.108 0 0010.026 0l144.12-83.354a3.113 3.113 0 000-5.865l-13.449-8.029a10.924 10.924 0 00-9.976 0L319.77 661.457a3.03 3.03 0 000 5.752l13.923 7.804z"/><path opacity=".171" fill="#D2CFD8" d="M333.858 675.04a11.116 11.116 0 0010.003 0l143.896-83.354a3.11 3.11 0 000-5.836l-13.394-8.002a10.872 10.872 0 00-9.945 0L319.938 661.4a3.028 3.028 0 000 5.72l13.92 7.92z"/><path opacity=".195" fill="#CBC8D2" d="M333.913 674.847a11.113 11.113 0 009.945 0l143.647-83.134a3.081 3.081 0 000-5.803l-13.335-7.947a10.84 10.84 0 00-9.894 0l-144.202 83.354a3 3 0 000 5.723l13.839 7.807z"/><path opacity=".22" fill="#C6C3CE" d="M334.164 674.737a11.113 11.113 0 009.918 0l143.425-83.021a3.084 3.084 0 000-5.783l-13.418-7.863a10.773 10.773 0 00-9.865 0l-143.979 83.354a2.998 2.998 0 000 5.559l13.919 7.754z"/><path opacity=".244" fill="#C1BECA" d="M334.164 674.596a11.112 11.112 0 009.89 0l143.205-82.938a3.06 3.06 0 001.89-3.891 3.064 3.064 0 00-1.89-1.888l-13.256-7.892a10.753 10.753 0 00-9.835 0l-143.759 83.354a2.997 2.997 0 000 5.556l13.755 7.699z"/><path opacity=".268" fill="#BDBAC7" d="M334.247 674.486a11.124 11.124 0 009.835 0l142.98-82.828a3.057 3.057 0 000-5.753l-13.197-7.864a10.698 10.698 0 00-9.779 0l-143.508 83.217a2.973 2.973 0 000 5.558l13.669 7.67z"/><path opacity=".293" fill="#B9B4C2" d="M334.329 674.376a10.95 10.95 0 009.808 0L486.9 591.658a3.029 3.029 0 000-5.722l-13.145-7.833a10.672 10.672 0 00-9.752 0l-143.205 83.104a2.975 2.975 0 000 5.557l13.531 7.612z"/><path opacity=".317" fill="#B4AFBE" d="M334.442 674.263a10.914 10.914 0 009.779 0l142.534-82.604a3.03 3.03 0 000-5.695l-13.087-7.809a10.617 10.617 0 00-9.725 0L320.798 661.12a2.947 2.947 0 000 5.557l13.644 7.586z"/><path opacity=".341" fill="#AFABBB" d="M334.55 674.07a10.878 10.878 0 009.729 0l142.313-82.495a3.028 3.028 0 000-5.555l-13.032-7.778a10.575 10.575 0 00-9.67 0l-142.841 82.797a2.947 2.947 0 000 5.557l13.501 7.474z"/><path opacity=".366" fill="#ABA5B6" d="M334.636 673.957a10.81 10.81 0 009.7 0l142.088-82.382a2.999 2.999 0 000-5.556l-12.975-7.751a10.525 10.525 0 00-9.64 0L321.185 660.98a2.914 2.914 0 000 5.559l13.451 7.418z"/><path opacity=".39" fill="#A5A0B2" d="M334.718 673.901a10.791 10.791 0 009.67 0l141.871-82.3a2.997 2.997 0 000-5.555l-12.946-7.724a10.502 10.502 0 00-9.588 0l-142.368 82.577a2.916 2.916 0 000 5.558l13.361 7.444z"/><path opacity=".415" fill="#A29CAF" d="M334.804 673.819a10.724 10.724 0 009.614 0l141.703-82.187a2.975 2.975 0 000-5.558l-12.893-7.698a10.444 10.444 0 00-9.56 0l-142.146 82.438a2.776 2.776 0 00-2.785 2.771 2.777 2.777 0 002.771 2.785h.015l13.281 7.449z"/><path opacity=".439" fill="#9D97AB" d="M334.914 673.764a10.686 10.686 0 009.587 0l141.451-82.104a2.976 2.976 0 000-5.559l-12.836-7.668a10.423 10.423 0 00-9.532 0l-141.923 82.326a2.778 2.778 0 00-.014 5.555h.014l13.253 7.45z"/><path opacity=".463" fill="#9793A8" d="M335.024 673.764a10.635 10.635 0 009.53 0l141.229-82.188a2.948 2.948 0 000-5.558l-12.781-7.612a10.365 10.365 0 00-9.475 0l-141.702 82.271a2.779 2.779 0 000 5.557l13.199 7.53z"/><path opacity=".488" fill="#958FA4" d="M335.162 673.54a10.611 10.611 0 009.504 0l140.953-81.854a2.947 2.947 0 000-5.557l-12.728-7.586a10.333 10.333 0 00-9.445 0l-141.452 82.048a2.779 2.779 0 000 5.556l13.168 7.393z"/><path opacity=".512" fill="#908AA1" d="M335.275 673.485a10.567 10.567 0 009.474 0l140.729-81.772a2.948 2.948 0 000-5.554l-12.669-7.56a10.292 10.292 0 00-9.419 0l-141.255 81.936a2.779 2.779 0 000 5.557l13.14 7.393z"/><path opacity=".537" fill="#8D869D" d="M335.413 673.375a10.53 10.53 0 009.418 0l140.51-81.662a2.918 2.918 0 001.894-3.664 2.922 2.922 0 00-1.894-1.893l-12.642-7.527a10.248 10.248 0 00-9.363 0l-141.035 81.965a2.779 2.779 0 000 5.416l13.112 7.365z"/><path opacity=".561" fill="#88829A" d="M335.498 673.317a10.489 10.489 0 009.392 0l140.285-81.55a2.778 2.778 0 000-5.556l-12.589-7.5a10.198 10.198 0 00-9.333 0l-140.787 81.824a2.777 2.777 0 000 5.391l13.032 7.391z"/><path opacity=".585" fill="#857F97" d="M335.581 673.234a10.44 10.44 0 009.363 0l140.063-81.437a2.778 2.778 0 00.014-5.556h-.015l-12.53-7.477a10.167 10.167 0 00-9.309 0l-140.563 81.741a2.78 2.78 0 000 5.364l12.977 7.365z"/><path opacity=".61" fill="#827B94" d="M335.581 673.207a10.395 10.395 0 009.309 0l139.843-81.326a2.778 2.778 0 000-5.556l-12.362-7.5a10.114 10.114 0 00-9.257 0l-140.341 81.629a2.779 2.779 0 000 5.336l12.808 7.417z"/><path opacity=".634" fill="#7E7791" d="M335.832 673.011a10.36 10.36 0 009.277 0l139.619-81.243a2.779 2.779 0 000-5.416l-12.477-7.476a10.092 10.092 0 00-9.223 0l-140.094 81.521a2.778 2.778 0 000 5.307l12.898 7.307z"/><path opacity=".659" fill="#79748E" d="M335.942 672.846a10.308 10.308 0 009.223 0l139.371-81.133a2.78 2.78 0 000-5.389l-12.363-7.391a10.03 10.03 0 00-9.17 0l-139.897 81.408a2.779 2.779 0 000 5.306l12.836 7.199z"/><path opacity=".683" fill="#77708B" d="M336.024 672.735a10.285 10.285 0 009.197 0l139.146-81.022a2.778 2.778 0 000-5.361l-12.335-7.361a10 10 0 00-9.141 0l-139.648 81.156a2.78 2.78 0 000 5.282l12.781 7.306z"/><path opacity=".707" fill="#736E88" d="M336.138 672.622a10.224 10.224 0 009.168 0l138.925-80.906a2.779 2.779 0 000-5.336l-12.282-7.335a9.943 9.943 0 00-9.113 0l-139.423 81.133a2.778 2.778 0 000 5.251l12.725 7.193z"/><path opacity=".732" fill="#6F6A86" d="M336.248 672.513a10.162 10.162 0 009.112 0l138.7-80.797a2.778 2.778 0 000-5.336l-12.225-7.28a9.92 9.92 0 00-9.058 0L323.58 660.202a2.778 2.778 0 000 5.224l12.668 7.087z"/><path opacity=".756" fill="#6C6784" d="M336.275 672.375a10.145 10.145 0 009.089 0l138.477-80.576a2.78 2.78 0 000-5.31l-12.169-7.252a9.862 9.862 0 00-9.03 0l-138.924 80.995a2.776 2.776 0 00-1.612 3.583 2.771 2.771 0 001.612 1.612l12.557 6.948z"/><path opacity=".78" fill="#696481" d="M336.303 672.375a10.088 10.088 0 009.059 0l138.257-80.576a2.778 2.778 0 000-5.281l-12.114-7.222a9.834 9.834 0 00-9.002 0l-138.618 80.77a2.777 2.777 0 000 5.194l12.418 7.115z"/><path opacity=".805" fill="#65617E" d="M336.469 672.316a10.056 10.056 0 009.002 0l138.037-80.576a2.778 2.778 0 000-5.251l-12.06-7.193a9.78 9.78 0 00-8.947 0l-138.447 80.741a2.777 2.777 0 000 5.171l12.415 7.108z"/><path opacity=".829" fill="#625E7C" d="M336.664 672.068a10.001 10.001 0 008.976 0l137.813-80.384a2.778 2.778 0 000-5.224l-12.031-7.166a9.755 9.755 0 00-8.92 0L324.189 659.98a2.78 2.78 0 000 5.142l12.475 6.946z"/><path opacity=".854" fill="#5E5B7A" d="M336.857 671.928a9.978 9.978 0 008.92 0l137.59-80.27a2.78 2.78 0 000-5.225l-11.976-7.139a9.697 9.697 0 00-8.892 0l-138.147 80.631a2.78 2.78 0 000 5.11l12.505 6.893z"/><path opacity=".878" fill="#5B5877" d="M336.915 671.958a9.92 9.92 0 008.893 0l137.313-80.354a2.779 2.779 0 000-5.195l-11.919-7.111a9.668 9.668 0 00-8.837 0l-137.841 80.575a2.78 2.78 0 00-1.465 3.646 2.785 2.785 0 001.465 1.464l12.391 6.975z"/><path opacity=".902" fill="#565575" d="M336.942 671.846a9.898 9.898 0 008.861 0l137.149-80.133a2.778 2.778 0 000-5.165l-11.867-7.087a9.612 9.612 0 00-8.807 0l-137.62 80.355a2.777 2.777 0 000 5.083l12.284 6.947z"/><path opacity=".927" fill="#545273" d="M336.998 671.735a9.834 9.834 0 008.807 0l136.98-80.021a2.777 2.777 0 000-5.141l-11.813-7.061a9.595 9.595 0 00-8.752 0l-137.394 80.242a2.78 2.78 0 000 5.06l12.172 6.921z"/><path opacity=".951" fill="#4F4F70" d="M337.025 671.622a9.804 9.804 0 008.781 0l136.813-79.909a2.78 2.78 0 000-5.11l-11.754-7.031a9.533 9.533 0 00-8.728 0L324.993 659.73a2.778 2.778 0 000 5.03l12.032 6.862z"/><path opacity=".976" fill="#4D4C6E" d="M337.273 671.484a9.754 9.754 0 008.751 0l136.454-79.744a2.777 2.777 0 000-5.109l-11.726-6.978a9.505 9.505 0 00-8.697 0l-136.923 80.02a2.779 2.779 0 000 5.003l12.141 6.808z"/><path fill="#4A496C" d="M337.469 671.347a9.728 9.728 0 008.697 0l136.146-79.634a2.78 2.78 0 000-5.083l-11.668-6.945a9.44 9.44 0 00-8.642 0L325.3 659.593a2.779 2.779 0 000 5l12.169 6.754z"/><path fill="#92CEF1" d="M334.941 672.43a11.107 11.107 0 009.921 0l140.646-81.188a3.087 3.087 0 000-5.779l-13.312-7.947a10.78 10.78 0 00-9.862 0l-141.176 81.52a2.999 2.999 0 000 5.555l13.783 7.839z"/><path fill="#0073EC" d="M334.887 670.982a11.111 11.111 0 009.917 0l140.705-81.299a3.086 3.086 0 000-5.778l-13.312-7.947a10.78 10.78 0 00-9.862 0l-141.176 81.659a3 3 0 000 5.555l13.728 7.81z"/><path fill="#FFF" d="M328.219 653.564l8.944 5.278-2.025 1.165-9.029-5.251 2.11-1.192zm10.972-6.364l6.06 3.586-2.029 1.166-6.112-3.556 2.081-1.196zm11.004-6.362l6.027 3.584-1.998 1.169-6.142-3.56 2.113-1.193zm10.977-6.361l6.056 3.583-2.027 1.166-6.111-3.556 2.082-1.193zm11.001-6.366l8.947 5.278-2.001 1.169-9.03-5.251 2.084-1.196zm10.975-6.361l6.056 3.583-2.001 1.169-6.139-3.559 2.084-1.193zm11.001-6.361l6.059 3.583-2.028 1.166-6.113-3.556 2.082-1.193zm11.004-6.366l6.03 3.586-2.001 1.166-6.142-3.557 2.113-1.195zm10.976-6.361l8.948 5.278-2.002 1.169-9.029-5.254 2.083-1.193zm11.001-6.362l6.031 3.583-2.001 1.166-6.114-3.556 2.084-1.193zm10.976-6.364l6.056 3.586-2.025 1.14-6.113-3.528 2.082-1.198zm11.004-6.363l6.056 3.583-2.029 1.142-6.109-3.531 2.082-1.194zm11-6.361l8.947 5.278-2.028 1.166-9.03-5.251 2.111-1.193z"/><linearGradient id="k" gradientUnits="userSpaceOnUse" x1="-330.059" y1="186.486" x2="-328.416" y2="183.789" gradientTransform="matrix(-3.06 0 0 3.06 -600.075 88.616)"><stop offset=".02" stop-color="#f8c01c"/><stop offset="1" stop-color="#f9d607"/></linearGradient><path fill="url(#k)" d="M449.7 625.694l-94.924 53.983 4.554 8.514 90.37-51.678 8.385-10.099-8.385-.72z"/><path fill="#F7F8F8" d="M449.7 625.694v10.819l8.385-10.099-8.385-.72z"/><path fill="#4A496C" d="M456.148 626.248l1.937.168-1.937 2.332v-2.5z"/><path fill="#FEC111" d="M356.934 680.031a7.556 7.556 0 013.429 5.93c-.007 2.176-1.553 3.066-3.435 1.979a7.591 7.591 0 01-3.424-5.928c0-2.171 1.545-3.065 3.43-1.981z"/><path fill="#F7F8F8" d="M356.934 680.107a7.406 7.406 0 013.36 5.813c-.007 2.136-1.521 3.009-3.366 1.943a7.445 7.445 0 01-3.359-5.813c-.002-2.129 1.517-3.005 3.365-1.943z"/><path fill="#4A496C" d="M356.934 682.929c.543.353.885.942.918 1.588-.003.581-.416.82-.918.529a2.032 2.032 0 01-.918-1.588c-.003-.581.41-.82.918-.529z"/><linearGradient id="l" gradientUnits="userSpaceOnUse" x1="-237.718" y1="114.322" x2="-217.482" y2="114.322" gradientTransform="matrix(3.06 0 0 -3.06 1015.408 706.736)"><stop offset="0" stop-color="#eae9eb"/><stop offset="1" stop-color="#9aa7d5"/></linearGradient><path fill="url(#l)" d="M287.99 312.058v-1.227a1.1 1.1 0 01.511-.924l1.337-.863a2.246 2.246 0 012.344 0l54.781 31.622a6.548 6.548 0 012.949 5.116v57.458a1.434 1.434 0 01-.795 1.274l-1.183.592-59.418-34.27-.526-58.778z"/><path fill="#F8F6F9" d="M287.225 312.138c0-1.879 1.322-2.644 2.95-1.705l54.743 31.588a6.548 6.548 0 012.95 5.117v57.858l-60.567-35.067-.076-57.791z"/><path fill="#5D639F" d="M344.922 342.021l-54.808-31.588c-1.594-.942-2.95-.177-2.95 1.705v8.256l60.567 35.068v-8.323a6.549 6.549 0 00-2.808-5.117l-.001-.001z"/><path fill="#FFF" d="M291.481 316.287a.691.691 0 00-1.117.636c.044.784.459 1.5 1.117 1.928a.692.692 0 001.117-.636 2.466 2.466 0 00-1.117-1.928zm5.45 3.204a.692.692 0 00-1.114.636 2.47 2.47 0 001.114 1.928.691.691 0 001.117-.637 2.467 2.467 0 00-1.117-1.927zm5.453 3.204a.691.691 0 00-1.117.64 2.468 2.468 0 001.117 1.928.692.692 0 001.114-.639 2.466 2.466 0 00-1.114-1.929z"/><path fill="#D3DAEC" d="M301.57 333.142l27.749 16.019v1.833l-27.749-16.035v-1.817zm-11.205-6.454l9.532 5.545v1.817l-9.532-5.529v-1.833z"/><linearGradient id="m" gradientUnits="userSpaceOnUse" x1="4.38" y1="120.275" x2="6.969" y2="120.275" gradientTransform="matrix(-3.06 0 0 -3.06 317.73 706.74)"><stop offset="0" stop-color="#4f9ed7"/><stop offset=".02" stop-color="#509fd7"/><stop offset="1" stop-color="#68bcea"/></linearGradient><path fill="url(#m)" d="M296.405 335.492l7.922 4.59v1.818l-7.922-4.59v-1.818z"/><path fill="#D3DAEC" d="M305.683 340.801l10.774 6.279v1.818l-10.774-6.279v-1.818zm15.796 14.611l23.587 13.611v1.818l-23.587-13.614v-1.815z"/><linearGradient id="n" gradientUnits="userSpaceOnUse" x1="-.397" y1="115.582" x2="1.645" y2="115.582" gradientTransform="matrix(-3.06 0 0 -3.06 317.73 706.74)"><stop offset="0" stop-color="#4f9ed7"/><stop offset=".02" stop-color="#509fd7"/><stop offset="1" stop-color="#68bcea"/></linearGradient><path fill="url(#n)" d="M312.696 350.342l6.245 3.62v1.814l-6.245-3.602v-1.832z"/><path fill="#D3DAEC" d="M290.031 337.306l19.811 11.441v1.817l-19.811-11.444v-1.814zm13.547 12.647l16.083 9.403v1.818l-16.083-9.407v-1.814z"/><linearGradient id="o" gradientUnits="userSpaceOnUse" x1="5.015" y1="116.946" x2="6.427" y2="116.946" gradientTransform="matrix(-3.06 0 0 -3.06 317.73 706.74)"><stop offset="0" stop-color="#4f9ed7"/><stop offset=".02" stop-color="#509fd7"/><stop offset="1" stop-color="#68bcea"/></linearGradient><path fill="url(#o)" d="M298.048 346.716l4.336 2.518v1.818l-4.336-2.519v-1.817z"/><path fill="#D3DAEC" d="M306.94 357.548l33.933 19.538v1.817l-33.933-19.541v-1.814zm-14.201-8.115l12.546 7.206v1.814l-12.546-7.203v-1.817zm20.947 17.359l31.38 18.026v1.814l-31.38-18.026v-1.814zm-14.665-8.433l13.005 7.524v1.815l-13.005-7.521v-1.818z"/><linearGradient id="p" gradientUnits="userSpaceOnUse" x1="6.521" y1="114.548" x2="9.052" y2="114.548" gradientTransform="matrix(-3.06 0 0 -3.06 317.73 706.74)"><stop offset="0" stop-color="#4f9ed7"/><stop offset=".02" stop-color="#509fd7"/><stop offset="1" stop-color="#68bcea"/></linearGradient><path fill="url(#p)" d="M290.031 353.083l7.745 4.465v1.814l-7.745-4.461v-1.818z"/><linearGradient id="q" gradientUnits="userSpaceOnUse" x1="3.212" y1="110.485" x2="4.672" y2="110.485" gradientTransform="matrix(-3.06 0 0 -3.06 317.73 706.74)"><stop offset="0" stop-color="#4f9ed7"/><stop offset=".02" stop-color="#509fd7"/><stop offset="1" stop-color="#68bcea"/></linearGradient><path fill="url(#q)" d="M303.434 366.471l4.465 2.552v1.814l-4.465-2.549v-1.817z"/><linearGradient id="r" gradientUnits="userSpaceOnUse" x1="5.113" y1="111.598" x2="6.521" y2="111.598" gradientTransform="matrix(-3.06 0 0 -3.06 317.73 706.74)"><stop offset="0" stop-color="#4f9ed7"/><stop offset=".02" stop-color="#509fd7"/><stop offset="1" stop-color="#68bcea"/></linearGradient><path fill="url(#r)" d="M297.776 363.124l4.306 2.438v1.818l-4.306-2.439v-1.817z"/><path fill="#D3DAEC" d="M315.117 377.995l29.947 17.341v1.818l-29.947-17.342v-1.817zm-13.467-7.714l9.563 5.532v1.815l-9.563-5.53v-1.817z"/><linearGradient id="s" gradientUnits="userSpaceOnUse" x1="7.417" y1="111.368" x2="9.052" y2="111.368" gradientTransform="matrix(-3.06 0 0 -3.06 317.73 706.74)"><stop offset="0" stop-color="#4f9ed7"/><stop offset=".02" stop-color="#509fd7"/><stop offset="1" stop-color="#68bcea"/></linearGradient><path fill="url(#s)" d="M290.031 363.619l5.003 2.852v1.817l-5.003-2.852v-1.817z"/><path fill="#4A496C" d="M272.355 521.973l-2.05-.591a11.349 11.349 0 00-9.783 1.692l-2.151-1.615-2.179 5.122-10.526-.896 2.28 9.322c.149.604.607 1.08 1.203 1.255l4.458 1.255a10.524 10.524 0 0010.245-2.562l9.605-8.938a2.329 2.329 0 00-1.077-4.095l-.025.051z"/><path fill="#FFF" d="M272.355 521.973l-2.05-.591a11.349 11.349 0 00-9.783 1.692l-2.151-1.615-2.179 5.122-10.526-.896 1.203 4.864a6.196 6.196 0 004.458 4.458l1.817.536a10.527 10.527 0 0010.245-2.562l9.63-8.911c.533-.108.877-.629.768-1.162s-.629-.877-1.163-.77l-.04.011-.229-.176z"/><path fill="#D5DAED" d="M257.398 525.556a2.893 2.893 0 00-1.307-5.35 10.681 10.681 0 00-9.296 2.279 2.893 2.893 0 001.307 5.354 10.682 10.682 0 009.296-2.283z"/><path fill="#EE9DA3" d="M251.765 525.813a3.48 3.48 0 01-3.485-3.479v-13.4a3.484 3.484 0 016.968 0v13.396a3.484 3.484 0 01-3.483 3.483z"/><path fill="#FFF" d="M251.765 523.634h-.257a5.455 5.455 0 01-5.122-5.661l1.484-32.78-1.484-52.428a5.457 5.457 0 015.269-5.634h.006c2.996 0 8.935 2.279 8.935 5.3l-1.79 52.97-1.487 32.962a5.457 5.457 0 01-5.478 5.301l-.076-.03z"/><path fill="#4A496C" d="M286.93 535.342l-1.87-1.077a11.344 11.344 0 00-9.862-.664l-1.689-2.05-3.305 4.455-10.016-3.406v9.657a1.744 1.744 0 00.845 1.512l3.896 2.277a10.53 10.53 0 0010.499 0l11.45-6.606a2.33 2.33 0 000-4.099l.052.001z"/><path fill="#FFF" d="M286.93 535.342l-1.87-1.077a11.344 11.344 0 00-9.862-.664l-1.689-2.05-3.305 4.455-10.016-3.406v5.123a6.198 6.198 0 003.076 5.354l1.665.974a10.53 10.53 0 0010.499 0l11.475-6.609a.984.984 0 10.006-1.97h-.006l.027-.13z"/><path fill="#D5DAED" d="M271.74 535.237a2.895 2.895 0 000-5.532 10.68 10.68 0 00-9.605 0 2.895 2.895 0 000 5.532 10.686 10.686 0 009.608 0h-.003z"/><path fill="#EE9DA3" d="M266.899 534.473a3.482 3.482 0 01-3.482-3.481v-13.401a3.483 3.483 0 016.968 0v13.396a3.481 3.481 0 01-3.482 3.481h-.003l-.001.005z"/><path fill="#49486B" d="M251.765 441.728a3.972 3.972 0 01-3.434-1.971l-7.197-12.424c-7.407-12.926-4.125-29.336 7.684-38.418l1.971-1.484a3.968 3.968 0 015.431 5.786l-.205.181-.41.306-1.971 1.484c-8.667 6.654-11.084 18.688-5.661 28.174l7.121 12.423a3.97 3.97 0 01-3.433 5.942h.104z"/><path fill="#FFF" d="M246.719 446.363l-.41-13.395 21.848-8.402v12.014a5.458 5.458 0 014.456 5.123l2.561 47.46-2.999 36.702a5.456 5.456 0 01-5.453 5.122 5.322 5.322 0 01-1.744-.257 5.588 5.588 0 01-3.712-5.814l3.048-35.934-5.122-32.246-9.835-5.584a5.663 5.663 0 01-2.714-4.789h.076z"/><path opacity=".15" fill="#818385" d="M272.355 441.369a5.455 5.455 0 00-5.762-5.122h-.257a5.456 5.456 0 014.688 5.122l2.999 47.689-3.231 36.523a5.457 5.457 0 01-4.685 4.967h.716a5.456 5.456 0 005.456-5.122l2.999-36.702-2.923-47.355z"/><path opacity=".3" fill="#221F1F" d="M248.46 439.729a3.966 3.966 0 005.364 1.652 3.967 3.967 0 001.653-5.363v-.258l-7.197-12.423a21.671 21.671 0 01-2.562-6.479 74.267 74.267 0 01-.664 10.808l-.539 5.123 3.945 6.94z"/><path fill="#49486B" d="M245.308 367.837l17.16 9.911a24.565 24.565 0 0112.271 21.258v48.815c-6.968 4.866-25.612-1.918-29.431-9.554l1.129-10.68a74.29 74.29 0 00.612-12.806l-1.741-46.944z"/><path fill="#F1B0B2" d="M251.917 378.722h4.97c8.387-.07 15.169-6.852 15.239-15.239v-8.094h-20.184l-.025 23.333z"/><path fill="#F1B0B2" d="M258.601 382.642a4.149 4.149 0 004.149-4.149v-12.809h-8.452v12.393a4.148 4.148 0 003.815 4.458h.462l.026.107z"/><path opacity=".3" fill="#221F1F" d="M274.687 409.79a3.536 3.536 0 01-2.228-2.896l-1.616-12.372a3.969 3.969 0 00-4.44-3.433h-.016c-2.179.257-2.28 2.564-1.998 4.743v12.087a11.423 11.423 0 008.094 9.554c.653.193 1.322.331 1.998.41l.206-8.093z"/><path fill="#49486B" d="M284.727 411.889l11.475-13.087a3.988 3.988 0 00-5.814-5.456l-11.475 13.086a3.611 3.611 0 01-6.304-1.918l-1.613-12.372a3.97 3.97 0 10-7.865 1.026l1.616 12.371a11.422 11.422 0 008.094 9.554c1.111.349 2.267.528 3.43.535a11.423 11.423 0 008.456-3.739z"/><path fill="#F1B0B2" d="M288.39 395.726l1.867-2.151a4.01 4.01 0 116.175 5.122l-2.279 2.562-5.763-5.533z"/><circle fill="#F1B0B2" cx="295.125" cy="395.01" r="4.816"/><path fill="#F1B0B2" d="M291.744 391.624l6.091-6.399a1.025 1.025 0 011.449-.036l.036.034c.41.391.426 1.04.036 1.449l-6.091 6.399c-.39.41-1.039.426-1.449.036l-.036-.034a1.025 1.025 0 01-.036-1.449z"/><linearGradient id="t" gradientUnits="userSpaceOnUse" x1="75.447" y1="93.773" x2="87.24" y2="93.773" gradientTransform="matrix(-3.06 0 0 3.06 505.811 88.616)"><stop offset="0" stop-color="#f9d607"/><stop offset=".98" stop-color="#f8c01c"/></linearGradient><path fill="url(#t)" d="M273.561 351.393c-3.485-4.149-11.656-2.895-16.163-1.484-5.584 1.79-12.549 3.893-13.394 10.576a33.944 33.944 0 000 5.122 25.604 25.604 0 01-2.561 11.527c-2.562 5.122-3.739 8.298-1.077 13.394 1.612 3.124 2.561 7.992 5.838 9.915 3.277 1.922 10.401 3.226 13.396.793a21.571 21.571 0 006.301-16.8c-.435-5.661-3.253-11.398-1.561-16.802a29.844 29.844 0 018.219-9.553c2.279-2.05 3.433-4.149 1.126-6.79l-.124.102z"/><path opacity=".2" fill="#4A496C" d="M273.558 351.393a11.04 11.04 0 00-9.296-2.767 9.293 9.293 0 016.533 2.767c2.329 2.714 1.15 4.816-1.129 6.967a29.833 29.833 0 00-7.812 9.554c-1.689 5.404 1.129 11.114 1.563 16.799a21.512 21.512 0 01-6.3 16.802 7.684 7.684 0 01-4.021 1.255 9.79 9.79 0 006.53-1.255 21.51 21.51 0 006.304-16.799c-.438-5.661-3.256-11.398-1.563-16.802a29.848 29.848 0 018.219-9.554c2.154-2.23 3.305-4.33.976-6.967h-.004z"/><g opacity=".3" fill="#3C5185"><path opacity=".024" d="M575.258 586.797l-23.103 13.338-41.497-23.817 23.213-13.403 41.387 23.882z"/><path opacity=".049" d="M574.271 586.229l-23.103 13.342-40.512-23.253 23.213-13.403 40.402 23.314z"/><path opacity=".073" d="M573.29 585.655l-23.105 13.348-39.525-22.687 23.213-13.403 39.417 22.742z"/><path opacity=".098" d="M572.305 585.086l-23.107 13.352-38.538-22.12 23.213-13.403 38.432 22.171z"/><path opacity=".122" d="M571.323 584.517l-23.112 13.354-37.553-21.554 23.213-13.403 37.452 21.603z"/><path opacity=".146" d="M570.338 583.947l-23.112 13.356-36.566-20.987 23.213-13.403 36.465 21.034z"/><path opacity=".171" d="M569.354 583.375l-23.115 13.363-35.579-20.422 23.213-13.403 35.481 20.462z"/><path opacity=".195" d="M568.37 582.807l-23.118 13.365-34.594-19.854 23.213-13.403 34.499 19.892z"/><path opacity=".22" d="M567.385 582.237l-23.118 13.369-33.607-19.29 23.213-13.403 33.512 19.324z"/><path opacity=".244" d="M566.402 581.668l-23.124 13.372-32.62-18.724 23.213-13.403 32.531 18.755z"/><path opacity=".268" d="M565.417 581.096l-23.124 13.378-31.635-18.157 23.213-13.402 31.546 18.181z"/><path opacity=".293" d="M564.435 580.526l-23.127 13.379-30.648-17.589 23.213-13.403 30.562 17.613z"/><path opacity=".317" d="M563.449 579.957l-23.13 13.382-29.661-17.021 23.213-13.403 29.578 17.042z"/><path opacity=".341" d="M562.467 579.388l-23.133 13.386-28.676-16.457 23.213-13.402 28.596 16.473z"/><path opacity=".366" d="M561.481 578.816l-23.138 13.39-27.687-15.89 23.213-13.403 27.612 15.903z"/><path opacity=".39" d="M560.5 578.247l-23.141 13.394-26.701-15.323 23.213-13.403 26.629 15.332z"/><path opacity=".415" d="M559.515 577.678l-23.14 13.396-25.717-14.758 23.213-13.403 25.644 14.765z"/><path opacity=".439" d="M558.532 577.108l-23.146 13.398-24.728-14.19 23.213-13.403 24.661 14.195z"/><path opacity=".463" d="M557.547 576.539L534.4 589.942l-23.742-13.626 23.213-13.403 23.676 13.626z"/><path opacity=".488" d="M556.564 575.967l-23.148 13.409-22.758-13.06 23.213-13.403 22.693 13.054z"/><path opacity=".512" d="M555.579 575.396l-23.152 13.412-21.769-12.494 23.213-13.401 21.708 12.483z"/><path opacity=".537" d="M554.597 574.829l-23.154 13.415-20.783-11.928 23.213-13.403 20.724 11.916z"/><path opacity=".561" d="M553.611 574.26l-23.155 13.418-19.798-11.36 23.213-13.403 19.74 11.345z"/><path opacity=".585" d="M552.629 573.688l-23.161 13.425-18.81-10.795 23.213-13.403 18.758 10.773z"/><path opacity=".61" d="M551.644 573.118l-23.16 13.428-17.824-10.229 23.213-13.403 17.771 10.204z"/><path opacity=".634" d="M550.662 572.549l-23.165 13.432-16.839-9.663 23.213-13.403 16.791 9.634z"/><path opacity=".659" d="M549.677 571.979l-23.168 13.432-15.851-9.094 23.213-13.403 15.806 9.065z"/><path opacity=".683" d="M548.694 571.407l-23.171 13.439-14.865-8.53 23.213-13.403 14.823 8.494z"/><path opacity=".707" d="M547.709 570.839l-23.174 13.442-13.877-7.965 23.213-13.403 13.838 7.926z"/><path opacity=".732" d="M546.727 570.27l-23.177 13.445-12.892-7.397 23.213-13.403 12.856 7.355z"/><path opacity=".756" d="M545.741 569.7l-23.177 13.444-11.906-6.828 23.213-13.403 11.87 6.787z"/><path opacity=".78" d="M544.759 569.128l-23.183 13.452-10.918-6.264 23.213-13.403 10.888 6.215z"/><path opacity=".805" d="M543.773 568.559l-23.184 13.455-9.933-5.696 23.213-13.403 9.904 5.644z"/><path opacity=".829" d="M542.791 567.989l-23.188 13.458-8.944-5.131 23.213-13.403 8.919 5.076z"/><path opacity=".854" d="M541.806 567.421l-23.188 13.461-7.959-4.564 23.213-13.403 7.934 4.506z"/><path opacity=".878" d="M540.82 566.849l-23.188 13.468-6.974-3.999 23.213-13.403 6.949 3.934z"/><path opacity=".902" d="M539.839 566.279l-23.192 13.47-5.987-3.433 23.213-13.403 5.966 3.366z"/><path opacity=".927" d="M538.854 565.71l-23.194 13.474-5-2.866 23.213-13.403 4.981 2.795z"/><path opacity=".951" d="M537.871 565.141l-23.198 13.478-4.015-2.301 23.213-13.403 4 2.226z"/><path opacity=".976" d="M536.889 564.568l-23.201 13.481-3.028-1.733 23.213-13.403 3.016 1.655z"/><path d="M535.903 563.999l-23.204 13.486-2.041-1.169 23.213-13.403 2.032 1.086z"/></g><path fill="#49486B" d="M511.567 516.939l30.089 16.939-29.899 17.262-29.901-16.483 29.711-17.718z"/><linearGradient id="u" gradientUnits="userSpaceOnUse" x1="154.757" y1="145.564" x2="173.3" y2="145.564" gradientTransform="matrix(-3.06 0 0 3.06 1013.682 88.616)"><stop offset="0" stop-color="#5d639f"/><stop offset="1" stop-color="#49496b"/></linearGradient><path fill="url(#u)" d="M511.576 517.814l28.55 16.07-28.369 16.381-28.372-15.64 28.191-16.811z"/><path fill="#373750" d="M511.61 523.831l23.256 13.094-23.109 13.342-23.108-12.741 22.961-13.695z"/><path fill="#4A496C" d="M541.656 533.88l-6.79 29.558-23.109 13.51v-25.806l29.899-17.262z"/><path fill="#5D629E" d="M481.854 534.657l8.597 29.987 21.307 12.302V551.14l-29.904-16.483z"/><linearGradient id="v" gradientUnits="userSpaceOnUse" x1="155.903" y1="146.546" x2="164.028" y2="146.546" gradientTransform="matrix(-3.06 0 0 3.06 1013.682 88.616)"><stop offset="0" stop-color="#49496b"/><stop offset="1" stop-color="#5d639f"/></linearGradient><path fill="url(#v)" d="M518.323 545.997l18.296-17.9s-23.369 7.527-24.862 15.476l6.566 2.424z"/><linearGradient id="w" gradientUnits="userSpaceOnUse" x1="150.277" y1="143.848" x2="165.288" y2="143.848" gradientTransform="matrix(-3.06 0 0 3.06 1013.682 88.616)"><stop offset="0" stop-color="#5d639f"/><stop offset="1" stop-color="#49496b"/></linearGradient><path fill="url(#w)" d="M507.901 545.303a154.357 154.357 0 0114.739-28.409c5.538-7.805 16.354-9.643 24.16-4.104a17.324 17.324 0 016.966 10.742l.067.349s-14.872-24.229-38.666 24.106l-7.266-2.684z"/><linearGradient id="x" gradientUnits="userSpaceOnUse" x1="162.844" y1="140.647" x2="167.443" y2="140.647" gradientTransform="matrix(-3.06 0 0 3.06 1013.682 88.616)"><stop offset="0" stop-color="#49496b"/><stop offset="1" stop-color="#5d639f"/></linearGradient><path fill="url(#x)" d="M515.38 541.193s-14.957-30.361-11.404-44.397c0 0-7.388 3.52 2.421 43.478l8.983.919z"/><linearGradient id="y" gradientUnits="userSpaceOnUse" x1="164.028" y1="144.648" x2="176.028" y2="144.648" gradientTransform="matrix(-3.06 0 0 3.06 1013.682 88.616)"><stop offset="0" stop-color="#49496b"/><stop offset="1" stop-color="#5d639f"/></linearGradient><path fill="url(#y)" d="M511.757 550.267s-17.577-66.892-36.72-23.316c0 0 14.201-13.023 28.635 18.653l8.085 4.663z"/><linearGradient id="z" gradientUnits="userSpaceOnUse" x1="160.881" y1="140.855" x2="165.288" y2="140.855" gradientTransform="matrix(-3.06 0 0 3.06 1013.682 88.616)"><stop offset="0" stop-color="#5d639f"/><stop offset="1" stop-color="#49496b"/></linearGradient><path fill="url(#z)" d="M511.757 550.267s-12.289-16.285 7.011-61.271c0 0-4.032 49.89 2.619 55.71l-9.63 5.561z"/><linearGradient id="A" gradientUnits="userSpaceOnUse" x1="-88.534" y1="-1212.155" x2="-67.168" y2="-1212.155" gradientTransform="rotate(180 -23.186 -1526.206) scale(3.06)"><stop offset="0" stop-color="#f0f1f9"/><stop offset="1" stop-color="#d5daed"/></linearGradient><path fill="url(#A)" d="M159.199 665.752a.93.93 0 00.535.75l30.836 17.824a2.893 2.893 0 002.602 0l30.838-17.824a.929.929 0 00.533-.75v-36.828h-65.381l.037 36.828z"/><linearGradient id="B" gradientUnits="userSpaceOnUse" x1="-33.69" y1="183.764" x2="-12.334" y2="183.764" gradientTransform="matrix(-3.06 0 0 3.06 1013.682 88.616)"><stop offset="0" stop-color="#49496b"/><stop offset="1" stop-color="#5d639f"/></linearGradient><path fill="url(#B)" d="M159.233 638.979v5.024a.923.923 0 00.535.75l30.729 17.824a2.891 2.891 0 002.601 0l30.842-17.824a.93.93 0 00.643-.676v-5.1a.924.924 0 01-.535.747l-30.838 17.824a2.893 2.893 0 01-2.602 0l-30.839-17.824a.922.922 0 01-.536-.745z"/><linearGradient id="C" gradientUnits="userSpaceOnUse" x1="-33.69" y1="188.22" x2="-12.336" y2="188.22" gradientTransform="matrix(-3.06 0 0 3.06 1013.682 88.616)"><stop offset="0" stop-color="#49496b"/><stop offset="1" stop-color="#5d639f"/></linearGradient><path fill="url(#C)" d="M159.233 652.523v5.208a.93.93 0 00.535.747l30.836 17.823a2.891 2.891 0 002.601 0l30.839-17.823a.932.932 0 00.532-.747v-5.1a.926.926 0 01-.532.747l-30.835 17.827a2.887 2.887 0 01-2.602 0l-30.839-17.827a.924.924 0 01-.535-.855z"/><path fill="#F3F5FB" d="M159.698 628.141a.785.785 0 000 1.5l30.836 17.824a2.891 2.891 0 002.601 0l30.839-17.824a.783.783 0 000-1.5l-30.835-17.823a2.893 2.893 0 00-2.602 0l-30.839 17.823z"/><linearGradient id="D" gradientUnits="userSpaceOnUse" x1="-79.239" y1="-1185.895" x2="-78.028" y2="-1185.895" gradientTransform="rotate(180 -23.186 -1526.206) scale(3.06)"><stop offset=".02" stop-color="#f8c01c"/><stop offset="1" stop-color="#f9d607"/></linearGradient><path fill="url(#D)" d="M195.953 568.921v12.94l-3.564 2.065V571.13l3.564-2.209z"/><path fill="#E3E7F3" d="M168.717 620.721a11.37 11.37 0 006.737 9.412 36.041 36.041 0 0032.513 0 11.369 11.369 0 006.882-9.342v-2.922l-2.567.465a16.715 16.715 0 00-4.134-3.244 36.041 36.041 0 00-32.513 0 16.706 16.706 0 00-4.137 3.244l-2.568-.465-.213 2.852z"/><path fill="#F7F8FC" d="M207.97 626.924a36.048 36.048 0 01-32.516 0c-8.911-5.172-8.911-13.584 0-18.752a36.041 36.041 0 0132.513 0c9.092 5.131 9.092 13.617 0 18.752h.003z"/><path fill="#D5DAED" d="M205.901 625.641a31.089 31.089 0 01-28.021 0c-7.702-4.458-7.702-11.73 0-16.188a31.095 31.095 0 0128.021 0c7.699 4.422 7.699 11.766 0 16.188z"/><path fill="#F7F8FC" d="M203.655 624.142a26.562 26.562 0 01-23.495 0c-6.453-3.636-6.453-9.695 0-13.262a26.568 26.568 0 0123.495 0c6.45 3.672 6.45 9.66 0 13.262z"/><path fill="#D5DAED" d="M201.623 622.822a21.632 21.632 0 01-19.146 0c-5.275-2.853-5.275-7.734 0-10.694a21.639 21.639 0 0119.146 0c5.132 2.96 5.132 7.88 0 10.694z"/><path fill="#F7F8FC" d="M199.377 621.289a18.027 18.027 0 01-14.725 0c-4.063-2.102-4.063-5.525 0-7.628a18.035 18.035 0 0114.725 0c4.064 2.14 4.064 5.63 0 7.628z"/><path fill="#D5DAED" d="M196.525 619.863a11.02 11.02 0 01-8.984 0c-2.46-1.104-2.46-3.388 0-4.669a11.02 11.02 0 018.984 0c2.461 1.32 2.461 3.421 0 4.669z"/><path fill="#4A496C" d="M191.89 618.258c-.57 0-1.032-.461-1.034-1.031v-48.021a1.07 1.07 0 012.105 0v47.877c0 .571-.463 1.035-1.035 1.035l-.036.14z"/><linearGradient id="E" gradientUnits="userSpaceOnUse" x1="-77.874" y1="-1185.69" x2="-76.01" y2="-1185.69" gradientTransform="rotate(180 -23.186 -1526.206) scale(3.06)"><stop offset=".02" stop-color="#f8c01c"/><stop offset="1" stop-color="#f9d607"/></linearGradient><path fill="url(#E)" d="M186.293 567.92v12.656l5.631 3.104v-12.801l-5.631-2.959z"/><linearGradient id="F" gradientUnits="userSpaceOnUse" x1="-1485.074" y1="123.111" x2="-1453.066" y2="123.111" gradientTransform="matrix(3.06 0 0 3.06 4602.675 40.3)"><stop offset=".01" stop-color="#f0f1f9"/><stop offset=".18" stop-color="#dbdff1"/><stop offset=".53" stop-color="#b7c1e3"/><stop offset=".82" stop-color="#a2aed9"/><stop offset="1" stop-color="#9aa7d5"/></linearGradient><path fill="url(#F)" d="M153.366 408.804a4.18 4.18 0 010 7.944l-46.879 27.237a14.839 14.839 0 01-13.516 0l-31.903-18.948a4.178 4.178 0 010-7.943l46.953-27.029a14.905 14.905 0 0113.583 0l31.762 18.739z"/><path fill="#FFF" d="M153.369 406.16a4.18 4.18 0 010 7.939l-46.882 27.167a14.839 14.839 0 01-13.516 0L61.067 422.32a4.181 4.181 0 010-7.941l46.953-27.099a14.905 14.905 0 0113.583 0l31.766 18.88z"/><path fill="#D3DAEC" d="M147.934 407.204l-25.496 15.046 1.604.905 25.426-15.046-1.534-.905zm-5.502-2.926l-50.995 30.023 1.603.975 50.925-30.094-1.533-.904zm-5.293-3.136l-50.925 30.025 1.604.976 50.921-30.095-1.6-.906zm-5.297-2.993L80.85 428.104l1.604.974 50.992-30.024-1.604-.905zm-5.364-3.136l-50.921 30.024 1.603.977 50.922-30.096-1.604-.905zm-5.294-3.067l-50.992 30.025 1.604.977 50.992-30.095-1.604-.907zm-5.502-1.741l-49.113 29.049 1.604.978 49.11-29.189-1.601-.838z"/><linearGradient id="G" gradientUnits="userSpaceOnUse" x1="118.004" y1="126.227" x2="124.619" y2="126.227" gradientTransform="matrix(-3.06 0 0 3.06 528.925 88.616)"><stop offset="0" stop-color="#5d639f"/><stop offset="1" stop-color="#49496b"/></linearGradient><path fill="url(#G)" d="M167.835 461.617v20.677a5.013 5.013 0 01-2.947 4.124 15.922 15.922 0 01-14.327 0 5.01 5.01 0 01-2.968-4.121v-20.68h20.242z"/><path fill="#373750" d="M150.558 465.745c-3.951-2.271-3.951-5.982 0-8.25a15.928 15.928 0 0114.33 0 4.36 4.36 0 010 8.25 15.935 15.935 0 01-14.33 0z"/><linearGradient id="H" gradientUnits="userSpaceOnUse" x1="49.949" y1="127.118" x2="55.962" y2="127.118" gradientTransform="matrix(-3.06 0 0 3.06 1013.417 72.635)"><stop offset="0" stop-color="#5d639f"/><stop offset="1" stop-color="#49496b"/></linearGradient><path fill="url(#H)" d="M151.21 465.369a3.957 3.957 0 010-7.501 14.482 14.482 0 0113.026 0 3.963 3.963 0 010 7.497 14.488 14.488 0 01-13.026 0v.004z"/><linearGradient id="I" gradientUnits="userSpaceOnUse" x1="51.74" y1="121.093" x2="52.57" y2="121.093" gradientTransform="matrix(3.06 0 0 3.06 -2.325 88.616)"><stop offset="0" stop-color="#fad604"/><stop offset=".85" stop-color="#e7b621"/></linearGradient><path fill="url(#I)" d="M157.272 451.418c.7.002 1.267.57 1.267 1.271v14.183c-.847.05-1.696.032-2.54-.052v-14.131a1.27 1.27 0 011.273-1.271z"/><linearGradient id="J" gradientUnits="userSpaceOnUse" x1="52.338" y1="121.148" x2="54.68" y2="121.148" gradientTransform="matrix(3.06 0 0 3.06 -2.325 88.616)"><stop offset=".15" stop-color="#4e9dd6"/><stop offset="1" stop-color="#69bbe9"/></linearGradient><path fill="url(#J)" d="M157.869 466.596l1.652-4.957.003-.023 2.996-8.951a1.269 1.269 0 112.408.802l-1.365 4.086-3.035 9.088a15.47 15.47 0 01-2.699.267c0-.107.013-.212.04-.312z"/><path fill="#4A496C" d="M151.418 452.177a1.27 1.27 0 011.597.822V453l3.446 10.771v.009l.998 3.121a15.453 15.453 0 01-2.763-.301l-2.879-9.015-1.221-3.813a1.268 1.268 0 01.822-1.595c-.001.001-.001 0 0 0z"/><path fill="#E3E7F3" d="M467.94 700.222h3.063a20.004 20.004 0 014.927-3.889 42.982 42.982 0 0138.745 0 19.945 19.945 0 014.927 3.886h3.063v7.24c.024 4.073-2.638 8.151-7.99 11.242a42.982 42.982 0 01-38.745 0c-5.353-3.091-8.015-7.169-7.986-11.242h-.003v-7.237z"/><path fill="#F7F8FC" d="M514.676 689.038a42.976 42.976 0 00-38.742 0c-10.654 6.15-10.654 16.218 0 22.368a42.982 42.982 0 0038.742 0c10.655-6.15 10.655-16.218 0-22.368z"/><linearGradient id="K" gradientUnits="userSpaceOnUse" x1="201.62" y1="200.946" x2="205.525" y2="200.946" gradientTransform="matrix(-3.06 0 0 3.06 505.811 88.616)"><stop offset="0" stop-color="#f9d607"/><stop offset=".98" stop-color="#f8c01c"/></linearGradient><path fill="url(#K)" d="M467.946 700.366v-6.282h2.127a18.573 18.573 0 015.856-5.049c7.527-4.346 2.477 12.252 0 22.368v7.295c-5.218-3.015-7.874-6.965-7.979-10.938l-.004-7.394z"/><path fill="#4A496C" d="M475.934 676.764a42.988 42.988 0 0138.742 0l-19.369 13.229-19.373-13.229z"/><linearGradient id="L" gradientUnits="userSpaceOnUse" x1="162.537" y1="191.151" x2="168.868" y2="191.151" gradientTransform="matrix(3.06 0 0 3.06 -2.06 104.596)"><stop offset="0" stop-color="#4a496c"/><stop offset="1" stop-color="#5d639f"/></linearGradient><path fill="url(#L)" d="M514.676 676.764v12.274l-19.373 13.23v-12.276l19.373-13.228z"/><linearGradient id="M" gradientUnits="userSpaceOnUse" x1="156.207" y1="191.15" x2="162.537" y2="191.15" gradientTransform="matrix(3.06 0 0 3.06 -2.06 104.596)"><stop offset="0" stop-color="#5d639f"/><stop offset="1" stop-color="#4a496c"/></linearGradient><path fill="url(#M)" d="M495.303 689.992l-19.369-13.229v12.274l19.369 13.23v-12.275z"/><linearGradient id="N" gradientUnits="userSpaceOnUse" x1="-385.65" y1="197.865" x2="-376.709" y2="197.865" gradientTransform="matrix(-3.06 0 0 3.06 -684.79 88.616)"><stop offset="0" stop-color="#f9d607"/><stop offset=".98" stop-color="#f8c01c"/></linearGradient><path fill="url(#N)" d="M475.934 682.899c-10.654 6.149-10.654 16.218 0 22.367l19.369-9.137-19.369-13.23z"/><linearGradient id="O" gradientUnits="userSpaceOnUse" x1="204.167" y1="195.809" x2="210.496" y2="195.809" gradientTransform="matrix(-3.06 0 0 3.06 506.077 104.596)"><stop offset="0" stop-color="#f9d607"/><stop offset=".98" stop-color="#f8c01c"/></linearGradient><path fill="url(#O)" d="M495.303 696.131v6.139l-19.369 9.138v-6.136l19.369-9.141z"/><linearGradient id="P" gradientUnits="userSpaceOnUse" x1="-56.223" y1="-1187.602" x2="-34.856" y2="-1187.602" gradientTransform="rotate(180 -23.186 -1526.206) scale(3.06)"><stop offset="0" stop-color="#f0f1f9"/><stop offset="1" stop-color="#d5daed"/></linearGradient><path fill="url(#P)" d="M60.325 590.62a.928.928 0 00.536.75l30.835 17.824a2.885 2.885 0 002.601 0l30.839-17.824a.927.927 0 00.535-.75v-36.823H60.288l.037 36.823z"/><linearGradient id="Q" gradientUnits="userSpaceOnUse" x1="21.127" y1="159.212" x2="42.482" y2="159.212" gradientTransform="matrix(-3.06 0 0 3.06 1013.682 88.616)"><stop offset="0" stop-color="#49496b"/><stop offset="1" stop-color="#5d639f"/></linearGradient><path fill="url(#Q)" d="M60.361 563.849v5.027a.928.928 0 00.533.75l30.731 17.824a2.885 2.885 0 002.601 0l30.839-17.824a.931.931 0 00.643-.677v-5.099a.929.929 0 01-.536.747l-30.839 17.824a2.891 2.891 0 01-2.601 0l-30.836-17.824a.926.926 0 01-.535-.748z"/><linearGradient id="R" gradientUnits="userSpaceOnUse" x1="21.127" y1="163.668" x2="42.481" y2="163.668" gradientTransform="matrix(-3.06 0 0 3.06 1013.682 88.616)"><stop offset="0" stop-color="#49496b"/><stop offset="1" stop-color="#5d639f"/></linearGradient><path fill="url(#R)" d="M60.361 577.398v5.201a.928.928 0 00.533.749l30.839 17.825a2.891 2.891 0 002.601 0l30.839-17.825a.925.925 0 00.532-.749V577.5a.925.925 0 01-.532.75l-30.839 17.824a2.885 2.885 0 01-2.601 0L60.897 578.25a.927.927 0 01-.536-.856v.004z"/><path fill="#F3F5FB" d="M60.824 553.01a.784.784 0 000 1.5l30.838 17.824a2.891 2.891 0 002.601 0l30.839-17.824a.783.783 0 000-1.496L94.263 535.19a2.891 2.891 0 00-2.601 0l-30.838 17.82z"/><path fill="#49496B" d="M97.388 551.26l-.842.71h-7.298l-.787-.733a11.482 11.482 0 01-3.703-8.429v-3.1h16.83v2.889a11.474 11.474 0 01-4.2 8.663z"/><path fill="#373750" d="M94.239 554.332h-2.625a2.441 2.441 0 01-2.442-2.441h7.638a2.44 2.44 0 01-2.436 2.447c-.047 0-.092-.002-.135-.006z"/><path fill="#2E469D" d="M99.067 536.297a13.121 13.121 0 00-11.867 0 3.622 3.622 0 000 6.849 13.115 13.115 0 0011.867 0 3.622 3.622 0 000-6.855v.006z"/><linearGradient id="S" gradientUnits="userSpaceOnUse" x1="26.177" y1="58.944" x2="36.236" y2="58.944" gradientTransform="matrix(3.06 0 0 -3.06 -2.325 706.736)"><stop offset="0" stop-color="#f9d607"/><stop offset=".98" stop-color="#f8c01c"/></linearGradient><path opacity=".9" fill="url(#S)" d="M93.162 508.15c-8.497.021-15.369 6.926-15.349 15.423a15.389 15.389 0 006.946 12.827v3.467a4.337 4.337 0 002.625 3.305 13.125 13.125 0 0011.842 0 4.173 4.173 0 002.417-3.28v-3.487c7.106-4.658 9.091-14.196 4.432-21.304a15.389 15.389 0 00-12.835-6.949l-.078-.002z"/><path fill="#FFF" d="M84.548 525.188c0-5.553 4.502-10.055 10.055-10.055h.003c5.251 0 4.752-4.277-1.812-4.277-6.554 0-11.867 5.313-11.867 11.866 0 4.175 3.623 6.014 3.623 2.466h-.002z"/><path opacity=".49" fill="#6E6D88" d="M99.095 544.513a13.125 13.125 0 01-11.842 0 4.328 4.328 0 01-2.625-3.308v1.156a4.339 4.339 0 002.625 3.305 13.125 13.125 0 0011.842 0 4.173 4.173 0 002.417-3.28v-1.155a4.172 4.172 0 01-2.417 3.282z"/><path opacity=".49" fill="#6E6D88" d="M99.043 547.845a13.125 13.125 0 01-11.842 0 5.632 5.632 0 01-2.022-1.836c.207.744.489 1.467.841 2.154.363.32.759.602 1.181.839a13.13 13.13 0 0011.842 0 6.75 6.75 0 00.97-.683c.429-.747.773-1.539 1.025-2.362a5.252 5.252 0 01-1.995 1.891v-.003z"/><linearGradient id="T" gradientUnits="userSpaceOnUse" x1="22.934" y1="65.817" x2="39.528" y2="65.817" gradientTransform="matrix(3.06 0 0 -3.06 -2.325 706.736)"><stop offset="0" stop-color="#f9d607"/><stop offset=".98" stop-color="#f8c01c"/></linearGradient><path fill="url(#T)" d="M93.11 506.865a1.261 1.261 0 01-1.261-1.262v-9.61a1.26 1.26 0 012.518 0v9.607c0 .695-.563 1.26-1.257 1.262v.003zm10.263 1.809l4.859-8.296a1.26 1.26 0 10-2.154-1.26l-4.884 8.296a1.26 1.26 0 002.154 1.261l.025-.001zm6.276 7.166l8.348-4.752a1.261 1.261 0 00-1.232-2.179l-8.348 4.752a1.262 1.262 0 001.232 2.179zm-31.218-.551a1.26 1.26 0 00-.419-1.704l-8.244-4.936a1.26 1.26 0 00-1.285 2.15l8.244 4.937a1.261 1.261 0 001.732-.419l-.028-.028zm6.303-6.221a1.26 1.26 0 00.499-1.707l-4.676-8.4a1.261 1.261 0 00-2.179 1.206l4.676 8.402a1.261 1.261 0 001.704.499h-.024z"/><path fill="#4A496C" d="M107.489 234.932l29.951 17.081a13.216 13.216 0 015.991 10.337v34.691a2.669 2.669 0 01-1.499 2.396l-2.454 1.2-31.096-18.084a13.3 13.3 0 01-5.992-10.374v-36.31l1.071-.734a3.752 3.752 0 014.027-.205l.001.002z"/><linearGradient id="U" gradientUnits="userSpaceOnUse" x1="714.466" y1="143.318" x2="727.869" y2="143.318" gradientTransform="matrix(3.06 0 0 -3.06 -2085.675 706.736)"><stop offset="0" stop-color="#4a4a6d"/><stop offset="1" stop-color="#5d649f"/></linearGradient><path fill="url(#U)" d="M135.613 252.732a13.215 13.215 0 015.991 10.336v33.535c0 3.804-2.696 5.361-5.991 3.458l-29.03-16.778a13.299 13.299 0 01-5.992-10.376v-33.121c0-3.801 2.708-5.383 5.992-3.501l29.03 16.447z"/><path fill="#4A496C" d="M132.287 269.538l1.857-.998c.386-.199.413-.905.067-1.576l-2.182-4.25c-.346-.673-.933-1.059-1.316-.863l-1.481.765c-.245.122-.6-.052-.894-.41a20.376 20.376 0 00-.539-.637 1.853 1.853 0 01-.486-1.196l.104-2.396a2.183 2.183 0 00-.888-1.726l-3.243-2.133c-.514-.337-.952-.116-.977.501l-.101 2.396c0 .379-.224.6-.521.542l-.6-.092a1.307 1.307 0 01-.845-.756l-1.346-2.635c-.349-.676-.937-1.063-1.322-.869l-2.396 1.233c-.383.199-.413.899-.064 1.576l1.334 2.607c.213.346.251.771.104 1.15a6.965 6.965 0 00-.269.532c-.135.294-.428.367-.756.153l-1.995-1.304c-.517-.336-.952-.107-.979.511l-.153 3.883c.01.683.338 1.321.888 1.726l2.007 1.31c.351.255.597.627.694 1.05l.227.894c.116.428.031.789-.202.909l-1.493.774c-.382.199-.407.906-.064 1.576l2.179 4.247c.349.679.936 1.062 1.319.863l1.481-.765c.245-.125.6.04.891.397.177.218.358.431.542.637.299.329.471.754.483 1.2l-.095 2.396c.01.69.346 1.335.906 1.738l3.24 2.127c.514.336.952.113.979-.502l.092-2.399c0-.376.223-.597.52-.538l.6.092c.38.108.69.383.845.747l1.355 2.638c.346.676.934 1.062 1.316.863l2.399-1.239c.383-.199.413-.906.064-1.576l-1.334-2.607a1.302 1.302 0 01-.104-1.157c.092-.163.179-.333.26-.508.132-.294.425-.367.753-.153l1.989 1.31c.517.336.955.113.979-.505l.162-3.883a2.182 2.182 0 00-.888-1.726l-2.007-1.316a1.794 1.794 0 01-.691-1.05 21.943 21.943 0 00-.407-1.576v-.002h.002zm-11.858.492c-1.521-3.959-.397-7.191 2.271-6.885a8.571 8.571 0 015.563 5.615c1.521 3.959.397 7.191-2.271 6.885a8.71 8.71 0 01-5.569-5.646l.006.031z"/><linearGradient id="V" gradientUnits="userSpaceOnUse" x1="715.502" y1="142.457" x2="723.923" y2="142.457" gradientTransform="matrix(3.06 0 0 -3.06 -2085.675 706.736)"><stop offset="0" stop-color="#eae9ea"/><stop offset="1" stop-color="#9ba7d5"/></linearGradient><path fill="url(#V)" d="M128.627 274.933l-2.007-1.319a1.793 1.793 0 01-.688-1.049c-.174-.713-.401-1.552-.413-1.601l1.888-.97c.382-.196.413-.906.064-1.576l-2.182-4.272a1.745 1.745 0 00-.878-.875.557.557 0 00-.398 0h-2.121v.643a1.632 1.632 0 01-.288-.275 19.247 19.247 0 00-.539-.636 1.86 1.86 0 01-.487-1.197l.104-2.396a2.18 2.18 0 00-.918-1.701l-3.243-2.133a.86.86 0 00-.419-.153h-2.558l-.061 2.754 1.989.104v.199c0 .376-.22.6-.52.539l-.6-.092a1.308 1.308 0 01-.866-.771l-1.35-2.635a1.53 1.53 0 00-1.062-.912h-2.521v1.199l-.15.077c-.383.199-.414.899-.064 1.576l1.334 2.607a1.3 1.3 0 01.101 1.15 6.965 6.965 0 00-.269.532c-.132.294-.425.367-.753.153l-1.989-1.304a.791.791 0 00-.486-.15h-2.515v2.999h1.928l-.062 1.555c.01.683.338 1.321.888 1.726l2.007 1.313c.351.254.597.627.695 1.05.07.3.153.597.226.89.113.432.031.792-.205.912l-1.49.774c-.382.196-.413.903-.067 1.576l4.979 4.348c.245-.125.6.043.894.401.175.216.355.428.539.636.3.328.473.752.486 1.197l-.095 2.399a2.18 2.18 0 00.887 1.726l1.294.844v1.42h2.283a.543.543 0 00.22 0 .612.612 0 00.407-.643l.095-2.396c0-.379.224-.6.521-.542l.6.092c.38.109.691.385.844.75l.713 1.396h-.995v2.157h2.769a.482.482 0 00.221-.049l2.399-1.239c.382-.199.413-.906.064-1.576l-1.337-2.607a1.309 1.309 0 01-.101-1.157c.092-.163.178-.333.257-.508.132-.294.426-.367.756-.153v1.46h2.372a.591.591 0 00.168 0c.251-.043.425-.272.444-.655l.162-3.883a2.185 2.185 0 00-.901-1.729zm-9.413 2.132a8.573 8.573 0 01-5.56-5.615c-1.521-3.959-.401-7.191 2.271-6.885a8.573 8.573 0 015.56 5.615c1.53 3.972.407 7.225-2.271 6.888v-.003z"/><linearGradient id="W" gradientUnits="userSpaceOnUse" x1="715.297" y1="142.457" x2="723.096" y2="142.457" gradientTransform="matrix(3.06 0 0 -3.06 -2085.675 706.736)"><stop offset="0" stop-color="#f0f0f8"/><stop offset="1" stop-color="#d4d9eb"/></linearGradient><path fill="url(#W)" d="M122.997 270.97l1.885-.97c.385-.199.413-.906.067-1.576l-2.188-4.278c-.346-.676-.934-1.062-1.316-.863l-1.481.762c-.245.123-.6-.049-.894-.41a21.45 21.45 0 00-.539-.633 1.857 1.857 0 01-.487-1.2l.101-2.396a2.184 2.184 0 00-.887-1.727l-3.241-2.133c-.514-.336-.952-.113-.976.505l-.101 2.396c0 .376-.223.597-.52.539l-.6-.092a1.31 1.31 0 01-.857-.74l-1.347-2.638c-.349-.676-.936-1.059-1.319-.869l-2.399 1.236c-.382.196-.413.896-.064 1.576l1.346 2.623a1.3 1.3 0 01.104 1.15 6.807 6.807 0 00-.269.533c-.132.293-.429.367-.756.153l-1.995-1.3c-.514-.337-.952-.11-.979.508l-.153 3.883c.01.683.338 1.321.887 1.726l1.965 1.31c.351.255.597.627.694 1.05.074.3.156.6.229.895.113.428.031.79-.205.909l-1.493.774c-.382.199-.407.905-.064 1.576l2.182 4.247c.346.68.933 1.062 1.316.863l1.475-.765c.245-.125.6.04.894.401.175.216.355.428.539.636.3.328.473.752.487 1.197l-.098 2.396c.01.682.338 1.321.887 1.726l3.244 2.127c.514.336.949.116.976-.502l.095-2.396c0-.379.22-.6.52-.542l.6.092c.405.093.741.374.906.756l1.353 2.635c.349.676.937 1.062 1.316.863l2.399-1.239c.383-.199.413-.906.067-1.576l-1.337-2.607a1.305 1.305 0 01-.101-1.157 5.57 5.57 0 00.251-.508c.131-.294.425-.367.756-.153l1.989 1.31c.514.336.949.113.976-.505l.162-3.883a2.18 2.18 0 00-.887-1.732l-2.007-1.316a1.79 1.79 0 01-.688-1.049 48.59 48.59 0 00-.42-1.598zm-11.858.489c-1.524-3.966-.404-7.191 2.271-6.885a8.573 8.573 0 015.56 5.615c1.521 3.963.398 7.191-2.271 6.885a8.573 8.573 0 01-5.56-5.612v-.003z"/></svg>