<svg viewBox="0 0 500 500" xmlns="http://www.w3.org/2000/svg"><g fill="#0073ec"><path d="M477.9 347.6H22.1A22.2 22.2 0 000 369.7V472a22.2 22.2 0 0022.1 22.1h455.8A22.2 22.2 0 00500 472V369.7a22.1 22.1 0 00-22.1-22.1z" opacity=".35"/><path d="M430.2 405.7a15.2 15.2 0 1015.2 15.2 15.1 15.1 0 00-15.2-15.2zm-55.3 0a15.2 15.2 0 1015.2 15.2 15.1 15.1 0 00-15.2-15.2zm-58.1 0a15.2 15.2 0 1015.2 15.2 15.2 15.2 0 00-15.2-15.2z" opacity=".95"/><path d="M321.6 115.5l-6.3-6.3a15.1 15.1 0 01-4.5-10.8v-4a9.6 9.6 0 00-3.8-7.9c-38.1-28-94.1-17.9-112-13.7a7.5 7.5 0 00-5.8 7.4v18.2a15.1 15.1 0 01-4.5 10.8l-6.3 6.3a15.2 15.2 0 00-4.4 10.7v8.9a76 76 0 0030.4 60.9v60.8h91.2V196a76 76 0 0030.4-60.9v-8.9a15.2 15.2 0 00-4.4-10.7zm129.3 60c-11.7-11.5-33.3-16.7-57.6-17.4a14.7 14.7 0 00-11 4.4l-13.8 13.8a15.5 15.5 0 00-4.4 10.8v8.9a45.4 45.4 0 0022.8 39.5v32.1h45.6v-32.1a45.6 45.6 0 0022.8-39.5v-9.7a15 15 0 00-4.4-10.8z" opacity=".35"/><path d="M250 256.8L225.7 281a7.6 7.6 0 01-11.4-.7l-25.1-33.2 6.5-13.8a7.6 7.6 0 0110.9-3.2zm0 0l24.3 24.2a7.6 7.6 0 0011.4-.7l25.1-33.2-6.5-13.8a7.6 7.6 0 00-10.9-3.2z"/><path d="M318.4 5.9h-91.2a60.8 60.8 0 00-60.8 60.8v18.1a75 75 0 003.9 24l2.5 7.6a22.2 22.2 0 011.2 7.2v2.6a15.2 15.2 0 014.4-10.7l6.3-6.3a15.1 15.1 0 004.5-10.8V80.2a7.5 7.5 0 015.8-7.4c17.9-4.2 73.9-14.3 112 13.7a9.6 9.6 0 013.8 7.9v4a15.1 15.1 0 004.5 10.8l6.3 6.3a15.2 15.2 0 014.4 10.7v1.3-3.9a22.2 22.2 0 011.2-7.2l2.5-7.6a75 75 0 003.9-24V21.1a15.2 15.2 0 00-15.2-15.2zm129.3 114h-53.2a22.8 22.8 0 00-22.8 22.8 15.3 15.3 0 0015.2 15.3l1.1.9a13.7 13.7 0 015.3-.8c24.3.7 45.9 5.9 57.6 17.4a14.9 14.9 0 014.3 9.3l5.4-18.7a62.3 62.3 0 002.3-16.7v-14.3a15.2 15.2 0 00-15.2-15.2z" opacity=".95"/><path d="M364.1 187.1a15.5 15.5 0 014.4-10.8l13.8-13.8a14.7 14.7 0 0111-4.4h1.2v-30.6h-15.2a22.8 22.8 0 00-22.8 22.8v5.4a59.8 59.8 0 003.1 19.2l4.5 13.5zm-343.4 61a146.4 146.4 0 0035.5 11.1 15.6 15.6 0 003.7-10v-13.7a45.5 45.5 0 01-22.4-33.6 7.6 7.6 0 014-7.9 67.8 67.8 0 0013.5-9.1 45.6 45.6 0 0010.4-13.7A7.6 7.6 0 0174 167a132.1 132.1 0 0151.6 26.5 7.1 7.1 0 012.6 6.1 45.6 45.6 0 01-22.7 35.9v13.7a15.2 15.2 0 004 10.2 144.2 144.2 0 0036.9-11.3 7.6 7.6 0 004-9.7c-6.5-17.2-11.7-46.8-12.8-62.2-2.1-29.3-24.2-53.2-54.1-53.2s-51.9 23.9-54 53.2c-1.2 15.4-6.3 45-12.8 62.2a7.6 7.6 0 004 9.7zm-.9 99.7l2.3-.2h103.8a7.6 7.6 0 01-5.2-7.2v-47.1a30.5 30.5 0 019.7-22.2l-9.4-4.8a45.5 45.5 0 01-76.6 0l-17.5 8.8a22.9 22.9 0 00-12.6 20.4v44.9a7.7 7.7 0 005.5 7.4zm359.5-54.5v47.1a7.6 7.6 0 01-5.2 7.2h103.8l2.3.2a7.7 7.7 0 005.5-7.4v-55.6a22.8 22.8 0 00-16.5-21.9l-36.7-10.5-4.6 3.1a33 33 0 01-36.4 0l-4.6-3.1-34.4 9.9 6.7 2.4a30.4 30.4 0 0120.1 28.6z" opacity=".95"/><path d="M19.8 347.8l2.3-.2h103.8a7.6 7.6 0 01-5.2-7.2v-47.1a30.5 30.5 0 019.7-22.2l-16.5-8.3a15.3 15.3 0 01-8.4-13.6v-13.7a45.6 45.6 0 0022.7-35.9 7.1 7.1 0 00-2.6-6.1A132.1 132.1 0 0074 167a7.6 7.6 0 00-8.6 4.2A45.6 45.6 0 0155 184.9a67.8 67.8 0 01-13.5 9.1 7.6 7.6 0 00-4 7.9 45.5 45.5 0 0022.4 33.6v13.7a15.1 15.1 0 01-8.4 13.6l-24.6 12.3a22.9 22.9 0 00-12.6 20.4v44.9a7.7 7.7 0 005.5 7.4z" opacity=".35"/><path d="M125.9 347.6h248.2a7.6 7.6 0 005.2-7.2v-47.1a30.4 30.4 0 00-20.1-28.6l-63.6-23.1-45.6 15.2-45.6-15.2-63.6 23.1a30.4 30.4 0 00-20.1 28.6v47.1a7.6 7.6 0 005.2 7.2z" opacity=".35"/></g></svg>