<svg viewBox="0 0 500 500" xmlns="http://www.w3.org/2000/svg"><g fill="#0073ec"><path d="M492.9 5.5A16.7 16.7 0 00480.5 0h-461A16.7 16.7 0 007.1 5.5 19.2 19.2 0 002 18.7v76.6h496V18.7a19.2 19.2 0 00-5.1-13.2zM56 66.5a11.8 11.8 0 1111.8-11.8A11.8 11.8 0 0156 66.5zm42.8-.1a11.7 11.7 0 010-23.4 11.7 11.7 0 110 23.4zm42.8 0a11.7 11.7 0 1111.7-11.7 11.7 11.7 0 01-11.7 11.7z" opacity=".95"/><g opacity=".35"><circle cx="98.8" cy="54.7" r="11.7" transform="rotate(-67.5 98.863 54.693)"/><circle cx="56" cy="54.7" r="11.7"/><circle cx="141.6" cy="54.7" r="11.7"/></g><rect height="150.24" rx="7.4" width="203.3" x="48.7" y="165.7"/><path d="M245.1 345.1H58.7a6.9 6.9 0 000 13.8h186.4a6.9 6.9 0 100-13.8z"/><path d="M448.4 172.7a3.1 3.1 0 00-3-3.1h-52.2a3.1 3.1 0 00-3.1 3.1v11.4h14.1a4 4 0 013.9 3.9 4 4 0 01-3.9 3.9h-14.1v10.6h5.3a3.7 3.7 0 013.7 3.7 4 4 0 01-4.1 4h-4.9v10.6h14.3a3.8 3.8 0 013.7 3.7v.4a3.8 3.8 0 01-3.7 3.7h-14.3v10.6h5.1a3.9 3.9 0 110 7.7h-5.1v10.6h14.1a4 4 0 013.9 3.9 3.9 3.9 0 01-3.9 3.9h-14.1v10.6h5.1a3.9 3.9 0 013.9 3.9 4 4 0 01-3.9 3.9h-5.1v10.5h14.1a4 4 0 013.9 3.9 3.9 3.9 0 01-3.9 3.9h-14.1v10.6h5.1a3.9 3.9 0 013.9 3.9 4 4 0 01-3.9 3.9h-5.1v10.5h14.1a4 4 0 013.9 3.9 3.9 3.9 0 01-3.9 3.9h-14.1v10.6h5.1a3.9 3.9 0 013.9 3.9 4 4 0 01-3.9 3.9h-5.1v10.5h14.1a4 4 0 013.9 3.9 3.9 3.9 0 01-3.9 3.9h-14.1V386h5.1a3.9 3.9 0 013.9 3.9 4 4 0 01-3.9 3.9h-5.1v10.5h14.1a4 4 0 013.9 3.9 3.9 3.9 0 01-3.9 3.9h-14.1v10.6h5.1a3.9 3.9 0 013.9 3.9 4 4 0 01-3.9 3.9h-5.1v10.6h14.1a3.9 3.9 0 013.9 3.8 3.9 3.9 0 01-3.9 3.9h-14.1v10.6h5.1a3.9 3.9 0 013.9 3.9 4 4 0 01-3.9 3.9h-5.1v29.7a3.1 3.1 0 003.1 3.1h52.2a3.1 3.1 0 003-3.1zm-44.2 312.8h-14.1v-7.7h14.1a4 4 0 013.9 3.8 3.9 3.9 0 01-3.9 3.9z" opacity=".95"/><path d="M299.4 216.7l18.2-31.4h18.1l18.1 31.4z" opacity=".35"/><path d="M353.8 216.7v233.8h-54.3V216.7zm-18.1-31.4l-9-15.7-9.1 15.7z" opacity=".95"/><path d="M299.5 450.5h18.1v18.11h-18.1zm18.1 0h36.2v18.11h-36.2z" opacity=".35"/><path d="M299.5 472.8v-4.2h18.1v4.2a27 27 0 0018.1 25.6 25.1 25.1 0 01-9 1.6 27.4 27.4 0 01-19.3-8 26.9 26.9 0 01-7.9-19.2z" opacity=".95"/><path d="M317.6 472.8v-4.2h36.3v4.2a27 27 0 01-18.1 25.6 27 27 0 01-18.1-25.6z" opacity=".95"/><path d="M2 95.3v309.6a19.2 19.2 0 005.1 13.2 16.7 16.7 0 0012.4 5.5h280V216.7h-.1l18.2-31.4 9.1-15.7 9 15.7 18.1 31.4v206.9h126.7a16.7 16.7 0 0012.4-5.5 19.2 19.2 0 005.1-13.2V95.3zm243.1 263.6H58.7a6.9 6.9 0 010-13.8h186.4a6.9 6.9 0 110 13.8zm6.9-50.4a7.4 7.4 0 01-7.4 7.4H56.1a7.4 7.4 0 01-7.4-7.4V173.1a7.4 7.4 0 017.4-7.4h188.5a7.4 7.4 0 017.4 7.4z" opacity=".35"/></g></svg>