<svg viewBox="0 0 500 500" xmlns="http://www.w3.org/2000/svg"><g fill="#0073ec"><path d="M477.9 332.9H22.1a22.2 22.2 0 00-22.1 22v102.4a22.2 22.2 0 0022.1 22h455.8a22.2 22.2 0 0022.1-22V354.9a22 22 0 00-22.1-22z" opacity=".35"/><path d="M316.8 421.3a15.2 15.2 0 1115.2-15.2 15.2 15.2 0 01-15.2 15.2zm58.1 0a15.2 15.2 0 1115.2-15.2 15.2 15.2 0 01-15.2 15.2zm55.3 0a15.2 15.2 0 1115.2-15.2 15.1 15.1 0 01-15.2 15.2zm0-189.8a15.2 15.2 0 1015.2 15.2 15.1 15.1 0 00-15.2-15.2zm-55.3 0a15.2 15.2 0 1015.2 15.2 15.2 15.2 0 00-15.2-15.2zm-58.1.1a15.2 15.2 0 1015.2 15.2 15.2 15.2 0 00-15.2-15.2z" opacity=".95"/><path d="M128.8 173.5a119 119 0 0113.8-47.5l14.1 8.1a4.5 4.5 0 006.1-1.6 4.3 4.3 0 00-1.7-6l-14.1-8.2a123.3 123.3 0 0138.7-38.7l8.3 14.3a4.4 4.4 0 006 1.6 4.4 4.4 0 001.6-6l-8.2-14.3a121.4 121.4 0 0152.3-13.9v19.3a4.4 4.4 0 004.4 4.4 4.4 4.4 0 004.4-4.4V61.3a121.7 121.7 0 0153.3 14.4L298.9 91a4.5 4.5 0 001.6 6.1 4.4 4.4 0 006.1-1.7l8.8-15.2a122.6 122.6 0 0137.6 37.6l-15 8.7a4.4 4.4 0 00-1.7 6h.1a4.3 4.3 0 006 1.7l15-8.7a121.7 121.7 0 0114.1 48h8.6c-4.9-67.5-61.3-120.9-130-120.9S125 106 120.1 173.5z" opacity=".35"/><path d="M262.9 200.2c-10.6 3.8-21.5 1.3-28.9-6.1a26.9 26.9 0 0119-45.9c10.5 0 20 5.9 24.8 16.2l.3.8c5.1 13.9-.9 28.4-14.4 34.7zm-9.9-39.6a14.5 14.5 0 00-10.2 24.7 14.7 14.7 0 0020.4 0 14 14 0 004.3-10.2 14.5 14.5 0 00-14.5-14.5z"/><ellipse cx="253" cy="175.1" opacity=".95" rx="6.3" ry="5.8"/><path d="M262.9 200.2c-10.6 3.8-21.5 1.3-28.9-6.1a26.9 26.9 0 0119-45.9c10.5 0 20 5.9 24.8 16.2l.3.8c5.1 13.9-.9 28.4-14.4 34.7zm-9.9-39.6a14.5 14.5 0 00-10.2 24.7 14.7 14.7 0 0020.4 0 14 14 0 004.3-10.2 14.5 14.5 0 00-14.5-14.5z" opacity=".95"/><path d="M105.6 173.5a144.8 144.8 0 01289 0h17.5a162.3 162.3 0 00-324 0z" opacity=".35"/><path d="M224.3 146.6a40.5 40.5 0 0159.2 2l17.8-8.4a6.3 6.3 0 018.3 3 6.2 6.2 0 01-3 8.2l-16.2 7.7.5 1.1a41.8 41.8 0 012.6 13.2h78a121.7 121.7 0 00-14.1-48l-15 8.7a4.3 4.3 0 01-6-1.7h-.1a4.4 4.4 0 011.7-6l15-8.7a122.6 122.6 0 00-37.6-37.6l-8.8 15.2a4.4 4.4 0 01-6.1 1.7 4.5 4.5 0 01-1.6-6.1l8.9-15.3a121.7 121.7 0 00-53.3-14.4v19.4a4.4 4.4 0 01-4.4 4.4 4.4 4.4 0 01-4.4-4.4V61.3a121.4 121.4 0 00-52.3 13.9l8.2 14.3a4.4 4.4 0 01-1.6 6 4.4 4.4 0 01-6-1.6l-8.3-14.3a123.3 123.3 0 00-38.7 38.7l14.1 8.2a4.3 4.3 0 011.7 6 4.5 4.5 0 01-6.1 1.6l-14.1-8.1a119 119 0 00-13.8 47.5h83.7a40.1 40.1 0 0111.8-26.9z" opacity=".95"/><path d="M120.1 173.5c4.9-67.5 61.3-120.9 130-120.9s125.1 53.4 130 120.9h14.5a144.8 144.8 0 00-289 0z" opacity=".95"/><path d="M309.6 143.2a6.3 6.3 0 00-8.3-3l-17.8 8.4a40.6 40.6 0 10-59.2 55.4c11.2 11.2 27.7 15 43.7 9.2l1.1-.4c20.4-9.5 29.4-31.4 21.8-52.5l-.5-1.1 16.2-7.7a6.2 6.2 0 003-8.3z" opacity=".35"/><path d="M477.9 173.5H293.5a7.6 7.6 0 01.1 1.5 38.1 38.1 0 01-.4 5.9v.2l-.3 1.3v.2a34.1 34.1 0 01-1.4 5.5c0 .1-.1.2-.1.3s-.3.8-.4 1.2-.1.2-.2.4-1 2.3-1.5 3.5a.5.5 0 00-.2.4 4.1 4.1 0 00-.5.9l-.4.6a3.5 3.5 0 01-.5.8l-.3.6-.6.8-.6.9-.7 1.1-.6.7-.5.6-.6.7-.5.7-.8.7-.4.5-1.2 1.2-.5.4-.8.8-.6.5-.9.7-.5.4-1.2.9-.2.2-1.5 1-.5.3-1.1.7-.6.3-1.2.6-.5.3-1.7.8-1.1.4c-16 5.8-32.5 2-43.7-9.2l-1.5-1.5-.4-.6-1-1.1-.5-.6-.7-1-.5-.7-.7-1.1-.5-.7-.6-1a3 3 0 01-.4-.8l-.6-1a5.9 5.9 0 00-.4-.8l-.5-.9-.3-.8a11.7 11.7 0 01-.5-1.1l-.3-.8c-.1-.4-.3-.7-.4-1.1s-.1-.5-.2-.8a5.6 5.6 0 01-.4-1.2 1.9 1.9 0 00-.2-.7l-.3-1.3c0-.2-.1-.5-.1-.7l-.3-1.3c0-.2-.1-.5-.1-.7s-.1-.9-.2-1.4v-.6c-.1-.5-.1-1-.2-1.5v-.5a8.6 8.6 0 00-.1-1.6v-.4a13.4 13.4 0 01.1-2H22.1A22.2 22.2 0 000 195.6v102.3A22.2 22.2 0 0022.1 320h455.8a22.2 22.2 0 0022.1-22.1V195.6a22.1 22.1 0 00-22.1-22.1z" opacity=".35"/></g></svg>