<svg viewBox="0 0 500 500" xmlns="http://www.w3.org/2000/svg"><g fill="#0073ec"><path d="M481 183.6a86.4 86.4 0 00-41.6-28.3 151.1 151.1 0 00-279.7-71.5 67.7 67.7 0 00-20.6-3.1A69.2 69.2 0 0071.7 135 95.9 95.9 0 00.2 233.5c3 50.8 45.8 90.1 96.7 90.1h121.5v42.5a13.7 13.7 0 01-13.7 13.7h-37.8c-3.4-11.1-3.4 26.9 0 15.7h37.8a29.4 29.4 0 0029.4-29.4v-42.4H261v105.6c-10.8 3.3 20.1 1.4 15.7 0V323.6h26.9v42.7a29.4 29.4 0 0029.4 29.4h29.3c3.4 11.1 3.4-26.9 0-15.7H333a13.7 13.7 0 01-13.7-13.7v-42.7h94.6a86.1 86.1 0 0067.1-140zm-109.9-78.5a8.1 8.1 0 01-5.1 1.8 7.8 7.8 0 01-6.1-2.9 92.5 92.5 0 00-71.4-33.8 7.9 7.9 0 01-7.9-8 7.9 7.9 0 017.9-7.9 108.5 108.5 0 0183.7 39.5 8.1 8.1 0 01-1.1 11.3z" opacity=".35"/><path d="M269 462.5h-.6a22.5 22.5 0 01-15.7-6.9 22.3 22.3 0 0116.1-37.9h.6a21.5 21.5 0 0115.7 6.9 22.3 22.3 0 01-16.1 37.9zm-113.3-52.2a22.5 22.5 0 1122.5-22.5 22.5 22.5 0 01-22.5 22.5z" opacity=".95"/><circle cx="382.1" cy="387.9" opacity=".95" r="22.5" transform="rotate(-22.5 382.002 387.73)"/></g></svg>