<svg viewBox="0 0 500 500" xmlns="http://www.w3.org/2000/svg"><path d="M257.1 0a95.6 95.6 0 0195.6 95.6v4.4h-35.5v-4.4a60.2 60.2 0 00-120.3 0v4.4h-35.5v-4.4A95.6 95.6 0 01257.1 0H97v228.7h22v-6.3h-9.4a4.7 4.7 0 01-4.7-4.7v-20.3a4.7 4.7 0 014.7-4.7h9.4v-14.2h-9.4a4.7 4.7 0 01-4.7-4.7v-20.3a4.7 4.7 0 014.7-4.7h9.4v-34.7a14.1 14.1 0 0114.1-14.1H381a14.1 14.1 0 0114.1 14.1v114.6h7.9V0z" fill="none"/><g fill="#0073ec"><path d="M381 100H133.1a14.1 14.1 0 00-14.1 14.1v20.6h63.2a14 14 0 0110 4.1 14.4 14.4 0 014.1 10v79.9h198.8V114.1A14.1 14.1 0 00381 100z" opacity=".95"/><path d="M161.4 95.6v4.4h35.5v-4.4a60.2 60.2 0 01120.3 0v4.4h35.5v-4.4a95.7 95.7 0 00-191.3 0z" opacity=".35"/><path d="M182.2 173.8v-20.3a4.7 4.7 0 00-4.7-4.7h-67.9a4.7 4.7 0 00-4.7 4.7v20.3a4.7 4.7 0 004.7 4.7h67.9a4.7 4.7 0 004.7-4.7zm-55.4-10.1a7 7 0 01-7 7 7 7 0 01-7.1-7 7.1 7.1 0 017.1-7.1 7 7 0 017 7.1zm47.6 0a7 7 0 01-7.1 7 7 7 0 01-7-7 7 7 0 017-7.1 7.1 7.1 0 017.1 7.1z" opacity=".95"/><path d="M167.3 156.6a7 7 0 00-7 7.1 7 7 0 007 7 7 7 0 007.1-7 7.1 7.1 0 00-7.1-7.1z" opacity=".35"/><rect height="14.11" opacity=".35" rx="7.1" width="14.1" x="112.7" y="156.6"/><path d="M182.2 217.7v-20.3a4.7 4.7 0 00-4.7-4.7h-67.9a4.7 4.7 0 00-4.7 4.7v20.3a4.7 4.7 0 004.7 4.7h67.9a4.7 4.7 0 004.7-4.7zm-55.4-10.2a7 7 0 01-7 7.1 7.1 7.1 0 01-7.1-7.1 7 7 0 017.1-7 7 7 0 017 7zm47.6 0a7.1 7.1 0 01-7.1 7.1 7 7 0 01-7-7.1 7 7 0 017-7 7 7 0 017.1 7z" opacity=".95"/><path d="M167.3 200.5a7 7 0 00-7 7 7 7 0 007 7.1 7.1 7.1 0 007.1-7.1 7 7 0 00-7.1-7z" opacity=".35"/><rect height="14.11" opacity=".35" rx="7.1" width="14.1" x="112.7" y="200.5"/><path d="M452.4 228.4H47.6A19.6 19.6 0 0028 248v90.9a19.7 19.7 0 0019.6 19.6h404.8a19.7 19.7 0 0019.6-19.6V248a19.6 19.6 0 00-19.6-19.6zm0 141.5H47.6A19.6 19.6 0 0028 389.5v90.9A19.6 19.6 0 0047.6 500h404.8a19.6 19.6 0 0019.6-19.6v-90.9a19.6 19.6 0 00-19.6-19.6z" opacity=".35"/><path d="M309.4 306.9a13.5 13.5 0 1113.5-13.4 13.4 13.4 0 01-13.5 13.4zm51.6 0a13.5 13.5 0 1113.5-13.5 13.4 13.4 0 01-13.5 13.5zm49 0a13.5 13.5 0 1113.5-13.5 13.4 13.4 0 01-13.5 13.5zM309.4 448.5a13.5 13.5 0 1113.5-13.5 13.4 13.4 0 01-13.5 13.5zm51.6-.1a13.5 13.5 0 1113.5-13.5 13.4 13.4 0 01-13.5 13.5zm49 0a13.5 13.5 0 1113.5-13.5 13.4 13.4 0 01-13.5 13.5z" opacity=".95"/><path d="M177.5 222.4H119v6h77.3v-79.6a14.4 14.4 0 00-4.1-10 14 14 0 00-10-4.1H119v14.1h58.5a4.7 4.7 0 014.7 4.7v20.3a4.7 4.7 0 01-4.7 4.7H119v14.2h58.5a4.7 4.7 0 014.7 4.7v20.3a4.7 4.7 0 01-4.7 4.7z" opacity=".35"/></g></svg>