<svg viewBox="0 0 500 500" xmlns="http://www.w3.org/2000/svg"><g fill="#0073ec"><path d="M480 340.1H216.9a120 120 0 018.1 43.4 117.7 117.7 0 01-40.2 89.2H480a20.1 20.1 0 0020-20v-92.6a20 20 0 00-20-20zm0-144.3H67.3a20.1 20.1 0 00-20 20v72.7a109.2 109.2 0 0165.2-21.5c42.9 0 80.2 24.9 99.2 61.5H480a20.1 20.1 0 0020-20v-92.7a20.1 20.1 0 00-20-20z" opacity=".35"/><path d="M334.2 275.9a13.8 13.8 0 1113.7-13.7 13.7 13.7 0 01-13.7 13.7zm52.6 0a13.8 13.8 0 1113.7-13.8 13.8 13.8 0 01-13.7 13.8zm50 0a13.8 13.8 0 1113.7-13.8 13.8 13.8 0 01-13.7 13.8zM334.2 420.2a13.8 13.8 0 1113.7-13.8 13.7 13.7 0 01-13.7 13.8zm52.6 0a13.8 13.8 0 1113.7-13.8 13.8 13.8 0 01-13.7 13.8zm50 0a13.8 13.8 0 1113.7-13.8 13.8 13.8 0 01-13.7 13.8zM112.4 500a106 106 0 01-43.7-9.2 112.1 112.1 0 01-35.8-25 120.2 120.2 0 01-24-37.2 119.2 119.2 0 0124-127.5 111.8 111.8 0 0135.8-24.9 104.5 104.5 0 0143.7-9.2 104.8 104.8 0 0143.7 9.2 114.2 114.2 0 0160 61.9 119.5 119.5 0 010 90.5 118.7 118.7 0 01-24.1 37.2 114.7 114.7 0 01-35.9 25 106.4 106.4 0 01-43.7 9.2zm0-224.8a99.9 99.9 0 00-40.7 8.5 110 110 0 00-33.3 176.2 107.6 107.6 0 0033.3 23.3 98.3 98.3 0 0040.7 8.5 97.9 97.9 0 0040.6-8.5 105.3 105.3 0 0033.3-23.3 109.5 109.5 0 0022.5-34.5 111.9 111.9 0 000-84.1 109.1 109.1 0 00-22.5-34.4 106.7 106.7 0 00-33.3-23.2 99.5 99.5 0 00-40.6-8.5zm-27 203.5a114.7 114.7 0 0013.2 2.9 88.6 88.6 0 0045.7-4.8l-30.1-83.9zM63.3 327.2a4.4 4.4 0 012.8 1 4.1 4.1 0 011.5 2.7q.6 3.8-3.6 4.2a36.4 36.4 0 01-5.4.7l-5.4.4 35 106.8 21.1-64.4-15.2-42.1-7.6-1-2.9-.4a3.7 3.7 0 01-2.6-1.6 2.8 2.8 0 01-.5-2.9A4.6 4.6 0 0182 328a2.8 2.8 0 012.9-.6l3.6.6 10.1.8a81.6 81.6 0 0015.8 0c3.8-.6 10.7-1.1 20.9-1.6a4.4 4.4 0 012.8 1 4.1 4.1 0 011.5 2.7q.6 3.8-3.6 4.2a36.4 36.4 0 01-5.4.7l-5.1.4L160.2 443l6.8-24c1.8-6.4 3.3-11.6 4.5-15.7s2.4-8.3 3.1-11.2a52.1 52.1 0 002.2-18.5 33.9 33.9 0 00-4.3-15 72.8 72.8 0 00-4.5-8 76.3 76.3 0 01-5.2-10.3 39.6 39.6 0 01-3.1-10.9 16.9 16.9 0 011.5-10c2.3-4.1 4.7-6.7 7.5-7.8a15.5 15.5 0 018.5-1.2 95.1 95.1 0 00-29.5-19.2 90.7 90.7 0 00-35.3-6.9 90.6 90.6 0 00-46.2 12.1 97.1 97.1 0 00-33.8 32.4h13.9c5.1-.2 10.8-.8 17-1.6zm-46.6 56.1a102.3 102.3 0 003.9 28.3 95.7 95.7 0 0011 25.1 98.3 98.3 0 0017.1 20.8 91.6 91.6 0 0022 15.1l-46-128.9a101.2 101.2 0 00-8 39.6zm191.3 0a100 100 0 00-11-46.3 38.8 38.8 0 01.5 5.7 57.8 57.8 0 01-.3 5.8 125.4 125.4 0 01-5.4 26.1c-2.5 7.8-5 15.2-7.4 22.3-1.1 3.1-2.7 8-4.9 14.9s-4.6 14.2-7.2 21.8-5 14.6-7.2 21.4-3.9 11.5-4.9 14.4a91.6 91.6 0 0019.5-15.6 102.3 102.3 0 0015.1-20.2 106.4 106.4 0 009.8-23.8 99.7 99.7 0 003.4-26.5z"/><path d="M55.9 196.2a6.2 6.2 0 00.9 2.7 20.2 20.2 0 0110.5-3.1H480a19.6 19.6 0 019.9 2.7 4.6 4.6 0 00.4-2.1 75.1 75.1 0 00-16.5-46.9 75.9 75.9 0 00-36.2-24.6 131.4 131.4 0 00-243.2-62.2 60.2 60.2 0 00-76.6 44.5 83.8 83.8 0 00-62.2 85.7zM306.4 37a94.5 94.5 0 0172.8 34.4 7 7 0 01-1 9.8 6.6 6.6 0 01-4.4 1.6 6.9 6.9 0 01-5.3-2.5 80.5 80.5 0 00-62.1-29.4 7 7 0 010-13.9z" opacity=".95"/></g></svg>