<svg xmlns="http://www.w3.org/2000/svg" id="Layer_1" x="0" y="0" viewBox="0 0 32 32" xml:space="preserve"><style>.st0{fill:#4284fb}</style><path class="st0" d="M26 12.8H6c-.4 0-.8-.3-.8-.8s.3-.8.8-.8h20c.4 0 .8.3.8.8s-.4.8-.8.8z"/><path class="st0" d="M24 24.8H8c-1.5 0-2.8-1.2-2.8-2.8V10c0-1.5 1.2-2.8 2.8-2.8h16c1.5 0 2.8 1.2 2.8 2.8v12c0 1.5-1.3 2.8-2.8 2.8zM8 8.8c-.7 0-1.2.6-1.2 1.2v12c0 .7.6 1.2 1.2 1.2h16c.7 0 1.2-.6 1.2-1.2V10c0-.7-.6-1.2-1.2-1.2H8z"/><path class="st0" d="M14 20.8h-4c-.4 0-.8-.3-.8-.8v-4c0-.4.3-.8.8-.8h4c.4 0 .8.3.8.8v4c0 .4-.4.8-.8.8zm-3.2-1.6h2.5v-2.5h-2.5v2.5z"/></svg>