<svg xmlns="http://www.w3.org/2000/svg" id="Layer_1" x="0" y="0" viewBox="0 0 32 32" xml:space="preserve"><style>.st0{fill:#4284fb}</style><path class="st0" d="M14 18.8H9.6c-2.4 0-4.3-1.9-4.4-4.3 0-2.4 2-4.4 4.4-4.4H14c.4 0 .8.3.8.8v7.2c0 .4-.4.7-.8.7zm-4.4-7.2c-1.6 0-2.9 1.3-2.9 2.9 0 1.6 1.3 2.8 2.9 2.8h3.6v-5.7H9.6z"/><path class="st0" d="M21 22.9c-.5 0-1.1-.2-1.5-.5l-5.9-3.9c-.2-.1-.3-.4-.3-.6v-7c0-.3.1-.5.3-.6l5.9-3.9c1.3-.8 3-.5 3.8.8.3.4.5.9.5 1.5v11.5c0 .7-.3 1.4-.8 1.9-.6.5-1.3.8-2 .8zm-.7-1.7c.2.1.4.2.7.2.3 0 .6-.1.9-.4.2-.2.4-.5.4-.9V8.6c0-.2-.1-.5-.2-.7-.4-.6-1.2-.7-1.7-.3l-5.6 3.7v6.2l5.5 3.7z"/><path class="st0" d="M24.5 16.6H23c-.4 0-.8-.3-.8-.8v-3c0-.4.3-.8.8-.8h1.5c1.2 0 2.2 1 2.2 2.2s-1 2.4-2.2 2.4zm-.7-1.5h.8c.4 0 .8-.3.8-.8s-.3-.8-.8-.8h-.8v1.6zm-10.3 11c-1.2 0-2.2-.8-2.6-1.9l-1.6-5.6c-.1-.4.1-.8.5-.9s.8.1.9.5l1.6 5.6c.2.6.9 1 1.4.8.3-.1.6-.3.7-.6.2-.3.2-.6.1-.9l-1.3-4.6c-.1-.4.1-.8.5-.9.4-.1.8.1.9.5l1.3 4.6c.2.7.1 1.4-.2 2-.3.6-.9 1.1-1.6 1.3-.2.1-.4.1-.6.1z"/></svg>