<svg xmlns="http://www.w3.org/2000/svg" id="Layer_1" x="0" y="0" viewBox="0 0 32 32" xml:space="preserve"><style>.st0{fill:#4284fb}</style><path class="st0" d="M8.9 23.8c-.2 0-.4-.1-.5-.2-4.2-4.2-4.2-11 0-15.2.3-.3.8-.3 1.1 0s.3.8 0 1.1c-3.6 3.6-3.6 9.5 0 13.1.3.3.3.8 0 1.1-.2 0-.4.1-.6.1zm14.2 0c-.2 0-.4-.1-.5-.2-.3-.3-.3-.8 0-1.1 3.6-3.6 3.6-9.5 0-13.1-.3-.3-.3-.8 0-1.1.3-.3.8-.3 1.1 0 4.2 4.2 4.2 11 0 15.2-.2.2-.4.3-.6.3zM16 19.2c-1.8 0-3.2-1.5-3.2-3.2s1.5-3.2 3.2-3.2 3.2 1.5 3.2 3.2-1.4 3.2-3.2 3.2zm0-5c-1 0-1.8.8-1.8 1.8s.8 1.8 1.8 1.8 1.8-.8 1.8-1.8-.8-1.8-1.8-1.8z"/><path class="st0" d="M20.4 21.2c-.2 0-.4-.1-.5-.2-.3-.3-.3-.8 0-1.1 2.1-2.1 2.1-5.6 0-7.8-.3-.3-.3-.8 0-1.1.3-.3.8-.3 1.1 0 2.7 2.7 2.7 7.2 0 9.9-.2.2-.4.3-.6.3zm-8.8 0c-.2 0-.4-.1-.5-.2-2.7-2.7-2.7-7.2 0-9.9.3-.3.8-.3 1.1 0 .3.3.3.8 0 1.1-2.1 2.1-2.1 5.6 0 7.8.3.3.3.8 0 1.1-.2 0-.4.1-.6.1z"/></svg>