<svg data-name="Layer 1" xmlns="http://www.w3.org/2000/svg" xmlns:xlink="http://www.w3.org/1999/xlink" viewBox="0 0 190.36 187.93"><defs><linearGradient id="a" x1="31.74" y1="21.84" x2="38.42" y2="21.84" gradientUnits="userSpaceOnUse"><stop offset=".15" stop-color="#4d9ed7"/><stop offset="1" stop-color="#54addf"/></linearGradient><linearGradient id="g" x1="9.64" y1="29.9" x2="33.37" y2="29.9" xlink:href="#a"/><linearGradient id="h" x1="36.49" y1="53.64" x2="77.73" y2="53.64" gradientUnits="userSpaceOnUse"><stop offset="0" stop-color="#9aa6d4"/><stop offset="1" stop-color="#d4d9ec"/></linearGradient><linearGradient id="d" x1="43.58" y1="104.71" x2="43.58" y2="8.2" gradientUnits="userSpaceOnUse"><stop offset="0" stop-color="#eff0f8"/><stop offset="1" stop-color="#d4d9ec"/></linearGradient><linearGradient id="i" x1="1824.81" y1="72.33" x2="1926.22" y2="72.33" gradientTransform="matrix(-1 0 0 1 1957.91 0)" gradientUnits="userSpaceOnUse"><stop offset="0" stop-color="#ebe9eb"/><stop offset="1" stop-color="#9aa7d5"/></linearGradient><linearGradient id="j" x1="1757.91" y1="134.2" x2="1923.44" y2="134.2" gradientTransform="matrix(-1 0 0 1 1957.91 0)" gradientUnits="userSpaceOnUse"><stop offset="0" stop-color="#fff"/><stop offset="1" stop-color="#9aa7d5"/></linearGradient><linearGradient id="b" x1="103.5" y1="94.14" x2="89.15" y2="69.28" gradientUnits="userSpaceOnUse"><stop offset="0" stop-color="#49496c"/><stop offset="1" stop-color="#5d639e"/></linearGradient><linearGradient id="c" x1="68.13" y1="64.25" x2="121.21" y2="64.25" gradientUnits="userSpaceOnUse"><stop offset="0" stop-color="#5d639e"/><stop offset="1" stop-color="#49496c"/></linearGradient><linearGradient id="k" x1="68.16" y1="94.24" x2="72.41" y2="94.24" xlink:href="#b"/><linearGradient id="l" x1="83.53" y1="33.9" x2="89.94" y2="33.9" xlink:href="#c"/><linearGradient id="e" x1="44.08" y1="47.89" x2="116.24" y2="47.89" gradientUnits="userSpaceOnUse"><stop offset="0" stop-color="#54addf"/><stop offset=".92" stop-color="#4d9ed7"/></linearGradient><linearGradient id="m" x1="36.77" y1="15.83" x2="82.15" y2="15.83" xlink:href="#d"/><linearGradient id="n" x1="57.43" y1="31.67" x2="57.43" y2="2.57" gradientUnits="userSpaceOnUse"><stop offset="0" stop-color="#d4d9ec"/><stop offset="1" stop-color="#9aa6d4"/></linearGradient><linearGradient id="o" x1="133.39" y1="46.01" x2="147.39" y2="46.01" xlink:href="#e"/><linearGradient id="p" x1="122.74" y1="60.72" x2="129.54" y2="60.72" xlink:href="#e"/><linearGradient id="q" x1="109.63" y1="54.2" x2="120.32" y2="54.2" xlink:href="#e"/><linearGradient id="r" x1="130.18" y1="40.22" x2="136.97" y2="40.22" xlink:href="#e"/><linearGradient id="f" x1="111.2" y1="82.92" x2="116.55" y2="82.92" gradientUnits="userSpaceOnUse"><stop offset=".15" stop-color="#e7b620"/><stop offset="1" stop-color="#fcd700"/></linearGradient><linearGradient id="s" x1="109.61" y1="80.04" x2="117.17" y2="80.04" xlink:href="#f"/><linearGradient id="t" x1="104.4" y1="96.36" x2="122.72" y2="96.36" gradientUnits="userSpaceOnUse"><stop offset=".15" stop-color="#4d9ed7"/><stop offset="1" stop-color="#67bce9"/></linearGradient></defs><path d="M35.17 22.93l.12-.1.21-.16.11-.08.33-.21.22-.12h.06l.17-.08h.06l.15-.06.19-.06.29-.06H38l.16.06.13.06-2.88-1.67-.13-.06-.16-.06h-.84l-.29.06-.19.06-.15.06-.17.08h-.06l-.22.12-.33.21-.1.08-.21.16-.12.1-.19.16-.12.11-.1.09-.14.15 2.88 1.67.24-.24.12-.11z" transform="translate(-9.64)" fill="url(#a)"/><path d="M28.69 22.09l.11-.09.11-.11.26-.25.32-.26.09-.07.25-.18L30 21l.34-.21.27-.15h.08l.2-.09h.07l.19-.07.23-.07h1.48l.19.07h.05l.16.08h.05l-2.88-1.67h-.05l-.16-.08h-.06l-.16-.2h-1.47l-.23.07-.19.07-.2.09h-.08l-.27.15-.34.21-.1.07-.25.18-.09.07-.32.26-.16.15-2-1.17h-.05l-.17-.08-.21-.07-.23-.05h-1.32l-.25.08-.21.08-.23.1h-.08l-.3.16-.42.26-.14.1-.27.2-.16.13-.24.2-.16.15-.15.14-.09.09-.08.09-.33.36-.37.44-.31.42L18 22l-.18.27v.07l-.09.15-.11.17-.08.15-.08.15-.05.09-.15.29v.08l-.18.4L17 24l-.09.23v.12l-.06.18-.05.14-.05.17-.06.2v.27l-.06.26v.08c0 .12 0 .24-.07.35v.55h-.05l-.22.07h-.08l-.32.12-.24.11-.12.06-.37.2-.42.26h-.07l-.39.28-.07.06-.38.32-.36.34-.27.28-.25.27-.39.47-.29.4-.27.4v.06l-.2.33v.05l-.22.39v.07l-.16.32v.07l-.18.4-.15.37v.11c-.06.15-.11.29-.16.44 0 .15-.1.3-.14.45v.06q-.07.26-.13.53v1.78a3.68 3.68 0 001.53 3.37l2.88 1.67a3.68 3.68 0 01-1.53-3.37v-1.82q.06-.26.13-.53v-.09c0-.15.09-.3.14-.45 0-.15.1-.29.16-.44v-.11l.15-.37v-.06l.19-.4.05-.1.16-.32.05-.1.22-.39v-.07l.2-.33.06-.1.27-.4v-.06l.29-.4v-.05l.39-.47.05-.06.25-.27-.3.3.06-.06.36-.33.38-.32.07-.06.39-.28h.07l.42-.26.37-.2.12-.06.24-.11.33-.13h.08l.27-.08c0-.16 0-.32.06-.49v-.06c0-.15.05-.29.09-.44l.09-.32.07-.28.06-.2.1-.31.07-.21.14-.35.05-.13q.1-.24.21-.47v-.08l.2-.38.08-.15.19-.32.13-.12.22-.34.07-.11.32-.44.36-.44.34-.36.08-.09.24-.23.16-.15.24-.2.16-.13.27-.2.14-.1.42-.26.3-.16h.08l.23-.1h.07l.21-.08.25-.08h.99l-.11.12-.13.13-.11.12v.05l-.14.17 2.88 1.67.19-.22.11-.12z" transform="translate(-9.64)" fill="url(#g)"/><path d="M14.1 20.91c2.24-1.29 4.1-.54 4.53 1.65a7.76 7.76 0 012-1.78c2.37-1.37 4.3-.27 4.31 2.45v.21a6 6 0 011.31-1.05c1.93-1.11 3.5-.22 3.51 2a7.68 7.68 0 01-3.48 6L8.16 40.9c-2.91 1.68-5.27.33-5.28-3a11.56 11.56 0 015.24-9.08 5.67 5.67 0 011.41-.59 10.24 10.24 0 014.57-7.32z" fill="#90d0f2"/><path d="M127.61 95l60 34.3a2 2 0 010 3.38l-93.43 53.94a7.74 7.74 0 01-7.71 0l-60-34.3a2 2 0 010-3.38L119.9 95a7.74 7.74 0 017.71 0z" fill="#fbfbfb" opacity=".024"/><path d="M127.54 95.09l59.82 34.2a1.94 1.94 0 010 3.37l-93.15 53.78a7.72 7.72 0 01-7.69 0l-59.83-34.2a1.94 1.94 0 010-3.37l93.15-53.78a7.72 7.72 0 017.7 0z" fill="#f6f6f8" opacity=".049"/><path d="M127.48 95.15l59.64 34.09a1.94 1.94 0 010 3.36l-92.86 53.62a7.7 7.7 0 01-7.67 0l-59.63-34.08a1.94 1.94 0 010-3.36l92.86-53.62a7.69 7.69 0 017.66-.01z" fill="#f2f2f4" opacity=".073"/><path d="M127.42 95.2l59.46 34a1.93 1.93 0 010 3.35L94.31 186a7.67 7.67 0 01-7.64 0L27.2 152a1.93 1.93 0 010-3.35l92.58-53.45a7.67 7.67 0 017.64 0z" fill="#ededf1" opacity=".098"/><path d="M127.36 95.26l59.28 33.89a1.92 1.92 0 010 3.34l-92.28 53.28a7.65 7.65 0 01-7.62 0L27.45 151.9a1.92 1.92 0 010-3.34l92.29-53.29a7.65 7.65 0 017.62-.01z" fill="#e9e9ed" opacity=".122"/><path d="M127.29 95.32l59.07 33.78a1.92 1.92 0 010 3.33l-92 53.12a7.62 7.62 0 01-7.6 0l-59.07-33.77a1.92 1.92 0 010-3.33l92-53.12a7.62 7.62 0 017.6-.01z" fill="#e4e4e9" opacity=".146"/><path d="M127.23 95.37L186.14 129a1.91 1.91 0 010 3.32l-91.72 53a7.6 7.6 0 01-7.57 0l-58.91-33.66a1.91 1.91 0 010-3.32l91.72-53a7.6 7.6 0 017.57.03z" fill="#e0e0e6" opacity=".171"/><path d="M127.17 95.43L185.89 129a1.91 1.91 0 010 3.3l-91.43 52.8a7.58 7.58 0 01-7.55 0l-58.72-33.56a1.91 1.91 0 010-3.31l91.44-52.79a7.58 7.58 0 017.54-.01z" fill="#dbdbe2" opacity=".195"/><path d="M127.1 95.48l58.55 33.47a1.9 1.9 0 010 3.29L94.5 184.87a7.55 7.55 0 01-7.53 0l-58.54-33.45a1.9 1.9 0 010-3.29l91.15-52.63a7.55 7.55 0 017.52-.02z" fill="#d7d7de" opacity=".22"/><path d="M127.04 95.54l58.32 33.36a1.89 1.89 0 010 3.28l-90.87 52.46a7.53 7.53 0 01-7.5 0L28.68 151.3a1.89 1.89 0 010-3.28l90.87-52.46a7.53 7.53 0 017.49-.02z" fill="#d3d2db" opacity=".244"/><path d="M126.98 95.59l58.18 33.26a1.89 1.89 0 010 3.27l-90.58 52.3a7.51 7.51 0 01-7.48 0l-58.18-33.24a1.89 1.89 0 010-3.27l90.58-52.3a7.51 7.51 0 017.48-.02z" fill="#ceced7" opacity=".268"/><path d="M126.92 95.65l58 33.15a1.88 1.88 0 010 3.26l-90.3 52.13a7.48 7.48 0 01-7.45 0l-58-33.15a1.88 1.88 0 010-3.26l90.3-52.13a7.48 7.48 0 017.45 0z" fill="#cacad4" opacity=".293"/><path d="M126.85 95.71l57.81 33a1.88 1.88 0 010 3.25l-90 52a7.46 7.46 0 01-7.43 0l-57.81-33a1.88 1.88 0 010-3.25l90-52a7.46 7.46 0 017.43 0z" fill="#c5c5d0" opacity=".317"/><path d="M126.79 95.76l57.63 32.94a1.87 1.87 0 010 3.24l-89.73 51.8a7.44 7.44 0 01-7.41 0l-57.62-32.91a1.87 1.87 0 010-3.24l89.7-51.81a7.44 7.44 0 017.43-.02z" fill="#c1c1cc" opacity=".341"/><path d="M126.73 95.82l57.45 32.84a1.86 1.86 0 010 3.23l-89.44 51.64a7.41 7.41 0 01-7.38 0l-57.45-32.82a1.86 1.86 0 010-3.23l89.45-51.65a7.41 7.41 0 017.37-.01z" fill="#bcbcc9" opacity=".366"/><path d="M126.66 95.87l57.26 32.73a1.86 1.86 0 010 3.22L94.76 183.3a7.39 7.39 0 01-7.36 0l-57.25-32.71a1.86 1.86 0 010-3.22l89.16-51.48a7.39 7.39 0 017.35-.02z" fill="#b8b8c5" opacity=".39"/><path d="M126.6 95.93l57.08 32.63a1.85 1.85 0 010 3.21l-88.87 51.31a7.36 7.36 0 01-7.34 0l-57.11-32.61a1.85 1.85 0 010-3.21l88.9-51.32a7.36 7.36 0 017.34-.01z" fill="#b3b3c1" opacity=".415"/><path d="M126.54 96l56.9 32.52a1.85 1.85 0 010 3.2l-88.58 51.14a7.34 7.34 0 01-7.31 0l-56.9-32.52a1.85 1.85 0 010-3.2L119.23 96a7.34 7.34 0 017.31 0z" fill="#afafbe" opacity=".439"/><path d="M126.48 96l56.71 32.42a1.84 1.84 0 010 3.19l-88.3 51a7.32 7.32 0 01-7.29 0l-56.71-32.38a1.84 1.84 0 010-3.19l88.3-51a7.32 7.32 0 017.29-.04z" fill="#aaaaba" opacity=".463"/><path d="M126.41 96.1l56.53 32.32a1.83 1.83 0 010 3.18l-88 50.82a7.29 7.29 0 01-7.27 0l-56.53-32.31a1.83 1.83 0 010-3.18l88-50.82a7.29 7.29 0 017.27-.01z" fill="#a6a6b7" opacity=".488"/><path d="M126.36 96.15l56.35 32.21a1.83 1.83 0 010 3.17l-87.73 50.65a7.27 7.27 0 01-7.24 0L31.36 150a1.83 1.83 0 010-3.17l87.73-50.65a7.27 7.27 0 017.27-.03z" fill="#a2a2b3" opacity=".512"/><path d="M126.29 96.21l56.17 32.11a1.82 1.82 0 010 3.16L95.01 182a7.25 7.25 0 01-7.22 0l-56.16-32.13a1.82 1.82 0 010-3.16l87.45-50.49a7.25 7.25 0 017.21-.01z" fill="#9d9daf" opacity=".537"/><path d="M126.23 96.26l56 32a1.82 1.82 0 010 3.15l-87.16 50.32a7.22 7.22 0 01-7.2 0l-56-32a1.82 1.82 0 010-3.15l87.16-50.32a7.22 7.22 0 017.2 0z" fill="#9999ac" opacity=".561"/><path d="M126.16 96.32l55.8 31.9a1.81 1.81 0 010 3.14l-86.88 50.16a7.2 7.2 0 01-7.17 0l-55.8-31.9a1.81 1.81 0 010-3.14l86.88-50.16a7.2 7.2 0 017.17 0z" fill="#9494a8" opacity=".585"/><path d="M126.1 96.38l55.62 31.79a1.8 1.8 0 010 3.13l-86.59 50a7.18 7.18 0 01-7.15 0l-55.62-31.79a1.8 1.8 0 010-3.13l86.59-50a7.18 7.18 0 017.15 0z" fill="#9090a5" opacity=".61"/><path d="M126.04 96.43l55.43 31.69a1.8 1.8 0 010 3.12l-86.31 49.83a7.15 7.15 0 01-7.13 0L32.61 149.4a1.8 1.8 0 010-3.12l86.31-49.83a7.15 7.15 0 017.12-.02z" fill="#8b8ba1" opacity=".634"/><path d="M125.97 96.49l55.25 31.58a1.79 1.79 0 010 3.11l-86 49.66a7.13 7.13 0 01-7.1 0l-55.26-31.56a1.79 1.79 0 010-3.11l86-49.66a7.13 7.13 0 017.11-.02z" fill="#87879d" opacity=".659"/><path d="M125.91 96.54L180.98 128a1.79 1.79 0 010 3.1l-85.74 49.5a7.1 7.1 0 01-7.08 0L33.1 149.16a1.79 1.79 0 010-3.1l85.74-49.5a7.1 7.1 0 017.07-.02z" fill="#82829a" opacity=".683"/><path d="M125.85 96.6l54.88 31.4a1.78 1.78 0 010 3.09L95.29 180.4a7.08 7.08 0 01-7.05 0L33.36 149a1.78 1.78 0 010-3.09l85.45-49.34a7.08 7.08 0 017.04.03z" fill="#7e7e96" opacity=".707"/><path d="M125.79 96.65l54.7 31.27a1.78 1.78 0 010 3.08l-85.13 49.17a7.06 7.06 0 01-7 0l-54.7-31.27a1.78 1.78 0 010-3.08l85.17-49.17a7.06 7.06 0 016.96 0z" fill="#7a7992" opacity=".732"/><path d="M125.72 96.71l54.52 31.16a1.77 1.77 0 010 3.07l-84.88 49a7 7 0 01-7 0L33.84 148.8a1.77 1.77 0 010-3.07l84.88-49a7 7 0 017-.02z" fill="#75758f" opacity=".756"/><path d="M125.66 96.77l54.33 31.06a1.76 1.76 0 010 3.06l-84.63 48.83a7 7 0 01-7 0l-54.27-31.04a1.76 1.76 0 010-3.06l84.6-48.84a7 7 0 016.97-.01z" fill="#71718b" opacity=".78"/><path d="M125.6 96.82l54.15 31a1.76 1.76 0 010 3L95.44 179.5a7 7 0 01-7 0l-54.08-30.94a1.76 1.76 0 010-3l84.31-48.68a7 7 0 016.93-.06z" fill="#6c6c88" opacity=".805"/><path d="M125.53 96.88l54 30.85a1.75 1.75 0 010 3l-84 48.51a7 7 0 01-6.94 0l-54-30.85a1.75 1.75 0 010-3l84-48.51a7 7 0 016.94 0z" fill="#686884" opacity=".829"/><path d="M125.47 96.93l53.78 30.75a1.75 1.75 0 010 3l-83.74 48.35a6.94 6.94 0 01-6.91 0l-53.78-30.71a1.75 1.75 0 010-3l83.74-48.37a6.94 6.94 0 016.91-.02z" fill="#636380" opacity=".854"/><path d="M125.36 97l53.6 30.64a1.74 1.74 0 010 3l-83.4 48.19a6.92 6.92 0 01-6.89 0l-53.6-30.63a1.74 1.74 0 010-3L118.52 97a6.92 6.92 0 016.84 0z" fill="#5f5f7d" opacity=".878"/><path d="M125.36 97l53.42 30.54a1.73 1.73 0 010 3l-83.17 48a6.89 6.89 0 01-6.87 0l-53.38-30.46a1.73 1.73 0 010-3l83.17-48a6.89 6.89 0 016.83-.08z" fill="#5a5a79" opacity=".902"/><path d="M125.28 97.1l53.24 30.43a1.73 1.73 0 010 3l-82.89 47.85a6.87 6.87 0 01-6.84 0L35.56 148a1.73 1.73 0 010-3l82.89-47.85a6.87 6.87 0 016.83-.05z" fill="#565676" opacity=".927"/><path d="M125.22 97.16l53.05 30.33a1.72 1.72 0 010 3l-82.6 47.69a6.85 6.85 0 01-6.82 0l-53.04-30.33a1.72 1.72 0 010-3l82.55-47.68a6.84 6.84 0 016.86-.01z" fill="#525172" opacity=".951"/><path d="M125.16 97.21l52.87 30.22a1.72 1.72 0 010 3l-82.32 47.53a6.82 6.82 0 01-6.8 0l-52.86-30.23a1.72 1.72 0 010-3l82.31-47.5a6.82 6.82 0 016.8-.02z" fill="#4d4d6e" opacity=".976"/><path data-name="&lt;Path&gt;" d="M125.1 97.27l52.69 30.12a1.71 1.71 0 010 3l-82 47.36a6.8 6.8 0 01-6.77 0L36.3 147.61a1.71 1.71 0 010-3l82-47.36a6.8 6.8 0 016.8.02z" fill="#49486b"/><path fill="url(#h)" d="M77.73 26.21l-.02 5.46-36.2-20.9-.27 93.94-4.75-2.74.27-93.94.01-5.46 4.75 2.74 36.21 20.9z"/><path fill="url(#d)" d="M41.24 104.71l4.42-2.57.27-93.94-4.42 2.57-.27 93.94z"/><path data-name="&lt;Path&gt;" d="M33.82 61.15l96.35-55.63a2 2 0 012.93 1.69v72.62a4.24 4.24 0 01-2.1 3.67l-96.38 55.64a2 2 0 01-2.93-1.69V64.83a4.24 4.24 0 012.13-3.68z" transform="translate(-9.64)" fill="url(#i)"/><path data-name="&lt;Path&gt;" d="M25.42 62l96.36-55.65A2 2 0 01124.71 8v72.66a4.24 4.24 0 01-2.12 3.68L26.23 140a2 2 0 01-2.93-1.69V65.66A4.24 4.24 0 0125.42 62z" fill="#49486b"/><path data-name="&lt;Path&gt;" fill="#fff" d="M29.01 66.57l90.67-52.65v66.42L29.01 133V66.57z"/><path d="M58.78 67.68l.01 20.09-21.55 12.4-.01-20.09 7.06-4.07 1.53-.89 4.37-2.48 1.53-.88 7.06-4.08zM86.76 52.6l.02 20.09-21.55 12.4L65.21 65l7.06-4.08 1.53-.88 4.37-2.48 1.53-.88 7.06-4.08zm27.76-15.2l.01 20.08-21.55 12.4-.01-20.08 7.06-4.08 1.53-.88 4.37-2.48 1.53-.88 7.06-4.08zM63.41 89.5l.02 20.08-26.19 14.98-.01-20.09 7.06-4.08 1.53-.88 9-5.05 1.53-.88 7.06-4.08z" fill="#d4daed"/><path data-name="&lt;Path&gt;" d="M138.26 87.83L200 120.38s.34 4.82-1 5.58l-94.54 54.58a7.83 7.83 0 01-7.8 0l-60.74-34.69c-2.51-1.56-1-5.59-1-5.59l95.53-52.41a7.83 7.83 0 017.81-.02z" transform="translate(-9.64)" fill="url(#j)"/><path data-name="&lt;Path&gt;" d="M128.62 84.1l60.74 34.71a2 2 0 010 3.42l-94.54 54.58a7.83 7.83 0 01-7.8 0l-60.74-34.7a2 2 0 010-3.42l94.54-54.58a7.83 7.83 0 017.8-.01z" fill="#f7f7f7"/><path data-name="&lt;Path&gt;" d="M134 129l16 9.15a.52.52 0 010 .9l-24.92 14.39a2.07 2.07 0 01-2.06 0l-16-9.15a.52.52 0 010-.9L131.94 129a2.06 2.06 0 012.06 0z" fill="#e5e9f4"/><path data-name="&lt;Path&gt;" d="M121.92 89.4l-5.23 3a.31.31 0 000 .54l2.6 1.49a.67.67 0 00.67 0l5.23-3a.31.31 0 000-.54l-2.6-1.49a.67.67 0 00-.67 0zm-7.67 4.6l-5.23 3a.31.31 0 000 .54l2.6 1.49a.67.67 0 00.67 0l5.23-3a.31.31 0 000-.54L114.93 94a.67.67 0 00-.68 0zm-7.69 4.29l-5.23 3a.31.31 0 000 .54l2.6 1.49a.67.67 0 00.67 0l5.23-3a.31.31 0 000-.54l-2.6-1.49a.67.67 0 00-.67 0zm-7.93 4.46l-5.23 3a.31.31 0 000 .54l2.6 1.49a.67.67 0 00.67 0l5.23-3a.31.31 0 000-.54l-2.6-1.49a.67.67 0 00-.67 0zM91.02 107l-5.23 3a.31.31 0 000 .54l2.6 1.49a.67.67 0 00.67 0l5.23-3a.31.31 0 000-.54l-2.6-1.49a.68.68 0 00-.67 0zm-7.4 4.57l-5.23 3a.31.31 0 000 .54l2.6 1.49a.68.68 0 00.67 0l5.23-3a.31.31 0 000-.54l-2.6-1.49a.67.67 0 00-.67 0zm-7.75 4.27l-5.23 3a.31.31 0 000 .54l2.6 1.49a.67.67 0 00.67 0l5.23-3a.31.31 0 000-.54l-2.6-1.49a.67.67 0 00-.67 0zm-7.64 4.54l-5.23 3a.31.31 0 000 .54l2.6 1.49a.67.67 0 00.67 0l5.23-3a.31.31 0 000-.54l-2.6-1.49a.67.67 0 00-.67 0zm-7.5 4.43l-5.23 3a.31.31 0 000 .54l2.6 1.49a.67.67 0 00.67 0l5.23-3a.31.31 0 000-.54l-2.64-1.49a.67.67 0 00-.63 0zm-7.92 4.56l-5.23 3a.31.31 0 000 .54l2.6 1.49a.67.67 0 00.67 0l5.23-3a.31.31 0 000-.54l-2.6-1.49a.67.67 0 00-.67 0zm-7.69 4.32l-5.23 3a.31.31 0 000 .54l2.6 1.49a.67.67 0 00.67 0l5.23-3a.31.31 0 000-.54l-2.6-1.49a.67.67 0 00-.67 0z" fill="#d4daed"/><g data-name="&lt;Group&gt;"><path data-name="&lt;Path&gt;" d="M132.56 95.09L129.02 93a1.48 1.48 0 00-1.49 0l-3.46 2a.74.74 0 000 1.27l3.44 2.11a1.48 1.48 0 001.52 0l3.55-2a.74.74 0 00-.02-1.29zm-7.93 4.57l-3.54-2.08a1.48 1.48 0 00-1.49 0l-3.46 2a.74.74 0 000 1.27l3.44 2.11a1.48 1.48 0 001.52 0l3.55-2a.74.74 0 00-.02-1.3zm-7.71 4.34l-3.56-2.09a1.48 1.48 0 00-1.49 0l-3.46 2a.74.74 0 000 1.27l3.44 2.11a1.48 1.48 0 001.52 0l3.55-2a.74.74 0 000-1.29zm-8.2 4.45l-3.54-2.08a1.48 1.48 0 00-1.49 0l-3.46 2a.74.74 0 000 1.27l3.44 2.11a1.48 1.48 0 001.52 0l3.55-2a.74.74 0 00-.02-1.3zm-7.22 4.24l-3.54-2.08a1.48 1.48 0 00-1.49 0l-3.46 2a.74.74 0 000 1.27l3.44 2.11a1.48 1.48 0 001.52 0l3.55-2a.74.74 0 00-.02-1.3zm-7.33 4.54l-3.54-2.08a1.48 1.48 0 00-1.49 0l-3.46 2a.74.74 0 000 1.27l3.44 2.11a1.48 1.48 0 001.52 0l3.55-2a.74.74 0 00-.02-1.3zm-7.81 4.3l-3.54-2.08a1.48 1.48 0 00-1.49 0l-3.46 2a.74.74 0 000 1.27l3.44 2.11a1.48 1.48 0 001.52 0l3.55-2a.74.74 0 00-.02-1.3zm-7.71 4.35l-3.54-2.08a1.48 1.48 0 00-1.49 0l-3.46 2a.74.74 0 000 1.27l3.44 2.11a1.48 1.48 0 001.52 0l3.55-2a.74.74 0 00-.02-1.3zm-7.54 4.63l-3.54-2.08a1.48 1.48 0 00-1.49 0l-3.46 2a.74.74 0 000 1.27l3.44 2.11a1.48 1.48 0 001.52 0l3.55-2a.74.74 0 00-.02-1.3zm-8.22 4.84l-3.53-2.08a1.48 1.48 0 00-1.49 0l-3.46 2a.74.74 0 000 1.27l3.44 2.11a1.48 1.48 0 001.52 0l3.55-2a.74.74 0 00-.03-1.3zm-7.43 4.03l-3.54-2.08a1.48 1.48 0 00-1.49 0l-3.46 2a.74.74 0 000 1.27l3.39 2.11a1.48 1.48 0 001.52 0l3.55-2a.74.74 0 00.03-1.3z" fill="#d4daed"/></g><g data-name="&lt;Group&gt;"><path data-name="&lt;Path&gt;" d="M140.46 99.39l-3.54-2.08a1.48 1.48 0 00-1.49 0l-3.46 2a.74.74 0 000 1.27l3.44 2.11a1.48 1.48 0 001.52 0l3.55-2a.74.74 0 00-.02-1.3zm-7.94 4.61l-3.54-2.08a1.48 1.48 0 00-1.49 0l-3.46 2a.74.74 0 000 1.27l3.44 2.11a1.48 1.48 0 001.52 0l3.55-2a.74.74 0 00-.02-1.3zm-7.7 4.28l-3.54-2.08a1.48 1.48 0 00-1.49 0l-3.46 2a.74.74 0 000 1.27l3.44 2.11a1.48 1.48 0 001.52 0l3.55-2a.74.74 0 00-.02-1.3zm-8.2 4.46l-3.54-2.08a1.48 1.48 0 00-1.49 0l-3.46 2a.74.74 0 000 1.27l3.44 2.11a1.48 1.48 0 001.52 0l3.55-2a.74.74 0 00-.02-1.3zm-7.26 4.26l-3.54-2.08a1.48 1.48 0 00-1.49 0l-3.46 2a.74.74 0 000 1.27l3.44 2.11a1.48 1.48 0 001.52 0l3.55-2a.74.74 0 00-.02-1.3zm-7.3 4.53l-3.54-2.08a1.48 1.48 0 00-1.49 0l-3.46 2a.74.74 0 000 1.27l3.44 2.11a1.48 1.48 0 001.52 0l3.55-2a.74.74 0 00-.02-1.3zm-7.84 4.29l-3.54-2.08a1.48 1.48 0 00-1.49 0l-3.46 2a.74.74 0 000 1.27l3.44 2.11a1.48 1.48 0 001.52 0l3.55-2a.74.74 0 00-.02-1.3zm-7.67 4.35l-3.54-2.08a1.48 1.48 0 00-1.49 0l-3.46 2a.74.74 0 000 1.27l3.44 2.11a1.48 1.48 0 001.52 0l3.55-2a.74.74 0 00-.02-1.3zM79 134.8l-3.54-2.08a1.48 1.48 0 00-1.49 0l-3.46 2a.74.74 0 000 1.27l3.44 2.11a1.48 1.48 0 001.52 0l3.55-2a.74.74 0 00-.02-1.3zm-8.21 4.84l-3.54-2.08a1.48 1.48 0 00-1.49 0l-3.46 2a.74.74 0 000 1.27l3.44 2.11a1.48 1.48 0 001.52 0l3.55-2a.74.74 0 00-.02-1.3zm-7.43 4.03l-3.54-2.08a1.48 1.48 0 00-1.49 0l-3.46 2a.74.74 0 000 1.27l3.41 2.14a1.48 1.48 0 001.52 0l3.55-2a.74.74 0 00.01-1.33z" fill="#d4daed"/></g><g data-name="&lt;Group&gt;"><path data-name="&lt;Path&gt;" d="M148.36 103.68l-3.54-2.08a1.48 1.48 0 00-1.49 0l-3.46 2a.74.74 0 000 1.27l3.44 2.11a1.48 1.48 0 001.52 0l3.55-2a.74.74 0 00-.02-1.3zm-7.94 4.57l-3.54-2.08a1.48 1.48 0 00-1.49 0l-3.46 2a.74.74 0 000 1.27l3.44 2.11a1.48 1.48 0 001.52 0l3.55-2a.74.74 0 00-.02-1.3zm-7.71 4.32l-3.54-2.08a1.48 1.48 0 00-1.49 0l-3.46 2a.74.74 0 000 1.27l3.44 2.11a1.48 1.48 0 001.52 0l3.55-2a.74.74 0 00-.02-1.3zm-8.19 4.43l-3.55-2a1.48 1.48 0 00-1.49 0l-3.46 2a.74.74 0 000 1.27l3.44 2.11a1.48 1.48 0 001.52 0l3.55-2a.74.74 0 00-.01-1.38zm-7.22 4.28l-3.54-2.08a1.48 1.48 0 00-1.49 0l-3.46 2a.74.74 0 000 1.27l3.44 2.11a1.48 1.48 0 001.52 0l3.55-2a.74.74 0 00-.02-1.3zm-7.34 4.54l-3.54-2.08a1.48 1.48 0 00-1.49 0l-3.46 2a.74.74 0 000 1.27l3.44 2.11a1.48 1.48 0 001.52 0l3.55-2a.74.74 0 00-.02-1.3zm-7.84 4.3L98.57 128a1.48 1.48 0 00-1.49 0l-3.46 2a.74.74 0 000 1.27l3.44 2.11a1.48 1.48 0 001.52 0l3.55-2a.74.74 0 00-.01-1.26zm-7.67 4.35l-3.54-2.08a1.48 1.48 0 00-1.49 0l-3.46 2a.74.74 0 000 1.27l3.4 2.11a1.48 1.48 0 001.52 0l3.55-2a.74.74 0 00.02-1.3zm-7.55 4.62L83.36 137a1.48 1.48 0 00-1.49 0l-3.51 2a.74.74 0 000 1.27l3.44 2.11a1.48 1.48 0 001.52 0l3.55-2a.74.74 0 00.03-1.29zm-8.22 4.85l-3.54-2.08a1.48 1.48 0 00-1.49 0l-3.46 2a.74.74 0 000 1.27l3.44 2.11a1.48 1.48 0 001.52 0l3.55-2a.74.74 0 00-.02-1.3zM71.25 148l-3.54-2.08a1.48 1.48 0 00-1.49 0l-3.46 2a.74.74 0 000 1.27l3.44 2.11a1.48 1.48 0 001.52 0l3.55-2a.74.74 0 00-.02-1.3z" fill="#d4daed"/></g><g data-name="&lt;Group&gt;"><path data-name="&lt;Path&gt;" d="M156.25 108l-3.54-2.08a1.48 1.48 0 00-1.49 0l-3.46 2a.74.74 0 000 1.27l3.44 2.11a1.48 1.48 0 001.52 0l3.55-2a.74.74 0 00-.02-1.3zm-7.89 4.54l-3.54-2.08a1.48 1.48 0 00-1.49 0l-3.46 2a.74.74 0 000 1.27l3.44 2.11a1.48 1.48 0 001.52 0l3.55-2a.74.74 0 00-.02-1.3zm-7.75 4.32l-3.54-2.08a1.48 1.48 0 00-1.49 0l-3.46 2a.74.74 0 000 1.27l3.44 2.11a1.48 1.48 0 001.52 0l3.55-2a.74.74 0 00-.02-1.3zm-8.19 4.47l-3.54-2.08a1.48 1.48 0 00-1.49 0l-3.46 2a.74.74 0 000 1.27l3.44 2.11a1.48 1.48 0 001.52 0l3.55-2a.74.74 0 00-.02-1.3zm-7.9 4.67l-3.55-2a1.48 1.48 0 00-1.49 0l-18 10.41a.74.74 0 000 1.27l3.44 2.11a1.48 1.48 0 001.52 0l18.11-10.45a.74.74 0 00-.03-1.34zm-22.16 12.76l-3.54-2.08a1.48 1.48 0 00-1.49 0l-3.46 2a.74.74 0 000 1.27l3.44 2.11a1.48 1.48 0 001.52 0l3.55-2a.74.74 0 00-.02-1.3zm-7.56 4.63l-3.54-2.08a1.48 1.48 0 00-1.49 0l-3.46 2a.74.74 0 000 1.27l3.44 2.11a1.48 1.48 0 001.52 0l3.55-2a.74.74 0 00-.02-1.3zm-8.22 4.84l-3.54-2.08a1.48 1.48 0 00-1.49 0l-3.46 2a.74.74 0 000 1.27l3.44 2.11a1.48 1.48 0 001.52 0l3.55-2a.74.74 0 00-.02-1.3zm-7.43 4.03l-3.54-2.08a1.48 1.48 0 00-1.49 0l-3.46 2a.74.74 0 000 1.27l3.44 2.11a1.48 1.48 0 001.52 0l3.55-2a.74.74 0 00-.02-1.3z" fill="#d4daed"/></g><path d="M70.28 80.17v30.51l2.11 1.3L121.2 83.9V50.77z" transform="translate(-9.64)" fill="url(#b)"/><path d="M68.16 76.49L117 48.32l4.24 2.45-50.96 29.4L68.13 79z" transform="translate(-9.64)" fill="url(#c)"/><path d="M60.64 85.09v.7l50.93-29.39v-.74zm0 5.71v.7l50.93-29.39v-.74z" fill="#40405b" opacity=".9"/><path d="M69.13 75.27v5.11l.66-.32v-5.18zm17.45-10.08v5.11l.66-.32V64.8zm-8.73 5.03v5.11l.66-.32v-5.18zM95.3 60.17v5.11l.66-.32v-5.18zm8.72-5.02v5.11l.66-.32v-5.18z" opacity=".9" fill="#40405b"/><g opacity=".9" fill="#40405b"><path d="M60.64 96.43v.7l50.93-29.39V67z"/><path d="M69.13 86.61v5.11l.66-.32v-5.18zm17.45-10.09v5.11l.66-.32v-5.18zm-8.73 5.03v5.11l.66-.32v-5.18zM95.3 71.51v5.11l.66-.32v-5.18zm8.72-5.03v5.12l.66-.32v-5.19z"/></g><g fill="#40405b"><path d="M60.64 107.72v.7L111.57 79v-.7z"/><path d="M69.13 97.9v5.1l.66-.32v-5.17zm17.45-10.08v5.11l.66-.32v-5.18zm-8.73 5.03V98l.66-.32v-5.22zM95.3 82.8v5.11l.66-.32v-5.18zm8.72-5.02v5.11l.66-.32v-5.18z"/></g><path d="M65.42 83v5.11l.66-.32v-5.15zm17.44-10.05v5.11l.66-.32v-5.18zM74.14 78v5.11l.66-.32v-5.2zm17.44-10.07V73l.66-.32v-5.14zm8.73-5.02V68l.66-.32v-5.16zm8.28-4.73v5.11l.66-.32v-5.18zm-47.95 43.97v.7l50.93-29.39v-.74z" opacity=".9" fill="#40405b"/><path d="M65.42 94.38v5.11l.66-.32V94zm17.44-10.09v5.11l.66-.32V83.9zm-8.72 5.04v5.11l.66-.32v-5.18zm17.44-10.05v5.11l.66-.32v-5.18zm8.73-5.02v5.11l.66-.32v-5.18zm8.28-4.74v5.11l.66-.32v-5.18zm-43.13 36.07v4.86l.66-.38v-4.87zM82.9 95.5v4.9l.66-.38v-4.91zm-8.72 5.04v4.89l.66-.38v-4.9zm17.44-10.05v4.9l.66-.38V90.1zm8.74-5.02v4.9l.66-.38v-4.91zm8.27-4.74v4.87l.67-.38v-4.88z" opacity=".9" fill="#40405b"/><path d="M72.41 78.94l-4.24-2.45v33l4.24 2.51z" transform="translate(-9.64)" fill="url(#k)"/><path d="M62.77 83.84l-4.26-2.46v.71l4.24 2.47zm0 5.73l-4.26-2.46v.71l4.24 2.47zm0 5.62l-4.26-2.46v.71l4.24 2.47zm0 5.74l-4.26-2.46v.71l4.24 2.47zm0 5.55L58.51 104v.71l4.24 2.47zm6.36-31.21l-4.24-2.45.65-.38 4.25 2.44zm8.69-5.02l-4.24-2.45.65-.38 4.25 2.44zm8.76-5.06l-4.22-2.45.65-.38 4.25 2.44zm8.72-5.03l-4.24-2.45.65-.38 4.25 2.44zm8.71-5.03l-4.24-2.45.65-.38 4.25 2.44z" fill="#49486b"/><g fill="#272043"><path d="M79.85 37H79l-.14-.07-.14-.09-.13-.1-.12-.1-.11-.16-.12-.13a3.27 3.27 0 01-.21-.29l-.11-.06v-.07l-.07-.13-.08-.16-.06-.16-.06-.17v-1.14l.06-.1.1-.12.12-.09-1.57.61-.12.09-.1.12-.05.1v1.75l.06.09.09.13.06.08.05.06.05.06.05.06.06.06.06.05h1.09zm-3.87-4.73h.4l1.47-.86h-1.34l-.23.11-1.47.86.23-.11h.99z"/><path d="M81.78 35.56h-.58l-1.47.86h.39l.17.05h.09l.11.07.09.08.08.09.06.09v.09a.29.29 0 010 .08.17.17 0 010 .07v.05l-.06.06v1.56q0 .13-.06.25a2.22 2.22 0 01-.08.22 1.9 1.9 0 01-.12.22l-.12.15v.05l-.11.11-.17.12.52-.83.17-.12.11-.11v-.05l.12-.15a1.9 1.9 0 00.11-.21l.06-.14v-2.16l.06-.06zm-5.58-7.75h.64l.18.07.19.1.19.12.17.13.12.1-1.15.67-.1.08v.83l.07.11.06.08v.05h.51l1.15-.67v1.4l-.05.07-.09.09V33a1.65 1.65 0 010 .23v.06a1.22 1.22 0 010 .15 1 1 0 010 .13v.11l-.06.1v.06l-.05.05-.06.05-.1.06 1.47-.86.1-.06.06-.05.05-.05v-.06l.06-.1v-.51a1.17 1.17 0 010-.15 1 1 0 010-.13v-.23l.09-.09.05-.07v-2.79l-.05-.1-.05-.08-.08-.12-.12-.17.31-.38h-.07l-.07-.08-.07-.08-.05-.05-.09-.16-.08-.07-.08-.06h-.06l-.08-.05h-.29l-.41-.45h-.73l-.14.07-1.47.86.14-.07zm1.65.8a.72.72 0 010-.09l.11.11.16.18.24.19.13.19.08.12.06.1.09.17.1.22.09.22.07.22v.13h-.26l-.18-.13-.18-.15-.15-.18-.13-.2-.11-.21a2 2 0 01-.08-.22 1.73 1.73 0 01-.05-.22 1.39 1.39 0 010-.22 1 1 0 01.01-.23z"/></g><path d="M89.54 35.91c.32.18.5.51.35.64a1.59 1.59 0 00-.33 1.09v.25c0 1.92-1.36 2.69-3 1.73a6.63 6.63 0 01-3-5.21c0-1.4.74-2.19 1.78-2.13h.12c.23 0 .71 0 .71-.25a.78.78 0 00-.17-.5 4.06 4.06 0 01-1-2.42c0-1.19.84-1.67 1.87-1.07a4.11 4.11 0 011.86 3.23 1.42 1.42 0 01-.4 1.09.75.75 0 00-.18.63 1.65 1.65 0 010 .23v.06c-.06 1.17-1.62 1.08-1.79 1.11-.47 0-.8.35-.8 1A3.06 3.06 0 0087 37.77c.77.44 1.39.09 1.4-.8 0-.08.06-1.51 1-1.11zM86 29.66a2 2 0 00.9 1.57c.5.29.91.06.91-.52a2 2 0 00-.91-1.57c-.5-.29-.91-.06-.91.52" transform="translate(-9.64)" fill="url(#l)"/><path d="M80.12 34.48c6.64-3.83 21.62-5.47 29-6.07l-1.53.88c-7.73.69-21.43 2.35-27.51 5.87S60.36 52.81 52.67 61l-1.53.88c7.4-7.88 22.35-23.57 28.98-27.4z" fill="#c0c7cf"/><path fill="url(#e)" d="M116.23 24.34l.01 5.45-72.15 41.65-.01-5.44 7.06-4.08 1.53-.88 54.97-31.74 1.53-.88 7.06-4.08z"/><path fill="url(#m)" d="M45.94 2.74L41.2 0l-4.43 2.57 4.75 2.74 36.21 20.9-.02 5.46 4.42-2.57.02-5.46-36.21-20.9z"/><path fill="url(#n)" d="M77.91 26.21l-.02 5.46-36.2-20.9-4.73-8.2 4.74 2.74 36.21 20.9z"/><g style="isolation:isolate"><path fill="#d4daed" d="M147.4 47.63l.01 1.62-8.15 4.71-.01-1.62 8.15-4.71zm-15.96 15.7l.01 1.62-6.75 3.9-.01-1.62 6.75-3.9zm15.94-25.41v1.62l-14.23 8.22-.01-1.62 14.24-8.22zm-25.27 30.8l.01 1.62-12.43 7.18-.01-1.62 12.43-7.18zm25.3-17.85l.01 1.62-14.24 8.22v-1.62l14.23-8.22zm-12.81.91v1.62l-17.9 10.34v-1.62l17.9-10.34zm-3.97 8.78v1.62l-20.95 12.1-.01-1.62 20.96-12.1zm16.74-25.87v1.61L122.4 50.72l-.01-1.62 24.98-14.41zm-26.39 28.2v1.62l-11.31 6.53v-1.62l11.31-6.53zm-6.31.4l.01 1.62-5.02 2.89v-1.61l5.01-2.9zm7.41-7.52v1.62l-12.43 7.18v-1.62l12.43-7.18zm8.51-8.15v1.61l-20.95 12.1v-1.62l20.95-12.09zm16.83 6.49l-14 8.08.01 1.62 14-8.08-.01-1.62z"/><path fill="url(#o)" d="M147.38 41.16l.01 1.62-14 8.08v-1.62l13.99-8.08z"/><path fill="#d4daed" d="M128.37 42.41l.01 1.62-18.76 10.83v-1.62l18.75-10.83z"/><path d="M149.09 27.66l-41.23 23.8.08 29.84 41.23-23.8zm-1.73 21.59l-8.1 4.75v-1.66l8.1-4.71v1.62m0-3.25l-10.6 6.12v-1.6l10.6-6.12V46m0-3.24l-14 8.08v-1.6l14-8.08v1.62m-30.69 21v-1.66l17.9-10.34v1.62l-17.9 10.34m12.84-4.17l-6.79 3.92v-1.62l6.81-3.87v1.62m-4.88-5.29l6.75-3.9V52l-6.75 3.9v-1.62m22.71-14.74l-14.23 8.22v-1.62l14.23-8.22v1.62m0-3.24l-25 14.42v-1.61l25-14.42v1.62m0-4.86v1.62l-9.28 5.36v-1.62l9.28-5.36m-10.39 6v1.62L130.18 43v-1.63l6.79-3.92m-27.35 15.79l18.74-10.83V44l-18.74 10.86v-1.62m0 3.24l10.68-6.17v1.62l-10.68 6.17v-1.63m0 3.24l21-12.1v1.62l-21 12.1v-1.62m0 3.24l12.43-7.18v1.62l-12.43 7.18v-1.62m0 3.24l5-2.9v1.62l-5 2.9v-1.62m0 3.24l11.31-6.53v1.62L109.67 71v-1.58m0 3.24l21-12.1v1.62l-21 12.1v-1.62m0 4.85V75.9l12.43-7.18v1.62l-12.43 7.18m15-8.67v-1.62l6.75-3.9V65l-6.75 3.9m7.2-12.26l5-2.91v1.57l-5 2.91v-1.62m1.29 2.5l14.23-8.22v1.61l-14.23 8.22v-1.61m.25 4.72v-1.62l14-8.08v1.62l-14 8.08" fill="#fff"/><path fill="url(#p)" d="M129.54 57.95v1.62l-6.79 3.92-.01-1.62 6.8-3.92z"/><path fill="url(#q)" d="M120.31 50.31v1.62l-10.68 6.16v-1.61l10.68-6.17z"/><path fill="#d4daed" d="M147.39 44.4l.01 1.62-10.6 6.12-.01-1.62 10.6-6.12z"/></g><path fill="#d4daed" d="M131.41 50.39V52l-6.75 3.9v-1.62l6.75-3.89zm15.95-18.94v1.62l-9.28 5.35v-1.61l9.28-5.36zm-10.43 22.23l.01 1.62-5.04 2.91-.01-1.62 5.04-2.91z"/><path d="M107.85 46.3l41.23-23.8v5.16l-41.22 23.8zm3.8 1.71v-2.63l-2.29 1.32v2.63l2.29-1.33" fill="#5d639e"/><path fill="#fff" d="M111.64 45.38l.01 2.63-2.29 1.33-.01-2.64 2.29-1.32z"/><path fill="url(#r)" d="M136.97 37.45v1.62l-6.79 3.92v-1.62l6.79-3.92z"/><path d="M96.12 99.62a17.12 17.12 0 00-2.6-1.2 6.7 6.7 0 00-2.42.38 2.26 2.26 0 00-.53.21 13.41 13.41 0 01-1.44.39c-.28 0-.23.29.07.38a2.13 2.13 0 01-.39.18c-.42.15-.17.36 0 .37a3.65 3.65 0 00.58-.11 2.24 2.24 0 01-.47.48c-.23.15.18.22.32.18.29-.1.83-.7 1.05-.7a1.9 1.9 0 00-.39.8v.64c0 .14.3.08.39-.13s0-.48.13-.61a1 1 0 01.63-.37 2.37 2.37 0 001.56-.7c.07-.09.23-.07.72.45s1.86 2 1.86 2zm4.46 32.82s.67 1.91-.43 2.74c-.94 1.56 2 3.16 3.87.22a6.21 6.21 0 01-.43-3.19c-1.87.18-3.01.23-3.01.23z" fill="#fbbebe"/><path d="M103.99 135.2a2.33 2.33 0 00-1.09.72 2 2 0 01-2.79.08 4.27 4.27 0 000-.82 9.25 9.25 0 01-3 1c-1.45.14-1 1.31-.69 1.64a3.37 3.37 0 002.9.77 2.86 2.86 0 012.33.07 2.2 2.2 0 002.93-.78c0-.6-.14-.64-.14-.64a2.39 2.39 0 00-.45-2.04z" fill="#80909f"/><path d="M104.63 137.83c0-.6-.14-.64-.14-.64-.55 1.2-2.23 1.21-3.16 1a6.12 6.12 0 00-2.58.07 4.36 4.36 0 01-2.5-.86 1.28 1.28 0 00.23.39 3.37 3.37 0 002.9.77 2.86 2.86 0 012.33.07 2.2 2.2 0 002.92-.8z" fill="#5c6873"/><path d="M108.74 104.22l-1.07 5.26c-.76 3.75-5.24 12-4.77 14.55s1.11 9.1 1.11 9.1a2.4 2.4 0 01-3.54.62c-.5-4-1.92-8-2-10.35s2.63-18.22 2.63-18.22z" fill="#49496c"/><path d="M112.04 129.35s1.27 1.69.1 3c-.34 1.78 2.93 2.29 3.71-1.13a8.24 8.24 0 01-1.08-2.85 13.05 13.05 0 01-2.73.98z" fill="#fbbebe"/><path d="M115.75 131a2.33 2.33 0 00-.77 1.05 2 2 0 01-2.59 1 4.27 4.27 0 00-.25-.78 9.25 9.25 0 01-2.46 1.93c-1.31.63-.47 1.57-.08 1.77a3.37 3.37 0 003-.28 2.86 2.86 0 012.21-.74 2.2 2.2 0 002.48-1.75c-.21-.56-.35-.56-.35-.56s-.01-.74-1.19-1.64z" fill="#80909f"/><path d="M117.27 133.25c-.21-.56-.35-.56-.35-.56-.1 1.31-1.67 1.9-2.63 2a6.12 6.12 0 00-2.4 1 4.36 4.36 0 01-2.64.05 1.28 1.28 0 00.35.29 3.37 3.37 0 003-.28 2.86 2.86 0 012.21-.74 2.2 2.2 0 002.46-1.76z" fill="#5c6873"/><path d="M111.1 100.55s.69 1.23 1 5-1.38 12.85-.24 15.19 3.52 8.46 3.52 8.46a2.4 2.4 0 01-3.24 1.55c-1.58-3.76-4-7.21-4.68-9.44s-2.31-16.24-2.31-16.24z" fill="#49496c"/><path d="M101.95 78.22a3.43 3.43 0 00-1.44 3.35c-.21.41-.78 3.21.5 4.24.39.3 1.28 0 1.47.27a13.62 13.62 0 01.6 2l3.12-1.26a3.23 3.23 0 01-.44-2.2c.32-.92 1.79-1.9 1.37-3.85s-2.19-4.02-5.18-2.55z" fill="#fbbebe"/><path d="M111.2 80.72a27.37 27.37 0 01.19 3.12l.21.11s.3-1.63 1.3-1.23a.76.76 0 01.2 1.23 1.74 1.74 0 001.75 1.17 1.32 1.32 0 00.47-.1s.82-1.67 1.21-2.27c-1.53-.75-5.33-2.03-5.33-2.03z" transform="translate(-9.64)" fill="url(#f)"/><path d="M110.74 80.09s-1.3.09-1.12-2c.25.05 1.22-1.23 2.77-.78-.07-.34 3.39-.46 4.15 1.63.44.18 1.15 2.61 0 3.82-.44.31-4.71.75-5.8-2.67z" transform="translate(-9.64)" fill="url(#s)"/><path d="M120.27 87.93c-.58-1-2.35-.93-3.91-.61-.06-.74-.46-.95-.71-.92a7.71 7.71 0 01-3 1.16 1.19 1.19 0 00-1 1.52 18.06 18.06 0 00-3.06 2.18c-.78.76-2.34 8.25-2.34 8.25l-.37-.07c-1.35-.11-1.58 2.06-1.53 2.56s.21 1 2.68 1.62 3-3.91 3.5-6.5v4.11c0 .5-.08 1-.11 1.35s-.05.5-.07.7v.72a1.13 1.13 0 00.51 1.19l.28.2h.06l.22.14c2.65 1.54 6 .31 7.81-.65s2.68-2.2 2.5-2.93a31.23 31.23 0 01-.73-4.88h.61c2.87-.55-.61-7.77-1.34-9.14zm-7.65.64z" transform="translate(-9.64)" fill="url(#t)"/></svg>