<svg xmlns="http://www.w3.org/2000/svg" width="716.964" height="685.434"><path opacity=".2" fill="#431FBF" d="M126.755 149.636L350.544 20.433a75.56 75.56 0 0175.567 0l223.787 129.203a75.567 75.567 0 0137.783 65.443v258.408a75.565 75.565 0 01-37.783 65.443L426.111 668.135a75.566 75.566 0 01-75.567 0L126.755 538.932a75.565 75.565 0 01-37.783-65.443V215.08a75.568 75.568 0 0137.783-65.444z"/><path opacity=".2" fill="#431FBF" d="M554.365 121.16l110.213 190.894a64.465 64.465 0 010 64.461L554.365 567.409a64.461 64.461 0 01-55.824 32.229H278.115a64.461 64.461 0 01-55.826-32.229L112.077 376.516a64.457 64.457 0 010-64.462L222.289 121.16a64.465 64.465 0 0155.826-32.23H498.54a64.458 64.458 0 0155.825 32.23z"/><path opacity=".2" fill="#431FBF" d="M200.628 204.609l160.586-92.715a54.226 54.226 0 0154.227 0l160.586 92.715a54.225 54.225 0 0127.113 46.961v185.429a54.23 54.23 0 01-27.113 46.962l-160.586 92.715a54.226 54.226 0 01-54.227 0L200.628 483.96a54.231 54.231 0 01-27.114-46.962V251.57a54.225 54.225 0 0127.114-46.961z"/><path fill="#E7D847" d="M105.172 119.221l15.342-15.342c5.025-5.025 13.172-5.025 18.196 0 5.025 5.025 5.025 13.171 0 18.196l-15.342 15.342c-5.024 5.025-13.171 5.025-18.196 0-5.026-5.024-5.026-13.171 0-18.196zM486.544 590.23l15.342-15.344c5.025-5.023 13.172-5.023 18.197 0 5.025 5.023 5.025 13.172 0 18.196l-15.342 15.343c-5.025 5.025-13.172 5.025-18.197 0-5.025-5.023-5.025-13.17 0-18.195zm83.922-510.258l18.998-18.999c4.016-4.016 10.525-4.016 14.541 0s4.016 10.525 0 14.541l-18.998 18.999c-4.016 4.016-10.525 4.016-14.541 0-4.015-4.015-4.015-10.526 0-14.541zM17.163 552.415l15.342-15.345c5.025-5.024 13.172-5.024 18.196 0 5.025 5.024 5.025 13.172 0 18.197l-15.342 15.344c-5.025 5.023-13.171 5.023-18.196 0-5.027-5.026-5.027-13.173 0-18.196z"/><path fill="#F67162" d="M201.465 109.109l36.802-36.802a3.373 3.373 0 014.768 4.768l-36.802 36.801a3.371 3.371 0 01-4.768-4.767zm419.554 412.017l9.199-9.198a3.373 3.373 0 014.768 0 3.374 3.374 0 010 4.769l-9.197 9.198a3.377 3.377 0 01-4.77 0 3.374 3.374 0 010-4.769z"/><path fill="#E70058" d="M667.259 583.559c4.16 4.16 10.906 4.16 15.066 0 4.16-4.161 4.16-10.907 0-15.067l-15.066 15.067zM341.806 65.495c0-5.884-4.771-10.654-10.652-10.654-5.886 0-10.657 4.77-10.657 10.654h21.309zM262.21 582.913c-4.161-4.162-10.907-4.162-15.068 0-4.161 4.16-4.161 10.907 0 15.067l15.068-15.067z"/><path fill="#6FA847" d="M412.25 117.052l10.22-17.701 10.219 17.701zm-44.364 512.846l10.221-17.703 10.221 17.703z"/><circle fill="#8C7EDD" cx="523.853" cy="141.187" r="2.922"/><circle fill="#8C7EDD" cx="355.378" cy="533.301" r="2.922"/><circle fill="#8C7EDD" cx="262.21" cy="120.647" r="2.923"/></svg>