<svg xmlns="http://www.w3.org/2000/svg" id="Layer_1" x="0" y="0" viewBox="0 0 32 32" xml:space="preserve"><style>.st0{fill:#4284fb}</style><path class="st0" d="M10.4 19.9c-.2 0-.4-.1-.5-.2-.3-.3-.3-.8 0-1.1l2.6-2.6-2.6-2.6c-.3-.3-.3-.8 0-1.1.3-.3.8-.3 1.1 0l3.1 3.1c.3.3.3.8 0 1.1L11 19.7c-.2.1-.4.2-.6.2z"/><path class="st0" d="M13.3 16.8H6c-.4 0-.8-.3-.8-.8s.3-.8.8-.8h7.3c.4 0 .8.3.8.8s-.4.8-.8.8zm8.3 3.1c-.2 0-.4-.1-.5-.2L18 16.5c-.3-.3-.3-.8 0-1.1l3.1-3.1c.3-.3.8-.3 1.1 0 .3.3.3.8 0 1.1L19.5 16l2.6 2.6c.3.3.3.8 0 1.1-.1.1-.3.2-.5.2z"/><path class="st0" d="M26 16.8h-7.3c-.4 0-.8-.3-.8-.8s.3-.8.8-.8H26c.4 0 .8.3.8.8s-.4.8-.8.8zm-10 9.4c-4.3 0-8.3-2.7-9.7-7-.1-.4.1-.8.5-.9.4-.1.8.1.9.5 1.5 4.6 6.5 7 11.1 5.5 2.6-.9 4.7-2.9 5.5-5.5.1-.4.6-.6.9-.5.4.1.6.6.5.9-1 3-3.4 5.4-6.5 6.5-1 .4-2.1.5-3.2.5zm9-12.4c-.3 0-.6-.2-.7-.5-1.5-4.6-6.5-7-11.1-5.5-2.6.9-4.7 2.9-5.5 5.5-.1.4-.6.6-.9.5-.4-.1-.6-.6-.5-.9 1-3 3.4-5.4 6.5-6.5 5.4-1.8 11.2 1.1 13 6.5.1.4-.1.8-.5.9-.1-.1-.2 0-.3 0z"/></svg>