<svg xmlns="http://www.w3.org/2000/svg" id="Layer_1" data-name="Layer 1" viewBox="0 0 750 471"><defs><style>.cls-211{fill:#fff}</style></defs><rect id="Rectangle-1" width="750" height="471" rx="40" ry="40" fill="#0e4595"/><g id="visa"><path id="Shape" class="cls-211" d="M297.56 314.48l26.69-156.61h42.69l-26.71 156.61h-42.67z"/><path id="path13" class="cls-211" d="M494.45 161.25a110.25 110.25 0 00-38.26-6.58c-42.18 0-71.89 21.24-72.14 51.68-.24 22.5 21.21 35.06 37.4 42.55 16.62 7.68 22.2 12.57 22.12 19.43-.11 10.5-13.27 15.29-25.54 15.29-17.09 0-26.16-2.37-40.18-8.22l-5.5-2.49-6 35.06c10 4.37 28.41 8.16 47.55 8.36 44.87 0 74-21 74.33-53.51.17-17.82-11.23-31.37-35.83-42.55-14.92-7.24-24.06-12.08-24-19.42 0-6.51 7.73-13.47 24.45-13.47a78.74 78.74 0 0131.95 6l3.83 1.81 5.79-33.94"/><path id="Path" class="cls-211" d="M604.29 157.87h-33c-10.22 0-17.86 2.79-22.35 13l-63.4 143.52h44.82s7.33-19.3 9-23.53l54.64.05c1.28 5.48 5.19 23.47 5.19 23.47h39.61l-34.51-156.51zM552 259c3.53-9 17-43.78 17-43.78-.25.42 3.5-9.07 5.66-14.95l2.89 13.5s8.17 37.38 9.88 45.22H552z"/><path id="path16" class="cls-211" d="M261.32 157.87l-41.79 106.8-4.45-21.67c-7.78-25-32-52.12-59.12-65.7l38.21 137 45.16-.05 67.2-156.31h-45.21"/><path id="path18" d="M180.54 157.87H111.7l-.54 3.26c53.55 13 89 44.29 103.69 81.93l-15-72c-2.58-9.92-10.08-12.88-19.35-13.22" fill="#f2ae14"/></g></svg>