<svg xmlns="http://www.w3.org/2000/svg" version="1.1" id="bitcoin_icon" x="0" y="0" viewBox="0 0 780 501" xml:space="preserve"><style>#bitcoin_icon .st0{fill:#f7931a}#bitcoin_icon .st1{fill:#fff}</style><path class="st0" d="M725 0H55C24.7 0 0 24.7 0 55v391c0 30.3 24.7 55 55 55h670c30.3 0 55-24.7 55-55V55c0-30.3-24.7-55-55-55z"/><path class="st1" d="M213.1 266.9c-8.4 33.6-42.4 54.1-76.1 45.7-33.6-8.4-54.1-42.4-45.7-76.1 8.4-33.6 42.4-54.1 76.1-45.7 33.6 8.5 54 42.5 45.7 76.1z"/><path class="st0" d="M179.8 242.8c1.2-8.4-5.1-12.8-13.8-15.8l2.8-11.3-6.8-1.7-2.7 11c-1.8-.5-3.7-.9-5.5-1.3l2.8-11.1-6.9-1.7-2.8 11.3c-1.5-.3-3-.7-4.4-1l-9.5-2.4-1.8 7.4s5.1 1.2 5 1.2c2.8.7 3.3 2.5 3.2 4l-3.2 12.9c.2 0 .4.1.7.2-.2-.1-.5-.1-.7-.2l-4.5 18.1c-.3.8-1.2 2.1-3.2 1.6.1.1-5-1.2-5-1.2l-3.4 7.9 9 2.2c1.7.4 3.3.9 4.9 1.3l-2.8 11.4 6.9 1.7 2.8-11.3c1.9.5 3.7 1 5.5 1.4l-2.8 11.3 6.9 1.7 2.8-11.4c11.7 2.2 20.6 1.3 24.3-9.3 3-8.6-.1-13.5-6.3-16.7 4.3-1.1 7.6-4.1 8.5-10.2zm-15.7 22.1c-2.1 8.6-16.5 3.9-21.2 2.8l3.8-15.2c4.7 1.2 19.6 3.5 17.4 12.4zm2.1-22.2c-1.9 7.8-13.9 3.8-17.8 2.9l3.4-13.7c3.9.9 16.5 2.7 14.4 10.8z"/><path class="st1" d="M273.3 227c5.1 0 9.5.9 13.2 2.7 3.7 1.8 6.8 4.2 9.2 7.3 2.4 3.1 4.2 6.7 5.4 10.8 1.2 4.1 1.7 8.6 1.7 13.3 0 7.3-1.3 14.2-4 20.7s-6.4 12.2-11 17c-4.7 4.8-10.2 8.6-16.5 11.4-6.3 2.8-13.2 4.2-20.6 4.2-1 0-2.6 0-5-.1-2.4 0-5.1-.3-8.2-.7-3.1-.4-6.3-1.1-9.8-1.9-3.4-.8-6.7-2-9.8-3.5l27.5-115.5L270 189l-9.8 41c2.1-.9 4.2-1.7 6.3-2.2 2.1-.6 4.4-.8 6.8-.8zm-20.6 68c3.7 0 7.2-.9 10.5-2.7 3.3-1.8 6.1-4.2 8.5-7.2 2.4-3 4.3-6.4 5.6-10.2s2.1-7.8 2.1-11.9c0-5.1-.8-9-2.5-11.9-1.7-2.9-4.8-4.3-9.4-4.3-1.5 0-3.4.3-5.8.8s-4.5 1.7-6.4 3.3l-10.5 43.5c.6.1 1.2.2 1.7.3.5.1 1 .2 1.5.2.5.1 1.2.1 1.9.1h2.8zm75.7 17.3h-23.5l19.9-83.5h23.7l-20.1 83.5zm11.5-93.7c-3.3 0-6.3-1-8.9-2.9-2.7-1.9-4-4.9-4-9 0-2.2.5-4.3 1.3-6.3.9-2 2.1-3.6 3.6-5.1 1.5-1.4 3.2-2.6 5.2-3.4 2-.8 4.1-1.3 6.3-1.3 3.3 0 6.2 1 8.9 2.9 2.6 2 4 5 4 9 0 2.2-.4 4.3-1.4 6.3-.9 2-2.1 3.6-3.6 5.1-1.5 1.4-3.2 2.6-5.2 3.4-1.9.9-4 1.3-6.2 1.3zm29.1-10.7l24.6-3.8-6 24.6H414l-4.8 19.4H383l-7 29.2c-.6 2.4-1 4.7-1.1 6.8-.1 2.1.2 3.9.8 5.5.6 1.5 1.8 2.7 3.4 3.6 1.6.9 4 1.3 7.1 1.3 2.5 0 5-.2 7.4-.7 2.4-.5 4.8-1.1 7.2-2l1.8 18.1c-3.2 1.2-6.6 2.2-10.3 3-3.7.9-8.1 1.3-13.2 1.3-7.3 0-13-1.1-17-3.2-4-2.2-6.9-5.1-8.6-8.9-1.7-3.7-2.4-8.1-2.2-12.9.2-4.9 1-10 2.2-15.4l15.5-65.9zm44 71c0-7.2 1.2-14 3.5-20.3 2.3-6.4 5.7-11.9 10-16.7 4.3-4.7 9.6-8.5 15.8-11.3 6.2-2.7 13.1-4.1 20.7-4.1 4.8 0 9 .5 12.8 1.4 3.8.9 7.2 2.1 10.3 3.6l-8.1 18.4c-2.1-.9-4.3-1.6-6.6-2.3-2.3-.7-5.1-1-8.3-1-7.8 0-14.1 2.7-18.7 8.1-4.6 5.4-6.9 12.7-6.9 21.8 0 5.4 1.2 9.8 3.5 13.1 2.3 3.3 6.6 5 12.9 5 3.1 0 6.1-.3 8.9-.9 2.9-.6 5.4-1.4 7.6-2.4l1.8 18.9c-3 1.2-6.3 2.2-9.8 3.1-3.6.9-7.9 1.3-12.9 1.3-6.6 0-12.1-1-16.7-2.9s-8.3-4.5-11.3-7.7-5.1-7-6.4-11.4c-1.5-4.4-2.1-8.9-2.1-13.7zm104.4 35.6c-5.6 0-10.5-.9-14.6-2.5-4.1-1.7-7.5-4.1-10.2-7.1-2.7-3.1-4.7-6.7-6.1-10.9-1.4-4.2-2.1-8.8-2.1-13.9 0-6.4 1-12.7 3.1-19.1 2.1-6.4 5.1-12.1 9.1-17.1 4-5.1 8.9-9.2 14.8-12.5 5.8-3.2 12.5-4.8 20-4.8 5.5 0 10.4.9 14.5 2.5 4.2 1.7 7.6 4.1 10.3 7.1 2.7 3.1 4.7 6.7 6.1 10.9 1.4 4.2 2.1 8.8 2.1 13.9 0 6.3-1 12.7-3 19.1-2 6.3-5 12.1-8.9 17.1-3.9 5.1-8.8 9.2-14.7 12.5-5.9 3.2-12.7 4.8-20.4 4.8zm11.7-68c-3.5 0-6.6 1-9.2 3-2.6 2-4.9 4.6-6.7 7.6-1.8 3.1-3.2 6.4-4.1 10.1-.9 3.7-1.3 7.1-1.3 10.4 0 5.3.9 9.4 2.5 12.4 1.7 3 4.8 4.4 9.2 4.4 3.5 0 6.6-1 9.2-3 2.6-2 4.9-4.6 6.7-7.6 1.8-3.1 3.2-6.4 4.1-10.1.9-3.6 1.3-7.1 1.3-10.4 0-5.3-.9-9.4-2.5-12.4-1.6-2.9-4.7-4.4-9.2-4.4zm60.9 65.8h-23.5l19.9-83.5H610l-20 83.5zm11.4-93.7c-3.3 0-6.3-1-8.9-2.9-2.6-1.9-4-4.9-4-9 0-2.2.5-4.3 1.4-6.3.9-2 2.1-3.6 3.6-5.1 1.5-1.4 3.2-2.6 5.2-3.4 2-.8 4-1.3 6.3-1.3 3.3 0 6.3 1 8.9 2.9 2.6 2 4 5 4 9 0 2.2-.5 4.3-1.4 6.3s-2.1 3.6-3.6 5.1c-1.5 1.4-3.2 2.6-5.2 3.4-1.9.9-4 1.3-6.3 1.3zm25.6 13.9c1.8-.5 3.8-1.1 5.9-1.8 2.2-.7 4.6-1.3 7.3-1.9 2.7-.6 5.7-1.1 9-1.4 3.3-.4 7.1-.6 11.3-.6 12.4 0 20.9 3.6 25.7 10.8 4.7 7.2 5.5 17.1 2.5 29.5L678 312.3h-23.7l10.5-44.2c.6-2.8 1.1-5.4 1.5-8 .4-2.6.4-4.9-.1-6.8-.4-1.9-1.4-3.5-2.9-4.8-1.6-1.2-3.9-1.8-7.1-1.8-3.1 0-6.2.3-9.4 1l-15.4 64.6h-23.7l19.3-79.8z"/></svg>