<svg xmlns="http://www.w3.org/2000/svg" id="Layer_1" data-name="Layer 1" viewBox="0 0 780 501"><defs><style>.cls-213{fill:#fff}.cls-313{fill:#009cde}</style></defs><path d="M725 0H55A55.06 55.06 0 000 55v391a55.06 55.06 0 0055 55h670a55.06 55.06 0 0055-55V55a55.06 55.06 0 00-55-55z" fill="#003087"/><path class="cls-213" d="M210.49 185.18q-10.2-7-26.63-7h-42.4q-5 0-5.56 5l-17.24 108.13a3.54 3.54 0 00.79 2.92 3.25 3.25 0 002.65 1.32h20.14q5.3 0 5.83-5l4.77-29.15a5.15 5.15 0 011.86-3.45 8.17 8.17 0 014-1.73 27.7 27.7 0 014.51-.39q2.12 0 5 .26t3.71.26q22.79 0 35.78-12.85t13-35.64q-.01-15.66-10.21-22.68zm-21.86 32.46q-1.33 9.28-6.89 12.19t-15.9 2.91l-8.75.27 4.51-28.36a3.17 3.17 0 013.44-2.91h5q10.59 0 15.37 3t3.22 12.9z"/><path class="cls-313" d="M657.94 178.15h-19.61a3.17 3.17 0 00-3.44 2.92l-17.23 110.24-.27.53a3.74 3.74 0 001.06 2.52 3.4 3.4 0 002.65 1.19h17.5q5 0 5.57-5l17.22-108.39v-.26q0-3.74-3.45-3.75z"/><path class="cls-213" d="M421 220.82a3.76 3.76 0 00-1-2.52 3.15 3.15 0 00-2.39-1.19h-20.43a5.61 5.61 0 00-4.77 2.65l-28.09 41.34-11.66-39.75a5.57 5.57 0 00-5.83-4.24H327a3.13 3.13 0 00-2.38 1.19 3.74 3.74 0 00-1.06 2.52q0 .53 5.17 15.64t11.13 32.6q6 17.49 6.23 18.55-21.73 29.68-21.73 31.8 0 3.45 3.44 3.45h20.41a5.61 5.61 0 004.77-2.65l67.58-97.52a2.58 2.58 0 00.44-1.87z"/><path class="cls-313" d="M611 217.11h-20.1q-3.71 0-4.5 8.75-6.9-10.59-25.18-10.6-19.08 0-32.46 14.31a47.67 47.67 0 00-13.38 33.66q0 15.64 9.14 24.91t24.48 9.27a41.93 41.93 0 0015.63-3.18 31.15 31.15 0 0012.46-8.48 22.71 22.71 0 01-.53 2.38 14.38 14.38 0 00-.53 3.18q0 4.25 3.45 4.24h18.29q5 0 5.83-5l10.87-69.17a3.57 3.57 0 00-.8-2.92 3.27 3.27 0 00-2.67-1.35zm-34.58 52.21a22.43 22.43 0 01-16.3 6.62q-7.69 0-12.46-4.24t-4.73-11.7a22.76 22.76 0 016.63-16.56 22.08 22.08 0 0116.44-6.72 17.84 17.84 0 0112.32 4.37q4.9 4.37 4.9 12.06a21.78 21.78 0 01-6.76 16.17z"/><path class="cls-213" d="M310 217.11h-20.14q-3.72 0-4.51 8.75-7.16-10.59-25.18-10.6-19.08 0-32.46 14.31a47.67 47.67 0 00-13.38 33.66q0 15.64 9.14 24.91t24.53 9.27a41.33 41.33 0 0015.37-3.18 33.47 33.47 0 0012.72-8.48 17.9 17.9 0 00-1.06 5.56q0 4.25 3.44 4.24h18.28q5 0 5.83-5l10.86-69.17a3.57 3.57 0 00-.79-2.92 3.27 3.27 0 00-2.65-1.35zm-34.58 52.34a23 23 0 01-16.56 6.49q-7.69 0-12.32-4.24t-4.65-11.7a22.75 22.75 0 016.63-16.56 22.08 22.08 0 0116.43-6.76 17.84 17.84 0 0112.32 4.37q4.9 4.37 4.9 12.06a21.64 21.64 0 01-6.76 16.34z"/><path class="cls-313" d="M511.53 185.18q-10.2-7-26.63-7h-42.14q-5.3 0-5.83 5l-17.22 108.13a3.54 3.54 0 00.79 2.92 3.25 3.25 0 002.65 1.32h21.73q3.18 0 4.24-3.44l4.77-30.74a5.15 5.15 0 011.85-3.45 8.17 8.17 0 014-1.73 27.69 27.69 0 014.51-.39q2.12 0 5 .26c1.94.18 3.18.26 3.71.26q22.79 0 35.78-12.85t13-35.64q-.01-15.63-10.21-22.65zm-27.16 43.59q-5.83 4-17.49 4l-8.48.27 4.51-28.36a3.17 3.17 0 013.44-2.91h4.77a64.18 64.18 0 019.28.53 13.13 13.13 0 016.62 3.31q3.18 2.78 3.18 8.08 0 11.1-5.83 15.08z"/></svg>