<svg xmlns="http://www.w3.org/2000/svg" id="Layer_1" data-name="Layer 1" viewBox="0 0 750 471"><defs><style>.cls-412{fill:#fff}</style></defs><rect id="Rectangle-1" width="750" height="471" rx="40" ry="40" fill="#1d306d"/><path id="Fill-1" d="M425.16 235.5A152.58 152.58 0 11272.58 82.92 152.58 152.58 0 01425.16 235.5" fill="#d9222a"/><path id="Fill-2" d="M477.42 82.92A152 152 0 00375 122.42a155.07 155.07 0 00-15.41 16.15h30.83A154.53 154.53 0 01402 154.73h-54a151.91 151.91 0 00-8.79 16.16h71.67a152.31 152.31 0 016.41 16.11h-84.58a150.7 150.7 0 00-4.43 16.16h93.45a153.4 153.4 0 01-4.44 80.84h-84.58a151 151 0 006.46 16.16h71.67a153 153 0 01-8.84 16.13h-54a154.35 154.35 0 0011.63 16.15h30.82A152.4 152.4 0 01375 348.59 152.58 152.58 0 10477.42 82.92" fill="#ee9f2d"/><path id="Fill-12" class="cls-412" d="M200.93 275.66h-16.57l9.5-59.49-21.19 59.49h-11.29L160 216.51l-10 59.15h-15.5l13-77.39h23.82l.67 47.91L188 198.27h25.73l-12.81 77.39"/><path id="Fill-13" class="cls-412" d="M241.71 247.62a27.57 27.57 0 00-3.69-.26c-9.39 0-14.14 3.22-14.14 9.58 0 3.91 2.32 6.41 5.93 6.41 6.75 0 11.62-6.42 11.9-15.74zm12.05 28H240l.31-6.51c-4.18 5.15-9.78 7.61-17.36 7.61-9 0-15.13-7-15.13-17.19 0-15.33 10.7-24.26 29.08-24.26a55.77 55.77 0 016.75.49 15.47 15.47 0 00.65-4.09c0-4.17-2.88-5.72-10.62-5.72a55.32 55.32 0 00-17.53 2.82c.17-1 2.3-14.14 2.3-14.14 8.25-2.43 13.7-3.34 19.82-3.34 14.23 0 21.76 6.39 21.75 18.45a81 81 0 01-1.35 12.47c-1.43 9.12-4.52 28.67-4.94 33.42z"/><path id="Fill-14" class="cls-412" d="M475.93 200.35l-2.71 16.8c-5.91-3-10.2-4.18-14.8-4.18-12.37 0-21 11.95-21 29 0 11.75 5.83 18.85 15.46 18.85 4.08 0 8.58-1.27 14.07-4L464 274.48a51.62 51.62 0 01-14.64 2.27c-17.83 0-28.94-12.82-28.94-33.41 0-27.67 15.35-47 37.3-47 7.23 0 15.78 3.07 18.21 4"/><path id="Fill-15" class="cls-412" d="M502.66 247.62a27.53 27.53 0 00-3.69-.26c-9.39 0-14.14 3.22-14.14 9.58 0 3.91 2.32 6.41 5.94 6.41 6.75 0 11.61-6.42 11.9-15.74zm12.05 28H501l.32-6.51c-4.19 5.15-9.78 7.61-17.36 7.61-9 0-15.13-7-15.13-17.19 0-15.33 10.71-24.26 29.08-24.26a55.83 55.83 0 016.75.49 15.62 15.62 0 00.65-4.09c0-4.17-2.88-5.72-10.62-5.72a55.34 55.34 0 00-17.53 2.82c.17-1 2.3-14.14 2.3-14.14 8.25-2.43 13.7-3.34 19.82-3.34 14.23 0 21.76 6.39 21.75 18.45a80.07 80.07 0 01-1.34 12.47c-1.43 9.12-4.53 28.67-4.94 33.42z"/><path id="Fill-16" class="cls-412" d="M327.38 274.7a37.89 37.89 0 01-11.9 2c-8.47 0-13.09-4.87-13.09-13.83-.12-2.79 1.22-10.1 2.27-16.78 1-5.89 7.18-43 7.18-43h16.46l-1.92 9.53h8.45l-2.25 15.12h-8.48c-1.91 12-4.64 26.88-4.67 28.86 0 3.25 1.74 4.66 5.67 4.66a13.42 13.42 0 004.47-.59l-2.19 13.93"/><path id="Fill-17" class="cls-412" d="M377.86 274.2a56.32 56.32 0 01-16.9 2.55c-18.43 0-28-9.64-28-28.08 0-21.52 12.22-37.36 28.81-37.36 13.58 0 22.25 8.86 22.25 22.78a67.76 67.76 0 01-2 15.48h-32.85c-1.11 9.13 4.74 12.94 14.31 12.94a38.88 38.88 0 0017.12-4l-2.74 15.66zm-9.26-37.33c.1-1.31 1.75-11.23-7.66-11.23-5.24 0-9 4-10.52 11.23h18.18z"/><path id="Fill-18" class="cls-412" d="M263.7 232.62c0 8 3.86 13.44 12.62 17.57 6.71 3.15 7.75 4.09 7.75 6.95 0 3.92-3 5.69-9.51 5.69a46.66 46.66 0 01-14.85-2.48s-2.17 13.87-2.27 14.54c3.76.82 7.12 1.57 17.23 1.86 17.48 0 25.55-6.65 25.55-21 0-8.65-3.38-13.73-11.68-17.54-6.94-3.19-7.75-3.9-7.75-6.84 0-3.4 2.76-5.15 8.11-5.15a91.28 91.28 0 0111.9 1l2.36-14.6a112.18 112.18 0 00-14.57-1.23c-18.53 0-24.94 9.67-24.89 21.31"/><path id="Fill-19" class="cls-412" d="M602.38 275.66h-15.67l.78-5.86c-4.54 4.86-9.2 7-15.27 7-12 0-20-10.38-20-26.12 0-20.93 12.34-38.58 27-38.58 6.42 0 11.29 2.62 15.81 8.58l3.68-22.36H615l-12.62 77.39zm-24.43-14.54c7.71 0 13.13-8.74 13.13-21.21 0-8-3.08-12.33-8.78-12.33-7.51 0-12.85 8.77-12.85 21.14 0 8.23 2.85 12.4 8.49 12.4z"/><path id="Fill-20" class="cls-412" d="M529.63 212.72c-2.08 19.48-5.76 39.21-8.64 58.7l-.76 4.23h16.57c5.93-38.48 7.36-46 16.65-45.06a61.85 61.85 0 016.29-18.26c-6.94-1.44-10.81 2.48-15.88 9.92.4-3.22 1.13-6.35 1-9.54h-15.23"/><path id="Fill-21" class="cls-412" d="M393.28 212.72c-2.08 19.48-5.76 39.21-8.64 58.7l-.75 4.23h16.58c5.92-38.48 7.35-46 16.64-45.06a62.27 62.27 0 016.29-18.26c-6.93-1.44-10.81 2.48-15.88 9.92.4-3.22 1.13-6.35 1-9.54h-15.24"/><path id="Fill-22" class="cls-412" d="M609.66 270.73a4.93 4.93 0 114.93 4.93 4.92 4.92 0 01-4.93-4.93zm4.93 3.74a3.75 3.75 0 10-3.75-3.74 3.74 3.74 0 003.75 3.74zm-.67-1.59h-1v-4.32h1.83a2 2 0 011.1.22 1.3 1.3 0 01.56 1.08 1.18 1.18 0 01-.75 1.12l.8 1.9h-1.12l-.66-1.71h-.74v1.71zm0-2.45h.56a1.3 1.3 0 00.62-.09.59.59 0 00.25-.5.58.58 0 00-.24-.45 1.43 1.43 0 00-.65-.07h-.53v1.1z"/></svg>