<svg version="1.1" id="Layer_1" xmlns="http://www.w3.org/2000/svg" xmlns:xlink="http://www.w3.org/1999/xlink" x="0" y="0" viewBox="0 0 121.7 130.3" xml:space="preserve"><style>.st0{fill:#48486a}.st2{fill:#363650}.st3{fill:#c0c7cf}.st6{fill:#5d6873}.st15{fill:#f2f3f4}.st20{fill:#5d639e}.st21{fill:#49486b}.st22{fill:#dee2e6}.st24{fill:#24126a}.st29{fill:#9198db}.st48{fill:#0073ec}.st49{fill:#fff}.st50{fill:#f2b1b5}.st51{fill:#d4daed}.st58{fill:none}</style><path class="st0" d="M85.5 32h4.1l-1-2.3-41.2-16v68.8c0 .1.1.3.3.3l37.5 21.7c.1 0 .2.1.2.1l.1-72.6z"/><linearGradient id="SVGID_1_" gradientUnits="userSpaceOnUse" x1="97.9" y1="1418.195" x2="97.9" y2="1335.595" gradientTransform="translate(0 -1313.495)"><stop offset="0" stop-color="#eff0f8"/><stop offset="1" stop-color="#e0e0e0"/></linearGradient><path d="M109.7 22.1L86 35.7v69c.3 0 .5-.1.8-.2l22.6-13c.2-.1.3-.3.4-.5l-.1-68.9z" fill="url(#SVGID_1_)"/><path class="st2" d="M84.3 15v89l1 .6c.2.1.5.2.7.2.3 0 .3-.2.5-.3l.2-.1-.3-10.5V77.2l.5-62.2h-2.6z"/><path class="st3" d="M86.9 93.9V35.1l-1 .6v69h.2c.1 0 .2-.1.4-.1l.2-.1.2-.1V93.9z"/><linearGradient id="SVGID_2_" gradientUnits="userSpaceOnUse" x1="-313.382" y1="1350.445" x2="-315.342" y2="1350.445" gradientTransform="translate(396.21 -1313.495)"><stop offset="0" stop-color="#c0c6ce"/><stop offset=".07" stop-color="#c6cbd2"/><stop offset=".41" stop-color="#dee0e2"/><stop offset=".73" stop-color="#ececec"/><stop offset="1" stop-color="#f1f0ef"/></linearGradient><path d="M82.8 37.3c0-.6-.3-1.1-.8-1.4-.2-.1-.4-.1-.6-.1l-.6.3h.4v.2c0 .6.3 1.1.8 1.4l.2.1-.2.3.6-.3c.2-.1.3-.3.2-.5z" fill="url(#SVGID_2_)"/><linearGradient id="SVGID_3_" gradientUnits="userSpaceOnUse" x1="-315.582" y1="1350.645" x2="-313.952" y2="1350.645" gradientTransform="translate(396.21 -1313.495)"><stop offset="0" stop-color="#b8bec6"/><stop offset=".76" stop-color="#bdc3cb"/><stop offset="1" stop-color="#c0c6ce"/></linearGradient><path d="M82.3 37.6c0 .5-.4.7-.8.5-.5-.3-.8-.8-.8-1.4 0-.5.4-.7.8-.5.4.3.7.8.8 1.4z" fill="url(#SVGID_3_)"/><path class="st6" d="M81.9 37.4c0 .3-.2.4-.5.3-.3-.2-.5-.5-.5-.8s.2-.4.5-.3c.3.2.5.5.5.8z"/><linearGradient id="SVGID_4_" gradientUnits="userSpaceOnUse" x1="-345.112" y1="1332.495" x2="-347.082" y2="1332.495" gradientTransform="translate(396.21 -1313.495)"><stop offset="0" stop-color="#c0c6ce"/><stop offset=".07" stop-color="#c6cbd2"/><stop offset=".41" stop-color="#dee0e2"/><stop offset=".73" stop-color="#ececec"/><stop offset="1" stop-color="#f1f0ef"/></linearGradient><path d="M51.1 19.3c0-.6-.3-1.1-.8-1.4-.2-.1-.4-.1-.6-.1l-.6.3h.4v.2c0 .6.3 1.1.8 1.5l.2.1-.2.3.6-.3c.1-.2.2-.4.2-.6z" fill="url(#SVGID_4_)"/><linearGradient id="SVGID_5_" gradientUnits="userSpaceOnUse" x1="-347.312" y1="1332.645" x2="-345.692" y2="1332.645" gradientTransform="translate(396.21 -1313.495)"><stop offset="0" stop-color="#b8bec6"/><stop offset=".76" stop-color="#bdc3cb"/><stop offset="1" stop-color="#c0c6ce"/></linearGradient><path d="M50.5 19.6c0 .5-.4.7-.8.5-.5-.3-.8-.8-.8-1.4 0-.5.4-.7.8-.5.5.3.8.8.8 1.4z" fill="url(#SVGID_5_)"/><path class="st6" d="M50.2 19.4c0 .3-.2.4-.5.3-.3-.2-.5-.5-.5-.8s.2-.4.5-.3c.3.2.5.5.5.8z"/><linearGradient id="SVGID_6_" gradientUnits="userSpaceOnUse" x1="-313.082" y1="1413.712" x2="-315.042" y2="1413.712" gradientTransform="translate(396.21 -1313.495)"><stop offset="0" stop-color="#c0c6ce"/><stop offset=".07" stop-color="#c6cbd2"/><stop offset=".41" stop-color="#dee0e2"/><stop offset=".73" stop-color="#ececec"/><stop offset="1" stop-color="#f1f0ef"/></linearGradient><path d="M83.2 100.6c0-.6-.3-1.1-.8-1.4-.2-.2-.4-.2-.6-.1l-.6.3h.4v.2c0 .6.3 1.1.8 1.4l.2.1-.2.3.6-.3c.1-.1.2-.3.2-.5z" fill="url(#SVGID_6_)"/><linearGradient id="SVGID_7_" gradientUnits="userSpaceOnUse" x1="-315.282" y1="1413.945" x2="-313.662" y2="1413.945" gradientTransform="translate(396.21 -1313.495)"><stop offset="0" stop-color="#b8bec6"/><stop offset=".76" stop-color="#bdc3cb"/><stop offset="1" stop-color="#c0c6ce"/></linearGradient><path d="M82.6 100.9c0 .5-.4.7-.8.5-.5-.3-.8-.8-.8-1.4 0-.5.4-.7.8-.5.4.3.7.8.8 1.4z" fill="url(#SVGID_7_)"/><path class="st6" d="M82.2 100.8c0 .3-.2.4-.5.3-.3-.2-.5-.5-.5-.8s.2-.4.5-.3.5.4.5.8z"/><linearGradient id="SVGID_8_" gradientUnits="userSpaceOnUse" x1="-345.212" y1="1395.045" x2="-347.182" y2="1395.045" gradientTransform="translate(396.21 -1313.495)"><stop offset="0" stop-color="#c0c6ce"/><stop offset=".07" stop-color="#c6cbd2"/><stop offset=".41" stop-color="#dee0e2"/><stop offset=".73" stop-color="#ececec"/><stop offset="1" stop-color="#f1f0ef"/></linearGradient><path d="M51 81.9c0-.6-.3-1.1-.8-1.4-.2-.1-.4-.1-.6-.1l-.6.3h.4v.2c0 .6.3 1.1.8 1.4l.2.1-.2.3.6-.3c.1-.1.2-.3.2-.5z" fill="url(#SVGID_8_)"/><linearGradient id="SVGID_9_" gradientUnits="userSpaceOnUse" x1="-347.422" y1="1395.245" x2="-345.792" y2="1395.245" gradientTransform="translate(396.21 -1313.495)"><stop offset="0" stop-color="#b8bec6"/><stop offset=".76" stop-color="#bdc3cb"/><stop offset="1" stop-color="#c0c6ce"/></linearGradient><path d="M50.4 82.2c0 .5-.4.7-.8.5-.5-.3-.8-.8-.8-1.4 0-.5.4-.7.8-.5.5.3.8.8.8 1.4z" fill="url(#SVGID_9_)"/><path class="st6" d="M50.1 82c0 .3-.2.4-.5.3-.3-.2-.5-.5-.5-.8s.2-.4.5-.3c.3.2.5.5.5.8z"/><path d="M49.3 17.5l33.1 19.1v64.3L49.3 81.8V17.5z" opacity=".4" fill="#363650"/><path d="M47.4 72.5l36.8-24.7V35.2L47.4 13.7v58.8z" opacity=".1" fill="#f0f0f0"/><path class="st15" d="M85.2 35.7L47.7 14.1c-.4-.2-.3-.6.1-.9L70.4.2c.5-.3 1-.3 1.5-.1l37.5 21.6c.4.2.3.6-.1.9l-22.6 13c-.4.3-1 .3-1.5.1z"/><linearGradient id="SVGID_10_" gradientUnits="userSpaceOnUse" x1="51.7" y1="1331.395" x2="102.8" y2="1331.395" gradientTransform="translate(0 -1313.495)"><stop offset="0" stop-color="#eff0f8"/><stop offset="1" stop-color="#e2e2e2"/></linearGradient><path d="M71.5 2.4l-18 10.4-1.8-.3v1.3l33.9 19.6 17.2-11.7L71.5 2.4z" fill="url(#SVGID_10_)"/><linearGradient id="SVGID_11_" gradientUnits="userSpaceOnUse" x1="85.6" y1="1340.545" x2="105.4" y2="1340.545" gradientTransform="translate(0 -1313.495)"><stop offset="0" stop-color="#e9e8e9"/><stop offset="1" stop-color="#c7c7c7"/></linearGradient><path d="M105.4 20.7V22L85.6 33.4v-1.3l19.8-11.4z" fill="url(#SVGID_11_)"/><path class="st15" d="M85.6 32.1L51.7 12.5 71.5 1.1l33.9 19.6-19.8 11.4z"/><linearGradient id="SVGID_12_" gradientUnits="userSpaceOnUse" x1="97.85" y1="1391.695" x2="97.85" y2="1359.295" gradientTransform="translate(0 -1313.495)"><stop offset="0" stop-color="#b8bfc7"/><stop offset="1" stop-color="#c0c7cf"/></linearGradient><path d="M105.2 46.3v21.8l-15.7 9.1v1l16.7-9.6V45.8l-1 .5z" fill="url(#SVGID_12_)"/><linearGradient id="SVGID_13_" gradientUnits="userSpaceOnUse" x1="89.5" y1="1390.695" x2="116.2" y2="1390.695" gradientTransform="translate(0 -1313.495)"><stop offset="0" stop-color="#9aa6d4"/><stop offset="1" stop-color="#e9e8e9"/></linearGradient><path d="M116.2 74.5l-.9.5-9-5.2c-.2-.1-.4-.1-.6 0l-15.4 8.9-.8-.4.3.8s0 .1.1.1l9.4 5.4c.2.1.4.1.6 0l15.8-9.1c.1 0 .1-.1.1-.1l.4-.9z" fill="url(#SVGID_13_)"/><path class="st15" d="M116 74.6L99.8 84c-.2.1-.4.1-.6 0l-9.7-5.6c-.2-.1-.1-.2 0-.3l16.2-9.3c.2-.1.4-.1.6 0l9.7 5.6c.2 0 .2.1 0 .2z"/><path class="st20" d="M94.9 81.9v-.2l.6.4v.2l-.6-.4c0 .1 0 .1 0 0zm1 .6v-.2l.6.4v.2l-.6-.4z"/><path class="st3" d="M92.1 77.9l13.5-7.8c.1-.1.2-.1.3 0l4.8 2.8s.1.1 0 .1l-13.5 7.8c-.1.1-.2.1-.3 0l-4.8-2.9c-.1.1-.1.1 0 0-.1 0 0 0 0 0z"/><path class="st20" d="M92.1 78.1l13.4-7.8c.1-.1.2-.1.3 0l4.8 2.8s.1-.1 0-.1l-4.8-2.8c-.1-.1-.2-.1-.3 0l-13.4 7.9c-.1-.2-.1-.1 0 0-.1-.1 0 0 0 0z"/><path class="st21" d="M106.2 70.8l-11.7 6.8-.5-.3 11.7-6.8.5.3zm1.3.8l-11 6.3-.5-.3 11-6.3.5.3zm.8.4l-12.9 7.4-.5-.3 12.9-7.4.5.3zm.8.5L96.2 80l-.5-.3 12.9-7.5.5.3zm.9.5l-12.9 7.5-.5-.3 12.9-7.4.5.2zm-16.2 5l-.5.3-.5-.3.5-.3.5.3zm1.8.4l-1 .6-.6-.3 1.1-.6.5.3z"/><path class="st22" d="M106.1 79.8l3.6-2.1c.1 0 .1-.1.1-.2l-.1-.1-2.5-1.4c-.2-.1-.3-.1-.5 0l-3.6 2.1c-.1 0-.1.1-.1.2l.1.1 2.5 1.4c.1.1.3.1.5 0z"/><path d="M103.1 78.2l3.6-2.1c.2-.1.3-.1.5 0l2.5 1.4.1.1c0-.1 0-.2-.1-.2l-2.5-1.4c-.2-.1-.3-.1-.5 0l-3.6 2.2c-.1-.1-.2 0 0 0-.1 0-.1 0 0 0z" fill="#80909f"/><path class="st24" d="M105.2 46.3l-15.7 9.1v21.8l15.7-9.1V46.3z"/><path class="st2" d="M105.2 46.3l-15.7 9.1v21.8l15.7-9.1V46.3z"/><path class="st0" d="M104.3 68.7V47.8l-14.9 8.6v20.8l14.9-8.5z"/><g opacity=".11"><defs><path id="SVGID_14_" d="M104.3 68.7V47.8l-14.8 8.6v20.8z"/></defs><clipPath id="SVGID_15_"><use xlink:href="#SVGID_14_" overflow="visible"/></clipPath><g clip-path="url(#SVGID_15_)"><linearGradient id="SVGID_16_" gradientUnits="userSpaceOnUse" x1="88.346" y1="1383.895" x2="114.936" y2="1383.895" gradientTransform="translate(0 -1313.495)"><stop offset="0" stop-color="#c0bff6"/><stop offset=".29" stop-color="#c5c4f7"/><stop offset=".64" stop-color="#d3d2f9"/><stop offset="1" stop-color="#e9e9fd"/></linearGradient><path d="M105.9 68.7L89.7 78c-.2.1-.4.1-.6 0l-9.6-5.6c-.2-.1-.1-.2 0-.3l16.2-9.3c.2-.1.4-.1.6 0l9.6 5.6c.1 0 .1.2 0 .3z" fill="url(#SVGID_16_)"/><linearGradient id="SVGID_17_" gradientUnits="userSpaceOnUse" x1="86.592" y1="1381.895" x2="93.392" y2="1381.895" gradientTransform="translate(0 -1313.495)"><stop offset="0" stop-color="#c0bff6"/><stop offset=".29" stop-color="#c5c4f7"/><stop offset=".64" stop-color="#d3d2f9"/><stop offset="1" stop-color="#e9e9fd"/></linearGradient><path d="M89.7 70.3l3.6-2.1c.1 0 .1-.1.1-.2l-.1-.1-2.5-1.4c-.2-.1-.3-.1-.5 0l-3.6 2.1c-.1 0-.1.1-.1.2l.1.1 2.5 1.4c.1.1.3.1.5 0z" fill="url(#SVGID_17_)"/><path class="st29" d="M86.7 68.8l3.6-2.1c.2-.1.3-.1.5 0l2.5 1.4.1.1c0-.1 0-.2-.1-.2l-2.5-1.4c-.2-.1-.3-.1-.5 0l-3.6 2.2c-.1-.1-.1 0 0 0-.1 0 0 0 0 0z"/><path d="M85.1 73.6l13.4-7.7c.1-.1.2-.1.3 0l4.8 2.8s.1.1 0 .1l-13.4 7.7c-.1.1-.2.1-.3 0l-4.8-2.9c0 .2-.1.1 0 0z" fill="#adb1f2"/><path class="st29" d="M85.1 73.8l13.3-7.7c.1-.1.2-.1.3 0l4.7 2.7s.1-.1 0-.1l-4.8-2.8c-.1-.1-.2-.1-.3 0L85 73.6s-.1.1 0 .1c0 .1.1.1.1.1z"/><path class="st24" d="M102.3 68.4l-11.7 6.7.5.3 11.7-6.7-.5-.3zm-1.2-.7L90 74.1l.5.3 11.1-6.4-.5-.3zm-11.9 6.9l-1 .6.5.3 1-.6-.5-.3zm.9.9l-.7.4.5.3.7-.4-.5-.3zm10.2-8.2l-13 7.5.5.3 13-7.5-.5-.3zm-.7-.5l-13 7.5.5.3 13-7.5-.5-.3zm-.8-.4l-13 7.5.5.3 13-7.5-.5-.3z"/></g></g><path class="st22" d="M93.8 58.1l-.9.5V58l.9-.5v.6zm0 4.3l-.9.5v-3.7l.9-.5v3.7zm0 2l-1 .6v-1.5l.9-.5.1 1.4zm0 2.2l-.9.5v-1.5l.9-.6v1.6zm1.4-7.2l-.9.5v-1.5l.9-.5v1.5zm0 2.8l-.9.5v-2.2l.9-.5v2.2zm0 2.5l-.9.5v-1.8l.9-.5v1.8zm-1.4 4l-.9.6v-1.5l.9-.5v1.4zm1.4-11.4l-.9.5v-.6l.9-.5v.6z"/><linearGradient id="SVGID_18_" gradientUnits="userSpaceOnUse" x1="92.816" y1="730.45" x2="94.456" y2="730.45" gradientTransform="translate(0 -660)"><stop offset=".15" stop-color="#4e9dd5"/><stop offset="1" stop-color="#68bbe8"/></linearGradient><path d="M94.5 70.3l-1.6.9v-.6l1.6-.9v.6z" fill="url(#SVGID_18_)"/><path class="st6" d="M63.5 11.2l-.6-.3v-.3l5.2-3 .7.3-.1.2-5.2 3.1z"/><linearGradient id="SVGID_19_" gradientUnits="userSpaceOnUse" x1="-899.309" y1="1322.645" x2="-892.739" y2="1322.645" gradientTransform="translate(961.89 -1313.495)"><stop offset="0" stop-color="#7f8f9e"/><stop offset=".18" stop-color="#8493a2"/><stop offset=".4" stop-color="#92a0ad"/><stop offset=".64" stop-color="#aab5bf"/><stop offset=".88" stop-color="#cbd1d7"/><stop offset="1" stop-color="#dee2e6"/></linearGradient><path d="M68.2 7.8l.6.3.4-.2-.9-.5-5.7 3.3.4.2 5.2-3.1z" fill="url(#SVGID_19_)"/><path class="st6" d="M65.2 12.1l-.6-.3v-.3l5.2-3 .7.3-.1.2-5.2 3.1z"/><linearGradient id="SVGID_20_" gradientUnits="userSpaceOnUse" x1="-897.609" y1="1323.645" x2="-891.029" y2="1323.645" gradientTransform="translate(961.89 -1313.495)"><stop offset="0" stop-color="#7f8f9e"/><stop offset=".18" stop-color="#8493a2"/><stop offset=".4" stop-color="#92a0ad"/><stop offset=".64" stop-color="#aab5bf"/><stop offset=".88" stop-color="#cbd1d7"/><stop offset="1" stop-color="#dee2e6"/></linearGradient><path d="M69.9 8.8l.6.3.4-.2-.9-.5-5.7 3.3.4.2 5.2-3.1z" fill="url(#SVGID_20_)"/><path class="st6" d="M66.9 13.1l-.6-.3v-.3l5.2-3 .7.4-.1.2-5.2 3z"/><linearGradient id="SVGID_21_" gradientUnits="userSpaceOnUse" x1="-895.899" y1="1324.545" x2="-889.319" y2="1324.545" gradientTransform="translate(961.89 -1313.495)"><stop offset="0" stop-color="#7f8f9e"/><stop offset=".18" stop-color="#8493a2"/><stop offset=".4" stop-color="#92a0ad"/><stop offset=".64" stop-color="#aab5bf"/><stop offset=".88" stop-color="#cbd1d7"/><stop offset="1" stop-color="#dee2e6"/></linearGradient><path d="M71.7 9.7l.6.3.4-.2-.9-.5-5.8 3.3.4.2 5.3-3.1z" fill="url(#SVGID_21_)"/><path class="st6" d="M68.6 14.1l-.6-.3.1-.3 5.2-3 .7.4-.1.1-5.3 3.1z"/><linearGradient id="SVGID_22_" gradientUnits="userSpaceOnUse" x1="-894.189" y1="1325.545" x2="-887.609" y2="1325.545" gradientTransform="translate(961.89 -1313.495)"><stop offset="0" stop-color="#7f8f9e"/><stop offset=".18" stop-color="#8493a2"/><stop offset=".4" stop-color="#92a0ad"/><stop offset=".64" stop-color="#aab5bf"/><stop offset=".88" stop-color="#cbd1d7"/><stop offset="1" stop-color="#dee2e6"/></linearGradient><path d="M73.4 10.7l.6.3.4-.2-.9-.5-5.7 3.3.4.2 5.2-3.1z" fill="url(#SVGID_22_)"/><path class="st6" d="M73.6 17l-.6-.3v-.3l5.2-3 .7.3v.3l-5.3 3z"/><linearGradient id="SVGID_23_" gradientUnits="userSpaceOnUse" x1="-889.199" y1="1328.445" x2="-882.619" y2="1328.445" gradientTransform="translate(961.89 -1313.495)"><stop offset="0" stop-color="#7f8f9e"/><stop offset=".18" stop-color="#8493a2"/><stop offset=".4" stop-color="#92a0ad"/><stop offset=".64" stop-color="#aab5bf"/><stop offset=".88" stop-color="#cbd1d7"/><stop offset="1" stop-color="#dee2e6"/></linearGradient><path d="M78.4 13.6l.6.3.4-.2-.9-.5-5.7 3.3.4.2 5.2-3.1z" fill="url(#SVGID_23_)"/><path class="st6" d="M75.3 18l-.6-.3v-.3l5.2-3 .7.3-.1.2-5.2 3.1z"/><linearGradient id="SVGID_24_" gradientUnits="userSpaceOnUse" x1="-887.489" y1="1329.445" x2="-880.909" y2="1329.445" gradientTransform="translate(961.89 -1313.495)"><stop offset="0" stop-color="#7f8f9e"/><stop offset=".18" stop-color="#8493a2"/><stop offset=".4" stop-color="#92a0ad"/><stop offset=".64" stop-color="#aab5bf"/><stop offset=".88" stop-color="#cbd1d7"/><stop offset="1" stop-color="#dee2e6"/></linearGradient><path d="M80.1 14.6l.6.3.4-.2-.9-.5-5.7 3.3.4.2 5.2-3.1z" fill="url(#SVGID_24_)"/><path class="st6" d="M77 19l-.6-.3.1-.3 5.2-3 .7.4-.1.2-5.3 3z"/><linearGradient id="SVGID_25_" gradientUnits="userSpaceOnUse" x1="-885.779" y1="1330.445" x2="-879.199" y2="1330.445" gradientTransform="translate(961.89 -1313.495)"><stop offset="0" stop-color="#7f8f9e"/><stop offset=".18" stop-color="#8493a2"/><stop offset=".4" stop-color="#92a0ad"/><stop offset=".64" stop-color="#aab5bf"/><stop offset=".88" stop-color="#cbd1d7"/><stop offset="1" stop-color="#dee2e6"/></linearGradient><path d="M81.8 15.6l.6.3.4-.2-.9-.5-5.7 3.3.4.2 5.2-3.1z" fill="url(#SVGID_25_)"/><path class="st6" d="M78.7 20l-.6-.3.1-.3 5.2-3 .7.3-.1.2-5.3 3.1z"/><linearGradient id="SVGID_26_" gradientUnits="userSpaceOnUse" x1="-884.069" y1="1331.445" x2="-877.489" y2="1331.445" gradientTransform="translate(961.89 -1313.495)"><stop offset="0" stop-color="#7f8f9e"/><stop offset=".18" stop-color="#8493a2"/><stop offset=".4" stop-color="#92a0ad"/><stop offset=".64" stop-color="#aab5bf"/><stop offset=".88" stop-color="#cbd1d7"/><stop offset="1" stop-color="#dee2e6"/></linearGradient><path d="M83.5 16.6l.6.3.4-.2-.9-.5-5.7 3.3.4.2 5.2-3.1z" fill="url(#SVGID_26_)"/><path class="st6" d="M83.7 22.9l-.6-.3v-.3l5.2-3 .7.3v.2l-5.3 3.1z"/><linearGradient id="SVGID_27_" gradientUnits="userSpaceOnUse" x1="-879.079" y1="1334.345" x2="-872.499" y2="1334.345" gradientTransform="translate(961.89 -1313.495)"><stop offset="0" stop-color="#7f8f9e"/><stop offset=".18" stop-color="#8493a2"/><stop offset=".4" stop-color="#92a0ad"/><stop offset=".64" stop-color="#aab5bf"/><stop offset=".88" stop-color="#cbd1d7"/><stop offset="1" stop-color="#dee2e6"/></linearGradient><path d="M88.5 19.5l.6.3.4-.2-.9-.5-5.7 3.3.4.2 5.2-3.1z" fill="url(#SVGID_27_)"/><path class="st6" d="M85.5 23.8l-.6-.3.1-.3 5.2-3 .7.3-.1.2-5.3 3.1z"/><linearGradient id="SVGID_28_" gradientUnits="userSpaceOnUse" x1="-877.369" y1="1335.245" x2="-870.789" y2="1335.245" gradientTransform="translate(961.89 -1313.495)"><stop offset="0" stop-color="#7f8f9e"/><stop offset=".18" stop-color="#8493a2"/><stop offset=".4" stop-color="#92a0ad"/><stop offset=".64" stop-color="#aab5bf"/><stop offset=".88" stop-color="#cbd1d7"/><stop offset="1" stop-color="#dee2e6"/></linearGradient><path d="M90.2 20.5l.6.3.4-.2-1-.6-5.7 3.3.4.2 5.3-3z" fill="url(#SVGID_28_)"/><path class="st6" d="M87.2 24.8l-.6-.3.1-.3 5.2-3 .7.4-.1.2-5.3 3z"/><linearGradient id="SVGID_29_" gradientUnits="userSpaceOnUse" x1="-875.659" y1="1336.245" x2="-869.079" y2="1336.245" gradientTransform="translate(961.89 -1313.495)"><stop offset="0" stop-color="#7f8f9e"/><stop offset=".18" stop-color="#8493a2"/><stop offset=".4" stop-color="#92a0ad"/><stop offset=".64" stop-color="#aab5bf"/><stop offset=".88" stop-color="#cbd1d7"/><stop offset="1" stop-color="#dee2e6"/></linearGradient><path d="M91.9 21.4l.6.3.4-.2-1-.5-5.7 3.3.4.2 5.3-3.1z" fill="url(#SVGID_29_)"/><path class="st6" d="M88.9 25.8l-.6-.3.1-.3 5.2-3 .7.3-.1.2-5.3 3.1z"/><linearGradient id="SVGID_30_" gradientUnits="userSpaceOnUse" x1="-873.959" y1="1337.245" x2="-867.379" y2="1337.245" gradientTransform="translate(961.89 -1313.495)"><stop offset="0" stop-color="#7f8f9e"/><stop offset=".18" stop-color="#8493a2"/><stop offset=".4" stop-color="#92a0ad"/><stop offset=".64" stop-color="#aab5bf"/><stop offset=".88" stop-color="#cbd1d7"/><stop offset="1" stop-color="#dee2e6"/></linearGradient><path d="M93.6 22.4l.6.3.4-.2-1-.5-5.7 3.3.4.2 5.3-3.1z" fill="url(#SVGID_30_)"/><g opacity=".8"><linearGradient id="SVGID_31_" gradientUnits="userSpaceOnUse" x1="71.873" y1="-606.649" x2="63.427" y2="-588.777" gradientTransform="matrix(1 0 0 -1 0 -540.216)"><stop offset=".15" stop-color="#4ea0d8"/><stop offset="1" stop-color="#68bdea"/></linearGradient><path d="M58.9 46.1l-.7-1L60 44c.1-.1.2-.1.2-.1.7-.3 1.5-.2 2.2.3.5.3.9.7 1.3 1.1l1.2-.7c.1-.1.2-.1.2-.1.9-.4 2-.3 2.9.3 2.5 1.5 4.4 5.4 4.4 8.7 0 .3 0 .6-.1.8 1.4 1.5 2.3 3.4 2.3 5.5.1.9-.3 1.8-.9 2.4-.1.1-.2.1-.3.2l-1.8 1.1-1.6-2 .1-.3-10.2-5.9c-2-1.5-3.2-3.8-3.2-6.3 0-2 .9-3 2.2-2.9z" fill="url(#SVGID_31_)"/><linearGradient id="SVGID_32_" gradientUnits="userSpaceOnUse" x1="63.368" y1="-589.185" x2="60.999" y2="-585.493" gradientTransform="matrix(1 0 0 -1 0 -540.216)"><stop offset=".15" stop-color="#4ea0d8"/><stop offset="1" stop-color="#68bdea"/></linearGradient><path d="M63.7 45.3c-.4-.4-.8-.8-1.3-1.1-.6-.5-1.4-.6-2.2-.3-.1 0-.2.1-.2.1l-1.8 1.1.6.8 3.2.9 1.7-1.5z" fill="url(#SVGID_32_)"/><linearGradient id="SVGID_33_" gradientUnits="userSpaceOnUse" x1="73.772" y1="-602.508" x2="70.387" y2="-595.347" gradientTransform="matrix(1 0 0 -1 0 -540.216)"><stop offset=".15" stop-color="#4ea0d8"/><stop offset="1" stop-color="#68bdea"/></linearGradient><path d="M73.5 62.2c.1 0 .2-.1.3-.2.7-.6 1-1.5.9-2.4 0-2.1-.9-4-2.3-5.5l-2.1 1.2.3 6.6 1.1 1.2 1.8-.9z" fill="url(#SVGID_33_)"/><path class="st48" d="M56.9 47.3c.3-2.1 1.7-3 3.5-2 .6.4 1.2.9 1.6 1.5.8-1.5 2.3-2 4-.9 2.5 1.5 4.4 5.4 4.4 8.7 0 .3 0 .6-.1.8 1.4 1.5 2.3 3.4 2.3 5.5 0 2.3-1.4 3.3-3.1 2.3l-11.6-6.8c-2-1.5-3.2-3.8-3.2-6.3 0-1.8.9-2.9 2.2-2.8z"/></g><path class="st0" d="M121.2 115.2v2.2c0 .5-.3 1.1-.8 1.3l-.3.2c-1.3.8-2.9.8-4.2.1l-3.9-2.1c-.3-.2-.4-.6-.3-.9.1-.1.1-.2.3-.3.7-.6 1.5-.9 2.4-1 .4.1.8.1 1.1.1l1.8.2 3.9.2z"/><path class="st2" d="M112 116.4l3.9 2.1c1.3.7 2.9.7 4.2-.1l.3-.2c.5-.3.8-.8.8-1.3v.5c0 .5-.3 1.1-.8 1.3l-.3.2c-1.3.8-2.9.8-4.2.1l-3.9-2.1c-.3-.2-.4-.5-.3-.8l.3.3z"/><path class="st49" d="M114.9 116.2l-.5-.2.5-1.1h.6l-.6 1.3zm.9.2l-.5-.2.6-1.2.5.1-.6 1.3z"/><path class="st0" d="M114.9 119.7v2.2c0 .6-.3 1.1-.8 1.3l-.3.2c-1.3.8-2.9.8-4.2.1l-3.9-2.1c-.3-.2-.4-.6-.3-.9.1-.1.1-.2.3-.3.7-.6 1.5-.9 2.4-1 .4.1.8.1 1.1.1l1.8.2 3.9.2z"/><path class="st2" d="M105.6 120.9l3.9 2.1c1.3.7 2.9.7 4.2-.1l.3-.2c.5-.3.8-.8.8-1.3v.5c0 .5-.3 1.1-.8 1.3l-.3.2c-1.3.8-2.9.8-4.2.1l-3.9-2.1c-.3-.2-.4-.5-.3-.8l.3.3z"/><path class="st50" d="M114.3 79.2c.9 0 1.6-.7 1.6-1.6 0-.6-.3-1.1-.8-1.4l-7.3-4.2c-.8-.4-1.8-.2-2.2.6-.4.8-.2 1.8.6 2.2l7.3 4.2c.2.1.5.2.8.2z"/><path class="st50" d="M108.5 75c.1.3-.1.5-.3.5l-1.8.4c-.2 0-.4-.1-.4-.3v-.1c0-.2.1-.4.3-.5l1.8-.4c.2.1.4.2.4.4z"/><path class="st51" d="M119.3 117.6c1.1 0 1.9-.9 1.9-2v-.1l-.7-13.4.9-14.6c0-1.2-.9-2.1-2.1-2.1-1.2 0-3.4.9-3.4 2.1l1.3 27.9c0 1.2 1 2.2 2.1 2.2z"/><path class="st51" d="M112.7 122.1c1.2 0 2.1-.9 2.1-2.1l-.3-14.3 1.6-13.6c0-1.2-2.3-2.1-3.4-2.1-1.2 0-2.1.9-2.1 2.1V120c0 1.2 1 2.1 2.1 2.1z"/><path d="M120.8 85.1l.9 6.7c0 .8-.5 1.6-1.2 2.1L115 97c-1.1.6-2.4.2-3-.8-.2-.3-.3-.7-.3-1.1V81.4c0-.8-1.8-.3-1-.7l7.7-4.5c1.4-.8 2.4 7.2 2.4 8.9z" opacity=".3" fill="#49486b"/><path class="st48" d="M121.5 74.3l-.4 6.5c.1 1.4.1 2.8.2 4.2.2 2.2.4 4.5.4 6.7-.1.5-1.5 1.6-3.3 2.5-.2.1-.3-4.2-.5-4.1s-.3 4.5-.5 4.6c-2.3 1-5.1 1.7-7 .8l.2-8-.4-5c-.2-3.4-.9-7.9 2.5-10 .1-.1.3-.2.4-.3l3.6-1.9c.8-.5 1.9-.5 2.7 0 1.4.9 2.2 2.4 2.1 4z"/><path class="st49" d="M108.5 120.7l-.5-.2.5-1.1h.6l-.6 1.3zm1 .2l-.5-.2.6-1.2.5.1-.6 1.3z"/><path class="st50" d="M116.1 72.6c.7 0 1.3-.6 1.3-1.3v-5c0-.7-.6-1.3-1.3-1.3-.7 0-1.3.6-1.3 1.3v5c0 .7.6 1.3 1.3 1.3z"/><path class="st50" d="M116.2 71h-.5c-2.6 0-4.7-2.1-4.7-4.7v-3.7h5.2c.6 0 1 .5 1 1V70c0 .6-.4 1-1 1z"/><path class="st21" d="M109.4 60.8c.2-.3.5-.6.9-.7.7-.1 1.4-.2 2.1-.2.7-.1 1.5-.1 2.2-.1 1.5.1 2.9.6 4.1 1.4.7.4 1.1 1 1.2 1.8.3 1.1.4 2.3.3 3.5-.2 1.2-.7 2.2-1.5 3.1-.2.3-.6.6-.9.8-1.5.6-2.4-1.9-2.6-3-.1-.4-.2-.8-.6-.9-.3-.1-.5 0-.7.3-.2.2-.3.5-.3.7 0 .1-.1.3-.2.4s-.3.2-.4.1l-.1-2.5c0-.5.1-1.3-.2-1.7-.3-.3-1-.3-1.3-.5-.6-.1-1.2-.4-1.6-.8-.4-.4-.5-.9-.3-1.4-.2-.1-.2-.2-.1-.3z"/><path class="st21" d="M114.6 69.4c-.3-.9-1-1.3-1.1-2.1v-.5c-.2 0-.4-.1-.6-.1 0 .6.1 1.8-.6 2.2-.3.1-.6.1-.8-.2-.1-.2-.1-.5-.1-.7s-.3-.7-.5-.7c-.3.1-.3.7-.3.9 0 .6.1 1.2.4 1.8.5.7 1.3 1.2 2.2 1.2.3 0 .6 0 .9-.1s.5-.3.7-.6c0-.5-.1-.8-.2-1.1z"/><path class="st50" d="M102.8 79.6c-.3 0-.4-.2-.4-.3v-1.6c0-.2.2-.3.3-.3h.1c.2 0 .3.2.3.3v1.6c0 .1-.1.3-.3.3z"/><path d="M111.5 82.7c-.3.6-.7 1-1.2 1.4l-.1-1.3c0-.5-.1-1.1-.1-1.6 0-.6 0-1.1.1-1.7l1.6-3.2c.3-.6 1-.9 1.6-.6 0 0 .1 0 .1.1.6.4.8 1.2.5 1.8l-2.5 5.1z" opacity=".3" fill="#231f20"/><path class="st50" d="M107.1 84.5c1.5 0 2.9-.8 3.7-2l3.3-5.2c.4-.7.2-1.6-.5-2s-1.6-.2-2 .5l-3.3 5.2c-.4.7-1.3.9-2 .5l-.1-.1-4.4-3.5c-.6-.5-1.5-.4-2 .2s-.4 1.5.2 2l4.4 3.5c.8.6 1.8.9 2.7.9z"/><path class="st48" d="M110.5 80.6c-.6-.3-1.1-.7-1.3-1.3l2.4-3.7c.5-.8 1.5-1 2.2-.5s1 1.5.5 2.2l-2 3.2c-.2.3-.4.7-.6 1.1-.4-.5-.8-.8-1.2-1z"/><linearGradient id="SVGID_34_" gradientUnits="userSpaceOnUse" x1="-640.534" y1="-637.16" x2="-611.812" y2="-637.16" gradientTransform="rotate(180 -285.307 -270.108)"><stop offset=".15" stop-color="#4ea0d8"/><stop offset="1" stop-color="#68bdea"/></linearGradient><path d="M42.3 105.8c-.6 0-1.1-.5-1.1-1.1 0-.4.2-.8.6-1l26.5-15.4c.5-.4 1.2-.2 1.6.3s.2 1.2-.3 1.6c0 0-.1.1-.2.1l-26.5 15.4c-.2 0-.4.1-.6.1z" opacity=".3" fill="url(#SVGID_34_)"/><linearGradient id="SVGID_35_" gradientUnits="userSpaceOnUse" x1="-639.792" y1="-637.195" x2="-612.532" y2="-637.195" gradientTransform="rotate(180 -285.307 -270.108)"><stop offset=".15" stop-color="#4ea0d8"/><stop offset="1" stop-color="#68bdea"/></linearGradient><path d="M42.2 105c-.1 0-.3-.1-.3-.3 0-.1.1-.2.1-.2L68.8 89c.1-.1.3 0 .4.1s0 .3-.1.3l-26.7 15.5c-.1.1-.2.1-.2.1z" opacity=".6" fill="url(#SVGID_35_)"/><linearGradient id="SVGID_36_" gradientUnits="userSpaceOnUse" x1="-635.288" y1="-633.756" x2="-606.566" y2="-633.756" gradientTransform="rotate(180 -285.307 -270.108)"><stop offset=".15" stop-color="#4ea0d8"/><stop offset="1" stop-color="#68bdea"/></linearGradient><path d="M36.1 101.8c-.3-.5-.1-1.2.4-1.5L63 84.9c.5-.4 1.2-.2 1.6.3s.2 1.2-.3 1.6c-.1 0-.1.1-.2.1l-26.5 15.4c-.5.2-1.2.1-1.5-.5z" opacity=".3" fill="url(#SVGID_36_)"/><linearGradient id="SVGID_37_" gradientUnits="userSpaceOnUse" x1="-634.555" y1="-633.795" x2="-607.314" y2="-633.795" gradientTransform="rotate(180 -285.307 -270.108)"><stop offset=".15" stop-color="#4ea0d8"/><stop offset="1" stop-color="#68bdea"/></linearGradient><path d="M37 101.6c-.1 0-.3-.1-.3-.3 0-.1.1-.2.1-.2l26.7-15.5c.1-.1.3 0 .4.1.1.1 0 .3-.1.3L37 101.6c0-.1 0 0 0 0z" opacity=".6" fill="url(#SVGID_37_)"/><path class="st58" d="M31.1 97.3l24.8 14.3c1.2.7 1.6 2.1.9 3.3-.2.4-.5.7-.9.9L31 129.7c-1.6.9-3.4.9-5 0L1.2 115.8c-1.2-.7-1.6-2.1-.9-3.3.2-.4.5-.7.9-.9L26 97.3c1.6-.9 3.5-.9 5.1 0z"/><path d="M31 97.4l24.6 14.2c1.2.7 1.6 2.1.9 3.3-.2.4-.5.7-.9.9L31 129.6c-1.5.9-3.4.9-5 0L1.3 115.7c-1.2-.7-1.6-2.1-.9-3.3.2-.4.5-.7.9-.9L26 97.4c1.6-.9 3.5-.9 5 0z" opacity=".02" fill="#f7f6f7"/><path d="M31 97.4l24.5 14.1c1.1.7 1.6 2.1.9 3.3-.2.4-.5.7-.9.9L31 129.5c-1.5.9-3.4.9-4.9 0L1.5 115.7c-1.1-.7-1.6-2.1-.9-3.3.2-.4.5-.7.9-.9L26 97.4c1.6-.8 3.5-.8 5 0z" opacity=".039" fill="#f1eff2"/><path d="M31 97.5l24.4 14.1c1.1.6 1.5 2.1.9 3.2-.2.4-.5.7-.9.9L31 129.4c-1.5.9-3.4.9-4.9 0L1.6 115.7c-1.1-.6-1.5-2.1-.9-3.2.2-.4.5-.7.9-.9l24.4-14c1.6-.9 3.5-.9 5-.1z" opacity=".059" fill="#ebeaed"/><path d="M31 97.6l24.3 14c1.1.6 1.5 2.1.9 3.2-.2.4-.5.7-.9.9L31 129.3c-1.5.9-3.4.9-4.9 0L1.8 115.7c-1.1-.6-1.5-2.1-.9-3.2.2-.4.5-.7.9-.9l24.3-14c1.5-.9 3.3-.9 4.9 0z" opacity=".078" fill="#e6e4e9"/><path d="M31 97.7l24.2 13.9c1.1.6 1.5 2.1.9 3.2-.2.4-.5.7-.9.9L31 129.3c-1.5.8-3.4.8-4.9 0L1.9 115.7c-1.1-.6-1.5-2.1-.9-3.2.2-.4.5-.7.9-.9l24.2-13.9c1.5-.9 3.3-.9 4.9 0z" opacity=".098" fill="#e1dfe5"/><path d="M31 97.8l24 13.8c1.1.6 1.5 2.1.9 3.2-.2.4-.5.7-.9.9l-24.1 13.5c-1.5.8-3.3.8-4.8 0L2 115.7c-1.1-.6-1.5-2.1-.9-3.2.2-.4.5-.7.9-.9l24.1-13.8c1.5-.9 3.4-.9 4.9 0z" opacity=".118" fill="#dddae1"/><path d="M30.9 97.9l23.9 13.8c1.1.6 1.5 2.1.9 3.2-.2.4-.5.7-.9.9l-23.9 13.4c-1.5.8-3.3.8-4.8 0l-24-13.5c-1.1-.6-1.5-2.1-.9-3.2.2-.4.5-.7.9-.9L26 97.8c1.6-.8 3.4-.8 4.9.1z" opacity=".137" fill="#d8d6dd"/><path d="M30.9 97.9l23.8 13.7c1.1.6 1.5 2 .9 3.2-.2.4-.5.7-.9.9L30.9 129c-1.5.8-3.3.8-4.8 0L2.3 115.7c-1.1-.6-1.5-2-.9-3.2.2-.4.5-.7.9-.9l23.8-13.7c1.5-.8 3.3-.8 4.8 0z" opacity=".157" fill="#d4d1d9"/><path d="M30.9 98l23.7 13.6c1.1.6 1.5 2.1.8 3.2-.2.3-.5.6-.8.8l-23.7 13.3c-1.5.8-3.3.8-4.8 0L2.4 115.6c-1.1-.6-1.5-2.1-.8-3.2.2-.3.5-.6.8-.8L26.1 98c1.5-.9 3.3-.9 4.8 0z" opacity=".176" fill="#cfcdd6"/><path d="M30.9 98.1l23.6 13.6c1.1.6 1.5 2 .9 3.1-.2.4-.5.6-.9.9l-23.6 13.2c-1.5.8-3.3.8-4.7 0L2.6 115.6c-1.1-.6-1.5-2-.9-3.1.2-.4.5-.6.9-.9L26.2 98c1.4-.8 3.2-.8 4.7.1z" opacity=".196" fill="#cbc8d2"/><path d="M30.9 98.2l23.4 13.5c1.1.6 1.5 2 .9 3.1-.2.4-.5.7-.9.9l-23.5 13.2c-1.5.8-3.3.8-4.7 0L2.7 115.6c-1.1-.6-1.5-2-.9-3.1.2-.4.5-.7.9-.9l23.5-13.5c1.4-.8 3.2-.8 4.7.1z" opacity=".216" fill="#c7c4cf"/><path d="M30.9 98.2l23.3 13.4c1.1.6 1.5 2 .9 3.1-.2.4-.5.7-.9.9l-23.3 13.1c-1.5.8-3.2.8-4.7 0L2.8 115.6c-1.1-.6-1.5-2-.9-3.1.2-.4.5-.7.9-.9l23.3-13.4c1.5-.8 3.3-.8 4.8 0z" opacity=".235" fill="#c3c0cb"/><path d="M30.9 98.3l23.2 13.4c1.1.6 1.5 2 .9 3.1-.2.4-.5.7-.9.9l-23.2 13c-1.4.8-3.2.8-4.7 0L3 115.6c-1.1-.6-1.5-2-.9-3.1.2-.4.5-.7.9-.9l23.2-13.4c1.4-.7 3.2-.7 4.7.1z" opacity=".255" fill="#bfbbc8"/><path d="M30.9 98.4L54 111.7c1.1.6 1.5 2 .8 3.1-.2.4-.5.6-.8.8l-23.1 13c-1.4.8-3.2.8-4.7 0l-23.1-13c-1.1-.6-1.5-2-.8-3.1.2-.4.5-.6.8-.8l23.1-13.3c1.4-.8 3.2-.8 4.7 0z" opacity=".275" fill="#bbb7c5"/><path d="M30.9 98.4l23 13.2c1.1.6 1.5 2 .8 3.1-.2.4-.5.6-.8.8l-23 12.9c-1.4.8-3.2.8-4.7 0l-23-12.9c-1.1-.6-1.5-2-.8-3.1.2-.4.5-.6.8-.8l23-13.2c1.4-.8 3.2-.8 4.7 0z" opacity=".294" fill="#b7b3c2"/><path d="M30.9 98.5l22.8 13.2c1.1.6 1.4 2 .8 3-.2.4-.5.6-.8.8l-22.9 12.8c-1.4.8-3.2.8-4.6 0L3.3 115.6c-1.1-.6-1.4-2-.8-3 .2-.4.5-.6.8-.8l22.8-13.2c1.5-.9 3.3-.9 4.8-.1z" opacity=".314" fill="#b4afbe"/><path d="M30.8 98.6l22.7 13.1c1.1.6 1.4 2 .8 3-.2.4-.5.6-.8.8l-22.7 12.8c-1.4.8-3.2.8-4.6 0L3.5 115.6c-1.1-.6-1.4-2-.8-3 .2-.4.5-.6.8-.8l22.7-13.1c1.4-.9 3.2-.9 4.6-.1z" opacity=".333" fill="#b0abbb"/><path d="M30.8 98.7l22.6 13c1.1.6 1.4 2 .8 3-.2.3-.5.6-.8.8l-22.6 12.7c-1.4.8-3.1.8-4.6 0L3.6 115.6c-1.1-.6-1.4-2-.8-3 .2-.3.5-.6.8-.8l22.6-13c1.4-.9 3.2-.9 4.6-.1z" opacity=".353" fill="#aca8b8"/><path d="M30.8 98.8l22.5 12.9c1.1.6 1.4 1.9.8 3-.2.3-.5.6-.8.8l-22.5 12.6c-1.4.8-3.1.8-4.5 0L3.7 115.5c-1.1-.6-1.4-1.9-.8-3 .2-.3.5-.6.8-.8l22.5-12.9c1.4-.8 3.2-.8 4.6 0z" opacity=".373" fill="#a9a4b5"/><path d="M30.8 98.9l22.4 12.9c1 .6 1.4 1.9.8 3-.2.3-.5.6-.8.8l-22.4 12.6c-1.4.8-3.1.8-4.5 0L3.9 115.5c-1-.6-1.4-1.9-.8-3 .2-.3.5-.6.8-.8l22.4-12.9c1.3-.7 3.1-.7 4.5.1z" opacity=".392" fill="#a5a0b2"/><path d="M30.8 98.9L53 111.7c1 .6 1.4 1.9.8 3-.2.3-.5.6-.8.8L30.7 128c-1.4.8-3.1.8-4.5 0L4 115.5c-1-.6-1.4-1.9-.8-3 .2-.3.5-.6.8-.8l22.2-12.8c1.4-.8 3.2-.8 4.6 0z" opacity=".412" fill="#a29caf"/><path d="M30.8 99l22.1 12.7c1 .6 1.4 1.9.8 2.9-.2.3-.5.6-.8.8l-22.1 12.4c-1.4.8-3.1.8-4.5 0L4.1 115.5c-1-.6-1.4-1.9-.8-2.9.2-.3.5-.6.8-.8L26.3 99c1.4-.8 3.1-.8 4.5 0z" opacity=".431" fill="#9e99ac"/><path d="M30.8 99.1l22 12.6c1 .6 1.4 1.9.8 2.9-.2.3-.5.6-.8.8l-22 12.4c-1.4.8-3.1.8-4.4 0l-22-12.4c-1-.6-1.4-1.9-.8-2.9.2-.3.5-.6.8-.8l22-12.6c1.3-.8 3-.8 4.4 0z" opacity=".451" fill="#9a95a9"/><path d="M30.8 99.2l21.9 12.6c1 .6 1.4 1.9.8 2.9-.2.3-.5.6-.8.8l-21.9 12.3c-1.4.8-3 .8-4.4 0l-22-12.3c-1-.6-1.4-1.9-.8-2.9.2-.3.5-.6.8-.8l21.9-12.6c1.4-.8 3.1-.8 4.5 0z" opacity=".471" fill="#9792a7"/><path d="M30.7 99.3l21.8 12.5c1 .6 1.4 1.9.8 2.9-.2.3-.5.6-.8.8l-21.8 12.2c-1.4.8-3 .8-4.4 0L4.5 115.5c-1-.6-1.4-1.9-.8-2.9.2-.3.5-.6.8-.8l21.8-12.5c1.4-.8 3.1-.8 4.4 0z" opacity=".49" fill="#948ea4"/><path d="M30.7 99.3l21.6 12.5c1 .6 1.4 1.9.8 2.9-.2.3-.5.6-.8.8l-21.7 12.2c-1.4.8-3 .8-4.4 0L4.7 115.5c-1-.6-1.4-1.9-.8-2.9.2-.3.5-.6.8-.8l21.6-12.5c1.4-.7 3-.7 4.4 0z" opacity=".51" fill="#908ba1"/><path d="M30.7 99.4l21.5 12.4c1 .6 1.4 1.9.8 2.9-.2.3-.5.6-.8.8l-21.5 12.1c-1.3.8-3 .8-4.3 0L4.8 115.5c-1-.6-1.4-1.9-.8-2.9.2-.3.5-.6.8-.8l21.5-12.4c1.4-.8 3.1-.7 4.4 0z" opacity=".529" fill="#8d889e"/><path d="M30.7 99.5l21.4 12.3c1 .6 1.4 1.8.8 2.8-.2.3-.5.6-.8.8l-21.4 12c-1.3.8-3 .8-4.3 0L5 115.4c-1-.6-1.4-1.8-.8-2.8.2-.3.5-.6.8-.8l21.4-12.3c1.3-.8 2.9-.8 4.3 0z" opacity=".549" fill="#8a849c"/><path d="M30.6 99.6l21.3 12.2c1 .6 1.3 1.8.8 2.8-.2.3-.5.6-.8.8l-21.3 12c-1.3.7-3 .7-4.3 0L5 115.4c-1-.6-1.3-1.8-.8-2.8.2-.3.5-.6.8-.8l21.3-12.2c1.4-.8 3-.8 4.3 0z" opacity=".569" fill="#878199"/><path d="M30.7 99.7l21.2 12.2c1 .6 1.3 1.8.8 2.8-.2.3-.5.6-.8.8l-21.2 11.9c-1.3.7-2.9.7-4.3 0l-21.2-12c-1-.6-1.3-1.8-.8-2.8.2-.3.5-.6.8-.8l21.2-12.2c1.3-.7 3-.7 4.3.1z" opacity=".588" fill="#847e97"/><path d="M30.7 99.7l21 12.1c1 .6 1.3 1.8.8 2.8-.2.3-.4.6-.8.8l-21.1 11.8c-1.3.7-2.9.7-4.2 0L5.3 115.4c-1-.6-1.3-1.8-.8-2.8.2-.3.4-.6.8-.8l21-12.1c1.4-.7 3-.7 4.4 0z" opacity=".608" fill="#817b94"/><path d="M30.7 99.8l20.9 12c1 .6 1.3 1.8.8 2.8-.2.3-.4.6-.8.8l-20.9 11.8c-1.3.7-2.9.7-4.2 0l-21-11.7c-1-.6-1.3-1.8-.8-2.8.2-.3.4-.6.8-.8l20.9-12c1.3-.9 2.9-.9 4.3-.1z" opacity=".627" fill="#7e7892"/><path d="M30.6 99.9l20.8 12c1 .6 1.3 1.8.8 2.8-.2.3-.4.6-.8.8L30.6 127c-1.3.7-2.9.7-4.2 0L5.6 115.4c-1-.6-1.3-1.8-.8-2.8.2-.3.4-.6.8-.8l20.8-12c1.3-.7 2.9-.7 4.2.1z" opacity=".647" fill="#7b758f"/><path d="M30.6 100l20.7 11.9c1 .5 1.3 1.7.8 2.7-.2.3-.5.6-.8.8L30.6 127c-1.3.7-2.9.7-4.2 0L5.7 115.4c-1-.5-1.3-1.7-.8-2.7.2-.3.5-.6.8-.8L26.4 100c1.3-.8 2.9-.8 4.2 0z" opacity=".667" fill="#78738d"/><path d="M30.7 100l20.6 11.8c1 .5 1.3 1.7.8 2.7-.2.3-.5.6-.8.8l-20.6 11.5c-1.3.7-2.9.7-4.1 0L5.9 115.4c-1-.5-1.3-1.7-.8-2.7.2-.3.5-.6.8-.8L26.4 100c1.3-.7 3-.7 4.3 0z" opacity=".686" fill="#75708b"/><path d="M30.6 100.1l20.5 11.8c1 .5 1.3 1.8.8 2.7-.2.3-.4.6-.8.8l-20.5 11.5c-1.3.7-2.8.7-4.1 0L6 115.4c-1-.5-1.3-1.8-.8-2.7.2-.3.4-.6.8-.8l20.4-11.8c1.3-.7 2.9-.7 4.2 0z" opacity=".706" fill="#726d89"/><path d="M30.6 100.2l20.3 11.7c1 .6 1.3 1.8.7 2.7-.2.3-.4.5-.7.7l-20.3 11.4c-1.3.7-2.8.7-4.1 0L6.1 115.3c-1-.6-1.3-1.8-.7-2.7.2-.3.4-.5.7-.7l20.3-11.7c1.3-.7 2.9-.7 4.2 0z" opacity=".725" fill="#6f6a86"/><path d="M30.6 100.3l20.2 11.6c.9.6 1.3 1.8.7 2.7-.2.3-.4.5-.7.7l-20.2 11.3c-1.3.7-2.8.7-4.1 0L6.3 115.3c-.9-.6-1.3-1.8-.7-2.7.2-.3.4-.5.7-.7l20.2-11.6c1.2-.8 2.8-.8 4.1 0z" opacity=".745" fill="#6d6884"/><path d="M30.6 100.4l20 11.6c.9.6 1.2 1.8.7 2.7-.2.3-.4.5-.7.7l-20.1 11.3c-1.3.7-2.8.7-4 0L6.4 115.3c-.9-.6-1.2-1.8-.7-2.7.2-.3.4-.5.7-.7l20.1-11.6c1.2-.7 2.8-.7 4.1.1z" opacity=".765" fill="#6a6582"/><path d="M30.5 100.4l19.9 11.5c.9.5 1.3 1.7.7 2.7-.2.3-.4.6-.7.7l-19.9 11.2c-1.2.7-2.7.7-4 0l-20-11.2c-.9-.5-1.3-1.7-.7-2.7.2-.3.4-.6.7-.7l19.9-11.5c1.3-.7 2.8-.7 4.1 0z" opacity=".784" fill="#676380"/><path d="M30.6 100.5l19.8 11.4c.9.5 1.3 1.7.7 2.6-.2.3-.4.6-.7.7l-19.9 11.2c-1.2.7-2.8.7-4 0L6.7 115.3c-.9-.5-1.3-1.7-.7-2.6.2-.3.4-.6.7-.7l19.8-11.4c1.3-.8 2.8-.8 4.1-.1z" opacity=".804" fill="#64607e"/><path d="M30.5 100.6L50.3 112c.9.5 1.2 1.7.7 2.6-.2.3-.4.5-.7.7l-19.7 11.1c-1.2.7-2.8.7-4 0L6.8 115.3c-.9-.5-1.2-1.7-.7-2.6.2-.3.4-.5.7-.7l19.7-11.3c1.3-.8 2.8-.8 4-.1z" opacity=".824" fill="#615e7c"/><path d="M30.5 100.7L50.1 112c.9.5 1.2 1.7.7 2.6-.2.3-.4.5-.7.7l-19.6 11c-1.2.7-2.7.7-3.9 0L7 115.3c-.9-.5-1.2-1.7-.7-2.6.2-.3.4-.5.7-.7l19.6-11.3c1.2-.7 2.7-.7 3.9 0z" opacity=".843" fill="#5f5b7a"/><path d="M30.5 100.7L50 112c.9.5 1.2 1.7.7 2.6-.2.3-.4.6-.7.7l-19.5 10.9c-1.2.7-2.7.7-3.9 0L7.1 115.3c-.9-.5-1.2-1.7-.7-2.6.2-.3.4-.6.7-.7l19.5-11.2c1.2-.8 2.7-.8 3.9-.1z" opacity=".863" fill="#5c5978"/><path d="M30.5 100.8L49.9 112c.9.5 1.2 1.7.7 2.6-.2.3-.4.5-.7.7l-19.4 10.9c-1.2.7-2.7.7-3.9 0l-19.4-11c-.9-.5-1.2-1.7-.7-2.6.2-.3.4-.5.7-.7l19.4-11.1c1.2-.7 2.7-.7 3.9 0z" opacity=".882" fill="#595676"/><path d="M30.5 100.9L49.8 112c.9.5 1.2 1.7.7 2.6-.2.3-.4.5-.7.7l-19.3 10.8c-1.2.7-2.7.7-3.9 0L7.3 115.2c-.9-.5-1.2-1.7-.7-2.6.2-.3.4-.5.7-.7l19.2-11.1c1.3-.6 2.8-.6 4 .1z" opacity=".902" fill="#565474"/><path d="M30.5 101l19.1 11c.9.5 1.2 1.6.7 2.5-.2.3-.4.5-.7.7L30.5 126c-1.2.7-2.7.7-3.9 0L7.5 115.2c-.9-.5-1.2-1.6-.7-2.5.2-.3.4-.5.7-.7l19.1-11c1.2-.7 2.7-.7 3.9 0z" opacity=".922" fill="#545272"/><path d="M30.5 101.1l19 10.9c.9.5 1.2 1.6.7 2.5-.2.3-.4.5-.7.7l-19 10.7c-1.2.7-2.6.7-3.8 0l-19-10.7c-.9-.5-1.2-1.6-.7-2.5.2-.3.4-.5.7-.7l19-10.9c1.1-.7 2.6-.7 3.8 0z" opacity=".941" fill="#514f70"/><path d="M30.4 101.1L49.3 112c.9.5 1.2 1.6.7 2.5-.2.3-.4.5-.7.7l-18.9 10.6c-1.2.7-2.6.7-3.8 0L7.7 115.2c-.9-.5-1.2-1.6-.7-2.5.2-.3.4-.5.7-.7l18.9-10.9c1.2-.6 2.6-.7 3.8 0z" opacity=".961" fill="#4e4d6e"/><path d="M30.5 101.2L49.2 112c.9.5 1.2 1.6.7 2.5-.2.3-.4.5-.7.7l-18.8 10.5c-1.2.7-2.6.7-3.8 0L7.9 115.2c-.9-.5-1.2-1.6-.7-2.5.2-.3.4-.5.7-.7l18.8-10.8c1.1-.7 2.6-.7 3.8 0z" opacity=".98" fill="#4b4b6c"/><path class="st21" d="M30.4 101.3L49.1 112c.9.5 1.2 1.6.7 2.5-.2.3-.4.5-.7.7l-18.7 10.5c-1.2.7-2.6.7-3.8 0L8 115.2c-.9-.5-1.2-1.6-.7-2.5.2-.3.4-.5.7-.7l18.6-10.7c1.2-.7 2.7-.7 3.8 0z"/><linearGradient id="SVGID_38_" gradientUnits="userSpaceOnUse" x1="-695.629" y1="-653.172" x2="-646.929" y2="-653.172" gradientTransform="matrix(1 0 0 -1 699.787 -540.216)"><stop offset="0" stop-color="#9aa7d5"/><stop offset=".13" stop-color="#9eaad7"/><stop offset=".26" stop-color="#aab5db"/><stop offset=".39" stop-color="#bdc6e3"/><stop offset=".5" stop-color="#d4daed"/><stop offset=".54" stop-color="#ced5eb"/><stop offset=".84" stop-color="#a8b4db"/><stop offset="1" stop-color="#9aa7d5"/></linearGradient><path d="M30.7 99.2l22.1 10.4v3.3c0 .9-.5 1.7-1.2 2.1l-21 11.8c-1.3.7-2.9.7-4.3 0l-21-11.9c-.8-.4-1.2-1.2-1.2-2.1v-3.7l22.2-10c1.4-.7 3.1-.7 4.4.1z" fill="url(#SVGID_38_)"/><path d="M30.7 95.2l21.2 12.2c1 .6 1.3 1.8.8 2.8-.2.3-.5.6-.8.8l-21.2 11.9c-1.3.7-2.9.7-4.3 0L5.2 111c-1-.6-1.3-1.8-.8-2.8.2-.3.5-.6.8-.8l21.2-12.2c1.3-.8 3-.8 4.3 0z" fill="#ebeef6"/><linearGradient id="SVGID_39_" gradientUnits="userSpaceOnUse" x1="-685.615" y1="-649.266" x2="-658.322" y2="-649.266" gradientTransform="matrix(1 0 0 -1 699.787 -540.216)"><stop offset="0" stop-color="#55aee0"/><stop offset=".92" stop-color="#4ea0d8"/></linearGradient><path d="M18.2 114.6c-5.3-3.1-5.3-8 0-11.1s14-3.1 19.3 0 5.3 8 0 11.1c-5.4 3.1-14 3.1-19.3 0z" fill="url(#SVGID_39_)"/><path d="M19.6 113.8c-4.5-2.6-4.5-6.8 0-9.4s11.9-2.6 16.4 0 4.5 6.8 0 9.4-11.9 2.6-16.4 0z" opacity=".31" fill="#fff"/><g opacity=".4"><linearGradient id="SVGID_40_" gradientUnits="userSpaceOnUse" x1="-685.387" y1="-649.297" x2="-658.412" y2="-649.297" gradientTransform="matrix(1 0 0 -1 699.787 -540.216)"><stop offset=".15" stop-color="#4ea0d8"/><stop offset="1" stop-color="#68bdea"/></linearGradient><path d="M18.3 114.6c-5.2-3-5.2-7.9 0-11s13.8-3 19.1 0 5.3 7.9 0 11c-5.3 3-13.9 3-19.1 0z" fill="url(#SVGID_40_)"/><linearGradient id="SVGID_41_" gradientUnits="userSpaceOnUse" x1="-685.387" y1="-648.716" x2="-658.412" y2="-648.716" gradientTransform="matrix(1 0 0 -1 699.787 -540.216)"><stop offset=".15" stop-color="#4ea0d8"/><stop offset="1" stop-color="#68bdea"/></linearGradient><path d="M18.3 114c-5.2-3-5.2-7.9 0-11s13.8-3 19.1 0 5.3 7.9 0 11-13.9 3-19.1 0z" opacity=".98" fill="url(#SVGID_41_)"/><linearGradient id="SVGID_42_" gradientUnits="userSpaceOnUse" x1="-685.387" y1="-648.135" x2="-658.412" y2="-648.135" gradientTransform="matrix(1 0 0 -1 699.787 -540.216)"><stop offset=".15" stop-color="#4ea0d8"/><stop offset="1" stop-color="#68bdea"/></linearGradient><path d="M18.3 113.4c-5.2-3-5.2-7.9 0-11s13.8-3 19.1 0 5.3 7.9 0 11-13.9 3.1-19.1 0z" opacity=".961" fill="url(#SVGID_42_)"/><linearGradient id="SVGID_43_" gradientUnits="userSpaceOnUse" x1="-685.387" y1="-647.616" x2="-658.412" y2="-647.616" gradientTransform="matrix(1 0 0 -1 699.787 -540.216)"><stop offset=".15" stop-color="#4ea0d8"/><stop offset="1" stop-color="#68bdea"/></linearGradient><path d="M18.3 112.9c-5.2-3-5.2-7.9 0-11s13.8-3 19.1 0 5.3 7.9 0 11-13.9 3-19.1 0z" opacity=".941" fill="url(#SVGID_43_)"/><linearGradient id="SVGID_44_" gradientUnits="userSpaceOnUse" x1="-685.387" y1="-647.016" x2="-658.412" y2="-647.016" gradientTransform="matrix(1 0 0 -1 699.787 -540.216)"><stop offset=".15" stop-color="#4ea0d8"/><stop offset="1" stop-color="#68bdea"/></linearGradient><path d="M18.3 112.3c-5.2-3-5.2-7.9 0-11s13.8-3 19.1 0 5.3 7.9 0 11-13.9 3-19.1 0z" opacity=".922" fill="url(#SVGID_44_)"/><linearGradient id="SVGID_45_" gradientUnits="userSpaceOnUse" x1="-685.387" y1="-646.435" x2="-658.412" y2="-646.435" gradientTransform="matrix(1 0 0 -1 699.787 -540.216)"><stop offset=".15" stop-color="#4ea0d8"/><stop offset="1" stop-color="#68bdea"/></linearGradient><path d="M18.3 111.7c-5.2-3-5.2-7.9 0-11s13.8-3 19.1 0 5.3 7.9 0 11c-5.3 3.1-13.9 3.1-19.1 0z" opacity=".902" fill="url(#SVGID_45_)"/><linearGradient id="SVGID_46_" gradientUnits="userSpaceOnUse" x1="-685.387" y1="-645.897" x2="-658.412" y2="-645.897" gradientTransform="matrix(1 0 0 -1 699.787 -540.216)"><stop offset=".15" stop-color="#4ea0d8"/><stop offset="1" stop-color="#68bdea"/></linearGradient><path d="M18.3 111.2c-5.2-3-5.2-7.9 0-11s13.8-3 19.1 0 5.3 7.9 0 11c-5.3 3-13.9 3-19.1 0z" opacity=".882" fill="url(#SVGID_46_)"/><linearGradient id="SVGID_47_" gradientUnits="userSpaceOnUse" x1="-685.387" y1="-645.316" x2="-658.412" y2="-645.316" gradientTransform="matrix(1 0 0 -1 699.787 -540.216)"><stop offset=".15" stop-color="#4ea0d8"/><stop offset="1" stop-color="#68bdea"/></linearGradient><path d="M18.3 110.6c-5.2-3-5.2-7.9 0-11s13.8-3 19.1 0 5.3 7.9 0 11-13.9 3-19.1 0z" opacity=".863" fill="url(#SVGID_47_)"/><linearGradient id="SVGID_48_" gradientUnits="userSpaceOnUse" x1="-685.387" y1="-644.735" x2="-658.412" y2="-644.735" gradientTransform="matrix(1 0 0 -1 699.787 -540.216)"><stop offset=".15" stop-color="#4ea0d8"/><stop offset="1" stop-color="#68bdea"/></linearGradient><path d="M18.3 110c-5.2-3-5.2-7.9 0-11s13.8-3 19.1 0 5.3 7.9 0 11-13.9 3.1-19.1 0z" opacity=".843" fill="url(#SVGID_48_)"/><linearGradient id="SVGID_49_" gradientUnits="userSpaceOnUse" x1="-685.387" y1="-644.216" x2="-658.412" y2="-644.216" gradientTransform="matrix(1 0 0 -1 699.787 -540.216)"><stop offset=".15" stop-color="#4ea0d8"/><stop offset="1" stop-color="#68bdea"/></linearGradient><path d="M18.3 109.5c-5.2-3-5.2-7.9 0-11s13.8-3 19.1 0 5.3 7.9 0 11-13.9 3-19.1 0z" opacity=".824" fill="url(#SVGID_49_)"/><linearGradient id="SVGID_50_" gradientUnits="userSpaceOnUse" x1="-685.387" y1="-643.616" x2="-658.412" y2="-643.616" gradientTransform="matrix(1 0 0 -1 699.787 -540.216)"><stop offset=".15" stop-color="#4ea0d8"/><stop offset="1" stop-color="#68bdea"/></linearGradient><path d="M18.3 108.9c-5.2-3-5.2-7.9 0-11s13.8-3 19.1 0 5.3 7.9 0 11-13.9 3-19.1 0z" opacity=".804" fill="url(#SVGID_50_)"/><linearGradient id="SVGID_51_" gradientUnits="userSpaceOnUse" x1="-685.387" y1="-643.035" x2="-658.412" y2="-643.035" gradientTransform="matrix(1 0 0 -1 699.787 -540.216)"><stop offset=".15" stop-color="#4ea0d8"/><stop offset="1" stop-color="#68bdea"/></linearGradient><path d="M18.3 108.3c-5.2-3-5.2-7.9 0-11s13.8-3 19.1 0 5.3 7.9 0 11-13.9 3.1-19.1 0z" opacity=".784" fill="url(#SVGID_51_)"/><linearGradient id="SVGID_52_" gradientUnits="userSpaceOnUse" x1="-685.387" y1="-642.497" x2="-658.412" y2="-642.497" gradientTransform="matrix(1 0 0 -1 699.787 -540.216)"><stop offset=".15" stop-color="#4ea0d8"/><stop offset="1" stop-color="#68bdea"/></linearGradient><path d="M18.3 107.8c-5.2-3-5.2-7.9 0-11s13.8-3 19.1 0 5.3 7.9 0 11c-5.3 3-13.9 3-19.1 0z" opacity=".765" fill="url(#SVGID_52_)"/><linearGradient id="SVGID_53_" gradientUnits="userSpaceOnUse" x1="-685.387" y1="-641.916" x2="-658.412" y2="-641.916" gradientTransform="matrix(1 0 0 -1 699.787 -540.216)"><stop offset=".15" stop-color="#4ea0d8"/><stop offset="1" stop-color="#68bdea"/></linearGradient><path d="M18.3 107.2c-5.2-3-5.2-7.9 0-11s13.8-3 19.1 0 5.3 7.9 0 11-13.9 3-19.1 0z" opacity=".745" fill="url(#SVGID_53_)"/><linearGradient id="SVGID_54_" gradientUnits="userSpaceOnUse" x1="-685.387" y1="-641.416" x2="-658.412" y2="-641.416" gradientTransform="matrix(1 0 0 -1 699.787 -540.216)"><stop offset=".15" stop-color="#4ea0d8"/><stop offset="1" stop-color="#68bdea"/></linearGradient><path d="M18.3 106.7c-5.2-3-5.2-7.9 0-11s13.8-3 19.1 0 5.3 7.9 0 11-13.9 3-19.1 0z" opacity=".725" fill="url(#SVGID_54_)"/><linearGradient id="SVGID_55_" gradientUnits="userSpaceOnUse" x1="-685.387" y1="-640.816" x2="-658.412" y2="-640.816" gradientTransform="matrix(1 0 0 -1 699.787 -540.216)"><stop offset=".15" stop-color="#4ea0d8"/><stop offset="1" stop-color="#68bdea"/></linearGradient><path d="M18.3 106.1c-5.2-3-5.2-7.9 0-11s13.8-3 19.1 0 5.3 7.9 0 11-13.9 3-19.1 0z" opacity=".706" fill="url(#SVGID_55_)"/><linearGradient id="SVGID_56_" gradientUnits="userSpaceOnUse" x1="-685.387" y1="-640.197" x2="-658.412" y2="-640.197" gradientTransform="matrix(1 0 0 -1 699.787 -540.216)"><stop offset=".15" stop-color="#4ea0d8"/><stop offset="1" stop-color="#68bdea"/></linearGradient><path d="M18.3 105.5c-5.2-3-5.2-7.9 0-11s13.8-3 19.1 0 5.3 7.9 0 11c-5.3 3-13.9 3-19.1 0z" opacity=".686" fill="url(#SVGID_56_)"/><linearGradient id="SVGID_57_" gradientUnits="userSpaceOnUse" x1="-685.387" y1="-639.635" x2="-658.412" y2="-639.635" gradientTransform="matrix(1 0 0 -1 699.787 -540.216)"><stop offset=".15" stop-color="#4ea0d8"/><stop offset="1" stop-color="#68bdea"/></linearGradient><path d="M18.3 104.9c-5.2-3-5.2-7.9 0-11s13.8-3 19.1 0 5.3 7.9 0 11-13.9 3.1-19.1 0z" opacity=".667" fill="url(#SVGID_57_)"/><linearGradient id="SVGID_58_" gradientUnits="userSpaceOnUse" x1="-685.387" y1="-639.097" x2="-658.412" y2="-639.097" gradientTransform="matrix(1 0 0 -1 699.787 -540.216)"><stop offset=".15" stop-color="#4ea0d8"/><stop offset="1" stop-color="#68bdea"/></linearGradient><path d="M18.3 104.4c-5.2-3-5.2-7.9 0-11s13.8-3 19.1 0 5.3 7.9 0 11c-5.3 3-13.9 3-19.1 0z" opacity=".647" fill="url(#SVGID_58_)"/><linearGradient id="SVGID_59_" gradientUnits="userSpaceOnUse" x1="-685.387" y1="-638.578" x2="-658.412" y2="-638.578" gradientTransform="matrix(1 0 0 -1 699.787 -540.216)"><stop offset=".15" stop-color="#4ea0d8"/><stop offset="1" stop-color="#68bdea"/></linearGradient><path d="M18.3 103.9c-5.2-3-5.2-7.9 0-11s13.8-3 19.1 0 5.3 7.9 0 11c-5.3 2.9-13.9 3-19.1 0z" opacity=".627" fill="url(#SVGID_59_)"/><linearGradient id="SVGID_60_" gradientUnits="userSpaceOnUse" x1="-685.387" y1="-638.016" x2="-658.412" y2="-638.016" gradientTransform="matrix(1 0 0 -1 699.787 -540.216)"><stop offset=".15" stop-color="#4ea0d8"/><stop offset="1" stop-color="#68bdea"/></linearGradient><path d="M18.3 103.3c-5.2-3-5.2-7.9 0-11s13.8-3 19.1 0 5.3 7.9 0 11-13.9 3-19.1 0z" opacity=".608" fill="url(#SVGID_60_)"/><linearGradient id="SVGID_61_" gradientUnits="userSpaceOnUse" x1="-685.387" y1="-637.416" x2="-658.412" y2="-637.416" gradientTransform="matrix(1 0 0 -1 699.787 -540.216)"><stop offset=".15" stop-color="#4ea0d8"/><stop offset="1" stop-color="#68bdea"/></linearGradient><path d="M18.3 102.7c-5.2-3-5.2-7.9 0-11s13.8-3 19.1 0 5.3 7.9 0 11-13.9 3-19.1 0z" opacity=".588" fill="url(#SVGID_61_)"/><linearGradient id="SVGID_62_" gradientUnits="userSpaceOnUse" x1="-685.387" y1="-636.816" x2="-658.412" y2="-636.816" gradientTransform="matrix(1 0 0 -1 699.787 -540.216)"><stop offset=".15" stop-color="#4ea0d8"/><stop offset="1" stop-color="#68bdea"/></linearGradient><path d="M18.3 102.1c-5.2-3-5.2-7.9 0-11s13.8-3 19.1 0 5.3 7.9 0 11-13.9 3-19.1 0z" opacity=".569" fill="url(#SVGID_62_)"/><linearGradient id="SVGID_63_" gradientUnits="userSpaceOnUse" x1="-685.387" y1="-636.297" x2="-658.412" y2="-636.297" gradientTransform="matrix(1 0 0 -1 699.787 -540.216)"><stop offset=".15" stop-color="#4ea0d8"/><stop offset="1" stop-color="#68bdea"/></linearGradient><path d="M18.3 101.6c-5.2-3-5.2-7.9 0-11s13.8-3 19.1 0 5.3 7.9 0 11c-5.3 3-13.9 3-19.1 0z" opacity=".549" fill="url(#SVGID_63_)"/><linearGradient id="SVGID_64_" gradientUnits="userSpaceOnUse" x1="-685.387" y1="-635.697" x2="-658.412" y2="-635.697" gradientTransform="matrix(1 0 0 -1 699.787 -540.216)"><stop offset=".15" stop-color="#4ea0d8"/><stop offset="1" stop-color="#68bdea"/></linearGradient><path d="M18.3 101c-5.2-3-5.2-7.9 0-11s13.8-3 19.1 0 5.3 7.9 0 11c-5.3 3-13.9 3-19.1 0z" opacity=".529" fill="url(#SVGID_64_)"/><linearGradient id="SVGID_65_" gradientUnits="userSpaceOnUse" x1="-685.387" y1="-635.116" x2="-658.412" y2="-635.116" gradientTransform="matrix(1 0 0 -1 699.787 -540.216)"><stop offset=".15" stop-color="#4ea0d8"/><stop offset="1" stop-color="#68bdea"/></linearGradient><path d="M18.3 100.4c-5.2-3-5.2-7.9 0-11s13.8-3 19.1 0 5.3 7.9 0 11-13.9 3-19.1 0z" opacity=".51" fill="url(#SVGID_65_)"/><linearGradient id="SVGID_66_" gradientUnits="userSpaceOnUse" x1="-685.387" y1="-634.597" x2="-658.412" y2="-634.597" gradientTransform="matrix(1 0 0 -1 699.787 -540.216)"><stop offset=".15" stop-color="#4ea0d8"/><stop offset="1" stop-color="#68bdea"/></linearGradient><path d="M18.3 99.9c-5.2-3-5.2-7.9 0-11s13.8-3 19.1 0 5.3 7.9 0 11c-5.3 3-13.9 3-19.1 0z" opacity=".49" fill="url(#SVGID_66_)"/><linearGradient id="SVGID_67_" gradientUnits="userSpaceOnUse" x1="-685.387" y1="-634.016" x2="-658.412" y2="-634.016" gradientTransform="matrix(1 0 0 -1 699.787 -540.216)"><stop offset=".15" stop-color="#4ea0d8"/><stop offset="1" stop-color="#68bdea"/></linearGradient><path d="M18.3 99.3c-5.2-3-5.2-7.9 0-11s13.8-3 19.1 0 5.3 7.9 0 11-13.9 3-19.1 0z" opacity=".471" fill="url(#SVGID_67_)"/><linearGradient id="SVGID_68_" gradientUnits="userSpaceOnUse" x1="-685.387" y1="-633.416" x2="-658.412" y2="-633.416" gradientTransform="matrix(1 0 0 -1 699.787 -540.216)"><stop offset=".15" stop-color="#4ea0d8"/><stop offset="1" stop-color="#68bdea"/></linearGradient><path d="M18.3 98.7c-5.2-3-5.2-7.9 0-11s13.8-3 19.1 0 5.3 7.9 0 11-13.9 3-19.1 0z" opacity=".451" fill="url(#SVGID_68_)"/><linearGradient id="SVGID_69_" gradientUnits="userSpaceOnUse" x1="-685.387" y1="-632.897" x2="-658.412" y2="-632.897" gradientTransform="matrix(1 0 0 -1 699.787 -540.216)"><stop offset=".15" stop-color="#4ea0d8"/><stop offset="1" stop-color="#68bdea"/></linearGradient><path d="M18.3 98.2c-5.2-3-5.2-7.9 0-11s13.8-3 19.1 0 5.3 7.9 0 11c-5.3 3-13.9 3-19.1 0z" opacity=".431" fill="url(#SVGID_69_)"/><linearGradient id="SVGID_70_" gradientUnits="userSpaceOnUse" x1="-685.387" y1="-632.297" x2="-658.412" y2="-632.297" gradientTransform="matrix(1 0 0 -1 699.787 -540.216)"><stop offset=".15" stop-color="#4ea0d8"/><stop offset="1" stop-color="#68bdea"/></linearGradient><path d="M18.3 97.6c-5.2-3-5.2-7.9 0-11s13.8-3 19.1 0 5.3 7.9 0 11c-5.3 3-13.9 3-19.1 0z" opacity=".412" fill="url(#SVGID_70_)"/><linearGradient id="SVGID_71_" gradientUnits="userSpaceOnUse" x1="-685.387" y1="-631.716" x2="-658.412" y2="-631.716" gradientTransform="matrix(1 0 0 -1 699.787 -540.216)"><stop offset=".15" stop-color="#4ea0d8"/><stop offset="1" stop-color="#68bdea"/></linearGradient><path d="M18.3 97c-5.2-3-5.2-7.9 0-11s13.8-3 19.1 0 5.3 7.9 0 11-13.9 3-19.1 0z" opacity=".392" fill="url(#SVGID_71_)"/><linearGradient id="SVGID_72_" gradientUnits="userSpaceOnUse" x1="-685.387" y1="-631.216" x2="-658.412" y2="-631.216" gradientTransform="matrix(1 0 0 -1 699.787 -540.216)"><stop offset=".15" stop-color="#4ea0d8"/><stop offset="1" stop-color="#68bdea"/></linearGradient><path d="M18.3 96.5c-5.2-3-5.2-7.9 0-11s13.8-3 19.1 0 5.3 7.9 0 11-13.9 3-19.1 0z" opacity=".373" fill="url(#SVGID_72_)"/><linearGradient id="SVGID_73_" gradientUnits="userSpaceOnUse" x1="-685.387" y1="-630.597" x2="-658.412" y2="-630.597" gradientTransform="matrix(1 0 0 -1 699.787 -540.216)"><stop offset=".15" stop-color="#4ea0d8"/><stop offset="1" stop-color="#68bdea"/></linearGradient><path d="M18.3 95.9c-5.2-3-5.2-7.9 0-11s13.8-3 19.1 0 5.3 7.9 0 11c-5.3 3-13.9 3-19.1 0z" opacity=".353" fill="url(#SVGID_73_)"/><linearGradient id="SVGID_74_" gradientUnits="userSpaceOnUse" x1="-685.387" y1="-630.016" x2="-658.412" y2="-630.016" gradientTransform="matrix(1 0 0 -1 699.787 -540.216)"><stop offset=".15" stop-color="#4ea0d8"/><stop offset="1" stop-color="#68bdea"/></linearGradient><path d="M18.3 95.3c-5.2-3-5.2-7.9 0-11s13.8-3 19.1 0 5.3 7.9 0 11-13.9 3-19.1 0z" opacity=".333" fill="url(#SVGID_74_)"/><linearGradient id="SVGID_75_" gradientUnits="userSpaceOnUse" x1="-685.387" y1="-629.497" x2="-658.412" y2="-629.497" gradientTransform="matrix(1 0 0 -1 699.787 -540.216)"><stop offset=".15" stop-color="#4ea0d8"/><stop offset="1" stop-color="#68bdea"/></linearGradient><path d="M18.3 94.8c-5.2-3-5.2-7.9 0-11s13.8-3 19.1 0 5.3 7.9 0 11c-5.3 3-13.9 3-19.1 0z" opacity=".314" fill="url(#SVGID_75_)"/><linearGradient id="SVGID_76_" gradientUnits="userSpaceOnUse" x1="-685.387" y1="-628.916" x2="-658.412" y2="-628.916" gradientTransform="matrix(1 0 0 -1 699.787 -540.216)"><stop offset=".15" stop-color="#4ea0d8"/><stop offset="1" stop-color="#68bdea"/></linearGradient><path d="M18.3 94.2c-5.2-3-5.2-7.9 0-11s13.8-3 19.1 0 5.3 7.9 0 11-13.9 3-19.1 0z" opacity=".294" fill="url(#SVGID_76_)"/><linearGradient id="SVGID_77_" gradientUnits="userSpaceOnUse" x1="-685.387" y1="-628.316" x2="-658.412" y2="-628.316" gradientTransform="matrix(1 0 0 -1 699.787 -540.216)"><stop offset=".15" stop-color="#4ea0d8"/><stop offset="1" stop-color="#68bdea"/></linearGradient><path d="M18.3 93.6c-5.2-3-5.2-7.9 0-11s13.8-3 19.1 0 5.3 7.9 0 11-13.9 3-19.1 0z" opacity=".275" fill="url(#SVGID_77_)"/><linearGradient id="SVGID_78_" gradientUnits="userSpaceOnUse" x1="-685.387" y1="-627.816" x2="-658.412" y2="-627.816" gradientTransform="matrix(1 0 0 -1 699.787 -540.216)"><stop offset=".15" stop-color="#4ea0d8"/><stop offset="1" stop-color="#68bdea"/></linearGradient><path d="M18.3 93.1c-5.2-3-5.2-7.9 0-11s13.8-3 19.1 0 5.3 7.9 0 11-13.9 3-19.1 0z" opacity=".255" fill="url(#SVGID_78_)"/><linearGradient id="SVGID_79_" gradientUnits="userSpaceOnUse" x1="-685.387" y1="-627.216" x2="-658.412" y2="-627.216" gradientTransform="matrix(1 0 0 -1 699.787 -540.216)"><stop offset=".15" stop-color="#4ea0d8"/><stop offset="1" stop-color="#68bdea"/></linearGradient><path d="M18.3 92.5c-5.2-3-5.2-7.9 0-11s13.8-3 19.1 0 5.3 7.9 0 11-13.9 3-19.1 0z" opacity=".235" fill="url(#SVGID_79_)"/><linearGradient id="SVGID_80_" gradientUnits="userSpaceOnUse" x1="-685.387" y1="-626.616" x2="-658.412" y2="-626.616" gradientTransform="matrix(1 0 0 -1 699.787 -540.216)"><stop offset=".15" stop-color="#4ea0d8"/><stop offset="1" stop-color="#68bdea"/></linearGradient><path d="M18.3 91.9c-5.2-3-5.2-7.9 0-11s13.8-3 19.1 0 5.3 7.9 0 11-13.9 3-19.1 0z" opacity=".216" fill="url(#SVGID_80_)"/><linearGradient id="SVGID_81_" gradientUnits="userSpaceOnUse" x1="-685.387" y1="-626.097" x2="-658.412" y2="-626.097" gradientTransform="matrix(1 0 0 -1 699.787 -540.216)"><stop offset=".15" stop-color="#4ea0d8"/><stop offset="1" stop-color="#68bdea"/></linearGradient><path d="M18.3 91.4c-5.2-3-5.2-7.9 0-11s13.8-3 19.1 0 5.3 7.9 0 11c-5.3 3-13.9 3-19.1 0z" opacity=".196" fill="url(#SVGID_81_)"/><linearGradient id="SVGID_82_" gradientUnits="userSpaceOnUse" x1="-685.387" y1="-625.497" x2="-658.412" y2="-625.497" gradientTransform="matrix(1 0 0 -1 699.787 -540.216)"><stop offset=".15" stop-color="#4ea0d8"/><stop offset="1" stop-color="#68bdea"/></linearGradient><path d="M18.3 90.8c-5.2-3-5.2-7.9 0-11s13.8-3 19.1 0 5.3 7.9 0 11c-5.3 3-13.9 3-19.1 0z" opacity=".176" fill="url(#SVGID_82_)"/><linearGradient id="SVGID_83_" gradientUnits="userSpaceOnUse" x1="-685.387" y1="-624.897" x2="-658.412" y2="-624.897" gradientTransform="matrix(1 0 0 -1 699.787 -540.216)"><stop offset=".15" stop-color="#4ea0d8"/><stop offset="1" stop-color="#68bdea"/></linearGradient><path d="M18.3 90.2c-5.2-3-5.2-7.9 0-11s13.8-3 19.1 0 5.3 7.9 0 11c-5.3 3-13.9 3-19.1 0z" opacity=".157" fill="url(#SVGID_83_)"/><linearGradient id="SVGID_84_" gradientUnits="userSpaceOnUse" x1="-685.387" y1="-624.416" x2="-658.412" y2="-624.416" gradientTransform="matrix(1 0 0 -1 699.787 -540.216)"><stop offset=".15" stop-color="#4ea0d8"/><stop offset="1" stop-color="#68bdea"/></linearGradient><path d="M18.3 89.7c-5.2-3-5.2-7.9 0-11s13.8-3 19.1 0 5.3 7.9 0 11-13.9 3-19.1 0z" opacity=".137" fill="url(#SVGID_84_)"/><linearGradient id="SVGID_85_" gradientUnits="userSpaceOnUse" x1="-685.387" y1="-623.816" x2="-658.412" y2="-623.816" gradientTransform="matrix(1 0 0 -1 699.787 -540.216)"><stop offset=".15" stop-color="#4ea0d8"/><stop offset="1" stop-color="#68bdea"/></linearGradient><path d="M18.3 89.1c-5.2-3-5.2-7.9 0-11s13.8-3 19.1 0 5.3 7.9 0 11-13.9 3-19.1 0z" opacity=".118" fill="url(#SVGID_85_)"/><linearGradient id="SVGID_86_" gradientUnits="userSpaceOnUse" x1="-685.387" y1="-623.279" x2="-658.412" y2="-623.279" gradientTransform="matrix(1 0 0 -1 699.787 -540.216)"><stop offset=".15" stop-color="#4ea0d8"/><stop offset="1" stop-color="#68bdea"/></linearGradient><path d="M18.3 88.6c-5.2-3-5.2-7.9 0-11s13.8-3 19.1 0 5.3 7.9 0 11c-5.3 2.9-13.9 3-19.1 0z" opacity=".098" fill="url(#SVGID_86_)"/><linearGradient id="SVGID_87_" gradientUnits="userSpaceOnUse" x1="-685.387" y1="-622.697" x2="-658.412" y2="-622.697" gradientTransform="matrix(1 0 0 -1 699.787 -540.216)"><stop offset=".15" stop-color="#4ea0d8"/><stop offset="1" stop-color="#68bdea"/></linearGradient><path d="M18.3 88c-5.2-3-5.2-7.9 0-11s13.8-3 19.1 0 5.3 7.9 0 11c-5.3 3-13.9 3-19.1 0z" opacity=".078" fill="url(#SVGID_87_)"/><linearGradient id="SVGID_88_" gradientUnits="userSpaceOnUse" x1="-685.387" y1="-622.116" x2="-658.412" y2="-622.116" gradientTransform="matrix(1 0 0 -1 699.787 -540.216)"><stop offset=".15" stop-color="#4ea0d8"/><stop offset="1" stop-color="#68bdea"/></linearGradient><path d="M18.3 87.4c-5.2-3-5.2-7.9 0-11s13.8-3 19.1 0 5.3 7.9 0 11-13.9 3-19.1 0z" opacity=".059" fill="url(#SVGID_88_)"/><linearGradient id="SVGID_89_" gradientUnits="userSpaceOnUse" x1="-685.387" y1="-621.516" x2="-658.412" y2="-621.516" gradientTransform="matrix(1 0 0 -1 699.787 -540.216)"><stop offset=".15" stop-color="#4ea0d8"/><stop offset="1" stop-color="#68bdea"/></linearGradient><path d="M18.3 86.8c-5.2-3-5.2-7.9 0-11s13.8-3 19.1 0 5.3 7.9 0 11-13.9 3-19.1 0z" opacity=".039" fill="url(#SVGID_89_)"/><linearGradient id="SVGID_90_" gradientUnits="userSpaceOnUse" x1="-685.387" y1="-621.016" x2="-658.412" y2="-621.016" gradientTransform="matrix(1 0 0 -1 699.787 -540.216)"><stop offset=".15" stop-color="#4ea0d8"/><stop offset="1" stop-color="#68bdea"/></linearGradient><path d="M18.3 86.3c-5.2-3-5.2-7.9 0-11s13.8-3 19.1 0 5.3 7.9 0 11-13.9 3-19.1 0z" opacity=".02" fill="url(#SVGID_90_)"/><path class="st58" d="M18.3 85.9c-5.2-3-5.2-7.9 0-11s13.8-3 19.1 0 5.3 7.9 0 11-13.9 3-19.1 0z"/></g></svg>