<svg version="1.1" id="Layer_1" xmlns="http://www.w3.org/2000/svg" x="0" y="0" viewBox="0 0 500 500" xml:space="preserve"><style>.st0{fill:#0073ec}</style><path class="st0" d="M437 148.9c.8.4 1.8.6 2.7.6 2.3 0 4.5-1.3 5.5-3.4 1.5-3 .3-6.6-2.7-8.1-14.3-7.1-40.9-7.2-42-7.2-3.4 0-6.1 2.7-6.1 6.1s2.7 6.1 6.1 6.1c6.9 0 26.9 1.1 36.5 5.9zM243.1 70.5c0-.2.1-.4.3-.4 13.2-2 26.5-2.6 39.8-1.9 19 1.3 32.9 6.1 41.1 14.3 2.4 2.4 6.3 2.4 8.7 0 2.4-2.3 2.5-6.1.3-8.5l-.2-.2C309.8 50.6 261.4 55 241.7 58c-6.2.9-10.8 6.3-10.8 12.6v14.1c.1 3.4 3 6 6.3 5.8 3.2-.1 5.7-2.7 5.8-5.8V70.5z"/><path class="st0" d="M86 255.3c0-5.1 2.9-9.8 7.5-12.1l20.6-10.2 7.1 6.8c9.9 9.4 25.5 9.4 35.5 0l7.1-6.8 6.7 3.3c-3.2 5.1-4.9 11-4.9 17V285c4.2 2.2 8.3 4.6 12.2 7.3v-38.9c0-8.4 5.3-15.9 13.1-18.8l39.7-14.4 16.5 24.8c2.1 3.2 5.5 5.2 9.3 5.6.4 0 .8.1 1.3.1 3.4 0 6.6-1.3 9-3.7l10.1-10.1v63.8c0 3.4 2.7 6.1 6.1 6.1 3.4 0 6.1-2.7 6.1-6.1v-63.8l10.1 10.1c2.4 2.4 5.6 3.7 9 3.7.4 0 .9 0 1.3-.1 3.8-.4 7.2-2.4 9.3-5.6l16.6-24.8 39.7 14.4c7.9 2.9 13.1 10.4 13.2 18.8v47.1c0 3.4 2.7 6.1 6.1 6.1 3.4 0 6.1-2.7 6.1-6.1v-47.1c-.1-8.4-3.3-16.4-9.1-22.4l1.5-.4c2-.5 3.9-1.2 5.7-2.1l15.6 15.6v56.3c0 3.4 2.7 6.1 6.1 6.1 3.4 0 6.1-2.7 6.1-6.1V244l15.5-15.6c.8.4 1.7.8 2.6 1l25.3 7.2c5.8 1.7 9.8 7 9.8 13v50.6c0 3.4 2.7 6.1 6.1 6.1 3.4 0 6.1-2.7 6.1-6.1v-50.7c.5-11.2-7.2-21.4-18.2-24.5l-25.3-7.2c-1.1-.3-1.9-1.3-1.9-2.5V207c2.1-1.4 4.1-3 5.9-4.8 8.8-8.5 13.8-20.3 13.8-32.6V158l2.5-4.9c2.7-5.4 4.1-11.3 4.1-17.4v-31.5c0-3.3-2.6-6-5.9-6.1H407c-21.5 0-38.8 17.4-38.9 38.9v.4c0 5 1.2 10 3.4 14.5l3.1 6.3v10c0 15.3 7.3 29.6 19.6 38.6v8.9c0 1.4 0 1.9-5.1 3.4l-12.4 3.5-35.7-13c.1-1.7-.5-3.4-1.7-4.7l-11.4-12v-20.1c1.2-1 2.4-2 3.6-3.1 14.4-13.6 22.6-32.4 22.6-52.2v-16c4.3-9.3 6.6-19.4 6.6-29.7V6.1c0-3.3-2.6-6-5.9-6.1H263c-32.3 0-58.5 26.2-58.5 58.5v13.1c0 10.3 2.2 20.4 6.6 29.7v13.9c-.1 22 9.5 42.8 26.2 57.1v20.5l-11.4 12c-1.2 1.3-1.8 3-1.7 4.7l-37.7 13.7c-2.7 1-5.3 2.3-7.6 4l-5.9-3c17.6-7.7 23.2-18.4 23.4-18.9.9-1.7.9-3.8 0-5.5-4.4-8.9-5-25-5.4-38-.1-4.3-.3-8.4-.5-12.1-2.1-29.4-24.4-51.5-51.9-51.5S89 120.2 87 149.6c-.3 3.7-.4 7.8-.5 12.1-.4 12.9-1 29.2-5.4 38-.9 1.7-.9 3.8 0 5.5.3.5 5.9 11.3 23.4 18.9l-16.4 8.2c-8.7 4.3-14.3 13.2-14.3 23v22c4-1.3 8.1-2.4 12.2-3.3v-18.7zM420.2 233l-14-13.9c.2-1.2.4-2.4.4-3.6v-2.6c3.9 1.3 8 2 12.2 2.1h1.4c4.6 0 9.1-.7 13.5-2v2.5c0 1.2.2 2.4.4 3.6L420.2 233zM387 168v-11.4c0-.9-.2-1.9-.6-2.7l-3.8-7.6c-1.4-2.8-2.1-5.9-2.1-9v-.3c0-14.7 11.9-26.6 26.6-26.6h52.7v25.4c0 4.1-1 8.2-2.8 11.9l-3 6.1c-.4.8-.6 1.8-.6 2.7v13.1c0 9-3.7 17.6-10.2 23.9-6.4 6.3-15.1 9.7-24.1 9.4-17.8-.6-32.1-16.2-32.1-34.9zm-129 70.2c-.1.1-.2.1-.3.1-.2 0-.3-.1-.3-.2l-19-28.5 6.1-6.5 28.9 19.7-15.4 15.4zm24.8-23.6L249.6 192v-11.5c8.7 4.8 18.4 7.6 28.4 8.2 1.6.1 3.2.2 4.8.2 11.5 0 22.9-2.8 33.1-8.1V192l-33.1 22.6zm25.5 23.5c0 .1-.1.2-.3.2-.1 0-.2 0-.3-.1l-15.4-15.4 28.9-19.7 6.1 6.5-19 28.5zM223.5 115V99.9c0-.9-.2-1.9-.6-2.7-3.9-8-6-16.8-6-25.7V58.4c0-25.5 20.7-46.2 46.3-46.3h85.5v59.3c0 8.9-2.1 17.7-6 25.7-.4.8-.6 1.8-.6 2.7v17.4c.1 16.4-6.7 32.1-18.7 43.3-1.5 1.4-3.1 2.7-4.7 4l-.1.1c-11.4 8.6-25.5 12.8-39.7 11.9-31.1-2-55.4-29-55.4-61.5zm-75.3 116c-5.2 5-13.4 5-18.6 0l-5.7-5.4c1-1.8 1.5-3.9 1.5-6v-6.5a44.744 44.744 0 0027.1 0v6.5c0 2.1.5 4.2 1.5 6l-5.8 5.4zm36-29.1c-2.4 2.9-8.2 8.4-19.6 12.6v-7.3c7.2-5 12.8-11.9 16.1-19.9.6 4.9 1.8 9.8 3.5 14.6zm-85.5-39.8c.1-4.2.3-8.2.5-11.6.7-10.7 5-20.7 12.4-28.5 14.6-15.1 38.6-15.5 53.7-.9l.9.9c7.3 7.8 11.7 17.9 12.4 28.5.2 3.4.4 7.4.5 11.6v1.1c-6.7-10.3-16.9-17.8-30.2-22.1-7.5-2.4-15.4-3.7-23.3-3.7-1.6 0-3.1.7-4.2 1.9l-11.1 11.5c-2.3 2.4-2.2 6.3.2 8.7 2.4 2.3 6.3 2.2 8.7-.2l9.2-9.6c7.9.4 33.4 3.4 43.3 25.1-2.8 18.1-19.7 30.5-37.8 27.7-16.2-2.5-28.1-16.4-28.1-32.8 0-3.3-2.6-6-5.9-6.1h-.2c-.3 0-.7 0-1 .1-.1-.6-.1-1.1 0-1.6zm-5.2 39.6c1.7-4.7 2.9-9.6 3.5-14.6 3.4 8 9 15 16.2 19.9v7.4c-11.5-4.2-17.2-9.7-19.7-12.7z"/><circle class="st0" cx="390.1" cy="377.5" r="13.2"/><circle class="st0" cx="438.2" cy="377.5" r="13.2"/><circle class="st0" cx="339.5" cy="377.5" r="13.2"/><path class="st0" d="M479.8 313.7H215.6c-3.9 0-7.2 3.2-7.2 7.1 0 1.4.4 2.8 1.2 4l.1.1c1.3 2 3.6 3.2 5.9 3.2h264.1c2.6 0 4.8 2.1 4.8 4.8V422c0 2.6-2.1 4.8-4.8 4.8H229c-3 0-5.7 1.9-6.7 4.8l-.1.1c-1.3 3.7.6 7.8 4.3 9.1.8.3 1.6.4 2.4.4h250.8c10.6 0 19.2-8.6 19.2-19.2v-89.1c.1-10.6-8.5-19.2-19.1-19.2z"/><path class="st0" d="M211.3 347.9c-5.5-13-13.5-24.8-23.5-34.8-10.1-9.9-21.9-17.9-34.9-23.4-13.4-5.8-27.9-8.7-42.5-8.6-14.6-.1-29.1 2.9-42.5 8.6-26.2 11.1-47.1 31.9-58.2 58.2a109.27 109.27 0 000 85.1c5.5 13 13.5 24.8 23.4 34.9 10 10 21.8 18 34.8 23.5 13.4 5.8 27.9 8.7 42.5 8.6 14.6.1 29.1-2.9 42.5-8.6 26.3-11.1 47.3-32.1 58.4-58.4 11.5-27.2 11.5-57.9 0-85.1zm-7.2 82.1c-10.4 24.4-29.9 43.9-54.3 54.3a97.58 97.58 0 01-39.5 8c-13.6.1-27-2.6-39.5-8-24.4-10.4-43.9-29.9-54.3-54.3a101.47 101.47 0 010-79.1c5.1-12.1 12.6-23 21.9-32.3 9.3-9.2 20.3-16.6 32.4-21.8 12.5-5.4 25.9-8.1 39.5-8 13.6-.1 27 2.6 39.5 8 12.1 5.2 23.1 12.5 32.4 21.8 9.3 9.2 16.7 20.2 21.9 32.3 10.7 25.3 10.7 53.8 0 79.1z"/><path class="st0" d="M17.3 390.4c0 9 1.2 17.9 3.8 26.5 2.4 8.4 6.1 16.3 10.8 23.6 4.6 7.2 10.2 13.8 16.6 19.5 6.4 5.7 13.6 10.5 21.4 14.1L25 353.1c-5.1 11.8-7.8 24.5-7.7 37.3zM84.1 480c4.2 1.2 8.5 2.1 12.9 2.8 14.9 2.2 30.2.7 44.4-4.5l-29.3-78.8-28 80.5zm109-127.7c0 1.8-.1 3.5-.3 5.4-.9 8.3-2.6 16.6-5.3 24.5-2.5 7.3-4.9 14.3-7.3 21-1 2.8-2.6 7.5-4.8 14-2.2 6.5-4.5 13.3-7 20.4-2.5 7.1-4.8 13.8-7 20.1-2.2 6.3-3.8 10.8-4.8 13.5 7-4 13.4-8.9 19-14.6 5.6-5.7 10.6-12.1 14.6-19 4.1-7 7.3-14.5 9.5-22.3 6.3-22.9 3.7-47.4-7.4-68.4.7 1.8.8 3.6.8 5.4z"/><path class="st0" d="M163.5 423.9c1.8-6 3.2-10.9 4.4-14.8 1.3-4.3 2.3-7.8 3-10.5 1.8-5.6 2.5-11.5 2.1-17.4-.2-5-1.7-9.8-4.1-14.1-1.3-2.6-2.8-5.1-4.4-7.5-2-3.1-3.7-6.3-5.1-9.6-1.5-3.3-2.5-6.7-3-10.3-.5-3.2 0-6.5 1.5-9.4 2.2-3.8 4.6-6.3 7.3-7.4 2.6-1.1 5.5-1.5 8.3-1.1-8.4-7.7-18.1-13.8-28.6-18-10.9-4.4-22.6-6.6-34.4-6.5-15.7-.2-31.2 3.8-44.9 11.4-13.3 7.3-24.6 17.7-32.9 30.4 4 .2 8.5.2 13.5 0 5.5-.2 11-.7 16.5-1.5 1 0 2 .4 2.8 1 .8.6 1.3 1.5 1.5 2.5.3 2.3-.8 3.7-3.5 4-1.7.3-3.5.5-5.3.6-1.7.1-3.4.2-5.3.4l34 100.3 20.5-60.5-14.7-39.5c-3.2-.3-5.6-.6-7.4-.9s-2.7-.4-2.9-.4c-1-.2-1.9-.7-2.5-1.5-.7-.8-.8-1.8-.5-2.8.2-1 .7-1.9 1.5-2.5.8-.6 1.8-.8 2.8-.5l3.5.5 9.9.8c5.1.5 10.3.5 15.4 0 3.7-.5 10.4-1 20.3-1.5 1 0 2 .4 2.8 1 .8.6 1.3 1.5 1.5 2.5.3 2.3-.8 3.7-3.5 4-1.7.3-3.5.5-5.3.6-1.7.1-3.3.2-5 .4l33.8 100.3c2.4-8.9 4.6-16.5 6.4-22.5z"/></svg>