<svg xmlns="http://www.w3.org/2000/svg" viewBox="0 0 500 500"><path d="M442.8 427.7c0 8.3-6.7 15-15 15s-15-6.7-15-15 6.7-15 15-15 15 6.7 15 15zm-69.5-15c-8.3 0-15 6.7-15 15s6.7 15 15 15 15-6.7 15-15-6.7-15-15-15zm-57.4.1c-8.3 0-15 6.7-15 15s6.7 15 15 15 15-6.7 15-15c.1-8.3-6.6-15-15-15zm180.8-35.6v101c0 12-9.8 21.8-21.8 21.8H25.1c-12 0-21.8-9.8-21.8-21.8v-101c0-12 9.8-21.7 21.8-21.8H475c12 0 21.7 9.8 21.7 21.8zm-16.2 0c0-3-2.4-5.4-5.4-5.4H25c-3 0-5.4 2.4-5.4 5.4v101c0 3 2.4 5.4 5.4 5.4h450c3 0 5.4-2.4 5.4-5.4l.1-101zm-54-208.5c.9.4 2 .7 3 .7 2.6 0 5.1-1.5 6.2-3.8 1.7-3.3.4-7.4-2.9-9.1-.1 0-.1-.1-.2-.1-16.1-8-46.3-8.1-47.5-8.1-3.8 0-6.9 3.1-6.9 6.9 0 3.8 3.1 6.9 6.9 6.9 7.8 0 30.4 1.2 41.4 6.6zM14.9 340.5v-51.3c0-11.1 6.2-21.2 16.1-26.1l18.6-9.3c-19.9-8.7-26.2-20.9-26.5-21.5-1-1.9-1-4.3 0-6.2 5-9.9 5.6-28.4 6.1-43 .1-4.9.2-9.5.6-13.7 2.4-33.3 27.7-58.4 58.9-58.4s56.5 25.1 58.8 58.4c.2 4.2.4 8.8.6 13.7.4 14.7 1.1 33 6.1 43 1 1.9 1 4.3 0 6.2-.2.6-6.6 12.8-26.6 21.5l6.7 3.4c2.6-1.9 5.5-3.4 8.6-4.5l42.7-15.5c-.1-2 .6-3.9 1.9-5.3l12.9-13.6V195c-18.9-16.2-29.8-39.8-29.7-64.7v-15.7c-4.9-10.5-7.5-22-7.5-33.7V66.3C163.3 29.7 192.9.1 229.5 0h103.8c3.8 0 6.9 3 6.9 6.8v74.4c0 11.6-2.5 23.1-7.5 33.7v18.2c0 22.4-9.3 43.8-25.6 59.2-1.4 1.2-2.7 2.4-4.1 3.5v22.8l12.9 13.6c1.4 1.4 2.1 3.3 1.9 5.3l40.4 14.7 14-4c5.8-1.7 5.8-2.3 5.8-3.8v-10c-14-10.1-22.3-26.4-22.3-43.7v-11.3l-3.5-7.1c-2.5-5.1-3.8-10.7-3.8-16.4v-.4c0-24.3 19.7-44 44-44.1h66.8c3.8 0 6.9 3 6.9 6.8V154c0 6.8-1.6 13.5-4.6 19.6l-2.8 5.5v13.2c0 13.9-5.6 27.2-15.6 36.9-2.1 2-4.3 3.8-6.7 5.4v9.6c0 1.3.9 2.5 2.1 2.8l28.7 8.1c12.5 3.5 21.2 15.1 20.7 27.8v57.4c0 3.8-3.1 6.9-6.9 6.9-3.8 0-6.9-3.1-6.9-6.9v-57.4c0-6.8-4.5-12.8-11.1-14.7l-28.7-8.1c-1-.3-2-.6-2.9-1.1l-17.6 17.6v63.8c0 3.8-3.1 6.9-6.9 6.9-3.8 0-6.9-3.1-6.9-6.9v-63.8l-17.7-17.7c-2 1-4.2 1.8-6.4 2.4l-1.7.5c6.6 6.8 10.2 15.9 10.3 25.4v53.4c0 3.8-3.1 6.9-6.9 6.9-3.8 0-6.9-3.1-6.9-6.9v-53.4c0-9.5-6-18-14.9-21.3l-45-16.4-18.8 28.1c-2.4 3.6-6.2 5.9-10.5 6.3-.5.1-1 .1-1.5.1-3.8 0-7.5-1.5-10.2-4.2l-11.4-11.4v72.3c0 3.8-3.1 6.9-6.9 6.9-3.8 0-6.9-3.1-6.9-6.9v-72.3l-11.4 11.4c-2.7 2.7-6.4 4.2-10.2 4.2-.6 0-1-.1-1.5-.1-4.3-.4-8.1-2.7-10.5-6.3l-18.8-28.1-44.9 16.4c-8.9 3.3-14.9 11.8-14.9 21.3v53.4c.1 3.8-2.8 7-6.6 7.1-3.8.1-7-2.8-7.1-6.6v-53.9c0-6.8 1.9-13.5 5.5-19.3l-7.6-3.7-8 7.7a29.184 29.184 0 01-40.2 0l-8-7.7L37 275.7c-5.2 2.6-8.5 7.9-8.5 13.7v51.3c0 3.8-3.1 6.9-6.9 6.9-3.6-.2-6.7-3.3-6.7-7.1zm408.2-92.2c-.3-1.3-.4-2.7-.5-4.1v-2.8c-4.9 1.5-10.1 2.3-15.3 2.3h-1.6c-4.7-.1-9.4-.9-13.8-2.4v2.9c0 1.4-.2 2.7-.5 4.1l15.8 15.8 15.9-15.8zm-17-18.5c10.2.3 20.1-3.5 27.3-10.6 7.3-7.1 11.5-16.9 11.5-27.1v-14.8c0-1 .2-2.1.7-3l3.5-7c2.1-4.2 3.1-8.8 3.2-13.4V125h-59.8c-16.6 0-30.1 13.5-30.1 30.2v.4c0 3.5.8 7 2.4 10.2l4.3 8.6c.5.9.7 2 .7 3.1v13c0 21 16.2 38.8 36.3 39.3zM241 252.5l-32.8-22.4-6.9 7.3 21.6 32.3c0 .1.1.2.3.2.1 0 .2 0 .3-.1l17.5-17.3zm48.2-35v-12.7c-11.6 6-24.4 9.2-37.5 9.1-1.8 0-3.6-.1-5.4-.2-11.3-.6-22.3-3.8-32.2-9.3v13l37.6 25.6 37.5-25.5zm13 20l-6.9-7.3-32.8 22.4L280 270c.1.1.2.1.3.1.2 0 .3-.1.3-.2l21.6-32.4zM247.4 200c16.1 1.1 32.1-3.7 45-13.4l.1-.1c1.8-1.4 3.6-2.9 5.3-4.5 13.6-12.7 21.3-30.4 21.2-49v-19.8c0-1 .2-2.1.7-3 4.4-9.1 6.8-19.1 6.7-29.2V13.8h-96.9c-28.9 0-52.4 23.5-52.4 52.4V81c0 10.1 2.3 20.1 6.8 29.1.4.9.7 2 .7 3v17.2c-.1 36.9 27.5 67.5 62.8 69.7zm-141.7 55.6c-1.1-2.1-1.7-4.4-1.7-6.8v-7.3c-5 1.6-10.1 2.4-15.4 2.4-5.2 0-10.4-.8-15.4-2.4v7.3c0 2.4-.6 4.7-1.7 6.8l6.4 6.1c5.9 5.6 15.2 5.6 21.1 0l6.7-6.1zm30.4-43.5c-3.8 9.1-10.2 17-18.3 22.6v8.2c13-4.7 19.5-10.9 22.3-14.2-2-5.3-3.3-10.9-4-16.6zM43 185.4c.4-.1.8-.1 1.1-.1 3.8 0 6.9 3 6.9 6.8v.1c-.2 20.7 16.5 37.7 37.2 37.9 18.7.2 34.7-13.5 37.5-32.1-11.2-24.6-40.1-28-49-28.5l-10.4 10.8c-2.3 3.1-6.7 3.7-9.8 1.4s-3.7-6.7-1.4-9.8c.3-.4.7-.8 1.1-1.2l12.5-13c1.2-1.3 2.9-2.1 4.7-2.1 9 0 17.9 1.4 26.5 4.2 15 4.9 26.7 13.4 34.2 25.1v-1.2c-.1-4.8-.3-9.3-.6-13.1-.7-12.1-5.7-23.5-14-32.3-16.6-17.1-43.9-17.5-61-.9l-.9.9c-8.3 8.8-13.3 20.2-14 32.3-.2 3.8-.5 8.4-.6 13.1.1.5 0 1.1 0 1.7zm16.5 57.4v-8.4c-8.1-5.6-14.5-13.5-18.3-22.6-.7 5.7-2 11.2-4 16.6 2.9 3.6 9.3 9.8 22.3 14.4zm147.2-163c0-.2.1-.4.3-.4 14.9-2.3 30-3 45.1-2.2 21.6 1.5 37.3 6.9 46.5 16.2 2.7 2.7 7.1 2.7 9.8 0 2.7-2.6 2.9-7 .2-9.7l-.1-.1C282.3 57.4 227.4 62.4 205 65.8c-7.1 1.1-12.2 7.2-12.2 14.3V96c0 3.8 3.1 6.9 6.9 6.9s6.9-3.1 6.9-6.9l.1-16.2z" fill="#0073ec"/></svg>