<svg xmlns="http://www.w3.org/2000/svg" xmlns:xlink="http://www.w3.org/1999/xlink" viewBox="0 0 200 223.17"><defs><linearGradient id="a" x1="715.59" y1="44.62" x2="786.21" y2="44.62" gradientTransform="translate(-624.57)" gradientUnits="userSpaceOnUse"><stop offset="0" stop-color="#d3daed"/><stop offset=".55" stop-color="#b0bce0"/><stop offset="1" stop-color="#99a7d8"/></linearGradient><linearGradient id="e" x1="-408.9" y1="90.74" x2="-353.09" y2="90.74" gradientTransform="matrix(-1 0 0 1 -208.9 0)" xlink:href="#a"/><linearGradient id="b" x1="-403.91" y1="100.74" x2="-390.57" y2="100.74" gradientTransform="matrix(-1 0 0 1 -208.9 0)" gradientUnits="userSpaceOnUse"><stop offset="0" stop-color="#4d9ed7"/><stop offset=".02" stop-color="#4e9fd7"/><stop offset="1" stop-color="#67bce9"/></linearGradient><linearGradient id="f" x1="91.91" y1="82.81" x2="131.68" y2="82.81" xlink:href="#a"/><linearGradient id="g" x1="172.23" y1="57.52" x2="196.79" y2="57.52" xlink:href="#a"/><linearGradient id="h" x1="185.45" y1="69.46" x2="185.45" y2="57.11" gradientUnits="userSpaceOnUse"><stop offset="0" stop-color="#67bce9"/><stop offset=".98" stop-color="#4e9fd7"/><stop offset="1" stop-color="#4d9ed7"/></linearGradient><linearGradient id="i" x1="75.54" y1="27.08" x2="82.2" y2="27.08" xlink:href="#b"/><linearGradient id="j" x1="140.26" y1="106.64" x2="158.12" y2="106.64" xlink:href="#a"/><linearGradient id="k" x1="74.93" y1="64.87" x2="84.69" y2="64.87" xlink:href="#a"/><linearGradient id="l" x1="-258.25" y1="159.65" x2="-74.45" y2="159.65" gradientTransform="translate(266.77)" gradientUnits="userSpaceOnUse"><stop offset="0" stop-color="#d3daed"/><stop offset="1" stop-color="#99a7d8"/></linearGradient><linearGradient id="c" x1="78.17" y1="154.06" x2="114.24" y2="154.06" gradientUnits="userSpaceOnUse"><stop offset=".15" stop-color="#4d9ed7"/><stop offset="1" stop-color="#54addf"/></linearGradient><linearGradient id="m" x1="71.44" y1="143.96" x2="120.98" y2="143.96" xlink:href="#c"/><linearGradient id="n" x1="65.71" y1="131.07" x2="126.7" y2="131.07" xlink:href="#c"/><linearGradient id="o" x1="84.94" y1="130.84" x2="107.48" y2="130.84" xlink:href="#b"/><linearGradient id="d" x1="-199.39" y1="100.16" x2="-196.36" y2="100.16" gradientTransform="translate(213.94)" gradientUnits="userSpaceOnUse"><stop offset=".15" stop-color="#4d9ed7"/><stop offset="1" stop-color="#7bbae5"/></linearGradient><linearGradient id="p" x1="-198.81" y1="118.93" x2="-195.14" y2="118.93" xlink:href="#d"/></defs><path d="M91.51.82a3.13 3.13 0 013.67-.4l64.63 37.31a4.08 4.08 0 011.84 3.18V86.8a2.47 2.47 0 01-1.82 2.38 1.68 1.68 0 01-1.28-.17l-65.69-37.9A4.08 4.08 0 0191 47.92v-46a1.49 1.49 0 01.51-1.1z" fill="url(#a)"/><path d="M91 2.05C91 .89 91.85.41 92.86 1l65.46 37.8a4.08 4.08 0 011.84 3.2v45.84c0 1.17-.83 1.64-1.84 1.06L92.86 51.1A4.08 4.08 0 0191 47.92z" fill="#f6f8fb"/><path d="M101 16.55c-2.38-1.37-4.32-.25-4.32 2.49a9.59 9.59 0 004.32 7.49c2.38 1.37 4.32.25 4.32-2.49a9.59 9.59 0 00-4.32-7.49z" fill="#99a7d8"/><path d="M158.32 38.79L92.86 1C91.85.41 91 .89 91 2.05v5.1l69.14 39.92V42a4.08 4.08 0 00-1.82-3.21z" fill="#5c629e"/><path fill="#e5e9f4" d="M154.28 47.98l-42.9-24.75.01-1.37 42.89 24.66v1.46zm0 5.49l-42.9-24.75.01-1.38 42.89 24.67v1.46zm0 5.48l-42.9-24.75.01-1.37 42.89 24.66v1.46zm0 5.49l-42.9-24.75.01-1.38 42.89 24.67v1.46zm0 5.48l-42.9-24.75.01-1.37 42.89 24.67v1.45zm0 5.49l-42.9-24.75.01-1.37 42.89 24.66v1.46zm-18.01-4.94l-24.89-14.32.01-1.38 24.88 14.25v1.45z"/><path fill="#d3daed" d="M94.78 25.64v21.5l12.41 7.16V32.8l-12.41-7.16z"/><path d="M96 5.59c-.49-.28-.88-.05-.88.51A2 2 0 0096 7.63c.49.28.88.05.88-.51A2 2 0 0096 5.59zm3 1.78c-.49-.28-.88-.05-.88.51A2 2 0 0099 9.41c.49.28.88.05.88-.51A2 2 0 0099 7.37zm3.06 1.79c-.49-.28-.88-.05-.88.51a2 2 0 00.88 1.53c.49.28.88.05.88-.51a2 2 0 00-.88-1.53z" fill="#fff"/><path d="M140.68 67.1l2.09-.89v-5.13a1.43 1.43 0 01.07-.46v-.07a.7.7 0 01.21-.5 3.56 3.56 0 013.49-.23l15.1 8.73V86.8a2.47 2.47 0 01-1.82 2.38 1.68 1.68 0 01-1.28-.17l-.15-.09h-.07l-15.55-9v-5.07l-2.65-6.37a1.06 1.06 0 01.56-1.38z" fill="#231f20" opacity=".2"/><path d="M144.39 63.63a3.56 3.56 0 013.49-.23l50.68 29.3a3.19 3.19 0 011.44 2.49v21.32a2 2 0 01-1.35 1.89.77.77 0 01-.73-.14l-52.18-29.83a3.22 3.22 0 01-1.56-2.43V64.13a.7.7 0 01.21-.5z" fill="url(#e)"/><path d="M144.11 64.65c0-.91.65-1.29 1.44-.83l51.17 29.54a3.19 3.19 0 011.44 2.49v21.42c0 .91-.65 1.29-1.44.83l-51.18-29.54a3.19 3.19 0 01-1.44-2.49v-7.65l-2.65-6.37a1.06 1.06 0 01.56-1.39l2.09-.89z" fill="#f5f6fb"/><path fill="#e5e9f4" d="M180.04 90.5l-29.6-17.04-.01-1.92 29.61 17.01v1.95zm0 6.51l-29.61-16.98v-1.92l29.61 17v1.9zm-13.14-.6l-16.47-9.42v-1.91l16.47 9.44v1.89z"/><path fill="url(#b)" d="M181.67 87.72l.04 18.44 13.29 7.61V95.29l-13.33-7.57z"/><path d="M130.19 81.11l-34-19.55a1.74 1.74 0 00-2 .18l-1.79 1.48-.5 18.43a3 3 0 001.5 2.59L108.79 93l7.86 4.6 11.3 6.69h2.14a1.59 1.59 0 001.59-1.59v-19a3 3 0 00-1.49-2.59z" fill="url(#f)"/><path d="M91.91 64.41v17.24a3 3 0 001.5 2.59l13.53 7.82 1.6 5.88a1.42 1.42 0 002 .89l4.25-2.17 12.48 7.34a1.69 1.69 0 002.55-1.46V85.1a3 3 0 00-1.5-2.59L94.44 62.95a1.69 1.69 0 00-2.53 1.46z" fill="#f5f6fb"/><path fill="#d3daed" d="M126.14 86.66l-29.6-17.14.02-2.24 29.58 17.08v2.3zm0 5.77l-29.6-17.05.02-2.24 29.58 17.08v2.21zm-15.28-2.92l-14.32-8.26.02-2.24 14.3 8.25v2.25z"/><path d="M184.51 43.15c-2.66-1.55-5.12-2-7.14-1.48l-1.82.46-.86 1c-1.54 1.5-2.46 3.94-2.46 7.16 0 7.9 5.53 17.6 12.28 21.55a12.47 12.47 0 003.79 1.51v.18h1.76c4-.05 6.73-3.3 6.73-8.86 0-7.87-5.52-17.57-12.28-21.52z" fill="url(#g)"/><path d="M182.89 43.54c-6.76-3.9-12.28-.71-12.28 7.09S176.13 68 182.89 71.9s12.28.71 12.28-7.09-5.53-17.37-12.28-21.27z" fill="#5c629e"/><path d="M182.89 45.65c-5.75-3.32-10.45-.6-10.45 6s4.7 14.78 10.45 18.1 10.45.6 10.45-6-4.7-14.75-10.45-18.1z" fill="#fff"/><path d="M183.9 69.79c-5.75-3.32-10.45-11.46-10.45-18.1 0-4.49 2.15-7.18 5.32-7.43-3.72-.29-6.33 2.48-6.33 7.43 0 6.64 4.7 14.78 10.45 18.1a9 9 0 005.11 1.39 9.88 9.88 0 01-4.1-1.39z" fill="#d3daed"/><path d="M188 69.46a.61.61 0 01-.55-.35L182.34 58a.61.61 0 111.1-.51l5.13 11.13a.61.61 0 01-.55.86z" fill="url(#h)"/><path d="M182.89 58.33a.61.61 0 01-.61-.61v-7.55a.61.61 0 111.22 0v7.55a.61.61 0 01-.61.61z" fill="#48486a"/><path d="M182.89 55.46c-.88-.51-1.6-.09-1.6.93a3.55 3.55 0 001.6 2.78c.88.51 1.6.09 1.6-.93a3.55 3.55 0 00-1.6-2.78zm-8.2-2.84c-.28-.16-.51 0-.51.29a1.13 1.13 0 00.51.88c.28.16.51 0 .51-.29a1.13 1.13 0 00-.51-.88zm8.2-6.27c-.28-.16-.51 0-.51.29a1.13 1.13 0 00.51.88c.28.16.51 0 .51-.29a1.13 1.13 0 00-.51-.88zm8.77 16.8c-.28-.16-.51 0-.51.29a1.13 1.13 0 00.51.88c.28.16.51 0 .51-.29a1.13 1.13 0 00-.51-.88zm-8.26 4.46c-.28-.16-.51 0-.51.29a1.13 1.13 0 00.51.88c.28.16.51 0 .51-.29a1.13 1.13 0 00-.51-.88zM78.13 18.14c-4.39-2.53-8-.46-8 4.6s3.59 11.28 8 13.81 8 .46 8-4.6-3.61-11.28-8-13.81z" fill="#48486a"/><path d="M78.13 18.14a6.88 6.88 0 00-3.89-1.06 7.5 7.5 0 013.17 1.06c4.39 2.53 8 8.75 8 13.81 0 3.44-1.65 5.49-4.09 5.67 2.82.21 4.8-1.9 4.8-5.67-.01-5.07-3.6-11.28-7.99-13.81z" fill="#5c629e"/><path d="M81.77 30.37l-4.94.51c-.57.06-1.28-.69-1.28-1.35v-5.7c0-.66.71-.73 1.28-.13l4.94 5.2c.57.6.57 1.42 0 1.48l-4.94.51c-.57.06-1.28-.69-1.28-1.35v-5.7c0-.66.71-.73 1.28-.13l4.94 5.2c.57.58.57 1.4 0 1.46z" fill="url(#i)"/><path d="M156.49 100.61a3.61 3.61 0 011.63 2.82v15.89a1.11 1.11 0 01-.76 1l-.82.27a1 1 0 01-.82-.08l-13.84-7.84a3.61 3.61 0 01-1.63-2.82v-16a1 1 0 01.45-.85l.24-.17a1.82 1.82 0 011.94-.08z" fill="url(#j)"/><path d="M155.37 101.17A3.62 3.62 0 01157 104v15.56c0 1-.73 1.46-1.63.94l-13.47-7.78a3.61 3.61 0 01-1.63-2.82V94.33c0-1 .73-1.46 1.63-.94z" fill="#fff"/><path d="M155.37 101.17l-13.47-7.78c-.9-.52-1.63-.09-1.63.94v3.1l16.73 9.88V104a3.62 3.62 0 00-1.63-2.83zm-8.82 6.61a.44.44 0 00.17-.36.84.84 0 00-.14-.45 1.05 1.05 0 00-.37-.36.59.59 0 00-.78.13l-.78-.91a1.09 1.09 0 01.67-.33 1.68 1.68 0 01.93.29 3.15 3.15 0 011 .93 2.11 2.11 0 01.43 1.22.83.83 0 01-.17.55 1.81 1.81 0 01-.63.42l-.79.36 1.72 1v.87l-3.07-1.78v-.72l1.28-.57a2.4 2.4 0 00.53-.29zm4.74 1.04v.84l-1.72-1v.73a2 2 0 01.44.2 3.43 3.43 0 011.09 1 2.22 2.22 0 01.46 1.29q0 .65-.47.79a1.48 1.48 0 01-1.16-.25 4.13 4.13 0 01-1.48-1.51l.51-.41.15.22a4.83 4.83 0 00.34.41 2.09 2.09 0 00.5.42.65.65 0 00.44.11q.19 0 .19-.33a1 1 0 00-.21-.57 1.77 1.77 0 00-.54-.47 1.62 1.62 0 00-.77-.21l-.41-.67v-2.11z" fill="#5c629e"/><path d="M78.13 57.29c-3.61-2.08-6.56-.38-6.56 3.79a14.56 14.56 0 006.56 11.36c3.61 2.08 6.56.38 6.56-3.79a14.56 14.56 0 00-6.56-11.36z" fill="#f5f6fb"/><path d="M78.13 57.29a5.66 5.66 0 00-3.2-.87 6.17 6.17 0 012.61.87 14.56 14.56 0 016.56 11.37c0 2.83-1.36 4.52-3.36 4.66 2.32.17 4-1.56 4-4.66a14.56 14.56 0 00-6.61-11.37z" fill="url(#k)"/><path d="M79.83 65.44l.53-.27c.11-.05.12-.25 0-.44l-.61-1.19c-.1-.19-.26-.3-.37-.24l-.41.21c-.07 0-.17 0-.25-.11l-.15-.18a.52.52 0 01-.14-.34v-.66a.61.61 0 00-.25-.48l-.91-.6c-.14-.09-.27 0-.27.14V62c0 .11-.06.16-.15.15h-.17a.37.37 0 01-.24-.21l-.38-.74c-.1-.19-.26-.3-.37-.24l-.67.34c-.11.05-.12.25 0 .44l.37.73a.36.36 0 010 .32l-.07.15c0 .08-.12.1-.21 0l-.56-.36c-.14-.09-.27 0-.27.14v1.08a.61.61 0 00.25.48l.56.37a.51.51 0 01.19.29l.06.25c0 .12 0 .22-.06.25l-.42.22c-.11.06-.11.25 0 .44l.61 1.19c.1.19.26.3.37.24l.41-.21c.07 0 .17 0 .25.11l.15.18a.52.52 0 01.14.34v.67a.61.61 0 00.25.48l.91.59c.14.09.27 0 .27-.14v-.67c0-.11.06-.16.15-.15h.17a.36.36 0 01.24.21l.38.74c.1.19.26.3.37.24l.67-.35c.11-.06.11-.25 0-.44l-.37-.73a.36.36 0 010-.32l.07-.14c0-.08.12-.1.21 0l.56.36c.14.09.27 0 .27-.14v-1.08a.61.61 0 00-.25-.48l-.56-.37a.51.51 0 01-.19-.29c-.04-.25-.11-.48-.11-.5zm-3.31.14c-.43-1.11-.11-2 .63-1.92a2.39 2.39 0 011.55 1.57c.43 1.11.11 2-.63 1.92a2.39 2.39 0 01-1.55-1.57z" fill="#48486a"/><g opacity=".67"><path d="M3.17 142.4c-3.75 2.12-3.76 5.62 0 7.77l123.32 71.12a15.12 15.12 0 0013.58 0l55-31.49c3.74-2.14 3.74-5.65 0-7.8L72.12 111.12a15.21 15.21 0 00-13.59-.06z" fill="#fbfbfb" opacity=".024"/><path d="M3.51 142.38c-3.74 2.12-3.75 5.6 0 7.75l123 70.91a15.07 15.07 0 0013.54 0l54.86-31.4c3.73-2.13 3.73-5.63 0-7.78L72.26 111.19a15.17 15.17 0 00-13.55-.06z" fill="#f6f6f8" opacity=".049"/><path d="M3.85 142.35c-3.73 2.11-3.74 5.59 0 7.73l122.6 70.7a15 15 0 0013.5 0l54.69-31.31c3.72-2.13 3.72-5.62 0-7.76L72.4 111.25a15.12 15.12 0 00-13.52-.06z" fill="#f2f2f4" opacity=".073"/><path d="M4.19 142.33c-3.71 2.1-3.73 5.57 0 7.7l122.21 70.49a15 15 0 0013.46 0l54.53-31.22c3.7-2.12 3.71-5.6 0-7.74L72.54 111.32a15.08 15.08 0 00-13.48-.06z" fill="#ededf0" opacity=".098"/><path d="M4.53 142.3c-3.7 2.1-3.72 5.55 0 7.68l121.88 70.29a14.94 14.94 0 0013.42 0l54.37-31.12c3.69-2.11 3.7-5.59 0-7.71L72.68 111.38a15 15 0 00-13.44-.06z" fill="#e9e9ed" opacity=".122"/><path d="M4.87 142.27c-3.69 2.09-3.71 5.54 0 7.66L126.36 220a14.9 14.9 0 0013.38 0l54.21-31c3.68-2.11 3.69-5.57 0-7.69L72.82 111.45a15 15 0 00-13.4-.06z" fill="#e4e4e9" opacity=".146"/><path d="M5.22 142.25c-3.68 2.08-3.7 5.52 0 7.64l121.16 69.87a14.85 14.85 0 0013.34 0l54.05-30.94c3.67-2.1 3.68-5.55 0-7.67L73 111.51a15 15 0 00-13.36-.06z" fill="#e0e0e6" opacity=".171"/><path d="M5.56 142.22c-3.67 2.08-3.69 5.5 0 7.61l120.8 69.66a14.81 14.81 0 0013.3 0l53.89-30.85c3.66-2.1 3.67-5.54 0-7.65L73.1 111.58a14.9 14.9 0 00-13.32-.06z" fill="#dbdbe2" opacity=".195"/><path d="M5.9 142.2c-3.66 2.07-3.67 5.49 0 7.59l120.4 69.45a14.76 14.76 0 0013.26 0l53.73-30.76c3.65-2.09 3.66-5.52 0-7.62L73.24 111.64a14.86 14.86 0 00-13.24-.05z" fill="#d7d7de" opacity=".22"/><path d="M6.24 142.17c-3.65 2.07-3.66 5.47 0 7.57L126.28 219a14.72 14.72 0 0013.22 0l53.57-30.67c3.64-2.08 3.65-5.5 0-7.6l-119.71-69a14.81 14.81 0 00-13.24-.06z" fill="#d2d2db" opacity=".244"/><path d="M6.58 142.14c-3.64 2.06-3.65 5.46 0 7.55l119.72 69a14.68 14.68 0 0013.18 0l53.41-30.57c3.63-2.08 3.63-5.49 0-7.58L73.52 111.77a14.77 14.77 0 00-13.2-.06z" fill="#ceced7" opacity=".268"/><path d="M6.92 142.12c-3.63 2.05-3.64 5.44 0 7.52l119.36 68.83a14.63 14.63 0 0013.14 0L192.64 188c3.62-2.07 3.62-5.47 0-7.55l-119-68.62a14.72 14.72 0 00-13.16-.06z" fill="#c9c9d3" opacity=".293"/><path d="M7.26 142.09c-3.62 2-3.63 5.42 0 7.5l119 68.62a14.59 14.59 0 0013.1 0l53.09-30.39c3.61-2.06 3.61-5.45 0-7.53L73.8 111.9a14.68 14.68 0 00-13.12-.06z" fill="#c5c5d0" opacity=".317"/><path d="M7.6 142.07c-3.61 2-3.62 5.41 0 7.48L126.21 218a14.54 14.54 0 0013.06 0l52.93-30.3c3.6-2.06 3.6-5.44 0-7.51L73.94 112a14.64 14.64 0 00-13.08-.05z" fill="#c1c1cc" opacity=".341"/><path d="M7.94 142c-3.59 2-3.61 5.39 0 7.46l118.25 68.24a14.5 14.5 0 0013 0L192 187.52c3.58-2.05 3.59-5.42 0-7.49L74.08 112A14.59 14.59 0 0061 112z" fill="#bcbcc8" opacity=".366"/><path d="M8.28 142c-3.58 2-3.6 5.37 0 7.43l117.92 68a14.46 14.46 0 0013 0l52.61-30.11c3.57-2 3.58-5.4 0-7.46L74.22 112.1a14.55 14.55 0 00-13-.05z" fill="#b8b8c5" opacity=".39"/><path d="M8.63 142c-3.57 2-3.59 5.36 0 7.41l117.56 67.79a14.41 14.41 0 0012.94 0l52.45-30c3.56-2 3.57-5.39 0-7.44L74.36 112.17a14.5 14.5 0 00-13-.05z" fill="#b3b3c1" opacity=".415"/><path d="M9 142c-3.56 2-3.58 5.34 0 7.39l117.2 67.59a14.37 14.37 0 0012.9 0L191.32 187c3.55-2 3.56-5.37 0-7.42L74.49 112.23a14.46 14.46 0 00-12.92-.05z" fill="#afafbe" opacity=".439"/><path d="M9.31 141.94c-3.55 2-3.56 5.32 0 7.36l116.84 67.38a14.32 14.32 0 0012.86 0l52.13-29.84c3.54-2 3.55-5.35 0-7.39L74.63 112.3a14.41 14.41 0 00-12.88-.05z" fill="#aaaaba" opacity=".463"/><path d="M9.65 141.91c-3.54 2-3.55 5.31 0 7.34l116.45 67.17a14.28 14.28 0 0012.82 0l52-29.75c3.53-2 3.54-5.34 0-7.37l-116.12-67a14.37 14.37 0 00-12.84-.05z" fill="#a6a6b6" opacity=".488"/><path d="M10 141.88c-3.53 2-3.54 5.29 0 7.32l116.12 67a14.23 14.23 0 0012.78 0l51.8-29.65c3.52-2 3.53-5.32 0-7.35L74.91 112.43a14.32 14.32 0 00-12.8-.05z" fill="#a1a1b3" opacity=".512"/><path d="M10.33 141.86c-3.52 2-3.53 5.27 0 7.3l115.76 66.76a14.19 14.19 0 0012.74 0l51.64-29.56c3.51-2 3.51-5.3 0-7.33L75.05 112.49a14.28 14.28 0 00-12.76-.05z" fill="#9d9daf" opacity=".537"/><path d="M10.67 141.83c-3.51 2-3.52 5.26 0 7.27L126 215.65a14.15 14.15 0 0012.7 0l51.48-29.47c3.5-2 3.5-5.29 0-7.3l-115-66.35a14.24 14.24 0 00-12.72-.05z" fill="#9898ab" opacity=".561"/><path d="M11 141.81c-3.5 2-3.51 5.24 0 7.25l115 66.34a14.1 14.1 0 0012.67 0L190 186c3.49-2 3.49-5.27 0-7.28l-114.67-66.1a14.19 14.19 0 00-12.68-.05z" fill="#9494a8" opacity=".585"/><path d="M11.35 141.78c-3.49 2-3.5 5.23 0 7.23L126 215.14a14.06 14.06 0 0012.63 0l51.16-29.29c3.48-2 3.48-5.26 0-7.26l-114.32-65.9a14.15 14.15 0 00-12.64-.05z" fill="#8f8fa4" opacity=".61"/><path d="M11.69 141.75c-3.47 2-3.49 5.21 0 7.21L126 214.89a14 14 0 0012.59 0l51-29.19c3.46-2 3.47-5.24 0-7.24l-114-65.73A14.1 14.1 0 0063 112.7z" fill="#8b8ba1" opacity=".634"/><path d="M12 141.73c-3.46 2-3.48 5.19 0 7.18l114 65.72a14 14 0 0012.55 0l50.84-29.1c3.45-2 3.46-5.22 0-7.21l-113.64-65.5a14.06 14.06 0 00-12.56-.05z" fill="#86869d" opacity=".659"/><path d="M12.38 141.7c-3.45 2-3.47 5.18 0 7.16l113.6 65.51a13.93 13.93 0 0012.51 0l50.68-29c3.44-2 3.45-5.21 0-7.19l-113.28-65.3a14 14 0 00-12.52-.05z" fill="#828299" opacity=".683"/><path d="M12.72 141.68c-3.44 1.95-3.45 5.16 0 7.14l113.24 65.3a13.88 13.88 0 0012.47 0l50.52-28.92c3.43-2 3.44-5.19 0-7.17L76 113a14 14 0 00-12.48-.05z" fill="#7e7e96" opacity=".707"/><path d="M13.06 141.65c-3.43 1.94-3.44 5.14 0 7.11l112.88 65.1a13.84 13.84 0 0012.43 0l50.36-28.83c3.42-2 3.43-5.17 0-7.14L76.17 113a13.93 13.93 0 00-12.44 0z" fill="#797992" opacity=".732"/><path d="M13.4 141.62c-3.42 1.94-3.43 5.13 0 7.09l112.52 64.89a13.79 13.79 0 0012.39 0l50.2-28.74c3.41-2 3.42-5.16 0-7.12l-112.2-64.66a13.88 13.88 0 00-12.4-.05z" fill="#75758e" opacity=".756"/><path d="M13.74 141.6c-3.41 1.93-3.42 5.11 0 7.07l112.16 64.68a13.75 13.75 0 0012.35 0l50-28.64c3.4-1.95 3.41-5.14 0-7.1l-111.8-64.46a13.84 13.84 0 00-12.36-.05z" fill="#70708b" opacity=".78"/><path d="M14.08 141.57c-3.4 1.92-3.41 5.09 0 7l111.8 64.47a13.71 13.71 0 0012.31 0L188 184.56c3.39-1.94 3.39-5.12 0-7.08L76.59 113.21a13.79 13.79 0 00-12.32-.05z" fill="#6c6c87" opacity=".805"/><path d="M14.42 141.55c-3.39 1.92-3.4 5.08 0 7l111.44 64.27a13.66 13.66 0 0012.27 0l49.72-28.46c3.38-1.93 3.38-5.11 0-7.05L76.73 113.28a13.75 13.75 0 00-12.29-.05z" fill="#676783" opacity=".829"/><path d="M14.76 141.52c-3.38 1.91-3.39 5.06 0 7l111.08 64.06a13.62 13.62 0 0012.23 0l49.56-28.37c3.37-1.93 3.37-5.09 0-7L76.87 113.34a13.7 13.7 0 00-12.25-.05z" fill="#636380" opacity=".854"/><path d="M15.1 141.49c-3.36 1.9-3.38 5 0 7l110.72 63.85a13.57 13.57 0 0012.19 0l49.4-28.28c3.36-1.92 3.36-5.07 0-7L77 113.41a13.66 13.66 0 00-12.21-.05z" fill="#5e5e7c" opacity=".878"/><path d="M15.45 141.47c-3.35 1.9-3.37 5 0 7l110.36 63.64a13.53 13.53 0 0012.15 0l49.24-28.18c3.34-1.91 3.35-5.06 0-7l-110-63.45a13.61 13.61 0 00-12.2-.06z" fill="#5a5a79" opacity=".902"/><path d="M15.79 141.44c-3.34 1.89-3.36 5 0 6.93l110 63.44a13.49 13.49 0 0012.11 0l49.07-28.09c3.33-1.91 3.34-5 0-7L77.29 113.54a13.57 13.57 0 00-12.13-.05z" fill="#555575" opacity=".927"/><path d="M16.13 141.42c-3.33 1.89-3.35 5 0 6.91l109.64 63.23a13.44 13.44 0 0012.07 0l48.91-28c3.32-1.9 3.33-5 0-6.94l-109.31-63a13.53 13.53 0 00-12.09-.05z" fill="#515171" opacity=".951"/><path d="M16.47 141.39c-3.32 1.88-3.33 5 0 6.89l109.28 63a13.4 13.4 0 0012 0l48.75-27.91c3.31-1.9 3.32-5 0-6.92L77.57 113.67a13.48 13.48 0 00-12-.05z" fill="#4c4c6e" opacity=".976"/><path d="M16.81 141.37c-3.31 1.87-3.32 5 0 6.87L125.7 211a13.35 13.35 0 0012 0l48.59-27.82c3.3-1.89 3.31-5 0-6.89L77.71 113.73a13.44 13.44 0 00-12-.05z" fill="#48486a"/></g><path d="M8.52 139.9v2.59a5.12 5.12 0 002.56 4.44l114.79 66.33a14.07 14.07 0 0012.63 0l51.25-29.11a5 5 0 002.55-4.36 10.27 10.27 0 00-5.13-8.94L75.17 106a14.16 14.16 0 00-12.66 0l-51.57 29.72a4.83 4.83 0 00-2.42 4.18z" fill="url(#l)"/><path d="M11.15 135.16c-3.49 2-3.5 5.23 0 7.23l114.76 66.18a14.07 14.07 0 0012.63 0l51.2-29.31c3.48-2 3.48-5.26 0-7.26L75.31 106a14.16 14.16 0 00-12.65 0z" fill="#f9f7f9"/><path d="M163.45 191.31c3.4-2 3.4-5.18 0-7.14a13.72 13.72 0 00-12.37 0c-3.4 2-3.4 5.18 0 7.14a13.72 13.72 0 0012.37 0z" fill="#edf0f8"/><path d="M37.93 128.35a.52.52 0 01-.26-1l11.41-6.59a.52.52 0 11.52.9l-11.41 6.59a.51.51 0 01-.26.1zM51 120.79a.52.52 0 01-.26-1l2.54-1.47a.52.52 0 11.52.9l-2.54 1.47a.51.51 0 01-.26.1z" fill="#99a7d8"/><path fill="#d3daed" d="M20.25 144.84l58.19-34.02 96.4 55.59-58.68 34.01-95.91-55.58z"/><g opacity=".19"><path fill="#99a7d8" d="M20.05 144.91l58.19-34.02 96.4 55.59-58.68 34.01-95.91-55.58z"/><path fill="#9aa8d8" opacity=".988" d="M20.05 144.1l58.19-34.03 96.4 55.59-58.68 34.02-95.91-55.58z"/><path fill="#9ca9d9" opacity=".975" d="M20.05 143.28l58.19-34.02 96.4 55.58-58.68 34.02-95.91-55.58z"/><path fill="#9daad9" opacity=".963" d="M20.05 142.46l58.19-34.02 96.4 55.59-58.68 34.01-95.91-55.58z"/><path fill="#9eabda" opacity=".951" d="M20.05 141.65l58.19-34.03 96.4 55.59-58.68 34.02-95.91-55.58z"/><path fill="#9facda" opacity=".938" d="M20.05 140.83l58.19-34.02 96.4 55.58-58.68 34.02-95.91-55.58z"/><path fill="#a1aedb" opacity=".926" d="M20.05 140.01l58.19-34.02 96.4 55.59-58.68 34.01-95.91-55.58z"/><path fill="#a2afdb" opacity=".914" d="M20.05 139.2l58.19-34.03 96.4 55.59-58.68 34.02-95.91-55.58z"/><path fill="#a3b0dc" opacity=".901" d="M20.05 138.38l58.19-34.02 96.4 55.58-58.68 34.02-95.91-55.58z"/><path fill="#a4b1dc" opacity=".889" d="M20.05 137.56l58.19-34.02 96.4 55.59-58.68 34.01-95.91-55.58z"/><path fill="#a6b2dd" opacity=".877" d="M20.05 136.75l58.19-34.03 96.4 55.59-58.68 34.01-95.91-55.57z"/><path fill="#a7b3dd" opacity=".864" d="M20.05 135.93l58.19-34.02 96.4 55.58-58.68 34.02-95.91-55.58z"/><path fill="#a8b4de" opacity=".852" d="M20.05 135.11l58.19-34.02 96.4 55.59-58.68 34.01-95.91-55.58z"/><path fill="#a9b5de" opacity=".84" d="M20.05 134.29l58.19-34.02 96.4 55.59-58.68 34.02-95.91-55.59z"/><path fill="#abb6df" opacity=".827" d="M20.05 133.48l58.19-34.02 96.4 55.58-58.68 34.02-95.91-55.58z"/><path fill="#acb7df" opacity=".815" d="M20.05 132.66l58.19-34.02 96.4 55.59-58.68 34.01-95.91-55.58z"/><path fill="#adb8e0" opacity=".802" d="M20.05 131.84l58.19-34.02 96.4 55.59-58.68 34.02-95.91-55.59z"/><path fill="#aeb9e0" opacity=".79" d="M20.05 131.03l58.19-34.02 96.4 55.58-58.68 34.02-95.91-55.58z"/><path fill="#b0bbe1" opacity=".778" d="M20.05 130.21l58.19-34.02 96.4 55.59-58.68 34.01-95.91-55.58z"/><path fill="#b1bce1" opacity=".765" d="M20.05 129.4l58.19-34.03 96.4 55.59-58.68 34.01-95.91-55.57z"/><path fill="#b2bde2" opacity=".753" d="M20.05 128.58l58.19-34.02 96.4 55.58-58.68 34.02-95.91-55.58z"/><path fill="#b3bee2" opacity=".741" d="M20.05 127.76l58.19-34.02 96.4 55.58-58.68 34.02-95.91-55.58z"/><path fill="#b5bfe3" opacity=".728" d="M20.05 126.94l58.19-34.02 96.4 55.59-58.68 34.01-95.91-55.58z"/><path fill="#b6c0e3" opacity=".716" d="M20.05 126.13l58.19-34.02 96.4 55.58-58.68 34.02-95.91-55.58z"/><path fill="#b7c1e4" opacity=".704" d="M20.05 125.31l58.19-34.02 96.4 55.59-58.68 34.01-95.91-55.58z"/><path fill="#b8c2e4" opacity=".691" d="M20.05 124.49l58.19-34.02 96.4 55.59-58.68 34.01-95.91-55.58z"/><path fill="#bac3e5" opacity=".679" d="M20.05 123.68l58.19-34.02 96.4 55.58-58.68 34.02-95.91-55.58z"/><path fill="#bbc4e5" opacity=".667" d="M20.05 122.86l58.19-34.02 96.4 55.59-58.68 34.01-95.91-55.58z"/><path fill="#bcc5e5" opacity=".654" d="M20.05 122.04l58.19-34.02 96.4 55.59-58.68 34.01-95.91-55.58z"/><path fill="#bec7e6" opacity=".642" d="M20.05 121.23L78.24 87.2l96.4 55.59-58.68 34.02-95.91-55.58z"/><path fill="#bfc8e6" opacity=".63" d="M20.05 120.41l58.19-34.02 96.4 55.58-58.68 34.02-95.91-55.58z"/><path fill="#c0c9e7" opacity=".617" d="M20.05 119.59l58.19-34.02 96.4 55.59-58.68 34.01-95.91-55.58z"/><path fill="#c1cae7" opacity=".605" d="M20.05 118.78l58.19-34.03 96.4 55.59-58.68 34.02-95.91-55.58z"/><path fill="#c3cbe8" opacity=".593" d="M20.05 117.96l58.19-34.02 96.4 55.58-58.68 34.02-95.91-55.58z"/><path fill="#c4cce8" opacity=".58" d="M20.05 117.14l58.19-34.02 96.4 55.59-58.68 34.01-95.91-55.58z"/><path fill="#c5cde9" opacity=".568" d="M20.05 116.33L78.24 82.3l96.4 55.59-58.68 34.02-95.91-55.58z"/><path fill="#c6cee9" opacity=".556" d="M20.05 115.51l58.19-34.02 96.4 55.58-58.68 34.02-95.91-55.58z"/><path fill="#c8cfea" opacity=".543" d="M20.05 114.69l58.19-34.02 96.4 55.59-58.68 34.01-95.91-55.58z"/><path fill="#c9d0ea" opacity=".531" d="M20.05 113.88l58.19-34.03 96.4 55.59-58.68 34.02-95.91-55.58z"/><path fill="#cad1eb" opacity=".519" d="M20.05 113.06l58.19-34.02 96.4 55.58-58.68 34.02-95.91-55.58z"/><path fill="#cbd2eb" opacity=".506" d="M20.05 112.24l58.19-34.02 96.4 55.59-58.68 34.01-95.91-55.58z"/><path fill="#cdd4ec" opacity=".494" d="M20.05 111.43L78.24 77.4l96.4 55.59L115.96 167l-95.91-55.57z"/><path fill="#ced5ec" opacity=".481" d="M20.05 110.61l58.19-34.02 96.4 55.58-58.68 34.02-95.91-55.58z"/><path fill="#cfd6ed" opacity=".469" d="M20.05 109.79l58.19-34.02 96.4 55.59-58.68 34.01-95.91-55.58z"/><path fill="#d0d7ed" opacity=".457" d="M20.05 108.97l58.19-34.02 96.4 55.59-58.68 34.02-95.91-55.59z"/><path fill="#d2d8ee" opacity=".444" d="M20.05 108.16l58.19-34.02 96.4 55.58-58.68 34.02-95.91-55.58z"/><path fill="#d3d9ee" opacity=".432" d="M20.05 107.34l58.19-34.02 96.4 55.59-58.68 34.01-95.91-55.58z"/><path fill="#d4daef" opacity=".42" d="M20.05 106.53L78.24 72.5l96.4 55.59-58.68 34.01-95.91-55.57z"/><path fill="#d5dbef" opacity=".407" d="M20.05 105.71l58.19-34.02 96.4 55.58-58.68 34.02-95.91-55.58z"/><path fill="#d7dcf0" opacity=".395" d="M20.05 104.89l58.19-34.02 96.4 55.59-58.68 34.01-95.91-55.58z"/><path fill="#d8ddf0" opacity=".383" d="M20.05 104.08l58.19-34.03 96.4 55.59-58.68 34.01-95.91-55.57z"/><path fill="#d9def1" opacity=".37" d="M20.05 103.26l58.19-34.03 96.4 55.59-58.68 34.02-95.91-55.58z"/><path fill="#dadff1" opacity=".358" d="M20.05 102.44l58.19-34.02 96.4 55.58-58.68 34.02-95.91-55.58z"/><path fill="#dce1f2" opacity=".346" d="M20.05 101.62L78.24 67.6l96.4 55.59-58.68 34.01-95.91-55.58z"/><path fill="#dde2f2" opacity=".333" d="M20.05 100.81l58.19-34.03 96.4 55.59-58.68 34.02-95.91-55.58z"/><path fill="#dee3f2" opacity=".321" d="M20.05 99.99l58.19-34.02 96.4 55.59-58.68 34.01-95.91-55.58z"/><path fill="#e0e4f3" opacity=".309" d="M20.05 99.17l58.19-34.02 96.4 55.59-58.68 34.01-95.91-55.58z"/><path fill="#e1e5f3" opacity=".296" d="M20.05 98.36l58.19-34.03 96.4 55.59-58.68 34.02-95.91-55.58z"/><path fill="#e2e6f4" opacity=".284" d="M20.05 97.54l58.19-34.02 96.4 55.59-58.68 34.01-95.91-55.58z"/><path fill="#e3e7f4" opacity=".272" d="M20.05 96.72L78.24 62.7l96.4 55.59-58.68 34.01-95.91-55.58z"/><path fill="#e5e8f5" opacity=".259" d="M20.05 95.91l58.19-34.03 96.4 55.59-58.68 34.02-95.91-55.58z"/><path fill="#e6e9f5" opacity=".247" d="M20.05 95.09l58.19-34.02 96.4 55.58-58.68 34.02-95.91-55.58z"/><path fill="#e7eaf6" opacity=".235" d="M20.05 94.27l58.19-34.02 96.4 55.59-58.68 34.01-95.91-55.58z"/><path fill="#e8ebf6" opacity=".222" d="M20.05 93.46l58.19-34.03 96.4 55.59-58.68 34.02-95.91-55.58z"/><path fill="#eaedf7" opacity=".21" d="M20.05 92.64l58.19-34.02 96.4 55.58-58.68 34.02-95.91-55.58z"/><path fill="#ebeef7" opacity=".198" d="M20.05 91.82L78.24 57.8l96.4 55.59-58.68 34.01-95.91-55.58z"/><path fill="#eceff8" opacity=".185" d="M20.05 91.01l58.19-34.03 96.4 55.59-58.68 34.02-95.91-55.58z"/><path fill="#edf0f8" opacity=".173" d="M20.05 90.19l58.19-34.02 96.4 55.58-58.68 34.02-95.91-55.58z"/><path fill="#eff1f9" opacity=".16" d="M20.05 89.37l58.19-34.02 96.4 55.59-58.68 34.01-95.91-55.58z"/><path fill="#f0f2f9" opacity=".148" d="M20.05 88.56l58.19-34.03 96.4 55.59-58.68 34.01-95.91-55.57z"/><path fill="#f1f3fa" opacity=".136" d="M20.05 87.74l58.19-34.02 96.4 55.58-58.68 34.02-95.91-55.58z"/><path fill="#f2f4fa" opacity=".123" d="M20.05 86.92L78.24 52.9l96.4 55.59-58.68 34.01-95.91-55.58z"/><path fill="#f4f5fb" opacity=".111" d="M20.05 86.11l58.19-34.03 96.4 55.59-58.68 34.02-95.91-55.58z"/><path fill="#f5f6fb" opacity=".099" d="M20.05 85.29l58.19-34.02 96.4 55.58-58.68 34.02-95.91-55.58z"/><path fill="#f6f7fc" opacity=".086" d="M20.05 84.47l58.19-34.02 96.4 55.59-58.68 34.01-95.91-55.58z"/><path fill="#f7f8fc" opacity=".074" d="M20.05 83.66l58.19-34.03 96.4 55.59-58.68 34.01-95.91-55.57z"/><path fill="#f9fafd" opacity=".062" d="M20.05 82.84l58.19-34.02 96.4 55.58-58.68 34.02-95.91-55.58z"/><path fill="#fafbfd" opacity=".049" d="M20.05 82.02L78.24 48l96.4 55.59-58.68 34.01-95.91-55.58z"/><path fill="#fbfcfe" opacity=".037" d="M20.05 81.2l58.19-34.02 96.4 55.59-58.68 34.01L20.05 81.2z"/><path fill="#fcfdfe" opacity=".025" d="M20.05 80.39l58.19-34.02 96.4 55.58-58.68 34.02-95.91-55.58z"/><path fill="#fefeff" opacity=".012" d="M20.05 79.57l58.19-34.02 96.4 55.59-58.68 34.01-95.91-55.58z"/></g><g opacity=".4"><path fill="#99a7d8" d="M40.92 157l45.14-26.4 74.8 43.13-45.53 26.39L40.92 157z"/><path fill="#9aa8d8" opacity=".988" d="M40.92 156.37l45.14-26.4 74.8 43.13-45.53 26.39-74.41-43.12z"/><path fill="#9ca9d9" opacity=".975" d="M40.92 155.73l45.14-26.39 74.8 43.13-45.53 26.39-74.41-43.13z"/><path fill="#9daad9" opacity=".963" d="M40.92 155.1l45.14-26.4 74.8 43.13-45.53 26.39-74.41-43.12z"/><path fill="#9eabda" opacity=".951" d="M40.92 154.47l45.14-26.4 74.8 43.13-45.53 26.39-74.41-43.12z"/><path fill="#9facda" opacity=".938" d="M40.92 153.83l45.14-26.39 74.8 43.12-45.53 26.4-74.41-43.13z"/><path fill="#a1aedb" opacity=".926" d="M40.92 153.2l45.14-26.4 74.8 43.13-45.53 26.39-74.41-43.12z"/><path fill="#a2afdb" opacity=".914" d="M40.92 152.57l45.14-26.4 74.8 43.13-45.53 26.39-74.41-43.12z"/><path fill="#a3b0dc" opacity=".901" d="M40.92 151.93l45.14-26.4 74.8 43.13-45.53 26.39-74.41-43.12z"/><path fill="#a4b1dc" opacity=".889" d="M40.92 151.3l45.14-26.4 74.8 43.13-45.53 26.39-74.41-43.12z"/><path fill="#a6b2dd" opacity=".877" d="M40.92 150.66l45.14-26.39 74.8 43.13-45.53 26.39-74.41-43.13z"/><path fill="#a7b3dd" opacity=".864" d="M40.92 150.03l45.14-26.4 74.8 43.13-45.53 26.39-74.41-43.12z"/><path fill="#a8b4de" opacity=".852" d="M40.92 149.4L86.06 123l74.8 43.13-45.53 26.39-74.41-43.12z"/><path fill="#a9b5de" opacity=".84" d="M40.92 148.76l45.14-26.39 74.8 43.12-45.53 26.39-74.41-43.12z"/><path fill="#abb6df" opacity=".827" d="M40.92 148.13l45.14-26.4 74.8 43.13-45.53 26.39-74.41-43.12z"/><path fill="#acb7df" opacity=".815" d="M40.92 147.5l45.14-26.4 74.8 43.13-45.53 26.39-74.41-43.12z"/><path fill="#adb8e0" opacity=".802" d="M40.92 146.86l45.14-26.39 74.8 43.12-45.53 26.39-74.41-43.12z"/><path fill="#aeb9e0" opacity=".79" d="M40.92 146.23l45.14-26.4 74.8 43.13-45.53 26.39-74.41-43.12z"/><path fill="#b0bbe1" opacity=".778" d="M40.92 145.59l45.14-26.39 74.8 43.13-45.53 26.39-74.41-43.13z"/><path fill="#b1bce1" opacity=".765" d="M40.92 144.96l45.14-26.4 74.8 43.13-45.53 26.39-74.41-43.12z"/><path fill="#b2bde2" opacity=".753" d="M40.92 144.33l45.14-26.4 74.8 43.13-45.53 26.39-74.41-43.12z"/><path fill="#b3bee2" opacity=".741" d="M40.92 143.69l45.14-26.39 74.8 43.12-45.53 26.39-74.41-43.12z"/><path fill="#b5bfe3" opacity=".728" d="M40.92 143.06l45.14-26.4 74.8 43.13-45.53 26.39-74.41-43.12z"/><path fill="#b6c0e3" opacity=".716" d="M40.92 142.43l45.14-26.4 74.8 43.13-45.53 26.39-74.41-43.12z"/><path fill="#b7c1e4" opacity=".704" d="M40.92 141.79l45.14-26.39 74.8 43.12-45.53 26.39-74.41-43.12z"/><path fill="#b8c2e4" opacity=".691" d="M40.92 141.16l45.14-26.4 74.8 43.13-45.53 26.39-74.41-43.12z"/><path fill="#bac3e5" opacity=".679" d="M40.92 140.53l45.14-26.4 74.8 43.13-45.53 26.39-74.41-43.12z"/><path fill="#bbc4e5" opacity=".667" d="M40.92 139.89l45.14-26.39 74.8 43.12-45.53 26.39-74.41-43.12z"/><path fill="#bcc5e5" opacity=".654" d="M40.92 139.26l45.14-26.4 74.8 43.13-45.53 26.39-74.41-43.12z"/><path fill="#bec7e6" opacity=".642" d="M40.92 138.62l45.14-26.39 74.8 43.12-45.53 26.4-74.41-43.13z"/><path fill="#bfc8e6" opacity=".63" d="M40.92 137.99l45.14-26.4 74.8 43.13-45.53 26.39-74.41-43.12z"/><path fill="#c0c9e7" opacity=".617" d="M40.92 137.36l45.14-26.4 74.8 43.13-45.53 26.39-74.41-43.12z"/><path fill="#c1cae7" opacity=".605" d="M40.92 136.72l45.14-26.39 74.8 43.12-45.53 26.39-74.41-43.12z"/><path fill="#c3cbe8" opacity=".593" d="M40.92 136.09l45.14-26.4 74.8 43.13-45.53 26.39-74.41-43.12z"/><path fill="#c4cce8" opacity=".58" d="M40.92 135.46l45.14-26.4 74.8 43.13-45.53 26.39-74.41-43.12z"/><path fill="#c5cde9" opacity=".568" d="M40.92 134.82l45.14-26.4 74.8 43.13-45.53 26.39-74.41-43.12z"/><path fill="#c6cee9" opacity=".556" d="M40.92 134.19l45.14-26.4 74.8 43.13-45.53 26.39-74.41-43.12z"/><path fill="#c8cfea" opacity=".543" d="M40.92 133.55l45.14-26.39 74.8 43.12-45.53 26.4-74.41-43.13z"/><path fill="#c9d0ea" opacity=".531" d="M40.92 132.92l45.14-26.4 74.8 43.13-45.53 26.39-74.41-43.12z"/><path fill="#cad1eb" opacity=".519" d="M40.92 132.29l45.14-26.4 74.8 43.13-45.53 26.39-74.41-43.12z"/><path fill="#cbd2eb" opacity=".506" d="M40.92 131.65l45.14-26.39 74.8 43.12-45.53 26.4-74.41-43.13z"/><path fill="#cdd4ec" opacity=".494" d="M40.92 131.02l45.14-26.4 74.8 43.13-45.53 26.39-74.41-43.12z"/><path fill="#ced5ec" opacity=".481" d="M40.92 130.39l45.14-26.4 74.8 43.13-45.53 26.39-74.41-43.12z"/><path fill="#cfd6ed" opacity=".469" d="M40.92 129.75l45.14-26.39 74.8 43.12-45.53 26.39-74.41-43.12z"/><path fill="#d0d7ed" opacity=".457" d="M40.92 129.12l45.14-26.4 74.8 43.13-45.53 26.39-74.41-43.12z"/><path fill="#d2d8ee" opacity=".444" d="M40.92 128.49l45.14-26.4 74.8 43.13-45.53 26.39-74.41-43.12z"/><path fill="#d3d9ee" opacity=".432" d="M40.92 127.85l45.14-26.4 74.8 43.13-45.53 26.39-74.41-43.12z"/><path fill="#d4daef" opacity=".42" d="M40.92 127.22l45.14-26.4 74.8 43.13-45.53 26.39-74.41-43.12z"/><path fill="#d5dbef" opacity=".407" d="M40.92 126.58l45.14-26.39 74.8 43.12-45.53 26.4-74.41-43.13z"/><path fill="#d7dcf0" opacity=".395" d="M40.92 125.95l45.14-26.4 74.8 43.13-45.53 26.39-74.41-43.12z"/><path fill="#d8ddf0" opacity=".383" d="M40.92 125.32l45.14-26.4 74.8 43.13-45.53 26.39-74.41-43.12z"/><path fill="#d9def1" opacity=".37" d="M40.92 124.68l45.14-26.39 74.8 43.12-45.53 26.39-74.41-43.12z"/><path fill="#dadff1" opacity=".358" d="M40.92 124.05l45.14-26.4 74.8 43.13-45.53 26.39-74.41-43.12z"/><path fill="#dce1f2" opacity=".346" d="M40.92 123.42l45.14-26.4 74.8 43.13-45.53 26.39-74.41-43.12z"/><path fill="#dde2f2" opacity=".333" d="M40.92 122.78l45.14-26.4 74.8 43.13-45.53 26.39-74.41-43.12z"/><path fill="#dee3f2" opacity=".321" d="M40.92 122.15l45.14-26.4 74.8 43.13-45.53 26.39-74.41-43.12z"/><path fill="#e0e4f3" opacity=".309" d="M40.92 121.51l45.14-26.39 74.8 43.13-45.53 26.39-74.41-43.13z"/><path fill="#e1e5f3" opacity=".296" d="M40.92 120.88l45.14-26.4 74.8 43.13L115.33 164l-74.41-43.12z"/><path fill="#e2e6f4" opacity=".284" d="M40.92 120.25l45.14-26.4 74.8 43.13-45.53 26.39-74.41-43.12z"/><path fill="#e3e7f4" opacity=".272" d="M40.92 119.61l45.14-26.39 74.8 43.12-45.53 26.4-74.41-43.13z"/><path fill="#e5e8f5" opacity=".259" d="M40.92 118.98l45.14-26.4 74.8 43.13-45.53 26.39-74.41-43.12z"/><path fill="#e6e9f5" opacity=".247" d="M40.92 118.34l45.14-26.39 74.8 43.13-45.53 26.39-74.41-43.13z"/><path fill="#e7eaf6" opacity=".235" d="M40.92 117.71l45.14-26.4 74.8 43.13-45.53 26.39-74.41-43.12z"/><path fill="#e8ebf6" opacity=".222" d="M40.92 117.08l45.14-26.4 74.8 43.13-45.53 26.39-74.41-43.12z"/><path fill="#eaedf7" opacity=".21" d="M40.92 116.44l45.14-26.39 74.8 43.13-45.53 26.39-74.41-43.13z"/><path fill="#ebeef7" opacity=".198" d="M40.92 115.81l45.14-26.4 74.8 43.13-45.53 26.39-74.41-43.12z"/><path fill="#eceff8" opacity=".185" d="M40.92 115.18l45.14-26.4 74.8 43.13-45.53 26.39-74.41-43.12z"/><path fill="#edf0f8" opacity=".173" d="M40.92 114.54l45.14-26.39 74.8 43.12-45.53 26.39-74.41-43.12z"/><path fill="#eff1f9" opacity=".16" d="M40.92 113.91l45.14-26.4 74.8 43.13-45.53 26.39-74.41-43.12z"/><path fill="#f0f2f9" opacity=".148" d="M40.92 113.28l45.14-26.4 74.8 43.13-45.53 26.39-74.41-43.12z"/><path fill="#f1f3fa" opacity=".136" d="M40.92 112.64l45.14-26.39 74.8 43.12-45.53 26.39-74.41-43.12z"/><path fill="#f2f4fa" opacity=".123" d="M40.92 112.01l45.14-26.4 74.8 43.13-45.53 26.39-74.41-43.12z"/><path fill="#f4f5fb" opacity=".111" d="M40.92 111.38l45.14-26.4 74.8 43.12-45.53 26.4-74.41-43.12z"/><path fill="#f5f6fb" opacity=".099" d="M40.92 110.74l45.14-26.4 74.8 43.13-45.53 26.39-74.41-43.12z"/><path fill="#f6f7fc" opacity=".086" d="M40.92 110.11l45.14-26.4 74.8 43.13-45.53 26.39-74.41-43.12z"/><path fill="#f7f8fc" opacity=".074" d="M40.92 109.47l45.14-26.39 74.8 43.12-45.53 26.39-74.41-43.12z"/><path fill="#f9fafd" opacity=".062" d="M40.92 108.84l45.14-26.4 74.8 43.13-45.53 26.39-74.41-43.12z"/><path fill="#fafbfd" opacity=".049" d="M40.92 108.21l45.14-26.4 74.8 43.13-45.53 26.39-74.41-43.12z"/><path fill="#fbfcfe" opacity=".037" d="M40.92 107.57l45.14-26.4 74.8 43.13-45.53 26.39-74.41-43.12z"/><path fill="#fcfdfe" opacity=".025" d="M40.92 106.94l45.14-26.4 74.8 43.13-45.53 26.39-74.41-43.12z"/><path fill="#fefeff" opacity=".012" d="M40.92 106.31l45.14-26.4 74.8 43.13-45.53 26.39-74.41-43.12z"/></g><path d="M96.18 164.53a25.93 25.93 0 01-12.68-3c-3.44-2-5.33-4.65-5.33-7.52s1.89-5.54 5.33-7.52a24.15 24.15 0 019.63-2.87.37.37 0 01.07.74 23.4 23.4 0 00-9.34 2.78c-3.2 1.85-5 4.29-5 6.88s1.76 5 5 6.88c6.77 3.91 17.83 3.91 24.64 0 3.22-1.85 5-4.29 5-6.88s-1.77-5-5-6.88a20.72 20.72 0 00-5.15-2 .37.37 0 11.18-.72 21.51 21.51 0 015.33 2.12c3.46 2 5.36 4.65 5.36 7.52s-1.9 5.54-5.36 7.52a26.11 26.11 0 01-12.68 2.95z" fill="url(#c)"/><path d="M96.17 157.69c-6.32 0-12.64-1.39-17.44-4.16s-7.29-6.36-7.29-10.27S74 135.71 78.73 133a28.82 28.82 0 016.72-2.75.37.37 0 11.2.71 28.12 28.12 0 00-6.54 2.68c-4.46 2.58-6.92 6-6.92 9.63s2.46 7 6.92 9.63c9.4 5.42 24.73 5.42 34.18 0 4.49-2.58 7-6 7-9.63s-2.47-7-7-9.62a.37.37 0 11.37-.64c4.73 2.71 7.33 6.36 7.33 10.27s-2.6 7.55-7.33 10.27-11.17 4.14-17.49 4.14z" fill="url(#m)"/><path d="M96.16 148.79c-7.79 0-15.57-1.71-21.49-5.12s-9-7.81-9-12.6 3.18-9.26 9-12.6c11.83-6.83 31.13-6.83 43 0 5.81 3.34 9 7.81 9 12.6s-3.2 9.27-9 12.6c-5.92 3.41-13.72 5.12-21.51 5.12zm0-34.71c-7.66 0-15.31 1.68-21.12 5-5.54 3.2-8.59 7.44-8.59 12s3 8.76 8.59 12c11.62 6.71 30.6 6.71 42.29 0 5.57-3.2 8.64-7.44 8.64-12s-3.07-8.76-8.64-12c-5.85-3.33-13.51-5.01-21.17-5.01z" fill="url(#n)"/><path fill="#90d0f2" d="M95.13 114.11l7.12 4.1v8.68l7.51 4.34v9.18l-2.28 1.27-5.23-6.11v9.18l-2.28 1.27-5.24-6.11v-8.68l-7.51-4.34-2.28-6.9 2.67-1.55 7.12 4.11-2.28-6.9 2.68-1.54z"/><path fill="url(#o)" d="M92.45 115.65l7.52 4.34v8.68l7.51 4.33v8.68l-7.51-4.34v8.68l-7.52-4.34V133l-7.51-4.33v-8.68l7.51 4.34v-8.68z"/><path d="M3 207l3 1.68 1.5-.72.11 1.67 8.34 4.58a2.8 2.8 0 002.78 0l1.1-.62a2.88 2.88 0 000-5l-5.65-3.45-4.64-5.74-6.19 1.44-1 3.39z" fill="#363650"/><path d="M20.28 212.66l-1.1.62a2.8 2.8 0 01-2.78 0l-8.34-4.58L8 207l-1.5.72-3-1.68-.67-2.77.77-2.51h-.19l-1 3.39L3 207l3 1.68 1.5-.72.11 1.67 8.34 4.58a2.8 2.8 0 002.78 0l1.1-.62a2.84 2.84 0 001.34-1.68 2.88 2.88 0 01-.89.75z" fill="#48486a"/><path d="M15.53 201.37l3 1.68 1.5-.72.11 1.67 8.34 4.58a2.8 2.8 0 002.78 0l1.1-.62a2.88 2.88 0 000-5l-5.65-3.45-4.64-5.74-6.19 1.44-1 3.39z" fill="#363650"/><path d="M32.82 207.06l-1.1.62a2.8 2.8 0 01-2.78 0l-8.34-4.58-.11-1.67-1.5.72-3-1.68-.67-2.77.77-2.51h-.19l-1 3.39.67 2.77 3 1.68 1.5-.72.11 1.67 8.34 4.58a2.8 2.8 0 002.78 0l1.1-.62a2.84 2.84 0 001.34-1.68 2.88 2.88 0 01-.92.8z" fill="#48486a"/><path fill="#4782d9" d="M5.08 157.21l19.15-11.06V131.4L5.15 142.42l-.07 14.79z"/><path d="M37.83 129.57a3.33 3.33 0 01-1.49-.35L23 122.56a12.32 12.32 0 01-6.86-11.08V95.16a3.34 3.34 0 116.68 0v16.31a5.68 5.68 0 003.18 5.11l13.34 6.66a3.34 3.34 0 01-1.49 6.33z" fill="#f2b1b5"/><path d="M31.8 126.66a3.44 3.44 0 01-1.54-.36L23 122.65a12.43 12.43 0 01-7-11.18V95.16a3.45 3.45 0 116.89 0v16.31a5.57 5.57 0 003.1 5l7.31 3.65a3.45 3.45 0 01-1.54 6.53z" fill="#e3e5e8"/><path d="M7.32 203.23c-2.38 0-4.31 0-4.31-2.37l1.07-27.15L2.33 142c0-2.38 2.61-8.26 5-8.26s7 1 7 3.38l-2.72 63.75c.01 2.37-1.91 2.36-4.29 2.36z" fill="#48486a"/><path d="M20 197.2c-2.38 0-4.31-.42-4.31-2.8l.35-22.72-4.94-37.8c0-2.38 6.52-6.62 8.9-6.62a4.31 4.31 0 014.31 4.31v62.83c.03 2.37-1.9 2.8-4.31 2.8z" fill="#48486a"/><path d="M8.88 94.08l8.12-4.7a5.45 5.45 0 018.17 4.72v39.68c-3.3 5.72-14 11.75-19.25 11.39l-3.61-39.71a13.14 13.14 0 016.57-11.38z" fill="#d1d2dc"/><path d="M2.31 144.19V147c5.25.36 19.58-7.49 22.89-13.21V131c-3.31 5.7-17.64 13.55-22.89 13.19z" fill="#363650"/><path d="M17 89.6s1.81 1.62 1.55 5.32a20.67 20.67 0 00-.09 2.08s0 52.57 1.66 71.64c.16 1.83 5.67-2 6.4-3.64V93.65a5 5 0 00-7.09-4.5 4.47 4.47 0 01-2.35.46z" fill="#e3e5e8"/><path d="M11.13 94.64v-8.82l6.19-3.6v12.42a3.1 3.1 0 01-1.49 2.65 3.1 3.1 0 01-4.7-2.65z" fill="#f2b1b5"/><path fill="#ededed" d="M15.38 97.52l-1.15 4.37-5.49-7.47 2.37-1.71 4.27 4.81z"/><path d="M11.13 92.65v.05a4.88 4.88 0 00-.06 4c1.34 3.16 4.32 12.31 3.61 29.89l-.91 43C12.26 172.95 4.17 178.8 1 177l1.24-40.6v-2L1 106.88a14.51 14.51 0 017.22-12.54z" fill="#e3e5e8"/><path d="M23.83 139a3.33 3.33 0 01-1.49-.35L9 132a12.32 12.32 0 01-6.86-11v-16.36a3.34 3.34 0 116.68 0V121a5.68 5.68 0 003.18 5.06l13.34 6.66a3.34 3.34 0 01-1.51 6.28z" fill="#f2b1b5"/><path fill="#ededed" d="M15.38 97.52l3.27 3.53v-2.43l-.1-5.97-1.23-2.91-1.94 7.78z"/><path fill="url(#d)" d="M15.38 97.52l-.82 3.12.57 2.17 1.85-.66.6-2.26-2.2-2.37z"/><path fill="url(#p)" d="M15.13 102.81v30.97l2.19 1.93 1.48-6.37-1.82-27.19-1.85.66z"/><path d="M14.61 128.76L12 127.47c-1.91-1-4.58-4.19-4.58-6.33v-14c0-1.9-.07-4.42-2-4.42a3 3 0 00-3.16 3.19L2 122.46a12.43 12.43 0 006.92 11.18l5.5 2.74z" fill="#231f20" opacity=".3"/><path d="M18.12 136.31a3.44 3.44 0 01-1.54-.36l-7.64-3.81A12.43 12.43 0 012 121v-16.36a3.45 3.45 0 116.89 0V121a5.57 5.57 0 003.1 5l7.64 3.81a3.45 3.45 0 01-1.54 6.53z" fill="#e3e5e8"/><path d="M11.13 91.54H17c6.45 0 8.75-2.94 8.75-11.68a4.58 4.58 0 00-4.58-4.58h-10z" fill="#f2b1b5"/><path d="M25.9 75.81c-1.23-5-7.54-6.18-11.94-4.78a6.67 6.67 0 00-3.63 2.65 3.61 3.61 0 01-1 1.26c-.27.17-.6.24-.87.4a2.32 2.32 0 00-.83 1.14c-1.11 2.71-.33 6 .32 8.8a10 10 0 002.31 5 1.09 1.09 0 00.56.35c.61.1.95-.68 1-1.3.05-.8-.62-5.74.6-5.86.42 0 .6.51.63.93l.19 2.57c.25.53 1.14.32 1.4-.2a2.83 2.83 0 000-1.73c-.16-.87-.3-4 .44-4.66.29-.25.73-.24 1.06-.44s.64-.81 1.08-1.06a1.73 1.73 0 011.53.11c.86.39 1.57 1.26 2.54 1.37 1.27.15 2-1 2.72-1.8.57-.63.78-.9 1.32.16h.61a7.48 7.48 0 00.12-2 7.23 7.23 0 00-.16-.91z" fill="#48486a"/><rect x="24.87" y="135.53" width="6.39" height="1.55" rx=".17" ry=".17" transform="rotate(-24.9 28.073 136.306)" fill="#f2b1b5"/><path d="M22 137.24l8.57-9.36a4.57 4.57 0 011.58-1.11l19.9-8.44c.79-.34 1.43.38.87 1l-5 7.44a6.94 6.94 0 01-2.4 1.68l-22.8 9.68c-.63.28-1.19-.35-.72-.89z" fill="#adb9e0"/><path d="M24.32 135.78l7.39-8.07a3.93 3.93 0 011.36-1l17.53-7.49c.68-.29 1.23.33.75.85l-4.64 6.62a6 6 0 01-2.07 1.45L25 136.53c-.62.26-1.11-.29-.68-.75z" fill="#fff" opacity=".5"/><path d="M52.85 119.08l-5 7.44a7 7 0 01-2.4 1.68l-22.8 9.68a.7.7 0 01-.85-.15c0 .35.46.59 1 .39l22.8-9.68a6.94 6.94 0 002.4-1.68l5-7.44a.61.61 0 00.1-.8.68.68 0 01-.25.56z" fill="#5c629e"/><rect x="21.03" y="134.17" width="6.76" height="1.55" rx=".17" ry=".17" transform="rotate(-23.29 24.42 134.931)" fill="#f2b1b5"/></svg>