<svg xmlns="http://www.w3.org/2000/svg" id="Layer_1" x="0" y="0" viewBox="0 0 32 32" xml:space="preserve"><style>.st0{fill:#4284fb}</style><path class="st0" d="M16 7.5c4.7 0 8.5 3.8 8.5 8.5s-3.8 8.5-8.5 8.5-8.5-3.8-8.5-8.5c0-2.3.9-4.4 2.5-6 1.6-1.6 3.7-2.5 6-2.5M16 6c-2.7 0-5.2 1.1-7.1 2.9C5 12.8 5 19.2 8.9 23.1c3.9 3.9 10.2 3.9 14.1 0 3.9-3.9 3.9-10.2 0-14.1-1.8-1.9-4.3-3-7-3z"/><path class="st0" d="M16 20.8c-1.3 0-2.5-.5-3.4-1.4-.9-.9-1.4-2.1-1.4-3.4s.5-2.5 1.4-3.4c1.9-1.9 4.9-1.9 6.7 0 1.9 1.9 1.9 4.9 0 6.7-.8 1-2 1.5-3.3 1.5zm-2.3-7.1c-.6.6-1 1.4-1 2.3s.3 1.7 1 2.3c1.2 1.2 3.4 1.2 4.6 0 1.3-1.3 1.3-3.3 0-4.6-1.3-1.3-3.3-1.3-4.6 0z"/><path class="st0" d="M13.8 12.6c-.2 0-.4-.1-.5-.2L10 9.1c-.3-.3-.3-.8 0-1.1s.8-.3 1.1 0l3.2 3.2c.3.3.3.8 0 1.1-.2.2-.4.3-.5.3zm9.6 9.6c-.2 0-.4-.1-.5-.2l-3.2-3.2c-.3-.3-.3-.8 0-1.1s.8-.3 1.1 0l3.2 3.2c.3.3.3.8 0 1.1-.2.1-.4.2-.6.2zm-11.6-7.7c-.2 0-.4-.1-.5-.2l-3.2-3.2c-.3-.3-.3-.8 0-1.1s.8-.3 1.1 0l3.2 3.2c.3.3.3.8 0 1.1-.2.1-.4.2-.6.2zm9.7 9.6c-.2 0-.4-.1-.5-.2l-3.2-3.2c-.3-.3-.3-.8 0-1.1s.8-.3 1.1 0l3.2 3.2c.3.3.3.8 0 1.1-.3.2-.4.2-.6.2zM8.6 22.2c-.2 0-.4-.1-.5-.2-.3-.3-.3-.8 0-1.1l3.2-3.2c.3-.3.8-.3 1.1 0s.3.8 0 1.1L9.1 22c-.1.1-.3.2-.5.2zm9.6-9.6c-.2 0-.4-.1-.5-.2-.3-.3-.3-.8 0-1.1l3.2-3.2c.3-.3.8-.3 1.1 0s.3.8 0 1.1l-3.2 3.2c-.2.1-.4.2-.6.2zm-7.7 11.5c-.2 0-.4-.1-.5-.2-.3-.3-.3-.8 0-1.1l3.2-3.2c.3-.3.8-.3 1.1 0s.3.8 0 1.1l-3.2 3.2c-.2.2-.4.2-.6.2zm9.7-9.6c-.2 0-.4-.1-.5-.2-.3-.3-.3-.8 0-1.1l3.2-3.2c.3-.3.8-.3 1.1 0s.3.8 0 1.1l-3.2 3.2c-.2.1-.4.2-.6.2z"/></svg>