<svg xmlns="http://www.w3.org/2000/svg" id="Layer_1" x="0" y="0" viewBox="0 0 32 32" xml:space="preserve"><style>.st0{fill:#4284fb}</style><path class="st0" d="M16 26.5c-4.8 0-8.8-3.9-8.8-8.8 0-4.8 4-8.7 8.8-8.7 4.8 0 8.8 3.9 8.8 8.8 0 4.8-4 8.7-8.8 8.7zm0-16c-4 0-7.2 3.3-7.2 7.2 0 4 3.3 7.2 7.2 7.2 4 0 7.2-3.3 7.2-7.2 0-3.9-3.2-7.2-7.2-7.2z"/><path class="st0" d="M16 20.2c-.6 0-1.3-.2-1.7-.7-.5-.5-.7-1.1-.7-1.7 0-.7.3-1.3.7-1.7 1-1 2.5-1 3.5 0 .5.5.7 1.1.7 1.7s-.3 1.3-.7 1.7c-.5.5-1.2.7-1.8.7zm0-3.4c-.3 0-.5.1-.7.3-.2.2-.3.4-.3.7 0 .3.1.5.3.7.4.4 1 .4 1.4 0 .2-.2.3-.4.3-.7 0-.3-.1-.5-.3-.7-.2-.2-.4-.3-.7-.3z"/><path class="st0" d="M17.2 17.3c-.2 0-.4-.1-.5-.2-.3-.3-.3-.8 0-1.1l2.5-2.5c.3-.3.8-.3 1.1 0 .3.3.3.8 0 1.1L17.8 17c-.2.2-.4.3-.6.3zm-4.9 4.9c-.2 0-.4-.1-.5-.2-.3-.3-.3-.8 0-1.1l2.5-2.5c.3-.3.8-.3 1.1 0 .3.3.3.8 0 1.1L12.8 22c-.1.1-.3.2-.5.2zM16 10c-1.2 0-2.2-1-2.2-2.2s1-2.2 2.2-2.2c1.2 0 2.2 1 2.2 2.2S17.2 10 16 10zm0-3c-.4 0-.8.3-.8.8s.3.8.8.8.8-.3.8-.8-.4-.8-.8-.8z"/><path class="st0" d="M16 12c-.4 0-.8-.3-.8-.8v-1c0-.4.3-.8.8-.8s.8.3.8.8v1c0 .5-.4.8-.8.8zm0 14c-.4 0-.8-.3-.8-.8v-1c0-.4.3-.8.8-.8s.8.3.8.8v1c0 .5-.4.8-.8.8zm-6.5-7.5h-1c-.4 0-.8-.3-.8-.8s.4-.7.8-.7h1c.4 0 .8.3.8.8s-.4.7-.8.7zm14 0h-1c-.4 0-.8-.3-.8-.8s.3-.8.8-.8h1c.4 0 .8.3.8.8s-.4.8-.8.8z"/></svg>