<svg xmlns="http://www.w3.org/2000/svg" id="Layer_1" x="0" y="0" viewBox="0 0 32 32" xml:space="preserve"><style>.st0{fill:#4284fb}</style><path class="st0" d="M22 14.1c-2.1 0-3.8-1.7-3.8-3.8s1.7-3.8 3.8-3.8 3.8 1.7 3.8 3.8-1.7 3.8-3.8 3.8zm0-6c-1.2 0-2.2 1-2.2 2.2s1 2.2 2.2 2.2 2.2-1 2.2-2.2-1-2.2-2.2-2.2zm-12 18c-2.1 0-3.8-1.7-3.8-3.8s1.7-3.8 3.8-3.8 3.8 1.7 3.8 3.8-1.7 3.8-3.8 3.8zm0-6c-1.2 0-2.2 1-2.2 2.2s1 2.2 2.2 2.2 2.2-1 2.2-2.2-1-2.2-2.2-2.2z"/><path class="st0" d="M10 20.1c-.4 0-.8-.3-.8-.8 0-2.1 1.7-3.8 3.8-3.8.4 0 .8.3.8.8s-.3.7-.8.7c-1.2 0-2.2 1-2.2 2.3 0 .5-.4.8-.8.8zm12 3h-9c-.4 0-.8-.3-.8-.8s.3-.8.8-.8h9c.4 0 .8.3.8.8s-.4.8-.8.8z"/><path class="st0" d="M19 17.1h-6c-.4 0-.8-.3-.8-.7s.3-.8.8-.8h6c1.2 0 2.2-1 2.2-2.2 0-.4.3-.8.8-.8s.8.3.8.8c0 2-1.7 3.7-3.8 3.7zm0-6h-9c-.4 0-.8-.3-.8-.8s.4-.7.8-.7h9c.4 0 .8.3.8.8s-.4.7-.8.7z"/></svg>