<svg xmlns="http://www.w3.org/2000/svg" id="Layer_1" x="0" y="0" viewBox="0 0 32 32" xml:space="preserve"><style>.st0{fill:#4284fb}</style><path class="st0" d="M24 24.8H8c-1.5 0-2.8-1.2-2.8-2.8V10c0-1.5 1.2-2.8 2.8-2.8h16c1.5 0 2.8 1.2 2.8 2.8v12c0 1.5-1.3 2.8-2.8 2.8zM8 8.8c-.7 0-1.2.6-1.2 1.2v12c0 .7.6 1.2 1.2 1.2h16c.7 0 1.2-.6 1.2-1.2V10c0-.7-.6-1.2-1.2-1.2H8z"/><path class="st0" d="M13.8 19.8c-.1 0-.2 0-.4-.1-.2-.2-.4-.4-.4-.7v-6c0-.3.2-.5.4-.7.2-.1.5-.1.8 0l4.5 3c.2.1.3.4.3.6s-.1.5-.3.6l-4.5 3c-.2.2-.3.3-.4.3zm.7-5.4v3.2l2.4-1.6-2.4-1.6z"/></svg>