<svg version="1.1" id="Layer_1" xmlns="http://www.w3.org/2000/svg" x="0" y="0" viewBox="0 0 500 500" xml:space="preserve"><style>.st0{fill:#0073ec}</style><path class="st0" d="M371.6 307.6c0-6.4-5.2-11.6-11.6-11.6s-11.6 5.2-11.6 11.6c0 6.4 5.2 11.6 11.6 11.6s11.6-5.2 11.6-11.6zm0-121.8c0-6.4-5.2-11.6-11.6-11.6-6.4 0-11.6 5.2-11.6 11.6 0 6.4 5.2 11.6 11.6 11.6 6.4 0 11.6-5.2 11.6-11.6z"/><circle transform="rotate(-13.295 446.782 307.352)" class="st0" cx="446.7" cy="307.3" r="11.6"/><path class="st0" d="M483.1 251.6l-170.3.3c-3.4.1-6.1 2.7-6.2 6.1-.2 3.4 2.5 6.3 5.9 6.5h.3l170.4-.3c2.3 0 4.2 1.9 4.2 4.2v78.2c0 2.3-1.9 4.2-4.2 4.2H134.8c-2.3 0-4.2-1.9-4.2-4.2l-.4-19.1c0-3.2-2.4-5.9-5.6-6.3h-.1c-3.5-.3-6.5 2.2-6.9 5.7v.6l.3 19.1c.1 9.3 7.6 16.8 16.9 16.8h348.3c9.3 0 16.8-7.4 16.9-16.7v-78.2c0-9.3-7.6-16.9-16.9-16.9z"/><circle transform="rotate(-13.295 404.605 307.363)" class="st0" cx="404.5" cy="307.3" r="11.6"/><circle class="st0" cx="446.6" cy="185.8" r="11.6"/><circle class="st0" cx="404.4" cy="185.8" r="11.6"/><path class="st0" d="M483.1 373.4H134.8c-9.3 0-16.9 7.6-16.9 16.9v78.1c0 9.3 7.6 16.9 16.9 16.9h348.3c9.3 0 16.9-7.6 16.9-16.9v-78.1c0-9.3-7.6-16.9-16.9-16.9zm4.3 95c0 .8-.3 1.7-.7 2.4l-.5.6c-.8.8-1.9 1.2-3 1.2H134.8c-2.3 0-4.2-1.9-4.2-4.2v-78.1c-.1-1.1.4-2.2 1.2-3 .8-.8 1.9-1.2 3-1.2h348.4c.6 0 1.2.1 1.7.3l1.2.8h.1l.5.6c.4.7.7 1.6.7 2.4v78.2z"/><path class="st0" d="M404.4 417.7c-6.4 0-11.6 5.2-11.6 11.6s5.2 11.6 11.6 11.6c6.4 0 11.6-5.2 11.6-11.6 0-6.4-5.2-11.6-11.6-11.6zm-44.4.1c-6.4 0-11.6 5.2-11.6 11.6S353.6 441 360 441c6.4 0 11.6-5.2 11.6-11.6.1-6.4-5-11.5-11.4-11.6h-.2zm86.6-.1c-6.4 0-11.6 5.2-11.6 11.6s5.2 11.6 11.6 11.6c6.4 0 11.6-5.2 11.6-11.6s-5.2-11.6-11.6-11.6zm36.5-287.9l-168.8.3c-3 0-5.4 2.4-5.5 5.4v1.8c0 3 2.4 5.4 5.4 5.4l169-.3c2.3 0 4.2 1.9 4.2 4.2v78.2c0 2.3-1.9 4.2-4.2 4.2l-170.5.3c-2.9 0-5.3 2.4-5.4 5.3v1.8c-.1 3 2.2 5.5 5.2 5.6h.2l165-.3c12.3-.1 22.2-9.9 22.3-22.2v-72.8c0-9.3-7.6-16.9-16.9-16.9z"/><path class="st0" d="M154 309.3h107.1c17-.1 33-12.6 33.5-29.1.8-31.1 0-124.9 0-124.9 0-18.5-15-33.5-33.5-33.5v-17.3l38.2-38.2h.1c2.7 1.3 5.6 2 8.6 2 11.2 0 20.2-9 20.3-20.1s-9-20.2-20.1-20.3c-11.2 0-20.2 9-20.3 20.1 0 3.1.7 6.1 2 8.9h-.1L249.7 97c-1.3 1.2-2 2.9-2 4.7v20.1h-13.4V96.1a6.7 6.7 0 00-13.4 0v25.7h-13.4v-47c10.5-3.7 16-15.2 12.3-25.6-3.7-10.5-15.2-16-25.6-12.3s-16 15.2-12.3 25.6v.1c2 5.7 6.6 10.2 12.3 12.2v47h-13.4V96.1a6.7 6.7 0 00-13.4 0v25.7H154V74.9c0-1.8-.7-3.5-2-4.7l-26.8-26.8c1.3-2.7 2-5.6 2-8.6.1-11.1-8.9-20.1-20-20.2s-20.1 8.9-20.2 20 8.9 20.1 20 20.2h.1c3 .1 5.9-.6 8.6-2h.1l24.8 24.8v44.1c-18.5 0-33.5 15-33.5 33.5h-24l-18.1-18h-.1c1.3-2.7 2-5.6 2.1-8.6 0-11.1-9-20.1-20.1-20.1-11.1 0-20.1 9-20.1 20.1s9 20.1 20.1 20.1c3 0 5.9-.7 8.6-2l20.1 20.1c1.2 1.3 2.9 2 4.7 2h26.8v13.4H67c-1.5 0-3 .5-4.2 1.4l-29.6 23.6c-3.6-3.2-8.3-5.1-13.1-5.1-11.1 0-20.1 9-20.1 20.1 0 11.1 9 20.1 20.1 20.1s20.1-9 20.1-20.1c0-1.1-.2-2.1-.4-3.2l29.5-23.6h37.8v13.4H87a6.7 6.7 0 000 13.4h20.1v13.4H60.3a6.7 6.7 0 000 13.4h46.8v13.4H73.6c-2.2 0-4.3 1.1-5.5 3L42 304.5c-2.7-1.2-5.6-1.9-8.5-1.9-11.2 0-20.2 9-20.3 20.1s9 20.2 20.1 20.3 20.2-9 20.3-20.1c0-3.1-.7-6.1-2-8.9l.9-1 24.7-37.2h29.9c.1 18.5 15 33.4 33.5 33.5H154zM304.2 42.6c1.1-.7 2.5-1.1 3.8-1.1.9 0 1.8.1 2.6.5 2.5 1 4.1 3.5 4.1 6.2 0 2.4-1.3 4.5-3.4 5.7-1 .6-2.1.9-3.3.9-1.3 0-2.7-.4-3.8-1.1-3.1-2.2-3.8-6.4-1.6-9.5.4-.6 1-1.2 1.6-1.6zm-193.3-2.3c-1.1.8-2.4 1.2-3.8 1.2a6.7 6.7 0 010-13.4c1.3 0 2.7.4 3.8 1.1 1.8 1.3 2.9 3.4 2.9 5.6 0 2.2-1.1 4.2-2.9 5.5zM50.6 134c-1.1.8-2.4 1.2-3.7 1.2-3.7 0-6.7-3-6.7-6.7 0-1.8.7-3.5 1.9-4.7.1-.1.2-.1.2-.2.4-.4.9-.7 1.4-1 1-.5 2.1-.8 3.2-.8 1.3 0 2.6.4 3.7 1.1 1.9 1.3 3 3.4 3 5.6 0 2.2-1.1 4.3-3 5.5zm-25.1 92.1c-1.2 1.8-3.3 2.8-5.4 2.8-3.7 0-6.7-3-6.7-6.7 0-1.8.7-3.5 2-4.7 1.2-1.3 2.9-2 4.7-2 3.7 0 6.7 3 6.7 6.7 0 1.4-.5 2.8-1.3 3.9zm12.7 101.3c-.6.6-1.3 1.1-2.1 1.4-.8.4-1.7.6-2.6.6a6.7 6.7 0 010-13.4c.9 0 1.8.1 2.6.5.8.3 1.5.8 2.1 1.4 2.6 2.5 2.7 6.7.2 9.3l-.2.2zM200.9 49.3c3.6-.1 6.5 2.8 6.6 6.4v.3c0 2.2-1.1 4.3-2.9 5.5-2.2 1.6-5.3 1.6-7.5 0l-1-.8c-2.6-2.6-2.6-6.9.1-9.5 1.2-1.2 2.9-1.9 4.7-1.9zm-66.8 245.5l-1.5-.6c-7.4-3.1-12.1-10.4-12.1-18.4V155.3c0-11.1 9-20.1 20.1-20.1h120.5c3.3 0 6.6.8 9.6 2.4 6.5 3.6 10.5 10.3 10.5 17.7v120.5c0 11.1-9 20.1-20.1 20.1H140.6c-2 0-4.1-.3-6-.9l-.5-.2z"/><path class="st0" d="M161.7 271.5H240c9.3 0 16.9-7.6 16.9-16.9v-78.2c-.1-9.3-7.6-16.8-16.9-16.8h-78.3c-9.3 0-16.8 7.5-16.9 16.8v78.2c0 9.3 7.6 16.9 16.9 16.9zm-4.2-95.1c0-1.1.4-2.1 1.2-2.9.8-.8 1.9-1.3 3-1.3h78.4c.6 0 1.2.2 1.7.4l1.2.8h.1l.5.6c.5.7.7 1.5.7 2.3v78.2c0 .9-.2 1.7-.7 2.4l-.5.6c-.8.8-1.9 1.2-3 1.2h-78.4c-2.3 0-4.2-1.9-4.2-4.2v-78.1z"/></svg>