<svg version="1.1" id="Layer_1" xmlns="http://www.w3.org/2000/svg" x="0" y="0" viewBox="0 0 500 500" xml:space="preserve"><style>.st0{fill:#0073ec}</style><path class="st0" d="M82.4 68.3c-4.1 0-7.4 3.3-7.4 7.4s3.3 7.4 7.4 7.4 7.4-3.3 7.4-7.4c0-4-3.3-7.3-7.4-7.4zm38.2 0c-4-.1-7.3 3.2-7.4 7.2v.2c0 4.1 3.3 7.4 7.4 7.4 4.1 0 7.4-3.3 7.4-7.4 0-4.1-3.3-7.3-7.4-7.4zm-76.4 0c-4-.1-7.3 3.2-7.4 7.2v.2c0 4.1 3.3 7.4 7.4 7.4s7.4-3.3 7.4-7.4c0-4-3.3-7.4-7.4-7.4z"/><path class="st0" d="M6.2 334.2c3.8.4 7.3-2.4 7.7-6.2V110.8h409.8l-.1 81.3c.1 3.8 3.1 6.9 6.9 7 3.8.2 7.1-2.8 7.2-6.6V47.9c0-3.9-3.1-7-7-7H7c-3.8-.1-6.9 3-7 6.8V327c0 3.6 2.6 6.7 6.2 7.2zm159-279.3h258.4v41.9H165.2V54.9zM14 54.9h137.4v41.9H13.9l.1-41.9zm295.5 367.9H14v-67.3c.1-3.6-2.6-6.8-6.2-7.3-3.8-.4-7.3 2.4-7.7 6.3v75.1c0 3.9 3.1 7 7 7h302.5c1.9 0 3.7-.8 5-2.1 2.7-2.8 2.5-7.2-.3-9.9-1.2-1.1-3-1.8-4.8-1.8zm29.3-155.2c-6.3 0-11.4 5.1-11.4 11.4 0 6.3 5.1 11.4 11.4 11.4 3 0 5.9-1.2 8.1-3.4 4.3-4.5 4.3-11.5 0-16-2.2-2.2-5.1-3.4-8.1-3.4z"/><path class="st0" d="M462.8 242.6c-40.8-40.8-104-48.9-153.8-19.8v-.3l3.7-15.1c.6-2.6 1.1-5.2 1.3-7.8.1-.8.2-1.5.2-2.3.1-2.3.2-4.4.2-6.7v-1.7c-.1-2.3-.4-4.4-.6-6.7-.2-1-.4-2.1-.5-3.1-.2-1.4-.6-2.9-.8-4.3-.5-1.9-1.1-3.8-1.7-5.6-.4-1.2-.7-2.4-1.2-3.6s-1.2-2.9-1.8-4.2c-.2-.5-.4-.8-.5-1.1s-.2-.4-.2-.5c-3.2-6.7-7.6-12.9-12.8-18.2-2.1-2.1-5.4-2.4-7.9-.7l-20 13.3c-21.1 14-26.9 42.5-12.9 63.6.5.7.9 1.3 1.4 2 .2.3.4.6.6.8.9 1.2 1.9 2.4 3 3.5l.2 163.1h.2c0 7.8 6.8 14 15.2 14H294c7.5 0 13.7-4.9 15-11.5v1.8h38.4c2.5.5 4.8 1.7 6.6 3.5 4.9 4.8 4.9 12.7.1 17.5l-.1.1c-10.6 10.7-10.6 27.9 0 38.6 5 5.2 12 8 19.2 8 70.1 0 126.9-56.8 126.9-126.8 0-33.8-13.4-66.1-37.3-89.8zm-162.7-67.2c.6 2 1.1 4 1.3 6.1 0 .4.1.7.1 1.2.2 1.9.4 3.7.5 5.6.1.6.1 1.1 0 1.7 0 1.8-.1 3.7-.2 5.5-.1.6-.1 1.1-.1 1.7-.2 2.4-.6 4.7-1.2 7l-2.6 11h-30.1c-1.5-1.7-2.9-3.5-4.1-5.4-.2-.2-.4-.5-.5-.7-1-1.7-1.9-3.5-2.5-5.4-.1-.1-.1-.1-.1-.2l10.9-10.9c1.5-1.6 3.7-2.4 5.9-2.4 6 0 11.7-2.6 15.7-7l7-8v.2zm-3.7 52.4v12.6h-25.1v-12.6h25.1zm-22.8-63.2l15.5-10.3c2 2.5 3.8 5 5.5 7.4l-11 12.6c-1.5 1.8-3.8 2.9-6.1 2.9-5.5 0-10.8 2.2-14.6 6.1l-3.5 3.5c1.4-9 6.5-17.1 14.2-22.2zm-2 222.5l-.3-134.1h25.1l.2 134.1h-25zm101.6 57.2c-3.3 0-6.4-1.3-8.8-3.6-4.9-4.8-4.9-12.6-.1-17.5l.1-.1c10.5-10.7 10.5-27.9 0-38.6-4.1-4.2-9.5-6.9-15.4-7.8-.4-.1-.7-.1-1.1-.1v-.4h-38.7l-.2-135.8c18.8-13.1 41.2-20.1 64.1-20 61.6 0 111.9 50.4 111.9 112 0 61.8-50.1 111.9-111.8 111.9z"/><path class="st0" d="M385.1 253.7c-6.3 0-11.4 5.1-11.4 11.4s5.1 11.4 11.4 11.4 11.4-5.1 11.4-11.4c0-6.3-5.1-11.4-11.4-11.4z"/><circle transform="matrix(.03839 -.9993 .9993 .03839 100.416 772.835)" class="st0" cx="451.8" cy="334.2" r="11.4"/><path class="st0" d="M431.5 371.9c-3 0-6 1.2-8.1 3.4-4.4 4.4-4.4 11.6 0 16 4.5 4.5 11.7 4.5 16.2 0 4.3-4.4 4.3-11.6 0-16-2.2-2.2-5.1-3.5-8.1-3.4zm.1-75.3c3 0 6-1.2 8.1-3.4 4.4-4.2 4.4-11.4 0-16-4.5-4.5-11.7-4.5-16.2 0-4.3 4.4-4.3 11.6 0 16 2.1 2.2 5 3.4 8.1 3.4zM219 299.1H49.8c-3.4 0-6.2 2.8-6.2 6.2s2.8 6.2 6.2 6.2H219c3.4.1 6.2-2.7 6.2-6v-.2c0-3.4-2.7-6.2-6.2-6.2zm0 37.9H49.8c-3.4 0-6.2 2.8-6.2 6.2s2.8 6.2 6.2 6.2H219c3.4 0 6.2-2.8 6.2-6.2s-2.8-6.2-6.2-6.2zm0 37.8H49.8c-3.4 0-6.2 2.8-6.2 6.2s2.8 6.2 6.2 6.2H219c3.4 0 6.2-2.8 6.2-6.2s-2.8-6.2-6.2-6.2zM60.8 273h147.1c9.2 0 16.6-7.5 16.6-16.6v-100c0-9.2-7.5-16.6-16.6-16.6H60.8c-9.2 0-16.6 7.5-16.6 16.6v100c0 9.1 7.4 16.6 16.6 16.6zm-4.1-116.7c0-2.3 1.9-4.1 4.1-4.1H208c2.3 0 4.1 1.9 4.1 4.1v100c0 2.3-1.9 4.1-4.1 4.1H60.8c-2.3 0-4.1-1.9-4.1-4.1v-100z"/></svg>