<svg version="1.1" id="Layer_1" xmlns="http://www.w3.org/2000/svg" x="0" y="0" viewBox="0 0 500 500" xml:space="preserve"><style>.st1{fill:#0073ec}</style><path d="M176 54.1h275.2v44.7H176V54.1zm50 147.1c-4.6-10.8-11.3-20.6-19.6-28.9-8.4-8.3-18.2-14.9-29.1-19.5-22.7-9.6-48.2-9.6-70.9 0a93.58 93.58 0 00-29.1 19.5c-8.3 8.3-15 18.1-19.6 28.9-9.6 22.7-9.6 48.2 0 70.9 9.3 21.9 26.8 39.4 48.7 48.7 22.7 9.6 48.2 9.6 70.9 0 21.9-9.3 39.4-26.8 48.7-48.7 9.6-22.6 9.6-48.2 0-70.9zm-139.7 98c-5.7-5.1-10.8-11-14.9-17.5-4.2-6.6-7.5-13.7-9.7-21.2-2.3-7.7-3.4-15.7-3.4-23.8 0-11.5 2.3-22.9 6.9-33.4l40.2 108.6c-6.9-3.3-13.4-7.6-19.1-12.7zm55.6 21.2c-4 0-8-.3-12-.9-3.9-.6-7.8-1.4-11.6-2.5l25.1-72.3 26.3 70.7c-9 3.3-18.4 5-27.8 5zM153.3 197c1.5-.1 3-.3 4.5-.3 1.6-.1 3.2-.3 4.7-.6 2.4-.3 3.4-1.5 3.1-3.6-.1-.9-.6-1.7-1.3-2.2-.7-.6-1.6-.9-2.5-.9-8.8.5-14.9.9-18.2 1.4-4.6.5-9.2.5-13.8 0l-8.8-.8-3.1-.4c-.8-.3-1.8-.1-2.5.4s-1.2 1.3-1.3 2.2c-.3.8-.1 1.8.4 2.5.6.7 1.4 1.2 2.3 1.3.2 0 1 .1 2.6.3s3.8.5 6.6.8l13.2 35.4-18.4 54.3L90.2 197c1.7-.1 3.2-.3 4.7-.3 1.6-.1 3.2-.3 4.7-.6 2.4-.3 3.4-1.5 3.2-3.6-.1-.9-.6-1.7-1.3-2.2-.7-.6-1.6-.9-2.5-.9-4.9.7-9.9 1.2-14.8 1.4-4.5.1-8.5.1-12.1 0 7.5-11.4 17.6-20.7 29.5-27.3 21.9-11.9 47.9-13.5 71.1-4.5 9.5 3.8 18.2 9.3 25.7 16.2-2.5-.3-5.1 0-7.4 1-2.4 1-4.6 3.2-6.5 6.6-1.3 2.6-1.8 5.5-1.3 8.4.5 3.2 1.4 6.3 2.7 9.2 1.3 3 2.8 5.9 4.6 8.6 1.4 2.2 2.7 4.4 3.9 6.7 2.2 3.9 3.5 8.2 3.7 12.7.3 5.3-.3 10.6-1.9 15.6-.6 2.4-1.5 5.5-2.7 9.4-1.1 3.4-2.4 7.9-3.9 13.2s-3.6 12.1-5.9 20.2L153.3 197zm69 62c-2 7-4.8 13.7-8.5 20-3.7 6.2-8.1 11.9-13.1 17-5.1 5.1-10.8 9.6-17.1 13.1.9-2.4 2.3-6.4 4.3-12.1s4-11.7 6.3-18c2.3-6.4 4.4-12.5 6.3-18.3 1.9-5.8 3.4-10 4.3-12.6 2.1-6 4.3-12.3 6.5-18.9 2.4-7.1 3.9-14.5 4.7-22 .1-1.6.2-3.3.2-4.8 0-1.6-.2-3.2-.4-4.8 9.8 18.9 12.1 40.8 6.5 61.4zM161.2 54.1H14.8v44.7h146.4V54.1zM47.1 84.2c-4.3 0-7.8-3.5-7.8-7.8-.1-4.3 3.4-7.8 7.6-7.8h.2c4.3 0 7.8 3.5 7.8 7.9.1 4.1-3.4 7.7-7.8 7.7zm40.6 0c-4.3 0-7.8-3.5-7.8-7.9 0-4.3 3.5-7.8 7.9-7.8 4.3 0 7.8 3.5 7.8 7.8s-3.5 7.8-7.9 7.9zm40.8 0c-4.3 0-7.8-3.5-7.8-7.8s3.4-7.8 7.7-7.8h.2c4.3 0 7.9 3.5 7.9 7.8-.2 4.2-3.7 7.8-8 7.8z" fill="none"/><path class="st1" d="M87.7 68.5c-4.3 0-7.8 3.5-7.8 7.9 0 4.3 3.5 7.8 7.9 7.8 4.3 0 7.8-3.5 7.8-7.8 0-4.4-3.5-7.9-7.9-7.9zm40.8 0c-4.3 0-7.8 3.4-7.8 7.7v.2c0 4.3 3.5 7.9 7.8 7.9s7.9-3.5 7.9-7.8c-.1-4.5-3.6-8-7.9-8zm-81.4 0c-4.3-.1-7.8 3.4-7.8 7.6v.2c0 4.3 3.5 7.8 7.8 7.8s7.9-3.5 7.9-7.8-3.5-7.8-7.9-7.8z"/><path class="st1" d="M6.6 351.7c4.1.4 7.8-2.6 8.2-6.7V113.6h436.5V190c0 4.1 3.3 7.4 7.4 7.5 4.1.2 7.5-3 7.7-7v-.3l-.1-143.5c0-4.1-3.3-7.5-7.4-7.5H7.5C3.4 39.1.1 42.4 0 46.4v297.5c-.1 3.9 2.8 7.2 6.6 7.8zM176 54.1h275.2v44.7H176V54.1zm-161.1 0h146.3v44.7H14.8l.1-44.7zm218.4 300.5H53c-3.7-.1-6.7 2.7-6.9 6.4-.1 3.7 2.7 6.7 6.4 6.9h180.8c3.7.1 6.7-2.7 6.9-6.4.1-3.7-2.7-6.7-6.4-6.9h-.5zm0 40.3H53c-3.7 0-6.6 3-6.6 6.6s3 6.6 6.6 6.6h180.3c3.7 0 6.6-3 6.6-6.6s-3-6.6-6.6-6.6zm112.2-37.6c0 3.9 3.1 7.1 7.1 7.2h77.5c3.9 0 7.1-3.2 7.2-7.1v-37.5c0-3.9-3.2-7.1-7.1-7.2h-77.5c-3.9-.1-7.1 3.1-7.2 7v37.6zm54.1-63.2c3.5 0 6.2-2.8 6.3-6.3v-39.2c0-3.5-2.8-6.3-6.3-6.3h-47.9c-3.4 0-6.2 2.7-6.2 6.1v39.4c0 3.5 2.8 6.2 6.3 6.3h47.8z"/><path class="st1" d="M492.9 246.4c3.9 0 7.1-3.2 7.1-7.1v-5.9c0-14.5-11.8-26.3-26.3-26.3H333.4c-14.5 0-26.3 11.8-26.3 26.3v140.1c0 14.5 11.8 26.3 26.3 26.3h140.3c14.5 0 26.3-11.7 26.3-26.2v-68c0-14.5-11.8-26.3-26.3-26.3h-28.9c-3.9-.1-7.2 2.9-7.3 6.8s2.9 7.2 6.8 7.3h29.4c6.7 0 12.2 5.4 12.2 12.1v68c0 6.7-5.4 12.2-12.2 12.2H333.4c-6.7 0-12.1-5.4-12.1-12.2V233.4c0-6.7 5.4-12.2 12.1-12.2h140.3c6.7 0 12.2 5.4 12.2 12.2v5.9c0 3.9 3.1 7.1 7 7.1zm-34.7 172.7c-3.8.5-6.7 3.9-6.6 7.7V446H15v-71.6c0-3.9-2.8-7.2-6.6-7.7-4.1-.4-7.8 2.6-8.2 6.7v80.1c0 4.1 3.4 7.5 7.5 7.5H459c4.1 0 7.5-3.3 7.5-7.5v-26.8c0-4.1-3.3-7.5-7.4-7.5-.4-.1-.7-.1-.9-.1zM189.5 266.7c1.6-5.4 2.9-9.8 3.9-13.2 1.2-3.9 2.1-7 2.7-9.4 1.6-5 2.2-10.3 1.9-15.6-.2-4.5-1.5-8.8-3.7-12.7-1.2-2.3-2.5-4.6-3.9-6.7-1.8-2.8-3.3-5.6-4.6-8.6-1.3-2.9-2.2-6-2.7-9.2-.5-2.9 0-5.8 1.3-8.4 2-3.4 4.1-5.6 6.5-6.6 2.3-1 4.9-1.3 7.4-1-7.5-6.9-16.2-12.4-25.7-16.2a84.34 84.34 0 00-71.1 4.4C89.6 170 79.4 179.4 72 190.8c3.6.1 7.6.1 12.1 0 5-.2 9.9-.6 14.9-1.4.9 0 1.8.3 2.5.9.7.5 1.2 1.3 1.3 2.2.3 2.1-.8 3.3-3.2 3.6-1.6.3-3.1.5-4.7.6-1.5.1-3.1.2-4.7.3l30.5 90 18.4-54.3-13.2-35.4c-2.8-.3-5-.6-6.6-.8s-2.4-.3-2.6-.3c-.9-.1-1.7-.6-2.3-1.3-.6-.7-.7-1.6-.4-2.5.1-.9.6-1.7 1.3-2.2.7-.6 1.6-.8 2.5-.4l3.2.4 8.9.7c4.6.5 9.2.5 13.8 0 3.3-.4 9.4-.9 18.2-1.4.9 0 1.8.3 2.5.9.7.5 1.2 1.3 1.3 2.2.3 2.1-.7 3.3-3.1 3.6-1.6.3-3.1.5-4.7.6l-4.5.3 30.3 90c2.3-8.2 4.2-15 5.8-20.4z"/><path class="st1" d="M118.3 317c3.8 1.1 7.7 1.9 11.5 2.5 13.4 2 27.1.6 39.8-4l-26.3-70.7-25 72.2z"/><path class="st1" d="M232.4 198.5c-5-11.7-12.1-22.3-21.1-31.2-9-8.9-19.6-16-31.3-21a98.065 98.065 0 00-76.3 0c-23.5 9.9-42.3 28.7-52.2 52.2a98.065 98.065 0 000 76.3c5 11.7 12.1 22.3 21 31.3s19.5 16.1 31.2 21.1c24.4 10.3 51.9 10.3 76.3 0 23.6-10 42.4-28.8 52.4-52.4 10.3-24.4 10.3-51.9 0-76.3zm-6.4 73.6c-9.3 21.9-26.8 39.4-48.7 48.7-22.7 9.6-48.2 9.6-70.9 0-21.9-9.3-39.4-26.8-48.7-48.7-9.6-22.7-9.6-48.2 0-70.9 4.6-10.8 11.3-20.6 19.6-28.9 8.4-8.3 18.2-14.9 29.1-19.5 22.7-9.6 48.2-9.6 70.9 0a93.58 93.58 0 0129.1 19.5c8.4 8.3 15 18.1 19.7 28.9 9.5 22.7 9.5 48.3-.1 70.9z"/><path class="st1" d="M216.1 202.4c0 1.6-.1 3.2-.2 4.8-.8 7.5-2.3 14.9-4.7 22-2.2 6.6-4.4 12.9-6.5 18.9-.9 2.5-2.3 6.7-4.3 12.6-1.9 5.8-4 11.9-6.3 18.3-2.2 6.3-4.3 12.4-6.3 18.1s-3.4 9.7-4.3 12.1c6.3-3.6 12-8 17.1-13.2 5.1-5.1 9.5-10.8 13.1-17 3.7-6.3 6.6-13 8.5-20 5.7-20.6 3.3-42.5-6.6-61.4.3 1.6.5 3.2.5 4.8zM58.3 236.7c0 8 1.1 16.1 3.4 23.8 2.2 7.5 5.4 14.6 9.7 21.2 4.2 6.5 9.2 12.4 14.9 17.5 5.7 5.1 12.2 9.4 19.2 12.7L65.3 203.2c-4.6 10.6-7 22-7 33.5z"/></svg>