<svg version="1.1" id="Layer_1" xmlns="http://www.w3.org/2000/svg" x="0" y="0" viewBox="0 0 500 500" xml:space="preserve"><style>.st1{fill:#0073ec}</style><path d="M481.4 243.8H95.8c-2.6 0-4.6 2.1-4.6 4.6V335c0 2.6 2.1 4.6 4.6 4.6h385.6c2.6 0 4.6-2.1 4.6-4.6v-86.6c.1-2.5-2-4.6-4.6-4.6zm-136.3 60.8c-7.1 0-12.9-5.7-12.9-12.9 0-7.1 5.7-12.9 12.9-12.9 7.1 0 12.9 5.7 12.9 12.9 0 7.1-5.8 12.9-12.9 12.9zm49.1-.1c-7.1 0-12.9-5.7-12.9-12.9 0-7.1 5.7-12.9 12.9-12.9 7.1 0 12.9 5.7 12.9 12.9s-5.7 12.9-12.9 12.9c.1 0 0 0 0 0zm46.7 0c-7.1 0-12.9-5.8-12.9-12.9s5.8-12.9 12.9-12.9 12.9 5.8 12.9 12.9c0 7.2-5.7 12.9-12.9 12.9.1 0 .1 0 0 0zM481.4 109H300v23.8c0 15.5-12.5 28-28 28h-87.5l12 29.5-52.8-29.5H91.2v39.4c0 2.6 2.1 4.6 4.6 4.6h385.6c2.6 0 4.6-2.1 4.6-4.6v-86.5c.1-2.6-2-4.7-4.6-4.7zm-136.3 60.8c-7.1 0-12.8-5.8-12.8-12.9 0-7.1 5.8-12.8 12.9-12.8 7.1 0 12.8 5.8 12.8 12.9-.1 7.1-5.8 12.8-12.9 12.8zm49.1 0c-7.1 0-12.9-5.7-12.9-12.9 0-7.1 5.7-12.9 12.9-12.9 7.1 0 12.9 5.7 12.9 12.8 0 7.2-5.8 13-12.9 13zm46.7 0c-7.1 0-12.9-5.8-12.9-12.9s5.8-12.9 12.9-12.9c7.1 0 12.9 5.8 12.9 12.9 0 7.1-5.8 12.9-12.9 12.9zm40.5 208.8H95.8c-2.6 0-4.6 2.1-4.6 4.6v86.5c0 2.6 2.1 4.6 4.6 4.6h385.6c2.6 0 4.6-2.1 4.6-4.6v-86.5c.1-2.6-2-4.6-4.6-4.6zm-136.3 60.8c-7.1 0-12.9-5.7-12.9-12.9s5.7-12.9 12.9-12.9 12.9 5.7 12.9 12.9c0 7.1-5.8 12.8-12.9 12.9zm49.1-.1c-7.1 0-12.9-5.7-12.9-12.9s5.7-12.9 12.9-12.9 12.9 5.7 12.9 12.9c0 7.1-5.7 12.9-12.9 12.9.1 0 0 0 0 0zm46.7 0c-7.1 0-12.9-5.8-12.9-12.9s5.8-12.9 12.9-12.9 12.9 5.8 12.9 12.9c0 7.1-5.7 12.9-12.9 12.9.1 0 .1 0 0 0z" fill="none"/><path class="st1" d="M440.9 278.8c-7.1 0-12.9 5.8-12.9 12.9s5.8 12.9 12.9 12.9 12.9-5.8 12.9-12.9c0-7.1-5.7-12.9-12.9-12.9.1 0 .1 0 0 0z"/><path class="st1" d="M481.3 229.8H95.8c-10.3 0-18.6 8.4-18.7 18.7V335c0 10.3 8.4 18.6 18.7 18.7h385.5c10.3 0 18.6-8.4 18.7-18.7v-86.6c0-10.3-8.4-18.6-18.7-18.6zm4.8 105.2c0 2.6-2.1 4.6-4.6 4.6H95.8c-2.6 0-4.6-2.1-4.6-4.6v-86.6c0-2.6 2.1-4.6 4.6-4.6h385.6c2.6 0 4.6 2.1 4.6 4.6V335z"/><path class="st1" d="M394.2 278.8c-7.1 0-12.9 5.7-12.9 12.9s5.7 12.9 12.9 12.9 12.9-5.7 12.9-12.9c0-7.1-5.7-12.9-12.9-12.9.1 0 0 0 0 0zm-49.1.1c-7.1 0-12.9 5.7-12.9 12.9s5.7 12.9 12.9 12.9S358 299 358 291.8s-5.8-12.9-12.9-12.9z"/><circle class="st1" cx="440.9" cy="156.9" r="12.9"/><path class="st1" d="M481.3 95H300V39.6c0-15.5-12.5-28-28-28H27.8C12.4 11.6 0 24.1 0 39.4v93.4c0 15.5 12.5 28 28 28h49.1v39.4c0 10.3 8.4 18.6 18.7 18.7h385.5c10.3 0 18.6-8.4 18.7-18.7v-86.5c0-10.3-8.4-18.7-18.7-18.7zM224.4 59.6c7.5-12.1 17-18.3 28.7-18.3 2.2 0 4.4.2 6.6.7 8.3 1.6 15.5 6.8 19.5 14.2 4 6.7 6 14.5 5.9 24 .1 12.2-3.2 24.1-9.5 34.5-7.4 12.1-16.9 18.3-28.7 18.3-2.2 0-4.4-.2-6.6-.7-8.3-1.6-15.5-6.8-19.5-14.2-4-6.7-5.9-14.7-5.9-24.2-.1-12.1 3.2-24 9.5-34.3zm-47.6-18.3c2.2 0 4.4.2 6.6.7 8.3 1.6 15.4 6.8 19.5 14.2 3.9 6.7 5.9 14.5 5.9 24 .1 12.2-3.2 24.1-9.5 34.5-7.4 12.1-16.9 18.3-28.7 18.3-2.2 0-4.4-.2-6.6-.7-8.3-1.6-15.5-6.8-19.5-14.2-4-6.7-5.9-14.7-5.9-24.2-.1-12.1 3.2-24 9.5-34.4 7.5-12.1 17-18.2 28.7-18.2zM44 146.2c-3.3.2-6.1-2.6-8.5-8.4-6.2-16-12.9-46.9-20.1-92.6-.8-2.8-.2-5.8 1.7-8 1.7-2.3 4.3-3.5 7.7-3.8 6.2-.5 9.8 2.5 10.7 8.7 3.8 25.5 7.9 47 12.4 64.7l26.8-51c2.5-4.7 5.4-7 9.2-7.4 5.3-.3 8.6 3.1 10 10.2 3.1 16.2 6.9 30 11.6 41.7 3.2-30.9 8.5-53.3 16.1-67.1 1.5-3.1 4.6-5.2 8-5.3 2.8-.2 5.6.7 7.7 2.5 2.2 1.7 3.6 4.2 3.8 6.9.2 2-.3 4.1-1.3 5.9-4.8 8.7-8.6 23.6-11.8 44-3.1 19.8-4.2 35.4-3.4 46.5.3 2.8-.2 5.5-1.5 8-1.2 2.5-3.7 4.2-6.5 4.4-3.2.2-6.5-1.2-9.6-4.5-11.3-11.6-20.4-28.9-27-51.9-8 15.7-13.9 27.4-17.6 35.2-7.2 13.9-13.3 21-18.4 21.3zm442.1 54c0 2.6-2.1 4.6-4.6 4.6H95.8c-2.6 0-4.6-2.1-4.6-4.6v-39.4h52.5l52.8 29.5-12-29.5H272c15.5 0 28-12.5 28-28V109h181.4c2.6 0 4.6 2.1 4.6 4.7v86.5z"/><circle class="st1" cx="345.1" cy="157" r="12.9"/><circle transform="rotate(-67.5 394.224 156.901)" class="st1" cx="394.2" cy="156.9" r="12.9"/><circle transform="rotate(-67.5 394.218 426.43)" class="st1" cx="394.2" cy="426.4" r="12.9"/><circle class="st1" cx="345.1" cy="426.5" r="12.9"/><path class="st1" d="M481.3 364.5H95.8c-10.3 0-18.6 8.4-18.7 18.7v86.5c0 10.3 8.4 18.6 18.7 18.7h385.5c10.3 0 18.6-8.4 18.7-18.7v-86.5c0-10.3-8.4-18.7-18.7-18.7zm4.8 105.2c0 2.6-2.1 4.6-4.6 4.6H95.8c-2.6 0-4.6-2.1-4.6-4.6v-86.5c0-2.6 2.1-4.6 4.6-4.6h385.6c2.6 0 4.6 2.1 4.6 4.6v86.5z"/><circle class="st1" cx="440.9" cy="426.4" r="12.9"/><path class="st1" d="M237.6 103.9c1.8 4.8 4.2 7.4 7.1 7.9s6.4-.7 9.9-3.8c4.5-4 7.6-10 9.3-18 .6-3 .9-6.1.9-9.2 0-3.8-.8-7.6-2.2-11.1-1.8-4.8-4.2-7.4-7.1-7.9-4.4-.8-8.6 1.6-12.7 7.6-3.1 4.4-5.3 9.3-6.5 14.5-.6 3-1 6-.9 9 0 3.7.8 7.5 2.2 11zm-76.6 0c1.8 4.8 4.2 7.4 7.1 7.9s6.4-.7 9.9-3.8c4.5-4 7.6-10 9.3-18 .7-3 1-6.1.9-9.2 0-3.8-.8-7.6-2.1-11.1-1.8-4.8-4.2-7.4-7.1-7.9-4.4-.8-8.7 1.6-12.7 7.6-3.1 4.4-5.3 9.3-6.5 14.5-.6 3-1 6-.9 9 0 3.7.7 7.5 2.1 11z"/><path d="M106.9 141.8c3.2 3.3 6.5 4.8 9.6 4.5 2.8-.2 5.3-1.9 6.5-4.4 1.3-2.5 1.8-5.2 1.5-8-.8-11.1.3-26.7 3.4-46.5 3.2-20.4 7-35.3 11.8-44 1-1.8 1.5-3.9 1.3-5.9-.2-2.7-1.6-5.2-3.7-6.9-2.1-1.9-4.9-2.8-7.8-2.5-3.4.2-6.5 2.2-8 5.3-7.7 13.9-13.1 36.2-16.2 67.2-4.7-11.7-8.5-25.5-11.6-41.7-1.4-7.1-4.7-10.5-10-10.2-3.7.3-6.7 2.7-9.2 7.4L47.8 107c-4.4-17.7-8.6-39.2-12.4-64.7-.9-6.2-4.4-9.2-10.7-8.7-3.4.2-6 1.5-7.7 3.8-1.9 2.2-2.5 5.2-1.7 8 7.2 45.8 13.8 76.7 20.1 92.6 2.4 5.8 5.2 8.6 8.5 8.4 5.1-.3 11.2-7.4 18.4-21.2 3.7-7.8 9.6-19.5 17.6-35.2 6.6 22.8 15.7 40.2 27 51.8zm37.6-23.7c4.1 7.4 11.2 12.6 19.5 14.2 2.2.4 4.4.7 6.6.7 11.8 0 21.3-6.1 28.7-18.3 6.3-10.4 9.6-22.3 9.5-34.5 0-9.5-2-17.3-5.9-24-4.1-7.4-11.2-12.6-19.5-14.2-2.2-.4-4.4-.7-6.6-.7-11.7 0-21.2 6.1-28.7 18.3-6.3 10.3-9.6 22.2-9.5 34.4 0 9.3 1.9 17.4 5.9 24.1zm15.3-34.3c1.2-5.2 3.4-10.1 6.5-14.5 4-6 8.3-8.4 12.7-7.6 2.9.6 5.3 3.2 7.1 7.9 1.4 3.5 2.1 7.3 2.1 11.1.1 3.1-.2 6.2-.9 9.2-1.7 8-4.8 14.1-9.3 18-3.5 3.2-6.8 4.5-9.9 3.8s-5.3-3.2-7.1-7.9c-1.4-3.5-2.1-7.3-2.1-11.1-.1-3 .2-5.9.9-8.9zm61 34.3c4 7.4 11.2 12.6 19.5 14.2 2.2.4 4.4.7 6.6.7 11.8 0 21.3-6.1 28.7-18.3 6.3-10.4 9.6-22.3 9.5-34.5.1-9.5-1.9-17.3-5.9-24-4-7.4-11.2-12.6-19.5-14.2-2.2-.4-4.4-.7-6.6-.7-11.7 0-21.2 6.1-28.7 18.3-6.3 10.3-9.6 22.2-9.5 34.4 0 9.3 1.9 17.4 5.9 24.1zm15.5-34.3c1.2-5.2 3.4-10.1 6.5-14.5 4.1-6 8.3-8.4 12.7-7.6 3 .6 5.3 3.2 7.1 7.9 1.4 3.5 2.1 7.3 2.2 11.1 0 3.1-.4 6.2-.9 9.2-1.7 8-4.8 14.1-9.3 18-3.5 3.2-6.8 4.5-9.9 3.8s-5.3-3.2-7.1-7.9c-1.4-3.5-2.1-7.3-2.1-11.1-.1-3 .2-5.9.8-8.9z" fill="#fff"/></svg>