<svg xmlns="http://www.w3.org/2000/svg" viewBox="0 0 200 148.9"><path d="M.5 78l1.2 15.8c0 .5.1 1 .2 1.5C14.3 170.5 190.8 168 200 79.1c.1-.9.1-1.8 0-2.7l-1.2-16.2L.5 78z" fill="#009950"/><path d="M198.6 65.2c-4 39.9-59 71.7-120.2 66.1C19.5 126-11.9 88.5 4.2 52 18.6 19.6 66.8-2.2 114.5.2c49.2 2.4 87.6 29.9 84.1 65z" fill="#00bf6c"/><path d="M93.1 124.5c46.7 1.9 89.9-19.8 97.6-50.1 8.3-32.5-26.1-63.3-78.6-66.9C58.3 3.9 11.6 30.6 9.5 64.8c-2.1 31.9 35.9 57.8 83.6 59.7zm1.3-8.5c-18.5-.8-36-5.9-48.7-14.4l1.2.1c7.9.4 14.8-3.3 15.4-8.2.6-4.9-22.1-13.1-6.5-35.8l12.3-18.4L88.9 91l-10.8-.5-.6 4.5 45.5 2.1.9-4.5-10.2-.5-8.1-21.5 20.5-27.8 17.1 50.8-9.6-.5-.9 4.5 25.5 1.2c-16 11.7-39.7 18.2-63.8 17.2zm82.1-42.5c-1.8 6.8-5.2 13-10.1 18.1l-20-64.8c23.1 10.7 34.5 28.8 30.1 46.7zm-66.1-55.2c8.1.5 16.2 1.9 24 4.1l-31.5 40.9-16.5-44.2c7.9-1.1 16-1.4 24-.8zm-38.6 3.9L39 70.4c-1.1 1.4-2.1 2.9-3 4.5l-1.3 2h.3c-2 4-2.8 8.6-2.1 13.1-19.3-24.4-3.3-55 37-67.2l1.9-.6z" fill="#fff"/></svg>