<svg xmlns="http://www.w3.org/2000/svg" viewBox="0 0 500 500"><path d="M440.6 400.8c-7.1 0-12.9-5.8-12.9-12.9s5.8-12.9 12.9-12.9 12.9 5.8 12.9 12.9c.1 7.1-5.7 12.8-12.9 12.9.1 0 .1 0 0 0zm-34-13c0-7.1-5.8-12.9-12.9-12.9-7.1 0-12.9 5.8-12.9 12.9 0 7.1 5.8 12.9 12.9 12.9 7.1 0 12.9-5.7 12.9-12.9zm74.7-62.2H288.5c-3.8 0-6.9 3.1-6.9 6.9 0 .4 0 .8.1 1.3v.2c.6 3.3 3.4 5.7 6.8 5.7h192.8c2.6 0 4.7 2.1 4.7 4.7v87c0 2.6-2.1 4.7-4.7 4.7H267.4c-2.4 0-4.6 1.2-5.9 3.2l-.1.1c-2.1 3.3-1.1 7.6 2.1 9.7 1.1.7 2.4 1.1 3.7 1.1h213.9c10.4 0 18.8-8.4 18.8-18.8v-87c.1-10.4-8.3-18.8-18.6-18.8zm-124 62.3c0-7.1-5.8-12.9-12.9-12.9s-12.9 5.8-12.9 12.9c0 7.1 5.8 12.9 12.9 12.9 7.1 0 12.8-5.8 12.9-12.9zm124-197.7H93.8c-10.4 0-18.8 8.4-18.8 18.8v7.5c0 3.9 3.2 7 7 7 .8 0 1.7-.2 2.5-.5l.2-.1c2.7-1 4.5-3.6 4.5-6.5V209c0-2.6 2.1-4.7 4.7-4.7h387.5c2.6 0 4.7 2.1 4.7 4.7v86.9c0 2.6-2.1 4.7-4.7 4.7H281.7c-3.9 0-7 3.2-7 7 0 .8.1 1.6.4 2.3v.1c1 2.8 3.6 4.6 6.5 4.6H481c10.4 0 18.7-8.4 18.8-18.8V209c.2-10.4-8.2-18.8-18.5-18.8-.1 0-.1 0 0 0zm-124 62.2c0-7.1-5.8-12.9-12.9-12.9-7.1 0-12.9 5.8-12.9 12.9 0 7.1 5.8 12.9 12.9 12.9 7.1.1 12.8-5.7 12.9-12.9zm96.3 0c0-7.1-5.8-12.9-12.9-12.9-7.1 0-12.9 5.8-12.9 12.9 0 7.1 5.8 12.9 12.9 12.9 7.1.1 12.9-5.7 12.9-12.9zm-47 0c0-7.1-5.8-12.9-12.9-12.9-7.1 0-12.9 5.8-12.9 12.9 0 7.1 5.8 12.9 12.9 12.9 7.1.1 12.9-5.7 12.9-12.9zm-304.5-68.6c3.4 0 6.2-2.8 6.2-6.2v-.6c-.1-.9-.2-1.7-.2-2.6-1.7-31 19.6-58.5 50-64.6 2.6-.5 4.6-2.6 5-5.3 2.7-20.5 20.2-35.8 40.9-35.9 5.6 0 11.2 1.1 16.3 3.4 2.9 1.3 6.4.1 7.9-2.7 18.5-33.6 53.9-54.4 92.2-54.4 57.5 0 104.8 46.8 105.3 104.3 0 2.9 2 5.3 4.8 6 24.6 5.6 42.1 27.3 42.3 52.5v.7c0 3 2.4 5.4 5.4 5.4h1.6c3 0 5.4-2.4 5.4-5.3v-.1c0-29.4-19.2-55.4-47.2-64.1-3.2-64.9-58.4-115-123.4-111.8-38.9 1.9-74.3 22.9-94.6 56.1-28.3-8.9-58.5 6.9-67.4 35.2-.5 1.6-.9 3.1-1.3 4.7-34.5 9-57.8 41.1-55.7 76.7.1 1 .1 2 .2 3 .5 3.3 3.2 5.6 6.3 5.6zM380.9 76.6c3.4 0 6.2-2.8 6.2-6.2 0-1.5-.5-2.9-1.4-4-16-19.5-39.9-30.8-65.2-30.8-3.4-.1-6.3 2.5-6.5 6-.1 3.4 2.5 6.3 6 6.5h.5c21.5 0 41.9 9.7 55.6 26.3 1.2 1.4 2.9 2.2 4.8 2.2zm-191 410.2c32.9-13.9 59.1-40.1 73-73 14.4-34 14.4-72.4 0-106.4-6.9-16.3-16.9-31-29.4-43.5-12.6-12.4-27.4-22.3-43.6-29.3-16.8-7.2-34.9-10.9-53.2-10.8-18.3-.1-36.4 3.6-53.2 10.8a136.17 136.17 0 00-72.7 72.7c-14.4 34-14.4 72.4 0 106.4 6.9 16.2 16.9 31 29.3 43.6 12.5 12.5 27.2 22.5 43.5 29.4 16.8 7.2 34.9 10.9 53.2 10.8 18.2.2 36.3-3.5 53.1-10.7zm-3.8-243.3c15.1 6.4 28.8 15.7 40.5 27.2 11.6 11.6 20.9 25.3 27.4 40.4 13.4 31.6 13.4 67.3 0 98.9-13 30.5-37.3 54.9-67.9 67.9-15.6 6.7-32.4 10.1-49.4 10-17 .1-33.8-3.3-49.4-10-30.5-13-54.8-37.3-67.9-67.9-13.4-31.6-13.4-67.3 0-98.9 6.4-15.1 15.7-28.8 27.4-40.4 11.7-11.5 25.4-20.8 40.5-27.2 15.6-6.7 32.4-10.1 49.4-10 17 0 33.8 3.4 49.4 10zm-47.2 128.3l36.6 98.5c-17.7 6.5-36.8 8.4-55.5 5.7-5.4-.8-10.8-2-16.1-3.4l35-100.8zm-82.6-75.4c-6.3.2-11.9.2-16.9 0 10.4-15.8 24.5-28.9 41.1-38 17-9.5 35.7-14.2 56.2-14.2 14.7-.1 29.3 2.7 43 8.1 13.2 5.3 25.3 12.9 35.8 22.5-3.5-.4-7.1.1-10.3 1.4-3.3 1.3-6.4 4.4-9.1 9.2-1.9 3.6-2.5 7.7-1.9 11.7.7 4.4 1.9 8.7 3.8 12.8 1.8 4.2 4 8.2 6.4 12 2.4 3.8 4.2 6.9 5.5 9.4 2.9 4.8 4.6 10.7 5.2 17.7.5 7.3-.4 14.7-2.7 21.7-.8 3.3-2.1 7.7-3.8 13.1-1.5 4.8-3.3 11-5.5 18.5s-4.9 16.9-8.3 28.1L152.6 305c2.1-.2 4.2-.4 6.3-.5 2.2-.1 4.4-.4 6.6-.8 3.3-.4 4.8-2.1 4.4-5-.2-1.2-.9-2.4-1.9-3.1-1-.8-2.2-1.3-3.4-1.3-12.3.6-20.8 1.2-25.3 1.9s-11 .6-19.2 0l-12.3-.9-4.4-.6c-1.2-.4-2.5-.2-3.4.6-1 .8-1.7 1.9-1.9 3.1-.4 1.2-.2 2.5.6 3.5s1.9 1.7 3.1 1.9c.2 0 1.4.2 3.6.5s5.3.7 9.2 1.1l18.4 49.4-25.7 75.7-42.5-125.3c2.3-.2 4.5-.4 6.6-.5 2.2-.1 4.4-.4 6.6-.8 3.3-.4 4.8-2.1 4.4-5-.2-1.2-.9-2.4-1.9-3.1-1-.8-2.1-1.2-3.4-1.3-7 1-13.9 1.7-20.8 1.9zM30 313.9l56 151.4c-9.7-4.5-18.7-10.5-26.7-17.7-8-7.2-15-15.4-20.8-24.4-5.9-9.2-10.4-19.1-13.5-29.6-3.1-10.8-4.7-21.9-4.7-33.2 0-15.9 3.3-31.8 9.7-46.5zm218.8 77.8c-2.7 9.8-6.7 19.1-11.8 27.9-5.1 8.6-11.3 16.6-18.3 23.8-7 7.2-15 13.3-23.8 18.3 1.3-3.3 3.2-9 5.9-16.9s5.6-16.3 8.8-25.2c3.1-8.9 6-17.4 8.8-25.5 2.7-8.1 4.7-14 5.9-17.5 2.9-8.3 5.9-17.1 9.1-26.3 3.3-10 5.5-20.2 6.6-30.7.2-2.3.3-4.5.3-6.7 0-2.3-.2-4.5-.6-6.7 13.8 26.2 17.1 56.8 9.1 85.5z" fill="#0073ec"/></svg>